G04 #@! TF.GenerationSoftware,KiCad,Pcbnew,(5.1.2)-2*
G04 #@! TF.CreationDate,2019-08-15T12:47:13-04:00*
G04 #@! TF.ProjectId,esp8266v1,65737038-3236-4367-9631-2e6b69636164,rev?*
G04 #@! TF.SameCoordinates,Original*
G04 #@! TF.FileFunction,Soldermask,Top*
G04 #@! TF.FilePolarity,Negative*
%FSLAX46Y46*%
G04 Gerber Fmt 4.6, Leading zero omitted, Abs format (unit mm)*
G04 Created by KiCad (PCBNEW (5.1.2)-2) date 2019-08-15 12:47:13*
%MOMM*%
%LPD*%
G04 APERTURE LIST*
%ADD10C,0.100000*%
G04 APERTURE END LIST*
D10*
G36*
X209852585Y-73408802D02*
G01*
X210002410Y-73438604D01*
X210284674Y-73555521D01*
X210538705Y-73725259D01*
X210754741Y-73941295D01*
X210924479Y-74195326D01*
X211041396Y-74477590D01*
X211101000Y-74777240D01*
X211101000Y-75082760D01*
X211041396Y-75382410D01*
X210924479Y-75664674D01*
X210754741Y-75918705D01*
X210538705Y-76134741D01*
X210284674Y-76304479D01*
X210002410Y-76421396D01*
X209852585Y-76451198D01*
X209702761Y-76481000D01*
X209397239Y-76481000D01*
X209247415Y-76451198D01*
X209097590Y-76421396D01*
X208815326Y-76304479D01*
X208561295Y-76134741D01*
X208345259Y-75918705D01*
X208175521Y-75664674D01*
X208058604Y-75382410D01*
X207999000Y-75082760D01*
X207999000Y-74777240D01*
X208058604Y-74477590D01*
X208175521Y-74195326D01*
X208345259Y-73941295D01*
X208561295Y-73725259D01*
X208815326Y-73555521D01*
X209097590Y-73438604D01*
X209247415Y-73408802D01*
X209397239Y-73379000D01*
X209702761Y-73379000D01*
X209852585Y-73408802D01*
X209852585Y-73408802D01*
G37*
G36*
X138732585Y-73408802D02*
G01*
X138882410Y-73438604D01*
X139164674Y-73555521D01*
X139418705Y-73725259D01*
X139634741Y-73941295D01*
X139804479Y-74195326D01*
X139921396Y-74477590D01*
X139981000Y-74777240D01*
X139981000Y-75082760D01*
X139921396Y-75382410D01*
X139804479Y-75664674D01*
X139634741Y-75918705D01*
X139418705Y-76134741D01*
X139164674Y-76304479D01*
X138882410Y-76421396D01*
X138732585Y-76451198D01*
X138582761Y-76481000D01*
X138277239Y-76481000D01*
X138127415Y-76451198D01*
X137977590Y-76421396D01*
X137695326Y-76304479D01*
X137441295Y-76134741D01*
X137225259Y-75918705D01*
X137055521Y-75664674D01*
X136938604Y-75382410D01*
X136879000Y-75082760D01*
X136879000Y-74777240D01*
X136938604Y-74477590D01*
X137055521Y-74195326D01*
X137225259Y-73941295D01*
X137441295Y-73725259D01*
X137695326Y-73555521D01*
X137977590Y-73438604D01*
X138127415Y-73408802D01*
X138277239Y-73379000D01*
X138582761Y-73379000D01*
X138732585Y-73408802D01*
X138732585Y-73408802D01*
G37*
G36*
X133652585Y-73408802D02*
G01*
X133802410Y-73438604D01*
X134084674Y-73555521D01*
X134338705Y-73725259D01*
X134554741Y-73941295D01*
X134724479Y-74195326D01*
X134841396Y-74477590D01*
X134901000Y-74777240D01*
X134901000Y-75082760D01*
X134841396Y-75382410D01*
X134724479Y-75664674D01*
X134554741Y-75918705D01*
X134338705Y-76134741D01*
X134084674Y-76304479D01*
X133802410Y-76421396D01*
X133652585Y-76451198D01*
X133502761Y-76481000D01*
X133197239Y-76481000D01*
X133047415Y-76451198D01*
X132897590Y-76421396D01*
X132615326Y-76304479D01*
X132361295Y-76134741D01*
X132145259Y-75918705D01*
X131975521Y-75664674D01*
X131858604Y-75382410D01*
X131799000Y-75082760D01*
X131799000Y-74777240D01*
X131858604Y-74477590D01*
X131975521Y-74195326D01*
X132145259Y-73941295D01*
X132361295Y-73725259D01*
X132615326Y-73555521D01*
X132897590Y-73438604D01*
X133047415Y-73408802D01*
X133197239Y-73379000D01*
X133502761Y-73379000D01*
X133652585Y-73408802D01*
X133652585Y-73408802D01*
G37*
G36*
X129821000Y-76481000D02*
G01*
X126719000Y-76481000D01*
X126719000Y-73379000D01*
X129821000Y-73379000D01*
X129821000Y-76481000D01*
X129821000Y-76481000D01*
G37*
G36*
X204772585Y-73408802D02*
G01*
X204922410Y-73438604D01*
X205204674Y-73555521D01*
X205458705Y-73725259D01*
X205674741Y-73941295D01*
X205844479Y-74195326D01*
X205961396Y-74477590D01*
X206021000Y-74777240D01*
X206021000Y-75082760D01*
X205961396Y-75382410D01*
X205844479Y-75664674D01*
X205674741Y-75918705D01*
X205458705Y-76134741D01*
X205204674Y-76304479D01*
X204922410Y-76421396D01*
X204772585Y-76451198D01*
X204622761Y-76481000D01*
X204317239Y-76481000D01*
X204167415Y-76451198D01*
X204017590Y-76421396D01*
X203735326Y-76304479D01*
X203481295Y-76134741D01*
X203265259Y-75918705D01*
X203095521Y-75664674D01*
X202978604Y-75382410D01*
X202919000Y-75082760D01*
X202919000Y-74777240D01*
X202978604Y-74477590D01*
X203095521Y-74195326D01*
X203265259Y-73941295D01*
X203481295Y-73725259D01*
X203735326Y-73555521D01*
X204017590Y-73438604D01*
X204167415Y-73408802D01*
X204317239Y-73379000D01*
X204622761Y-73379000D01*
X204772585Y-73408802D01*
X204772585Y-73408802D01*
G37*
G36*
X200941000Y-76481000D02*
G01*
X197839000Y-76481000D01*
X197839000Y-73379000D01*
X200941000Y-73379000D01*
X200941000Y-76481000D01*
X200941000Y-76481000D01*
G37*
G36*
X193342585Y-73408802D02*
G01*
X193492410Y-73438604D01*
X193774674Y-73555521D01*
X194028705Y-73725259D01*
X194244741Y-73941295D01*
X194414479Y-74195326D01*
X194531396Y-74477590D01*
X194591000Y-74777240D01*
X194591000Y-75082760D01*
X194531396Y-75382410D01*
X194414479Y-75664674D01*
X194244741Y-75918705D01*
X194028705Y-76134741D01*
X193774674Y-76304479D01*
X193492410Y-76421396D01*
X193342585Y-76451198D01*
X193192761Y-76481000D01*
X192887239Y-76481000D01*
X192737415Y-76451198D01*
X192587590Y-76421396D01*
X192305326Y-76304479D01*
X192051295Y-76134741D01*
X191835259Y-75918705D01*
X191665521Y-75664674D01*
X191548604Y-75382410D01*
X191489000Y-75082760D01*
X191489000Y-74777240D01*
X191548604Y-74477590D01*
X191665521Y-74195326D01*
X191835259Y-73941295D01*
X192051295Y-73725259D01*
X192305326Y-73555521D01*
X192587590Y-73438604D01*
X192737415Y-73408802D01*
X192887239Y-73379000D01*
X193192761Y-73379000D01*
X193342585Y-73408802D01*
X193342585Y-73408802D01*
G37*
G36*
X188262585Y-73408802D02*
G01*
X188412410Y-73438604D01*
X188694674Y-73555521D01*
X188948705Y-73725259D01*
X189164741Y-73941295D01*
X189334479Y-74195326D01*
X189451396Y-74477590D01*
X189511000Y-74777240D01*
X189511000Y-75082760D01*
X189451396Y-75382410D01*
X189334479Y-75664674D01*
X189164741Y-75918705D01*
X188948705Y-76134741D01*
X188694674Y-76304479D01*
X188412410Y-76421396D01*
X188262585Y-76451198D01*
X188112761Y-76481000D01*
X187807239Y-76481000D01*
X187657415Y-76451198D01*
X187507590Y-76421396D01*
X187225326Y-76304479D01*
X186971295Y-76134741D01*
X186755259Y-75918705D01*
X186585521Y-75664674D01*
X186468604Y-75382410D01*
X186409000Y-75082760D01*
X186409000Y-74777240D01*
X186468604Y-74477590D01*
X186585521Y-74195326D01*
X186755259Y-73941295D01*
X186971295Y-73725259D01*
X187225326Y-73555521D01*
X187507590Y-73438604D01*
X187657415Y-73408802D01*
X187807239Y-73379000D01*
X188112761Y-73379000D01*
X188262585Y-73408802D01*
X188262585Y-73408802D01*
G37*
G36*
X184431000Y-76481000D02*
G01*
X181329000Y-76481000D01*
X181329000Y-73379000D01*
X184431000Y-73379000D01*
X184431000Y-76481000D01*
X184431000Y-76481000D01*
G37*
G36*
X176832585Y-73408802D02*
G01*
X176982410Y-73438604D01*
X177264674Y-73555521D01*
X177518705Y-73725259D01*
X177734741Y-73941295D01*
X177904479Y-74195326D01*
X178021396Y-74477590D01*
X178081000Y-74777240D01*
X178081000Y-75082760D01*
X178021396Y-75382410D01*
X177904479Y-75664674D01*
X177734741Y-75918705D01*
X177518705Y-76134741D01*
X177264674Y-76304479D01*
X176982410Y-76421396D01*
X176832585Y-76451198D01*
X176682761Y-76481000D01*
X176377239Y-76481000D01*
X176227415Y-76451198D01*
X176077590Y-76421396D01*
X175795326Y-76304479D01*
X175541295Y-76134741D01*
X175325259Y-75918705D01*
X175155521Y-75664674D01*
X175038604Y-75382410D01*
X174979000Y-75082760D01*
X174979000Y-74777240D01*
X175038604Y-74477590D01*
X175155521Y-74195326D01*
X175325259Y-73941295D01*
X175541295Y-73725259D01*
X175795326Y-73555521D01*
X176077590Y-73438604D01*
X176227415Y-73408802D01*
X176377239Y-73379000D01*
X176682761Y-73379000D01*
X176832585Y-73408802D01*
X176832585Y-73408802D01*
G37*
G36*
X171752585Y-73408802D02*
G01*
X171902410Y-73438604D01*
X172184674Y-73555521D01*
X172438705Y-73725259D01*
X172654741Y-73941295D01*
X172824479Y-74195326D01*
X172941396Y-74477590D01*
X173001000Y-74777240D01*
X173001000Y-75082760D01*
X172941396Y-75382410D01*
X172824479Y-75664674D01*
X172654741Y-75918705D01*
X172438705Y-76134741D01*
X172184674Y-76304479D01*
X171902410Y-76421396D01*
X171752585Y-76451198D01*
X171602761Y-76481000D01*
X171297239Y-76481000D01*
X171147415Y-76451198D01*
X170997590Y-76421396D01*
X170715326Y-76304479D01*
X170461295Y-76134741D01*
X170245259Y-75918705D01*
X170075521Y-75664674D01*
X169958604Y-75382410D01*
X169899000Y-75082760D01*
X169899000Y-74777240D01*
X169958604Y-74477590D01*
X170075521Y-74195326D01*
X170245259Y-73941295D01*
X170461295Y-73725259D01*
X170715326Y-73555521D01*
X170997590Y-73438604D01*
X171147415Y-73408802D01*
X171297239Y-73379000D01*
X171602761Y-73379000D01*
X171752585Y-73408802D01*
X171752585Y-73408802D01*
G37*
G36*
X167921000Y-76481000D02*
G01*
X164819000Y-76481000D01*
X164819000Y-73379000D01*
X167921000Y-73379000D01*
X167921000Y-76481000D01*
X167921000Y-76481000D01*
G37*
G36*
X160322585Y-73408802D02*
G01*
X160472410Y-73438604D01*
X160754674Y-73555521D01*
X161008705Y-73725259D01*
X161224741Y-73941295D01*
X161394479Y-74195326D01*
X161511396Y-74477590D01*
X161571000Y-74777240D01*
X161571000Y-75082760D01*
X161511396Y-75382410D01*
X161394479Y-75664674D01*
X161224741Y-75918705D01*
X161008705Y-76134741D01*
X160754674Y-76304479D01*
X160472410Y-76421396D01*
X160322585Y-76451198D01*
X160172761Y-76481000D01*
X159867239Y-76481000D01*
X159717415Y-76451198D01*
X159567590Y-76421396D01*
X159285326Y-76304479D01*
X159031295Y-76134741D01*
X158815259Y-75918705D01*
X158645521Y-75664674D01*
X158528604Y-75382410D01*
X158469000Y-75082760D01*
X158469000Y-74777240D01*
X158528604Y-74477590D01*
X158645521Y-74195326D01*
X158815259Y-73941295D01*
X159031295Y-73725259D01*
X159285326Y-73555521D01*
X159567590Y-73438604D01*
X159717415Y-73408802D01*
X159867239Y-73379000D01*
X160172761Y-73379000D01*
X160322585Y-73408802D01*
X160322585Y-73408802D01*
G37*
G36*
X151411000Y-76481000D02*
G01*
X148309000Y-76481000D01*
X148309000Y-73379000D01*
X151411000Y-73379000D01*
X151411000Y-76481000D01*
X151411000Y-76481000D01*
G37*
G36*
X155242585Y-73408802D02*
G01*
X155392410Y-73438604D01*
X155674674Y-73555521D01*
X155928705Y-73725259D01*
X156144741Y-73941295D01*
X156314479Y-74195326D01*
X156431396Y-74477590D01*
X156491000Y-74777240D01*
X156491000Y-75082760D01*
X156431396Y-75382410D01*
X156314479Y-75664674D01*
X156144741Y-75918705D01*
X155928705Y-76134741D01*
X155674674Y-76304479D01*
X155392410Y-76421396D01*
X155242585Y-76451198D01*
X155092761Y-76481000D01*
X154787239Y-76481000D01*
X154637415Y-76451198D01*
X154487590Y-76421396D01*
X154205326Y-76304479D01*
X153951295Y-76134741D01*
X153735259Y-75918705D01*
X153565521Y-75664674D01*
X153448604Y-75382410D01*
X153389000Y-75082760D01*
X153389000Y-74777240D01*
X153448604Y-74477590D01*
X153565521Y-74195326D01*
X153735259Y-73941295D01*
X153951295Y-73725259D01*
X154205326Y-73555521D01*
X154487590Y-73438604D01*
X154637415Y-73408802D01*
X154787239Y-73379000D01*
X155092761Y-73379000D01*
X155242585Y-73408802D01*
X155242585Y-73408802D01*
G37*
G36*
X216218433Y-73564893D02*
G01*
X216308657Y-73582839D01*
X216414267Y-73626585D01*
X216563621Y-73688449D01*
X216639763Y-73739325D01*
X216793086Y-73841772D01*
X216988228Y-74036914D01*
X217090675Y-74190237D01*
X217141551Y-74266379D01*
X217203415Y-74415733D01*
X217229038Y-74477590D01*
X217247161Y-74521344D01*
X217301000Y-74792012D01*
X217301000Y-75067988D01*
X217298061Y-75082761D01*
X217247161Y-75338657D01*
X217203415Y-75444267D01*
X217141551Y-75593621D01*
X217141550Y-75593622D01*
X216988228Y-75823086D01*
X216793086Y-76018228D01*
X216639763Y-76120675D01*
X216563621Y-76171551D01*
X216414267Y-76233415D01*
X216308657Y-76277161D01*
X216218433Y-76295107D01*
X216037988Y-76331000D01*
X215762012Y-76331000D01*
X215581567Y-76295107D01*
X215491343Y-76277161D01*
X215385733Y-76233415D01*
X215236379Y-76171551D01*
X215160237Y-76120675D01*
X215006914Y-76018228D01*
X214811772Y-75823086D01*
X214658450Y-75593622D01*
X214658449Y-75593621D01*
X214596585Y-75444267D01*
X214552839Y-75338657D01*
X214501939Y-75082761D01*
X214499000Y-75067988D01*
X214499000Y-74792012D01*
X214552839Y-74521344D01*
X214570963Y-74477590D01*
X214596585Y-74415733D01*
X214658449Y-74266379D01*
X214709325Y-74190237D01*
X214811772Y-74036914D01*
X215006914Y-73841772D01*
X215160237Y-73739325D01*
X215236379Y-73688449D01*
X215385733Y-73626585D01*
X215491343Y-73582839D01*
X215581567Y-73564893D01*
X215762012Y-73529000D01*
X216037988Y-73529000D01*
X216218433Y-73564893D01*
X216218433Y-73564893D01*
G37*
G36*
X99378433Y-73564893D02*
G01*
X99468657Y-73582839D01*
X99574267Y-73626585D01*
X99723621Y-73688449D01*
X99799763Y-73739325D01*
X99953086Y-73841772D01*
X100148228Y-74036914D01*
X100250675Y-74190237D01*
X100301551Y-74266379D01*
X100363415Y-74415733D01*
X100389038Y-74477590D01*
X100407161Y-74521344D01*
X100461000Y-74792012D01*
X100461000Y-75067988D01*
X100458061Y-75082761D01*
X100407161Y-75338657D01*
X100363415Y-75444267D01*
X100301551Y-75593621D01*
X100301550Y-75593622D01*
X100148228Y-75823086D01*
X99953086Y-76018228D01*
X99799763Y-76120675D01*
X99723621Y-76171551D01*
X99574267Y-76233415D01*
X99468657Y-76277161D01*
X99378433Y-76295107D01*
X99197988Y-76331000D01*
X98922012Y-76331000D01*
X98741567Y-76295107D01*
X98651343Y-76277161D01*
X98545733Y-76233415D01*
X98396379Y-76171551D01*
X98320237Y-76120675D01*
X98166914Y-76018228D01*
X97971772Y-75823086D01*
X97818450Y-75593622D01*
X97818449Y-75593621D01*
X97756585Y-75444267D01*
X97712839Y-75338657D01*
X97661939Y-75082761D01*
X97659000Y-75067988D01*
X97659000Y-74792012D01*
X97712839Y-74521344D01*
X97730963Y-74477590D01*
X97756585Y-74415733D01*
X97818449Y-74266379D01*
X97869325Y-74190237D01*
X97971772Y-74036914D01*
X98166914Y-73841772D01*
X98320237Y-73739325D01*
X98396379Y-73688449D01*
X98545733Y-73626585D01*
X98651343Y-73582839D01*
X98741567Y-73564893D01*
X98922012Y-73529000D01*
X99197988Y-73529000D01*
X99378433Y-73564893D01*
X99378433Y-73564893D01*
G37*
G36*
X181776823Y-66471313D02*
G01*
X181937242Y-66519976D01*
X182004361Y-66555852D01*
X182085078Y-66598996D01*
X182214659Y-66705341D01*
X182321004Y-66834922D01*
X182321005Y-66834924D01*
X182400024Y-66982758D01*
X182448687Y-67143177D01*
X182465117Y-67310000D01*
X182448687Y-67476823D01*
X182400024Y-67637242D01*
X182359477Y-67713100D01*
X182321004Y-67785078D01*
X182214659Y-67914659D01*
X182085078Y-68021004D01*
X182085076Y-68021005D01*
X181937242Y-68100024D01*
X181776823Y-68148687D01*
X181651804Y-68161000D01*
X181568196Y-68161000D01*
X181443177Y-68148687D01*
X181282758Y-68100024D01*
X181134924Y-68021005D01*
X181134922Y-68021004D01*
X181005341Y-67914659D01*
X180898996Y-67785078D01*
X180860523Y-67713100D01*
X180819976Y-67637242D01*
X180771313Y-67476823D01*
X180754883Y-67310000D01*
X180771313Y-67143177D01*
X180819976Y-66982758D01*
X180898995Y-66834924D01*
X180898996Y-66834922D01*
X181005341Y-66705341D01*
X181134922Y-66598996D01*
X181215639Y-66555852D01*
X181282758Y-66519976D01*
X181443177Y-66471313D01*
X181568196Y-66459000D01*
X181651804Y-66459000D01*
X181776823Y-66471313D01*
X181776823Y-66471313D01*
G37*
G36*
X171698228Y-66491703D02*
G01*
X171853100Y-66555853D01*
X171992481Y-66648985D01*
X172111015Y-66767519D01*
X172204147Y-66906900D01*
X172268297Y-67061772D01*
X172301000Y-67226184D01*
X172301000Y-67393816D01*
X172268297Y-67558228D01*
X172204147Y-67713100D01*
X172111015Y-67852481D01*
X171992481Y-67971015D01*
X171853100Y-68064147D01*
X171698228Y-68128297D01*
X171533816Y-68161000D01*
X171366184Y-68161000D01*
X171201772Y-68128297D01*
X171046900Y-68064147D01*
X170907519Y-67971015D01*
X170788985Y-67852481D01*
X170695853Y-67713100D01*
X170631703Y-67558228D01*
X170599000Y-67393816D01*
X170599000Y-67226184D01*
X170631703Y-67061772D01*
X170695853Y-66906900D01*
X170788985Y-66767519D01*
X170907519Y-66648985D01*
X171046900Y-66555853D01*
X171201772Y-66491703D01*
X171366184Y-66459000D01*
X171533816Y-66459000D01*
X171698228Y-66491703D01*
X171698228Y-66491703D01*
G37*
G36*
X139866823Y-66471313D02*
G01*
X140027242Y-66519976D01*
X140094361Y-66555852D01*
X140175078Y-66598996D01*
X140304659Y-66705341D01*
X140411004Y-66834922D01*
X140411005Y-66834924D01*
X140490024Y-66982758D01*
X140538687Y-67143177D01*
X140555117Y-67310000D01*
X140538687Y-67476823D01*
X140490024Y-67637242D01*
X140449477Y-67713100D01*
X140411004Y-67785078D01*
X140304659Y-67914659D01*
X140175078Y-68021004D01*
X140175076Y-68021005D01*
X140027242Y-68100024D01*
X139866823Y-68148687D01*
X139741804Y-68161000D01*
X139658196Y-68161000D01*
X139533177Y-68148687D01*
X139372758Y-68100024D01*
X139224924Y-68021005D01*
X139224922Y-68021004D01*
X139095341Y-67914659D01*
X138988996Y-67785078D01*
X138950523Y-67713100D01*
X138909976Y-67637242D01*
X138861313Y-67476823D01*
X138844883Y-67310000D01*
X138861313Y-67143177D01*
X138909976Y-66982758D01*
X138988995Y-66834924D01*
X138988996Y-66834922D01*
X139095341Y-66705341D01*
X139224922Y-66598996D01*
X139305639Y-66555852D01*
X139372758Y-66519976D01*
X139533177Y-66471313D01*
X139658196Y-66459000D01*
X139741804Y-66459000D01*
X139866823Y-66471313D01*
X139866823Y-66471313D01*
G37*
G36*
X129788228Y-66491703D02*
G01*
X129943100Y-66555853D01*
X130082481Y-66648985D01*
X130201015Y-66767519D01*
X130294147Y-66906900D01*
X130358297Y-67061772D01*
X130391000Y-67226184D01*
X130391000Y-67393816D01*
X130358297Y-67558228D01*
X130294147Y-67713100D01*
X130201015Y-67852481D01*
X130082481Y-67971015D01*
X129943100Y-68064147D01*
X129788228Y-68128297D01*
X129623816Y-68161000D01*
X129456184Y-68161000D01*
X129291772Y-68128297D01*
X129136900Y-68064147D01*
X128997519Y-67971015D01*
X128878985Y-67852481D01*
X128785853Y-67713100D01*
X128721703Y-67558228D01*
X128689000Y-67393816D01*
X128689000Y-67226184D01*
X128721703Y-67061772D01*
X128785853Y-66906900D01*
X128878985Y-66767519D01*
X128997519Y-66648985D01*
X129136900Y-66555853D01*
X129291772Y-66491703D01*
X129456184Y-66459000D01*
X129623816Y-66459000D01*
X129788228Y-66491703D01*
X129788228Y-66491703D01*
G37*
G36*
X167806823Y-66471313D02*
G01*
X167967242Y-66519976D01*
X168034361Y-66555852D01*
X168115078Y-66598996D01*
X168244659Y-66705341D01*
X168351004Y-66834922D01*
X168351005Y-66834924D01*
X168430024Y-66982758D01*
X168478687Y-67143177D01*
X168495117Y-67310000D01*
X168478687Y-67476823D01*
X168430024Y-67637242D01*
X168389477Y-67713100D01*
X168351004Y-67785078D01*
X168244659Y-67914659D01*
X168115078Y-68021004D01*
X168115076Y-68021005D01*
X167967242Y-68100024D01*
X167806823Y-68148687D01*
X167681804Y-68161000D01*
X167598196Y-68161000D01*
X167473177Y-68148687D01*
X167312758Y-68100024D01*
X167164924Y-68021005D01*
X167164922Y-68021004D01*
X167035341Y-67914659D01*
X166928996Y-67785078D01*
X166890523Y-67713100D01*
X166849976Y-67637242D01*
X166801313Y-67476823D01*
X166784883Y-67310000D01*
X166801313Y-67143177D01*
X166849976Y-66982758D01*
X166928995Y-66834924D01*
X166928996Y-66834922D01*
X167035341Y-66705341D01*
X167164922Y-66598996D01*
X167245639Y-66555852D01*
X167312758Y-66519976D01*
X167473177Y-66471313D01*
X167598196Y-66459000D01*
X167681804Y-66459000D01*
X167806823Y-66471313D01*
X167806823Y-66471313D01*
G37*
G36*
X195746823Y-66471313D02*
G01*
X195907242Y-66519976D01*
X195974361Y-66555852D01*
X196055078Y-66598996D01*
X196184659Y-66705341D01*
X196291004Y-66834922D01*
X196291005Y-66834924D01*
X196370024Y-66982758D01*
X196418687Y-67143177D01*
X196435117Y-67310000D01*
X196418687Y-67476823D01*
X196370024Y-67637242D01*
X196329477Y-67713100D01*
X196291004Y-67785078D01*
X196184659Y-67914659D01*
X196055078Y-68021004D01*
X196055076Y-68021005D01*
X195907242Y-68100024D01*
X195746823Y-68148687D01*
X195621804Y-68161000D01*
X195538196Y-68161000D01*
X195413177Y-68148687D01*
X195252758Y-68100024D01*
X195104924Y-68021005D01*
X195104922Y-68021004D01*
X194975341Y-67914659D01*
X194868996Y-67785078D01*
X194830523Y-67713100D01*
X194789976Y-67637242D01*
X194741313Y-67476823D01*
X194724883Y-67310000D01*
X194741313Y-67143177D01*
X194789976Y-66982758D01*
X194868995Y-66834924D01*
X194868996Y-66834922D01*
X194975341Y-66705341D01*
X195104922Y-66598996D01*
X195185639Y-66555852D01*
X195252758Y-66519976D01*
X195413177Y-66471313D01*
X195538196Y-66459000D01*
X195621804Y-66459000D01*
X195746823Y-66471313D01*
X195746823Y-66471313D01*
G37*
G36*
X185668228Y-66491703D02*
G01*
X185823100Y-66555853D01*
X185962481Y-66648985D01*
X186081015Y-66767519D01*
X186174147Y-66906900D01*
X186238297Y-67061772D01*
X186271000Y-67226184D01*
X186271000Y-67393816D01*
X186238297Y-67558228D01*
X186174147Y-67713100D01*
X186081015Y-67852481D01*
X185962481Y-67971015D01*
X185823100Y-68064147D01*
X185668228Y-68128297D01*
X185503816Y-68161000D01*
X185336184Y-68161000D01*
X185171772Y-68128297D01*
X185016900Y-68064147D01*
X184877519Y-67971015D01*
X184758985Y-67852481D01*
X184665853Y-67713100D01*
X184601703Y-67558228D01*
X184569000Y-67393816D01*
X184569000Y-67226184D01*
X184601703Y-67061772D01*
X184665853Y-66906900D01*
X184758985Y-66767519D01*
X184877519Y-66648985D01*
X185016900Y-66555853D01*
X185171772Y-66491703D01*
X185336184Y-66459000D01*
X185503816Y-66459000D01*
X185668228Y-66491703D01*
X185668228Y-66491703D01*
G37*
G36*
X143758228Y-66491703D02*
G01*
X143913100Y-66555853D01*
X144052481Y-66648985D01*
X144171015Y-66767519D01*
X144264147Y-66906900D01*
X144328297Y-67061772D01*
X144361000Y-67226184D01*
X144361000Y-67393816D01*
X144328297Y-67558228D01*
X144264147Y-67713100D01*
X144171015Y-67852481D01*
X144052481Y-67971015D01*
X143913100Y-68064147D01*
X143758228Y-68128297D01*
X143593816Y-68161000D01*
X143426184Y-68161000D01*
X143261772Y-68128297D01*
X143106900Y-68064147D01*
X142967519Y-67971015D01*
X142848985Y-67852481D01*
X142755853Y-67713100D01*
X142691703Y-67558228D01*
X142659000Y-67393816D01*
X142659000Y-67226184D01*
X142691703Y-67061772D01*
X142755853Y-66906900D01*
X142848985Y-66767519D01*
X142967519Y-66648985D01*
X143106900Y-66555853D01*
X143261772Y-66491703D01*
X143426184Y-66459000D01*
X143593816Y-66459000D01*
X143758228Y-66491703D01*
X143758228Y-66491703D01*
G37*
G36*
X157728228Y-66491703D02*
G01*
X157883100Y-66555853D01*
X158022481Y-66648985D01*
X158141015Y-66767519D01*
X158234147Y-66906900D01*
X158298297Y-67061772D01*
X158331000Y-67226184D01*
X158331000Y-67393816D01*
X158298297Y-67558228D01*
X158234147Y-67713100D01*
X158141015Y-67852481D01*
X158022481Y-67971015D01*
X157883100Y-68064147D01*
X157728228Y-68128297D01*
X157563816Y-68161000D01*
X157396184Y-68161000D01*
X157231772Y-68128297D01*
X157076900Y-68064147D01*
X156937519Y-67971015D01*
X156818985Y-67852481D01*
X156725853Y-67713100D01*
X156661703Y-67558228D01*
X156629000Y-67393816D01*
X156629000Y-67226184D01*
X156661703Y-67061772D01*
X156725853Y-66906900D01*
X156818985Y-66767519D01*
X156937519Y-66648985D01*
X157076900Y-66555853D01*
X157231772Y-66491703D01*
X157396184Y-66459000D01*
X157563816Y-66459000D01*
X157728228Y-66491703D01*
X157728228Y-66491703D01*
G37*
G36*
X153836823Y-66471313D02*
G01*
X153997242Y-66519976D01*
X154064361Y-66555852D01*
X154145078Y-66598996D01*
X154274659Y-66705341D01*
X154381004Y-66834922D01*
X154381005Y-66834924D01*
X154460024Y-66982758D01*
X154508687Y-67143177D01*
X154525117Y-67310000D01*
X154508687Y-67476823D01*
X154460024Y-67637242D01*
X154419477Y-67713100D01*
X154381004Y-67785078D01*
X154274659Y-67914659D01*
X154145078Y-68021004D01*
X154145076Y-68021005D01*
X153997242Y-68100024D01*
X153836823Y-68148687D01*
X153711804Y-68161000D01*
X153628196Y-68161000D01*
X153503177Y-68148687D01*
X153342758Y-68100024D01*
X153194924Y-68021005D01*
X153194922Y-68021004D01*
X153065341Y-67914659D01*
X152958996Y-67785078D01*
X152920523Y-67713100D01*
X152879976Y-67637242D01*
X152831313Y-67476823D01*
X152814883Y-67310000D01*
X152831313Y-67143177D01*
X152879976Y-66982758D01*
X152958995Y-66834924D01*
X152958996Y-66834922D01*
X153065341Y-66705341D01*
X153194922Y-66598996D01*
X153275639Y-66555852D01*
X153342758Y-66519976D01*
X153503177Y-66471313D01*
X153628196Y-66459000D01*
X153711804Y-66459000D01*
X153836823Y-66471313D01*
X153836823Y-66471313D01*
G37*
G36*
X112037395Y-63855546D02*
G01*
X112210466Y-63927234D01*
X112210467Y-63927235D01*
X112366227Y-64031310D01*
X112498690Y-64163773D01*
X112498691Y-64163775D01*
X112602766Y-64319534D01*
X112674454Y-64492605D01*
X112711000Y-64676333D01*
X112711000Y-64863667D01*
X112674454Y-65047395D01*
X112602766Y-65220466D01*
X112602765Y-65220467D01*
X112498690Y-65376227D01*
X112366227Y-65508690D01*
X112287818Y-65561081D01*
X112210466Y-65612766D01*
X112037395Y-65684454D01*
X111853667Y-65721000D01*
X111666333Y-65721000D01*
X111482605Y-65684454D01*
X111309534Y-65612766D01*
X111232182Y-65561081D01*
X111153773Y-65508690D01*
X111021310Y-65376227D01*
X110917235Y-65220467D01*
X110917234Y-65220466D01*
X110845546Y-65047395D01*
X110809000Y-64863667D01*
X110809000Y-64676333D01*
X110845546Y-64492605D01*
X110917234Y-64319534D01*
X111021309Y-64163775D01*
X111021310Y-64163773D01*
X111153773Y-64031310D01*
X111309533Y-63927235D01*
X111309534Y-63927234D01*
X111482605Y-63855546D01*
X111666333Y-63819000D01*
X111853667Y-63819000D01*
X112037395Y-63855546D01*
X112037395Y-63855546D01*
G37*
G36*
X104417395Y-63855546D02*
G01*
X104590466Y-63927234D01*
X104590467Y-63927235D01*
X104746227Y-64031310D01*
X104878690Y-64163773D01*
X104878691Y-64163775D01*
X104982766Y-64319534D01*
X105054454Y-64492605D01*
X105091000Y-64676333D01*
X105091000Y-64863667D01*
X105054454Y-65047395D01*
X104982766Y-65220466D01*
X104982765Y-65220467D01*
X104878690Y-65376227D01*
X104746227Y-65508690D01*
X104667818Y-65561081D01*
X104590466Y-65612766D01*
X104417395Y-65684454D01*
X104233667Y-65721000D01*
X104046333Y-65721000D01*
X103862605Y-65684454D01*
X103689534Y-65612766D01*
X103612182Y-65561081D01*
X103533773Y-65508690D01*
X103401310Y-65376227D01*
X103297235Y-65220467D01*
X103297234Y-65220466D01*
X103225546Y-65047395D01*
X103189000Y-64863667D01*
X103189000Y-64676333D01*
X103225546Y-64492605D01*
X103297234Y-64319534D01*
X103401309Y-64163775D01*
X103401310Y-64163773D01*
X103533773Y-64031310D01*
X103689533Y-63927235D01*
X103689534Y-63927234D01*
X103862605Y-63855546D01*
X104046333Y-63819000D01*
X104233667Y-63819000D01*
X104417395Y-63855546D01*
X104417395Y-63855546D01*
G37*
G36*
X122197395Y-63855546D02*
G01*
X122370466Y-63927234D01*
X122370467Y-63927235D01*
X122526227Y-64031310D01*
X122658690Y-64163773D01*
X122658691Y-64163775D01*
X122762766Y-64319534D01*
X122834454Y-64492605D01*
X122871000Y-64676333D01*
X122871000Y-64863667D01*
X122834454Y-65047395D01*
X122762766Y-65220466D01*
X122762765Y-65220467D01*
X122658690Y-65376227D01*
X122526227Y-65508690D01*
X122447818Y-65561081D01*
X122370466Y-65612766D01*
X122197395Y-65684454D01*
X122013667Y-65721000D01*
X121826333Y-65721000D01*
X121642605Y-65684454D01*
X121469534Y-65612766D01*
X121392182Y-65561081D01*
X121313773Y-65508690D01*
X121181310Y-65376227D01*
X121077235Y-65220467D01*
X121077234Y-65220466D01*
X121005546Y-65047395D01*
X120969000Y-64863667D01*
X120969000Y-64676333D01*
X121005546Y-64492605D01*
X121077234Y-64319534D01*
X121181309Y-64163775D01*
X121181310Y-64163773D01*
X121313773Y-64031310D01*
X121469533Y-63927235D01*
X121469534Y-63927234D01*
X121642605Y-63855546D01*
X121826333Y-63819000D01*
X122013667Y-63819000D01*
X122197395Y-63855546D01*
X122197395Y-63855546D01*
G37*
G36*
X119657395Y-63855546D02*
G01*
X119830466Y-63927234D01*
X119830467Y-63927235D01*
X119986227Y-64031310D01*
X120118690Y-64163773D01*
X120118691Y-64163775D01*
X120222766Y-64319534D01*
X120294454Y-64492605D01*
X120331000Y-64676333D01*
X120331000Y-64863667D01*
X120294454Y-65047395D01*
X120222766Y-65220466D01*
X120222765Y-65220467D01*
X120118690Y-65376227D01*
X119986227Y-65508690D01*
X119907818Y-65561081D01*
X119830466Y-65612766D01*
X119657395Y-65684454D01*
X119473667Y-65721000D01*
X119286333Y-65721000D01*
X119102605Y-65684454D01*
X118929534Y-65612766D01*
X118852182Y-65561081D01*
X118773773Y-65508690D01*
X118641310Y-65376227D01*
X118537235Y-65220467D01*
X118537234Y-65220466D01*
X118465546Y-65047395D01*
X118429000Y-64863667D01*
X118429000Y-64676333D01*
X118465546Y-64492605D01*
X118537234Y-64319534D01*
X118641309Y-64163775D01*
X118641310Y-64163773D01*
X118773773Y-64031310D01*
X118929533Y-63927235D01*
X118929534Y-63927234D01*
X119102605Y-63855546D01*
X119286333Y-63819000D01*
X119473667Y-63819000D01*
X119657395Y-63855546D01*
X119657395Y-63855546D01*
G37*
G36*
X109497395Y-63855546D02*
G01*
X109670466Y-63927234D01*
X109670467Y-63927235D01*
X109826227Y-64031310D01*
X109958690Y-64163773D01*
X109958691Y-64163775D01*
X110062766Y-64319534D01*
X110134454Y-64492605D01*
X110171000Y-64676333D01*
X110171000Y-64863667D01*
X110134454Y-65047395D01*
X110062766Y-65220466D01*
X110062765Y-65220467D01*
X109958690Y-65376227D01*
X109826227Y-65508690D01*
X109747818Y-65561081D01*
X109670466Y-65612766D01*
X109497395Y-65684454D01*
X109313667Y-65721000D01*
X109126333Y-65721000D01*
X108942605Y-65684454D01*
X108769534Y-65612766D01*
X108692182Y-65561081D01*
X108613773Y-65508690D01*
X108481310Y-65376227D01*
X108377235Y-65220467D01*
X108377234Y-65220466D01*
X108305546Y-65047395D01*
X108269000Y-64863667D01*
X108269000Y-64676333D01*
X108305546Y-64492605D01*
X108377234Y-64319534D01*
X108481309Y-64163775D01*
X108481310Y-64163773D01*
X108613773Y-64031310D01*
X108769533Y-63927235D01*
X108769534Y-63927234D01*
X108942605Y-63855546D01*
X109126333Y-63819000D01*
X109313667Y-63819000D01*
X109497395Y-63855546D01*
X109497395Y-63855546D01*
G37*
G36*
X114577395Y-63855546D02*
G01*
X114750466Y-63927234D01*
X114750467Y-63927235D01*
X114906227Y-64031310D01*
X115038690Y-64163773D01*
X115038691Y-64163775D01*
X115142766Y-64319534D01*
X115214454Y-64492605D01*
X115251000Y-64676333D01*
X115251000Y-64863667D01*
X115214454Y-65047395D01*
X115142766Y-65220466D01*
X115142765Y-65220467D01*
X115038690Y-65376227D01*
X114906227Y-65508690D01*
X114827818Y-65561081D01*
X114750466Y-65612766D01*
X114577395Y-65684454D01*
X114393667Y-65721000D01*
X114206333Y-65721000D01*
X114022605Y-65684454D01*
X113849534Y-65612766D01*
X113772182Y-65561081D01*
X113693773Y-65508690D01*
X113561310Y-65376227D01*
X113457235Y-65220467D01*
X113457234Y-65220466D01*
X113385546Y-65047395D01*
X113349000Y-64863667D01*
X113349000Y-64676333D01*
X113385546Y-64492605D01*
X113457234Y-64319534D01*
X113561309Y-64163775D01*
X113561310Y-64163773D01*
X113693773Y-64031310D01*
X113849533Y-63927235D01*
X113849534Y-63927234D01*
X114022605Y-63855546D01*
X114206333Y-63819000D01*
X114393667Y-63819000D01*
X114577395Y-63855546D01*
X114577395Y-63855546D01*
G37*
G36*
X106957395Y-63855546D02*
G01*
X107130466Y-63927234D01*
X107130467Y-63927235D01*
X107286227Y-64031310D01*
X107418690Y-64163773D01*
X107418691Y-64163775D01*
X107522766Y-64319534D01*
X107594454Y-64492605D01*
X107631000Y-64676333D01*
X107631000Y-64863667D01*
X107594454Y-65047395D01*
X107522766Y-65220466D01*
X107522765Y-65220467D01*
X107418690Y-65376227D01*
X107286227Y-65508690D01*
X107207818Y-65561081D01*
X107130466Y-65612766D01*
X106957395Y-65684454D01*
X106773667Y-65721000D01*
X106586333Y-65721000D01*
X106402605Y-65684454D01*
X106229534Y-65612766D01*
X106152182Y-65561081D01*
X106073773Y-65508690D01*
X105941310Y-65376227D01*
X105837235Y-65220467D01*
X105837234Y-65220466D01*
X105765546Y-65047395D01*
X105729000Y-64863667D01*
X105729000Y-64676333D01*
X105765546Y-64492605D01*
X105837234Y-64319534D01*
X105941309Y-64163775D01*
X105941310Y-64163773D01*
X106073773Y-64031310D01*
X106229533Y-63927235D01*
X106229534Y-63927234D01*
X106402605Y-63855546D01*
X106586333Y-63819000D01*
X106773667Y-63819000D01*
X106957395Y-63855546D01*
X106957395Y-63855546D01*
G37*
G36*
X117117395Y-63855546D02*
G01*
X117290466Y-63927234D01*
X117290467Y-63927235D01*
X117446227Y-64031310D01*
X117578690Y-64163773D01*
X117578691Y-64163775D01*
X117682766Y-64319534D01*
X117754454Y-64492605D01*
X117791000Y-64676333D01*
X117791000Y-64863667D01*
X117754454Y-65047395D01*
X117682766Y-65220466D01*
X117682765Y-65220467D01*
X117578690Y-65376227D01*
X117446227Y-65508690D01*
X117367818Y-65561081D01*
X117290466Y-65612766D01*
X117117395Y-65684454D01*
X116933667Y-65721000D01*
X116746333Y-65721000D01*
X116562605Y-65684454D01*
X116389534Y-65612766D01*
X116312182Y-65561081D01*
X116233773Y-65508690D01*
X116101310Y-65376227D01*
X115997235Y-65220467D01*
X115997234Y-65220466D01*
X115925546Y-65047395D01*
X115889000Y-64863667D01*
X115889000Y-64676333D01*
X115925546Y-64492605D01*
X115997234Y-64319534D01*
X116101309Y-64163775D01*
X116101310Y-64163773D01*
X116233773Y-64031310D01*
X116389533Y-63927235D01*
X116389534Y-63927234D01*
X116562605Y-63855546D01*
X116746333Y-63819000D01*
X116933667Y-63819000D01*
X117117395Y-63855546D01*
X117117395Y-63855546D01*
G37*
G36*
X180588228Y-61411703D02*
G01*
X180743100Y-61475853D01*
X180882481Y-61568985D01*
X181001015Y-61687519D01*
X181094147Y-61826900D01*
X181158297Y-61981772D01*
X181191000Y-62146184D01*
X181191000Y-62313816D01*
X181158297Y-62478228D01*
X181094147Y-62633100D01*
X181001015Y-62772481D01*
X180882481Y-62891015D01*
X180743100Y-62984147D01*
X180588228Y-63048297D01*
X180423816Y-63081000D01*
X180256184Y-63081000D01*
X180091772Y-63048297D01*
X179936900Y-62984147D01*
X179797519Y-62891015D01*
X179678985Y-62772481D01*
X179585853Y-62633100D01*
X179521703Y-62478228D01*
X179489000Y-62313816D01*
X179489000Y-62146184D01*
X179521703Y-61981772D01*
X179585853Y-61826900D01*
X179678985Y-61687519D01*
X179797519Y-61568985D01*
X179936900Y-61475853D01*
X180091772Y-61411703D01*
X180256184Y-61379000D01*
X180423816Y-61379000D01*
X180588228Y-61411703D01*
X180588228Y-61411703D01*
G37*
G36*
X211068228Y-61411703D02*
G01*
X211223100Y-61475853D01*
X211362481Y-61568985D01*
X211481015Y-61687519D01*
X211574147Y-61826900D01*
X211638297Y-61981772D01*
X211671000Y-62146184D01*
X211671000Y-62313816D01*
X211638297Y-62478228D01*
X211574147Y-62633100D01*
X211481015Y-62772481D01*
X211362481Y-62891015D01*
X211223100Y-62984147D01*
X211068228Y-63048297D01*
X210903816Y-63081000D01*
X210736184Y-63081000D01*
X210571772Y-63048297D01*
X210416900Y-62984147D01*
X210277519Y-62891015D01*
X210158985Y-62772481D01*
X210065853Y-62633100D01*
X210001703Y-62478228D01*
X209969000Y-62313816D01*
X209969000Y-62146184D01*
X210001703Y-61981772D01*
X210065853Y-61826900D01*
X210158985Y-61687519D01*
X210277519Y-61568985D01*
X210416900Y-61475853D01*
X210571772Y-61411703D01*
X210736184Y-61379000D01*
X210903816Y-61379000D01*
X211068228Y-61411703D01*
X211068228Y-61411703D01*
G37*
G36*
X200826823Y-61391313D02*
G01*
X200987242Y-61439976D01*
X201054361Y-61475852D01*
X201135078Y-61518996D01*
X201264659Y-61625341D01*
X201371004Y-61754922D01*
X201371005Y-61754924D01*
X201450024Y-61902758D01*
X201498687Y-62063177D01*
X201515117Y-62230000D01*
X201498687Y-62396823D01*
X201450024Y-62557242D01*
X201409477Y-62633100D01*
X201371004Y-62705078D01*
X201264659Y-62834659D01*
X201135078Y-62941004D01*
X201135076Y-62941005D01*
X200987242Y-63020024D01*
X200826823Y-63068687D01*
X200701804Y-63081000D01*
X200618196Y-63081000D01*
X200493177Y-63068687D01*
X200332758Y-63020024D01*
X200184924Y-62941005D01*
X200184922Y-62941004D01*
X200055341Y-62834659D01*
X199948996Y-62705078D01*
X199910523Y-62633100D01*
X199869976Y-62557242D01*
X199821313Y-62396823D01*
X199804883Y-62230000D01*
X199821313Y-62063177D01*
X199869976Y-61902758D01*
X199948995Y-61754924D01*
X199948996Y-61754922D01*
X200055341Y-61625341D01*
X200184922Y-61518996D01*
X200265639Y-61475852D01*
X200332758Y-61439976D01*
X200493177Y-61391313D01*
X200618196Y-61379000D01*
X200701804Y-61379000D01*
X200826823Y-61391313D01*
X200826823Y-61391313D01*
G37*
G36*
X195828228Y-61411703D02*
G01*
X195983100Y-61475853D01*
X196122481Y-61568985D01*
X196241015Y-61687519D01*
X196334147Y-61826900D01*
X196398297Y-61981772D01*
X196431000Y-62146184D01*
X196431000Y-62313816D01*
X196398297Y-62478228D01*
X196334147Y-62633100D01*
X196241015Y-62772481D01*
X196122481Y-62891015D01*
X195983100Y-62984147D01*
X195828228Y-63048297D01*
X195663816Y-63081000D01*
X195496184Y-63081000D01*
X195331772Y-63048297D01*
X195176900Y-62984147D01*
X195037519Y-62891015D01*
X194918985Y-62772481D01*
X194825853Y-62633100D01*
X194761703Y-62478228D01*
X194729000Y-62313816D01*
X194729000Y-62146184D01*
X194761703Y-61981772D01*
X194825853Y-61826900D01*
X194918985Y-61687519D01*
X195037519Y-61568985D01*
X195176900Y-61475853D01*
X195331772Y-61411703D01*
X195496184Y-61379000D01*
X195663816Y-61379000D01*
X195828228Y-61411703D01*
X195828228Y-61411703D01*
G37*
G36*
X185586823Y-61391313D02*
G01*
X185747242Y-61439976D01*
X185814361Y-61475852D01*
X185895078Y-61518996D01*
X186024659Y-61625341D01*
X186131004Y-61754922D01*
X186131005Y-61754924D01*
X186210024Y-61902758D01*
X186258687Y-62063177D01*
X186275117Y-62230000D01*
X186258687Y-62396823D01*
X186210024Y-62557242D01*
X186169477Y-62633100D01*
X186131004Y-62705078D01*
X186024659Y-62834659D01*
X185895078Y-62941004D01*
X185895076Y-62941005D01*
X185747242Y-63020024D01*
X185586823Y-63068687D01*
X185461804Y-63081000D01*
X185378196Y-63081000D01*
X185253177Y-63068687D01*
X185092758Y-63020024D01*
X184944924Y-62941005D01*
X184944922Y-62941004D01*
X184815341Y-62834659D01*
X184708996Y-62705078D01*
X184670523Y-62633100D01*
X184629976Y-62557242D01*
X184581313Y-62396823D01*
X184564883Y-62230000D01*
X184581313Y-62063177D01*
X184629976Y-61902758D01*
X184708995Y-61754924D01*
X184708996Y-61754922D01*
X184815341Y-61625341D01*
X184944922Y-61518996D01*
X185025639Y-61475852D01*
X185092758Y-61439976D01*
X185253177Y-61391313D01*
X185378196Y-61379000D01*
X185461804Y-61379000D01*
X185586823Y-61391313D01*
X185586823Y-61391313D01*
G37*
G36*
X170346823Y-61391313D02*
G01*
X170507242Y-61439976D01*
X170574361Y-61475852D01*
X170655078Y-61518996D01*
X170784659Y-61625341D01*
X170891004Y-61754922D01*
X170891005Y-61754924D01*
X170970024Y-61902758D01*
X171018687Y-62063177D01*
X171035117Y-62230000D01*
X171018687Y-62396823D01*
X170970024Y-62557242D01*
X170929477Y-62633100D01*
X170891004Y-62705078D01*
X170784659Y-62834659D01*
X170655078Y-62941004D01*
X170655076Y-62941005D01*
X170507242Y-63020024D01*
X170346823Y-63068687D01*
X170221804Y-63081000D01*
X170138196Y-63081000D01*
X170013177Y-63068687D01*
X169852758Y-63020024D01*
X169704924Y-62941005D01*
X169704922Y-62941004D01*
X169575341Y-62834659D01*
X169468996Y-62705078D01*
X169430523Y-62633100D01*
X169389976Y-62557242D01*
X169341313Y-62396823D01*
X169324883Y-62230000D01*
X169341313Y-62063177D01*
X169389976Y-61902758D01*
X169468995Y-61754924D01*
X169468996Y-61754922D01*
X169575341Y-61625341D01*
X169704922Y-61518996D01*
X169785639Y-61475852D01*
X169852758Y-61439976D01*
X170013177Y-61391313D01*
X170138196Y-61379000D01*
X170221804Y-61379000D01*
X170346823Y-61391313D01*
X170346823Y-61391313D01*
G37*
G36*
X165348228Y-61411703D02*
G01*
X165503100Y-61475853D01*
X165642481Y-61568985D01*
X165761015Y-61687519D01*
X165854147Y-61826900D01*
X165918297Y-61981772D01*
X165951000Y-62146184D01*
X165951000Y-62313816D01*
X165918297Y-62478228D01*
X165854147Y-62633100D01*
X165761015Y-62772481D01*
X165642481Y-62891015D01*
X165503100Y-62984147D01*
X165348228Y-63048297D01*
X165183816Y-63081000D01*
X165016184Y-63081000D01*
X164851772Y-63048297D01*
X164696900Y-62984147D01*
X164557519Y-62891015D01*
X164438985Y-62772481D01*
X164345853Y-62633100D01*
X164281703Y-62478228D01*
X164249000Y-62313816D01*
X164249000Y-62146184D01*
X164281703Y-61981772D01*
X164345853Y-61826900D01*
X164438985Y-61687519D01*
X164557519Y-61568985D01*
X164696900Y-61475853D01*
X164851772Y-61411703D01*
X165016184Y-61379000D01*
X165183816Y-61379000D01*
X165348228Y-61411703D01*
X165348228Y-61411703D01*
G37*
G36*
X155106823Y-61391313D02*
G01*
X155267242Y-61439976D01*
X155334361Y-61475852D01*
X155415078Y-61518996D01*
X155544659Y-61625341D01*
X155651004Y-61754922D01*
X155651005Y-61754924D01*
X155730024Y-61902758D01*
X155778687Y-62063177D01*
X155795117Y-62230000D01*
X155778687Y-62396823D01*
X155730024Y-62557242D01*
X155689477Y-62633100D01*
X155651004Y-62705078D01*
X155544659Y-62834659D01*
X155415078Y-62941004D01*
X155415076Y-62941005D01*
X155267242Y-63020024D01*
X155106823Y-63068687D01*
X154981804Y-63081000D01*
X154898196Y-63081000D01*
X154773177Y-63068687D01*
X154612758Y-63020024D01*
X154464924Y-62941005D01*
X154464922Y-62941004D01*
X154335341Y-62834659D01*
X154228996Y-62705078D01*
X154190523Y-62633100D01*
X154149976Y-62557242D01*
X154101313Y-62396823D01*
X154084883Y-62230000D01*
X154101313Y-62063177D01*
X154149976Y-61902758D01*
X154228995Y-61754924D01*
X154228996Y-61754922D01*
X154335341Y-61625341D01*
X154464922Y-61518996D01*
X154545639Y-61475852D01*
X154612758Y-61439976D01*
X154773177Y-61391313D01*
X154898196Y-61379000D01*
X154981804Y-61379000D01*
X155106823Y-61391313D01*
X155106823Y-61391313D01*
G37*
G36*
X150108228Y-61411703D02*
G01*
X150263100Y-61475853D01*
X150402481Y-61568985D01*
X150521015Y-61687519D01*
X150614147Y-61826900D01*
X150678297Y-61981772D01*
X150711000Y-62146184D01*
X150711000Y-62313816D01*
X150678297Y-62478228D01*
X150614147Y-62633100D01*
X150521015Y-62772481D01*
X150402481Y-62891015D01*
X150263100Y-62984147D01*
X150108228Y-63048297D01*
X149943816Y-63081000D01*
X149776184Y-63081000D01*
X149611772Y-63048297D01*
X149456900Y-62984147D01*
X149317519Y-62891015D01*
X149198985Y-62772481D01*
X149105853Y-62633100D01*
X149041703Y-62478228D01*
X149009000Y-62313816D01*
X149009000Y-62146184D01*
X149041703Y-61981772D01*
X149105853Y-61826900D01*
X149198985Y-61687519D01*
X149317519Y-61568985D01*
X149456900Y-61475853D01*
X149611772Y-61411703D01*
X149776184Y-61379000D01*
X149943816Y-61379000D01*
X150108228Y-61411703D01*
X150108228Y-61411703D01*
G37*
G36*
X139866823Y-61391313D02*
G01*
X140027242Y-61439976D01*
X140094361Y-61475852D01*
X140175078Y-61518996D01*
X140304659Y-61625341D01*
X140411004Y-61754922D01*
X140411005Y-61754924D01*
X140490024Y-61902758D01*
X140538687Y-62063177D01*
X140555117Y-62230000D01*
X140538687Y-62396823D01*
X140490024Y-62557242D01*
X140449477Y-62633100D01*
X140411004Y-62705078D01*
X140304659Y-62834659D01*
X140175078Y-62941004D01*
X140175076Y-62941005D01*
X140027242Y-63020024D01*
X139866823Y-63068687D01*
X139741804Y-63081000D01*
X139658196Y-63081000D01*
X139533177Y-63068687D01*
X139372758Y-63020024D01*
X139224924Y-62941005D01*
X139224922Y-62941004D01*
X139095341Y-62834659D01*
X138988996Y-62705078D01*
X138950523Y-62633100D01*
X138909976Y-62557242D01*
X138861313Y-62396823D01*
X138844883Y-62230000D01*
X138861313Y-62063177D01*
X138909976Y-61902758D01*
X138988995Y-61754924D01*
X138988996Y-61754922D01*
X139095341Y-61625341D01*
X139224922Y-61518996D01*
X139305639Y-61475852D01*
X139372758Y-61439976D01*
X139533177Y-61391313D01*
X139658196Y-61379000D01*
X139741804Y-61379000D01*
X139866823Y-61391313D01*
X139866823Y-61391313D01*
G37*
G36*
X103118228Y-57601703D02*
G01*
X103273100Y-57665853D01*
X103412481Y-57758985D01*
X103531015Y-57877519D01*
X103624147Y-58016900D01*
X103688297Y-58171772D01*
X103721000Y-58336184D01*
X103721000Y-58503816D01*
X103688297Y-58668228D01*
X103624147Y-58823100D01*
X103531015Y-58962481D01*
X103412481Y-59081015D01*
X103273100Y-59174147D01*
X103118228Y-59238297D01*
X102953816Y-59271000D01*
X102786184Y-59271000D01*
X102621772Y-59238297D01*
X102466900Y-59174147D01*
X102327519Y-59081015D01*
X102208985Y-58962481D01*
X102115853Y-58823100D01*
X102051703Y-58668228D01*
X102019000Y-58503816D01*
X102019000Y-58336184D01*
X102051703Y-58171772D01*
X102115853Y-58016900D01*
X102208985Y-57877519D01*
X102327519Y-57758985D01*
X102466900Y-57665853D01*
X102621772Y-57601703D01*
X102786184Y-57569000D01*
X102953816Y-57569000D01*
X103118228Y-57601703D01*
X103118228Y-57601703D01*
G37*
G36*
X193991000Y-58101000D02*
G01*
X192089000Y-58101000D01*
X192089000Y-56199000D01*
X193991000Y-56199000D01*
X193991000Y-58101000D01*
X193991000Y-58101000D01*
G37*
G36*
X210501000Y-58101000D02*
G01*
X208599000Y-58101000D01*
X208599000Y-56199000D01*
X210501000Y-56199000D01*
X210501000Y-58101000D01*
X210501000Y-58101000D01*
G37*
G36*
X163511000Y-58101000D02*
G01*
X161609000Y-58101000D01*
X161609000Y-56199000D01*
X163511000Y-56199000D01*
X163511000Y-58101000D01*
X163511000Y-58101000D01*
G37*
G36*
X148271000Y-58101000D02*
G01*
X146369000Y-58101000D01*
X146369000Y-56199000D01*
X148271000Y-56199000D01*
X148271000Y-58101000D01*
X148271000Y-58101000D01*
G37*
G36*
X178751000Y-58101000D02*
G01*
X176849000Y-58101000D01*
X176849000Y-56199000D01*
X178751000Y-56199000D01*
X178751000Y-58101000D01*
X178751000Y-58101000D01*
G37*
G36*
X198921000Y-57951000D02*
G01*
X197319000Y-57951000D01*
X197319000Y-56349000D01*
X198921000Y-56349000D01*
X198921000Y-57951000D01*
X198921000Y-57951000D01*
G37*
G36*
X203433642Y-56379781D02*
G01*
X203579414Y-56440162D01*
X203579416Y-56440163D01*
X203710608Y-56527822D01*
X203822178Y-56639392D01*
X203909837Y-56770584D01*
X203909838Y-56770586D01*
X203970219Y-56916358D01*
X204001000Y-57071107D01*
X204001000Y-57228893D01*
X203970219Y-57383642D01*
X203909838Y-57529414D01*
X203909837Y-57529416D01*
X203822178Y-57660608D01*
X203710608Y-57772178D01*
X203579416Y-57859837D01*
X203579415Y-57859838D01*
X203579414Y-57859838D01*
X203433642Y-57920219D01*
X203278893Y-57951000D01*
X203121107Y-57951000D01*
X202966358Y-57920219D01*
X202820586Y-57859838D01*
X202820585Y-57859838D01*
X202820584Y-57859837D01*
X202689392Y-57772178D01*
X202577822Y-57660608D01*
X202490163Y-57529416D01*
X202490162Y-57529414D01*
X202429781Y-57383642D01*
X202399000Y-57228893D01*
X202399000Y-57071107D01*
X202429781Y-56916358D01*
X202490162Y-56770586D01*
X202490163Y-56770584D01*
X202577822Y-56639392D01*
X202689392Y-56527822D01*
X202820584Y-56440163D01*
X202820586Y-56440162D01*
X202966358Y-56379781D01*
X203121107Y-56349000D01*
X203278893Y-56349000D01*
X203433642Y-56379781D01*
X203433642Y-56379781D01*
G37*
G36*
X155173642Y-56379781D02*
G01*
X155319414Y-56440162D01*
X155319416Y-56440163D01*
X155450608Y-56527822D01*
X155562178Y-56639392D01*
X155649837Y-56770584D01*
X155649838Y-56770586D01*
X155710219Y-56916358D01*
X155741000Y-57071107D01*
X155741000Y-57228893D01*
X155710219Y-57383642D01*
X155649838Y-57529414D01*
X155649837Y-57529416D01*
X155562178Y-57660608D01*
X155450608Y-57772178D01*
X155319416Y-57859837D01*
X155319415Y-57859838D01*
X155319414Y-57859838D01*
X155173642Y-57920219D01*
X155018893Y-57951000D01*
X154861107Y-57951000D01*
X154706358Y-57920219D01*
X154560586Y-57859838D01*
X154560585Y-57859838D01*
X154560584Y-57859837D01*
X154429392Y-57772178D01*
X154317822Y-57660608D01*
X154230163Y-57529416D01*
X154230162Y-57529414D01*
X154169781Y-57383642D01*
X154139000Y-57228893D01*
X154139000Y-57071107D01*
X154169781Y-56916358D01*
X154230162Y-56770586D01*
X154230163Y-56770584D01*
X154317822Y-56639392D01*
X154429392Y-56527822D01*
X154560584Y-56440163D01*
X154560586Y-56440162D01*
X154706358Y-56379781D01*
X154861107Y-56349000D01*
X155018893Y-56349000D01*
X155173642Y-56379781D01*
X155173642Y-56379781D01*
G37*
G36*
X200893642Y-56379781D02*
G01*
X201039414Y-56440162D01*
X201039416Y-56440163D01*
X201170608Y-56527822D01*
X201282178Y-56639392D01*
X201369837Y-56770584D01*
X201369838Y-56770586D01*
X201430219Y-56916358D01*
X201461000Y-57071107D01*
X201461000Y-57228893D01*
X201430219Y-57383642D01*
X201369838Y-57529414D01*
X201369837Y-57529416D01*
X201282178Y-57660608D01*
X201170608Y-57772178D01*
X201039416Y-57859837D01*
X201039415Y-57859838D01*
X201039414Y-57859838D01*
X200893642Y-57920219D01*
X200738893Y-57951000D01*
X200581107Y-57951000D01*
X200426358Y-57920219D01*
X200280586Y-57859838D01*
X200280585Y-57859838D01*
X200280584Y-57859837D01*
X200149392Y-57772178D01*
X200037822Y-57660608D01*
X199950163Y-57529416D01*
X199950162Y-57529414D01*
X199889781Y-57383642D01*
X199859000Y-57228893D01*
X199859000Y-57071107D01*
X199889781Y-56916358D01*
X199950162Y-56770586D01*
X199950163Y-56770584D01*
X200037822Y-56639392D01*
X200149392Y-56527822D01*
X200280584Y-56440163D01*
X200280586Y-56440162D01*
X200426358Y-56379781D01*
X200581107Y-56349000D01*
X200738893Y-56349000D01*
X200893642Y-56379781D01*
X200893642Y-56379781D01*
G37*
G36*
X170853642Y-56379781D02*
G01*
X170999414Y-56440162D01*
X170999416Y-56440163D01*
X171130608Y-56527822D01*
X171242178Y-56639392D01*
X171329837Y-56770584D01*
X171329838Y-56770586D01*
X171390219Y-56916358D01*
X171421000Y-57071107D01*
X171421000Y-57228893D01*
X171390219Y-57383642D01*
X171329838Y-57529414D01*
X171329837Y-57529416D01*
X171242178Y-57660608D01*
X171130608Y-57772178D01*
X170999416Y-57859837D01*
X170999415Y-57859838D01*
X170999414Y-57859838D01*
X170853642Y-57920219D01*
X170698893Y-57951000D01*
X170541107Y-57951000D01*
X170386358Y-57920219D01*
X170240586Y-57859838D01*
X170240585Y-57859838D01*
X170240584Y-57859837D01*
X170109392Y-57772178D01*
X169997822Y-57660608D01*
X169910163Y-57529416D01*
X169910162Y-57529414D01*
X169849781Y-57383642D01*
X169819000Y-57228893D01*
X169819000Y-57071107D01*
X169849781Y-56916358D01*
X169910162Y-56770586D01*
X169910163Y-56770584D01*
X169997822Y-56639392D01*
X170109392Y-56527822D01*
X170240584Y-56440163D01*
X170240586Y-56440162D01*
X170386358Y-56379781D01*
X170541107Y-56349000D01*
X170698893Y-56349000D01*
X170853642Y-56379781D01*
X170853642Y-56379781D01*
G37*
G36*
X173393642Y-56379781D02*
G01*
X173539414Y-56440162D01*
X173539416Y-56440163D01*
X173670608Y-56527822D01*
X173782178Y-56639392D01*
X173869837Y-56770584D01*
X173869838Y-56770586D01*
X173930219Y-56916358D01*
X173961000Y-57071107D01*
X173961000Y-57228893D01*
X173930219Y-57383642D01*
X173869838Y-57529414D01*
X173869837Y-57529416D01*
X173782178Y-57660608D01*
X173670608Y-57772178D01*
X173539416Y-57859837D01*
X173539415Y-57859838D01*
X173539414Y-57859838D01*
X173393642Y-57920219D01*
X173238893Y-57951000D01*
X173081107Y-57951000D01*
X172926358Y-57920219D01*
X172780586Y-57859838D01*
X172780585Y-57859838D01*
X172780584Y-57859837D01*
X172649392Y-57772178D01*
X172537822Y-57660608D01*
X172450163Y-57529416D01*
X172450162Y-57529414D01*
X172389781Y-57383642D01*
X172359000Y-57228893D01*
X172359000Y-57071107D01*
X172389781Y-56916358D01*
X172450162Y-56770586D01*
X172450163Y-56770584D01*
X172537822Y-56639392D01*
X172649392Y-56527822D01*
X172780584Y-56440163D01*
X172780586Y-56440162D01*
X172926358Y-56379781D01*
X173081107Y-56349000D01*
X173238893Y-56349000D01*
X173393642Y-56379781D01*
X173393642Y-56379781D01*
G37*
G36*
X139933642Y-56379781D02*
G01*
X140079414Y-56440162D01*
X140079416Y-56440163D01*
X140210608Y-56527822D01*
X140322178Y-56639392D01*
X140409837Y-56770584D01*
X140409838Y-56770586D01*
X140470219Y-56916358D01*
X140501000Y-57071107D01*
X140501000Y-57228893D01*
X140470219Y-57383642D01*
X140409838Y-57529414D01*
X140409837Y-57529416D01*
X140322178Y-57660608D01*
X140210608Y-57772178D01*
X140079416Y-57859837D01*
X140079415Y-57859838D01*
X140079414Y-57859838D01*
X139933642Y-57920219D01*
X139778893Y-57951000D01*
X139621107Y-57951000D01*
X139466358Y-57920219D01*
X139320586Y-57859838D01*
X139320585Y-57859838D01*
X139320584Y-57859837D01*
X139189392Y-57772178D01*
X139077822Y-57660608D01*
X138990163Y-57529416D01*
X138990162Y-57529414D01*
X138929781Y-57383642D01*
X138899000Y-57228893D01*
X138899000Y-57071107D01*
X138929781Y-56916358D01*
X138990162Y-56770586D01*
X138990163Y-56770584D01*
X139077822Y-56639392D01*
X139189392Y-56527822D01*
X139320584Y-56440163D01*
X139320586Y-56440162D01*
X139466358Y-56379781D01*
X139621107Y-56349000D01*
X139778893Y-56349000D01*
X139933642Y-56379781D01*
X139933642Y-56379781D01*
G37*
G36*
X142473642Y-56379781D02*
G01*
X142619414Y-56440162D01*
X142619416Y-56440163D01*
X142750608Y-56527822D01*
X142862178Y-56639392D01*
X142949837Y-56770584D01*
X142949838Y-56770586D01*
X143010219Y-56916358D01*
X143041000Y-57071107D01*
X143041000Y-57228893D01*
X143010219Y-57383642D01*
X142949838Y-57529414D01*
X142949837Y-57529416D01*
X142862178Y-57660608D01*
X142750608Y-57772178D01*
X142619416Y-57859837D01*
X142619415Y-57859838D01*
X142619414Y-57859838D01*
X142473642Y-57920219D01*
X142318893Y-57951000D01*
X142161107Y-57951000D01*
X142006358Y-57920219D01*
X141860586Y-57859838D01*
X141860585Y-57859838D01*
X141860584Y-57859837D01*
X141729392Y-57772178D01*
X141617822Y-57660608D01*
X141530163Y-57529416D01*
X141530162Y-57529414D01*
X141469781Y-57383642D01*
X141439000Y-57228893D01*
X141439000Y-57071107D01*
X141469781Y-56916358D01*
X141530162Y-56770586D01*
X141530163Y-56770584D01*
X141617822Y-56639392D01*
X141729392Y-56527822D01*
X141860584Y-56440163D01*
X141860586Y-56440162D01*
X142006358Y-56379781D01*
X142161107Y-56349000D01*
X142318893Y-56349000D01*
X142473642Y-56379781D01*
X142473642Y-56379781D01*
G37*
G36*
X185653642Y-56379781D02*
G01*
X185799414Y-56440162D01*
X185799416Y-56440163D01*
X185930608Y-56527822D01*
X186042178Y-56639392D01*
X186129837Y-56770584D01*
X186129838Y-56770586D01*
X186190219Y-56916358D01*
X186221000Y-57071107D01*
X186221000Y-57228893D01*
X186190219Y-57383642D01*
X186129838Y-57529414D01*
X186129837Y-57529416D01*
X186042178Y-57660608D01*
X185930608Y-57772178D01*
X185799416Y-57859837D01*
X185799415Y-57859838D01*
X185799414Y-57859838D01*
X185653642Y-57920219D01*
X185498893Y-57951000D01*
X185341107Y-57951000D01*
X185186358Y-57920219D01*
X185040586Y-57859838D01*
X185040585Y-57859838D01*
X185040584Y-57859837D01*
X184909392Y-57772178D01*
X184797822Y-57660608D01*
X184710163Y-57529416D01*
X184710162Y-57529414D01*
X184649781Y-57383642D01*
X184619000Y-57228893D01*
X184619000Y-57071107D01*
X184649781Y-56916358D01*
X184710162Y-56770586D01*
X184710163Y-56770584D01*
X184797822Y-56639392D01*
X184909392Y-56527822D01*
X185040584Y-56440163D01*
X185040586Y-56440162D01*
X185186358Y-56379781D01*
X185341107Y-56349000D01*
X185498893Y-56349000D01*
X185653642Y-56379781D01*
X185653642Y-56379781D01*
G37*
G36*
X168881000Y-57951000D02*
G01*
X167279000Y-57951000D01*
X167279000Y-56349000D01*
X168881000Y-56349000D01*
X168881000Y-57951000D01*
X168881000Y-57951000D01*
G37*
G36*
X188193642Y-56379781D02*
G01*
X188339414Y-56440162D01*
X188339416Y-56440163D01*
X188470608Y-56527822D01*
X188582178Y-56639392D01*
X188669837Y-56770584D01*
X188669838Y-56770586D01*
X188730219Y-56916358D01*
X188761000Y-57071107D01*
X188761000Y-57228893D01*
X188730219Y-57383642D01*
X188669838Y-57529414D01*
X188669837Y-57529416D01*
X188582178Y-57660608D01*
X188470608Y-57772178D01*
X188339416Y-57859837D01*
X188339415Y-57859838D01*
X188339414Y-57859838D01*
X188193642Y-57920219D01*
X188038893Y-57951000D01*
X187881107Y-57951000D01*
X187726358Y-57920219D01*
X187580586Y-57859838D01*
X187580585Y-57859838D01*
X187580584Y-57859837D01*
X187449392Y-57772178D01*
X187337822Y-57660608D01*
X187250163Y-57529416D01*
X187250162Y-57529414D01*
X187189781Y-57383642D01*
X187159000Y-57228893D01*
X187159000Y-57071107D01*
X187189781Y-56916358D01*
X187250162Y-56770586D01*
X187250163Y-56770584D01*
X187337822Y-56639392D01*
X187449392Y-56527822D01*
X187580584Y-56440163D01*
X187580586Y-56440162D01*
X187726358Y-56379781D01*
X187881107Y-56349000D01*
X188038893Y-56349000D01*
X188193642Y-56379781D01*
X188193642Y-56379781D01*
G37*
G36*
X183681000Y-57951000D02*
G01*
X182079000Y-57951000D01*
X182079000Y-56349000D01*
X183681000Y-56349000D01*
X183681000Y-57951000D01*
X183681000Y-57951000D01*
G37*
G36*
X157713642Y-56379781D02*
G01*
X157859414Y-56440162D01*
X157859416Y-56440163D01*
X157990608Y-56527822D01*
X158102178Y-56639392D01*
X158189837Y-56770584D01*
X158189838Y-56770586D01*
X158250219Y-56916358D01*
X158281000Y-57071107D01*
X158281000Y-57228893D01*
X158250219Y-57383642D01*
X158189838Y-57529414D01*
X158189837Y-57529416D01*
X158102178Y-57660608D01*
X157990608Y-57772178D01*
X157859416Y-57859837D01*
X157859415Y-57859838D01*
X157859414Y-57859838D01*
X157713642Y-57920219D01*
X157558893Y-57951000D01*
X157401107Y-57951000D01*
X157246358Y-57920219D01*
X157100586Y-57859838D01*
X157100585Y-57859838D01*
X157100584Y-57859837D01*
X156969392Y-57772178D01*
X156857822Y-57660608D01*
X156770163Y-57529416D01*
X156770162Y-57529414D01*
X156709781Y-57383642D01*
X156679000Y-57228893D01*
X156679000Y-57071107D01*
X156709781Y-56916358D01*
X156770162Y-56770586D01*
X156770163Y-56770584D01*
X156857822Y-56639392D01*
X156969392Y-56527822D01*
X157100584Y-56440163D01*
X157100586Y-56440162D01*
X157246358Y-56379781D01*
X157401107Y-56349000D01*
X157558893Y-56349000D01*
X157713642Y-56379781D01*
X157713642Y-56379781D01*
G37*
G36*
X153201000Y-57951000D02*
G01*
X151599000Y-57951000D01*
X151599000Y-56349000D01*
X153201000Y-56349000D01*
X153201000Y-57951000D01*
X153201000Y-57951000D01*
G37*
G36*
X137961000Y-57951000D02*
G01*
X136359000Y-57951000D01*
X136359000Y-56349000D01*
X137961000Y-56349000D01*
X137961000Y-57951000D01*
X137961000Y-57951000D01*
G37*
G36*
X147597395Y-53695546D02*
G01*
X147770466Y-53767234D01*
X147770467Y-53767235D01*
X147926227Y-53871310D01*
X148058690Y-54003773D01*
X148058691Y-54003775D01*
X148162766Y-54159534D01*
X148234454Y-54332605D01*
X148271000Y-54516333D01*
X148271000Y-54703667D01*
X148234454Y-54887395D01*
X148162766Y-55060466D01*
X148162765Y-55060467D01*
X148058690Y-55216227D01*
X147926227Y-55348690D01*
X147847818Y-55401081D01*
X147770466Y-55452766D01*
X147597395Y-55524454D01*
X147413667Y-55561000D01*
X147226333Y-55561000D01*
X147042605Y-55524454D01*
X146869534Y-55452766D01*
X146792182Y-55401081D01*
X146713773Y-55348690D01*
X146581310Y-55216227D01*
X146477235Y-55060467D01*
X146477234Y-55060466D01*
X146405546Y-54887395D01*
X146369000Y-54703667D01*
X146369000Y-54516333D01*
X146405546Y-54332605D01*
X146477234Y-54159534D01*
X146581309Y-54003775D01*
X146581310Y-54003773D01*
X146713773Y-53871310D01*
X146869533Y-53767235D01*
X146869534Y-53767234D01*
X147042605Y-53695546D01*
X147226333Y-53659000D01*
X147413667Y-53659000D01*
X147597395Y-53695546D01*
X147597395Y-53695546D01*
G37*
G36*
X209827395Y-53695546D02*
G01*
X210000466Y-53767234D01*
X210000467Y-53767235D01*
X210156227Y-53871310D01*
X210288690Y-54003773D01*
X210288691Y-54003775D01*
X210392766Y-54159534D01*
X210464454Y-54332605D01*
X210501000Y-54516333D01*
X210501000Y-54703667D01*
X210464454Y-54887395D01*
X210392766Y-55060466D01*
X210392765Y-55060467D01*
X210288690Y-55216227D01*
X210156227Y-55348690D01*
X210077818Y-55401081D01*
X210000466Y-55452766D01*
X209827395Y-55524454D01*
X209643667Y-55561000D01*
X209456333Y-55561000D01*
X209272605Y-55524454D01*
X209099534Y-55452766D01*
X209022182Y-55401081D01*
X208943773Y-55348690D01*
X208811310Y-55216227D01*
X208707235Y-55060467D01*
X208707234Y-55060466D01*
X208635546Y-54887395D01*
X208599000Y-54703667D01*
X208599000Y-54516333D01*
X208635546Y-54332605D01*
X208707234Y-54159534D01*
X208811309Y-54003775D01*
X208811310Y-54003773D01*
X208943773Y-53871310D01*
X209099533Y-53767235D01*
X209099534Y-53767234D01*
X209272605Y-53695546D01*
X209456333Y-53659000D01*
X209643667Y-53659000D01*
X209827395Y-53695546D01*
X209827395Y-53695546D01*
G37*
G36*
X162837395Y-53695546D02*
G01*
X163010466Y-53767234D01*
X163010467Y-53767235D01*
X163166227Y-53871310D01*
X163298690Y-54003773D01*
X163298691Y-54003775D01*
X163402766Y-54159534D01*
X163474454Y-54332605D01*
X163511000Y-54516333D01*
X163511000Y-54703667D01*
X163474454Y-54887395D01*
X163402766Y-55060466D01*
X163402765Y-55060467D01*
X163298690Y-55216227D01*
X163166227Y-55348690D01*
X163087818Y-55401081D01*
X163010466Y-55452766D01*
X162837395Y-55524454D01*
X162653667Y-55561000D01*
X162466333Y-55561000D01*
X162282605Y-55524454D01*
X162109534Y-55452766D01*
X162032182Y-55401081D01*
X161953773Y-55348690D01*
X161821310Y-55216227D01*
X161717235Y-55060467D01*
X161717234Y-55060466D01*
X161645546Y-54887395D01*
X161609000Y-54703667D01*
X161609000Y-54516333D01*
X161645546Y-54332605D01*
X161717234Y-54159534D01*
X161821309Y-54003775D01*
X161821310Y-54003773D01*
X161953773Y-53871310D01*
X162109533Y-53767235D01*
X162109534Y-53767234D01*
X162282605Y-53695546D01*
X162466333Y-53659000D01*
X162653667Y-53659000D01*
X162837395Y-53695546D01*
X162837395Y-53695546D01*
G37*
G36*
X178077395Y-53695546D02*
G01*
X178250466Y-53767234D01*
X178250467Y-53767235D01*
X178406227Y-53871310D01*
X178538690Y-54003773D01*
X178538691Y-54003775D01*
X178642766Y-54159534D01*
X178714454Y-54332605D01*
X178751000Y-54516333D01*
X178751000Y-54703667D01*
X178714454Y-54887395D01*
X178642766Y-55060466D01*
X178642765Y-55060467D01*
X178538690Y-55216227D01*
X178406227Y-55348690D01*
X178327818Y-55401081D01*
X178250466Y-55452766D01*
X178077395Y-55524454D01*
X177893667Y-55561000D01*
X177706333Y-55561000D01*
X177522605Y-55524454D01*
X177349534Y-55452766D01*
X177272182Y-55401081D01*
X177193773Y-55348690D01*
X177061310Y-55216227D01*
X176957235Y-55060467D01*
X176957234Y-55060466D01*
X176885546Y-54887395D01*
X176849000Y-54703667D01*
X176849000Y-54516333D01*
X176885546Y-54332605D01*
X176957234Y-54159534D01*
X177061309Y-54003775D01*
X177061310Y-54003773D01*
X177193773Y-53871310D01*
X177349533Y-53767235D01*
X177349534Y-53767234D01*
X177522605Y-53695546D01*
X177706333Y-53659000D01*
X177893667Y-53659000D01*
X178077395Y-53695546D01*
X178077395Y-53695546D01*
G37*
G36*
X193317395Y-53695546D02*
G01*
X193490466Y-53767234D01*
X193490467Y-53767235D01*
X193646227Y-53871310D01*
X193778690Y-54003773D01*
X193778691Y-54003775D01*
X193882766Y-54159534D01*
X193954454Y-54332605D01*
X193991000Y-54516333D01*
X193991000Y-54703667D01*
X193954454Y-54887395D01*
X193882766Y-55060466D01*
X193882765Y-55060467D01*
X193778690Y-55216227D01*
X193646227Y-55348690D01*
X193567818Y-55401081D01*
X193490466Y-55452766D01*
X193317395Y-55524454D01*
X193133667Y-55561000D01*
X192946333Y-55561000D01*
X192762605Y-55524454D01*
X192589534Y-55452766D01*
X192512182Y-55401081D01*
X192433773Y-55348690D01*
X192301310Y-55216227D01*
X192197235Y-55060467D01*
X192197234Y-55060466D01*
X192125546Y-54887395D01*
X192089000Y-54703667D01*
X192089000Y-54516333D01*
X192125546Y-54332605D01*
X192197234Y-54159534D01*
X192301309Y-54003775D01*
X192301310Y-54003773D01*
X192433773Y-53871310D01*
X192589533Y-53767235D01*
X192589534Y-53767234D01*
X192762605Y-53695546D01*
X192946333Y-53659000D01*
X193133667Y-53659000D01*
X193317395Y-53695546D01*
X193317395Y-53695546D01*
G37*
G36*
X210986823Y-49961313D02*
G01*
X211147242Y-50009976D01*
X211279906Y-50080886D01*
X211295078Y-50088996D01*
X211424659Y-50195341D01*
X211531004Y-50324922D01*
X211531005Y-50324924D01*
X211610024Y-50472758D01*
X211658687Y-50633177D01*
X211675117Y-50800000D01*
X211658687Y-50966823D01*
X211610024Y-51127242D01*
X211539114Y-51259906D01*
X211531004Y-51275078D01*
X211424659Y-51404659D01*
X211295078Y-51511004D01*
X211295076Y-51511005D01*
X211147242Y-51590024D01*
X210986823Y-51638687D01*
X210861804Y-51651000D01*
X210778196Y-51651000D01*
X210653177Y-51638687D01*
X210492758Y-51590024D01*
X210344924Y-51511005D01*
X210344922Y-51511004D01*
X210215341Y-51404659D01*
X210108996Y-51275078D01*
X210100886Y-51259906D01*
X210029976Y-51127242D01*
X209981313Y-50966823D01*
X209964883Y-50800000D01*
X209981313Y-50633177D01*
X210029976Y-50472758D01*
X210108995Y-50324924D01*
X210108996Y-50324922D01*
X210215341Y-50195341D01*
X210344922Y-50088996D01*
X210360094Y-50080886D01*
X210492758Y-50009976D01*
X210653177Y-49961313D01*
X210778196Y-49949000D01*
X210861804Y-49949000D01*
X210986823Y-49961313D01*
X210986823Y-49961313D01*
G37*
G36*
X140551000Y-51651000D02*
G01*
X138849000Y-51651000D01*
X138849000Y-49949000D01*
X140551000Y-49949000D01*
X140551000Y-51651000D01*
X140551000Y-51651000D01*
G37*
G36*
X150026823Y-49961313D02*
G01*
X150187242Y-50009976D01*
X150319906Y-50080886D01*
X150335078Y-50088996D01*
X150464659Y-50195341D01*
X150571004Y-50324922D01*
X150571005Y-50324924D01*
X150650024Y-50472758D01*
X150698687Y-50633177D01*
X150715117Y-50800000D01*
X150698687Y-50966823D01*
X150650024Y-51127242D01*
X150579114Y-51259906D01*
X150571004Y-51275078D01*
X150464659Y-51404659D01*
X150335078Y-51511004D01*
X150335076Y-51511005D01*
X150187242Y-51590024D01*
X150026823Y-51638687D01*
X149901804Y-51651000D01*
X149818196Y-51651000D01*
X149693177Y-51638687D01*
X149532758Y-51590024D01*
X149384924Y-51511005D01*
X149384922Y-51511004D01*
X149255341Y-51404659D01*
X149148996Y-51275078D01*
X149140886Y-51259906D01*
X149069976Y-51127242D01*
X149021313Y-50966823D01*
X149004883Y-50800000D01*
X149021313Y-50633177D01*
X149069976Y-50472758D01*
X149148995Y-50324924D01*
X149148996Y-50324922D01*
X149255341Y-50195341D01*
X149384922Y-50088996D01*
X149400094Y-50080886D01*
X149532758Y-50009976D01*
X149693177Y-49961313D01*
X149818196Y-49949000D01*
X149901804Y-49949000D01*
X150026823Y-49961313D01*
X150026823Y-49961313D01*
G37*
G36*
X155791000Y-51651000D02*
G01*
X154089000Y-51651000D01*
X154089000Y-49949000D01*
X155791000Y-49949000D01*
X155791000Y-51651000D01*
X155791000Y-51651000D01*
G37*
G36*
X165266823Y-49961313D02*
G01*
X165427242Y-50009976D01*
X165559906Y-50080886D01*
X165575078Y-50088996D01*
X165704659Y-50195341D01*
X165811004Y-50324922D01*
X165811005Y-50324924D01*
X165890024Y-50472758D01*
X165938687Y-50633177D01*
X165955117Y-50800000D01*
X165938687Y-50966823D01*
X165890024Y-51127242D01*
X165819114Y-51259906D01*
X165811004Y-51275078D01*
X165704659Y-51404659D01*
X165575078Y-51511004D01*
X165575076Y-51511005D01*
X165427242Y-51590024D01*
X165266823Y-51638687D01*
X165141804Y-51651000D01*
X165058196Y-51651000D01*
X164933177Y-51638687D01*
X164772758Y-51590024D01*
X164624924Y-51511005D01*
X164624922Y-51511004D01*
X164495341Y-51404659D01*
X164388996Y-51275078D01*
X164380886Y-51259906D01*
X164309976Y-51127242D01*
X164261313Y-50966823D01*
X164244883Y-50800000D01*
X164261313Y-50633177D01*
X164309976Y-50472758D01*
X164388995Y-50324924D01*
X164388996Y-50324922D01*
X164495341Y-50195341D01*
X164624922Y-50088996D01*
X164640094Y-50080886D01*
X164772758Y-50009976D01*
X164933177Y-49961313D01*
X165058196Y-49949000D01*
X165141804Y-49949000D01*
X165266823Y-49961313D01*
X165266823Y-49961313D01*
G37*
G36*
X180506823Y-49961313D02*
G01*
X180667242Y-50009976D01*
X180799906Y-50080886D01*
X180815078Y-50088996D01*
X180944659Y-50195341D01*
X181051004Y-50324922D01*
X181051005Y-50324924D01*
X181130024Y-50472758D01*
X181178687Y-50633177D01*
X181195117Y-50800000D01*
X181178687Y-50966823D01*
X181130024Y-51127242D01*
X181059114Y-51259906D01*
X181051004Y-51275078D01*
X180944659Y-51404659D01*
X180815078Y-51511004D01*
X180815076Y-51511005D01*
X180667242Y-51590024D01*
X180506823Y-51638687D01*
X180381804Y-51651000D01*
X180298196Y-51651000D01*
X180173177Y-51638687D01*
X180012758Y-51590024D01*
X179864924Y-51511005D01*
X179864922Y-51511004D01*
X179735341Y-51404659D01*
X179628996Y-51275078D01*
X179620886Y-51259906D01*
X179549976Y-51127242D01*
X179501313Y-50966823D01*
X179484883Y-50800000D01*
X179501313Y-50633177D01*
X179549976Y-50472758D01*
X179628995Y-50324924D01*
X179628996Y-50324922D01*
X179735341Y-50195341D01*
X179864922Y-50088996D01*
X179880094Y-50080886D01*
X180012758Y-50009976D01*
X180173177Y-49961313D01*
X180298196Y-49949000D01*
X180381804Y-49949000D01*
X180506823Y-49961313D01*
X180506823Y-49961313D01*
G37*
G36*
X186271000Y-51651000D02*
G01*
X184569000Y-51651000D01*
X184569000Y-49949000D01*
X186271000Y-49949000D01*
X186271000Y-51651000D01*
X186271000Y-51651000D01*
G37*
G36*
X195746823Y-49961313D02*
G01*
X195907242Y-50009976D01*
X196039906Y-50080886D01*
X196055078Y-50088996D01*
X196184659Y-50195341D01*
X196291004Y-50324922D01*
X196291005Y-50324924D01*
X196370024Y-50472758D01*
X196418687Y-50633177D01*
X196435117Y-50800000D01*
X196418687Y-50966823D01*
X196370024Y-51127242D01*
X196299114Y-51259906D01*
X196291004Y-51275078D01*
X196184659Y-51404659D01*
X196055078Y-51511004D01*
X196055076Y-51511005D01*
X195907242Y-51590024D01*
X195746823Y-51638687D01*
X195621804Y-51651000D01*
X195538196Y-51651000D01*
X195413177Y-51638687D01*
X195252758Y-51590024D01*
X195104924Y-51511005D01*
X195104922Y-51511004D01*
X194975341Y-51404659D01*
X194868996Y-51275078D01*
X194860886Y-51259906D01*
X194789976Y-51127242D01*
X194741313Y-50966823D01*
X194724883Y-50800000D01*
X194741313Y-50633177D01*
X194789976Y-50472758D01*
X194868995Y-50324924D01*
X194868996Y-50324922D01*
X194975341Y-50195341D01*
X195104922Y-50088996D01*
X195120094Y-50080886D01*
X195252758Y-50009976D01*
X195413177Y-49961313D01*
X195538196Y-49949000D01*
X195621804Y-49949000D01*
X195746823Y-49961313D01*
X195746823Y-49961313D01*
G37*
G36*
X201511000Y-51651000D02*
G01*
X199809000Y-51651000D01*
X199809000Y-49949000D01*
X201511000Y-49949000D01*
X201511000Y-51651000D01*
X201511000Y-51651000D01*
G37*
G36*
X171031000Y-51651000D02*
G01*
X169329000Y-51651000D01*
X169329000Y-49949000D01*
X171031000Y-49949000D01*
X171031000Y-51651000D01*
X171031000Y-51651000D01*
G37*
G36*
X103036823Y-47421313D02*
G01*
X103197242Y-47469976D01*
X103329906Y-47540886D01*
X103345078Y-47548996D01*
X103474659Y-47655341D01*
X103581004Y-47784922D01*
X103581005Y-47784924D01*
X103660024Y-47932758D01*
X103708687Y-48093177D01*
X103725117Y-48260000D01*
X103708687Y-48426823D01*
X103660024Y-48587242D01*
X103589114Y-48719906D01*
X103581004Y-48735078D01*
X103474659Y-48864659D01*
X103345078Y-48971004D01*
X103345076Y-48971005D01*
X103197242Y-49050024D01*
X103036823Y-49098687D01*
X102911804Y-49111000D01*
X102828196Y-49111000D01*
X102703177Y-49098687D01*
X102542758Y-49050024D01*
X102394924Y-48971005D01*
X102394922Y-48971004D01*
X102265341Y-48864659D01*
X102158996Y-48735078D01*
X102150886Y-48719906D01*
X102079976Y-48587242D01*
X102031313Y-48426823D01*
X102014883Y-48260000D01*
X102031313Y-48093177D01*
X102079976Y-47932758D01*
X102158995Y-47784924D01*
X102158996Y-47784922D01*
X102265341Y-47655341D01*
X102394922Y-47548996D01*
X102410094Y-47540886D01*
X102542758Y-47469976D01*
X102703177Y-47421313D01*
X102828196Y-47409000D01*
X102911804Y-47409000D01*
X103036823Y-47421313D01*
X103036823Y-47421313D01*
G37*
G36*
X104417395Y-40995546D02*
G01*
X104590466Y-41067234D01*
X104590467Y-41067235D01*
X104746227Y-41171310D01*
X104878690Y-41303773D01*
X104878691Y-41303775D01*
X104982766Y-41459534D01*
X105054454Y-41632605D01*
X105091000Y-41816333D01*
X105091000Y-42003667D01*
X105054454Y-42187395D01*
X104982766Y-42360466D01*
X104982765Y-42360467D01*
X104878690Y-42516227D01*
X104746227Y-42648690D01*
X104667818Y-42701081D01*
X104590466Y-42752766D01*
X104417395Y-42824454D01*
X104233667Y-42861000D01*
X104046333Y-42861000D01*
X103862605Y-42824454D01*
X103689534Y-42752766D01*
X103612182Y-42701081D01*
X103533773Y-42648690D01*
X103401310Y-42516227D01*
X103297235Y-42360467D01*
X103297234Y-42360466D01*
X103225546Y-42187395D01*
X103189000Y-42003667D01*
X103189000Y-41816333D01*
X103225546Y-41632605D01*
X103297234Y-41459534D01*
X103401309Y-41303775D01*
X103401310Y-41303773D01*
X103533773Y-41171310D01*
X103689533Y-41067235D01*
X103689534Y-41067234D01*
X103862605Y-40995546D01*
X104046333Y-40959000D01*
X104233667Y-40959000D01*
X104417395Y-40995546D01*
X104417395Y-40995546D01*
G37*
G36*
X114577395Y-40995546D02*
G01*
X114750466Y-41067234D01*
X114750467Y-41067235D01*
X114906227Y-41171310D01*
X115038690Y-41303773D01*
X115038691Y-41303775D01*
X115142766Y-41459534D01*
X115214454Y-41632605D01*
X115251000Y-41816333D01*
X115251000Y-42003667D01*
X115214454Y-42187395D01*
X115142766Y-42360466D01*
X115142765Y-42360467D01*
X115038690Y-42516227D01*
X114906227Y-42648690D01*
X114827818Y-42701081D01*
X114750466Y-42752766D01*
X114577395Y-42824454D01*
X114393667Y-42861000D01*
X114206333Y-42861000D01*
X114022605Y-42824454D01*
X113849534Y-42752766D01*
X113772182Y-42701081D01*
X113693773Y-42648690D01*
X113561310Y-42516227D01*
X113457235Y-42360467D01*
X113457234Y-42360466D01*
X113385546Y-42187395D01*
X113349000Y-42003667D01*
X113349000Y-41816333D01*
X113385546Y-41632605D01*
X113457234Y-41459534D01*
X113561309Y-41303775D01*
X113561310Y-41303773D01*
X113693773Y-41171310D01*
X113849533Y-41067235D01*
X113849534Y-41067234D01*
X114022605Y-40995546D01*
X114206333Y-40959000D01*
X114393667Y-40959000D01*
X114577395Y-40995546D01*
X114577395Y-40995546D01*
G37*
G36*
X112037395Y-40995546D02*
G01*
X112210466Y-41067234D01*
X112210467Y-41067235D01*
X112366227Y-41171310D01*
X112498690Y-41303773D01*
X112498691Y-41303775D01*
X112602766Y-41459534D01*
X112674454Y-41632605D01*
X112711000Y-41816333D01*
X112711000Y-42003667D01*
X112674454Y-42187395D01*
X112602766Y-42360466D01*
X112602765Y-42360467D01*
X112498690Y-42516227D01*
X112366227Y-42648690D01*
X112287818Y-42701081D01*
X112210466Y-42752766D01*
X112037395Y-42824454D01*
X111853667Y-42861000D01*
X111666333Y-42861000D01*
X111482605Y-42824454D01*
X111309534Y-42752766D01*
X111232182Y-42701081D01*
X111153773Y-42648690D01*
X111021310Y-42516227D01*
X110917235Y-42360467D01*
X110917234Y-42360466D01*
X110845546Y-42187395D01*
X110809000Y-42003667D01*
X110809000Y-41816333D01*
X110845546Y-41632605D01*
X110917234Y-41459534D01*
X111021309Y-41303775D01*
X111021310Y-41303773D01*
X111153773Y-41171310D01*
X111309533Y-41067235D01*
X111309534Y-41067234D01*
X111482605Y-40995546D01*
X111666333Y-40959000D01*
X111853667Y-40959000D01*
X112037395Y-40995546D01*
X112037395Y-40995546D01*
G37*
G36*
X106957395Y-40995546D02*
G01*
X107130466Y-41067234D01*
X107130467Y-41067235D01*
X107286227Y-41171310D01*
X107418690Y-41303773D01*
X107418691Y-41303775D01*
X107522766Y-41459534D01*
X107594454Y-41632605D01*
X107631000Y-41816333D01*
X107631000Y-42003667D01*
X107594454Y-42187395D01*
X107522766Y-42360466D01*
X107522765Y-42360467D01*
X107418690Y-42516227D01*
X107286227Y-42648690D01*
X107207818Y-42701081D01*
X107130466Y-42752766D01*
X106957395Y-42824454D01*
X106773667Y-42861000D01*
X106586333Y-42861000D01*
X106402605Y-42824454D01*
X106229534Y-42752766D01*
X106152182Y-42701081D01*
X106073773Y-42648690D01*
X105941310Y-42516227D01*
X105837235Y-42360467D01*
X105837234Y-42360466D01*
X105765546Y-42187395D01*
X105729000Y-42003667D01*
X105729000Y-41816333D01*
X105765546Y-41632605D01*
X105837234Y-41459534D01*
X105941309Y-41303775D01*
X105941310Y-41303773D01*
X106073773Y-41171310D01*
X106229533Y-41067235D01*
X106229534Y-41067234D01*
X106402605Y-40995546D01*
X106586333Y-40959000D01*
X106773667Y-40959000D01*
X106957395Y-40995546D01*
X106957395Y-40995546D01*
G37*
G36*
X117117395Y-40995546D02*
G01*
X117290466Y-41067234D01*
X117290467Y-41067235D01*
X117446227Y-41171310D01*
X117578690Y-41303773D01*
X117578691Y-41303775D01*
X117682766Y-41459534D01*
X117754454Y-41632605D01*
X117791000Y-41816333D01*
X117791000Y-42003667D01*
X117754454Y-42187395D01*
X117682766Y-42360466D01*
X117682765Y-42360467D01*
X117578690Y-42516227D01*
X117446227Y-42648690D01*
X117367818Y-42701081D01*
X117290466Y-42752766D01*
X117117395Y-42824454D01*
X116933667Y-42861000D01*
X116746333Y-42861000D01*
X116562605Y-42824454D01*
X116389534Y-42752766D01*
X116312182Y-42701081D01*
X116233773Y-42648690D01*
X116101310Y-42516227D01*
X115997235Y-42360467D01*
X115997234Y-42360466D01*
X115925546Y-42187395D01*
X115889000Y-42003667D01*
X115889000Y-41816333D01*
X115925546Y-41632605D01*
X115997234Y-41459534D01*
X116101309Y-41303775D01*
X116101310Y-41303773D01*
X116233773Y-41171310D01*
X116389533Y-41067235D01*
X116389534Y-41067234D01*
X116562605Y-40995546D01*
X116746333Y-40959000D01*
X116933667Y-40959000D01*
X117117395Y-40995546D01*
X117117395Y-40995546D01*
G37*
G36*
X109497395Y-40995546D02*
G01*
X109670466Y-41067234D01*
X109670467Y-41067235D01*
X109826227Y-41171310D01*
X109958690Y-41303773D01*
X109958691Y-41303775D01*
X110062766Y-41459534D01*
X110134454Y-41632605D01*
X110171000Y-41816333D01*
X110171000Y-42003667D01*
X110134454Y-42187395D01*
X110062766Y-42360466D01*
X110062765Y-42360467D01*
X109958690Y-42516227D01*
X109826227Y-42648690D01*
X109747818Y-42701081D01*
X109670466Y-42752766D01*
X109497395Y-42824454D01*
X109313667Y-42861000D01*
X109126333Y-42861000D01*
X108942605Y-42824454D01*
X108769534Y-42752766D01*
X108692182Y-42701081D01*
X108613773Y-42648690D01*
X108481310Y-42516227D01*
X108377235Y-42360467D01*
X108377234Y-42360466D01*
X108305546Y-42187395D01*
X108269000Y-42003667D01*
X108269000Y-41816333D01*
X108305546Y-41632605D01*
X108377234Y-41459534D01*
X108481309Y-41303775D01*
X108481310Y-41303773D01*
X108613773Y-41171310D01*
X108769533Y-41067235D01*
X108769534Y-41067234D01*
X108942605Y-40995546D01*
X109126333Y-40959000D01*
X109313667Y-40959000D01*
X109497395Y-40995546D01*
X109497395Y-40995546D01*
G37*
G36*
X119657395Y-40995546D02*
G01*
X119830466Y-41067234D01*
X119830467Y-41067235D01*
X119986227Y-41171310D01*
X120118690Y-41303773D01*
X120118691Y-41303775D01*
X120222766Y-41459534D01*
X120294454Y-41632605D01*
X120331000Y-41816333D01*
X120331000Y-42003667D01*
X120294454Y-42187395D01*
X120222766Y-42360466D01*
X120222765Y-42360467D01*
X120118690Y-42516227D01*
X119986227Y-42648690D01*
X119907818Y-42701081D01*
X119830466Y-42752766D01*
X119657395Y-42824454D01*
X119473667Y-42861000D01*
X119286333Y-42861000D01*
X119102605Y-42824454D01*
X118929534Y-42752766D01*
X118852182Y-42701081D01*
X118773773Y-42648690D01*
X118641310Y-42516227D01*
X118537235Y-42360467D01*
X118537234Y-42360466D01*
X118465546Y-42187395D01*
X118429000Y-42003667D01*
X118429000Y-41816333D01*
X118465546Y-41632605D01*
X118537234Y-41459534D01*
X118641309Y-41303775D01*
X118641310Y-41303773D01*
X118773773Y-41171310D01*
X118929533Y-41067235D01*
X118929534Y-41067234D01*
X119102605Y-40995546D01*
X119286333Y-40959000D01*
X119473667Y-40959000D01*
X119657395Y-40995546D01*
X119657395Y-40995546D01*
G37*
G36*
X122197395Y-40995546D02*
G01*
X122370466Y-41067234D01*
X122370467Y-41067235D01*
X122526227Y-41171310D01*
X122658690Y-41303773D01*
X122658691Y-41303775D01*
X122762766Y-41459534D01*
X122834454Y-41632605D01*
X122871000Y-41816333D01*
X122871000Y-42003667D01*
X122834454Y-42187395D01*
X122762766Y-42360466D01*
X122762765Y-42360467D01*
X122658690Y-42516227D01*
X122526227Y-42648690D01*
X122447818Y-42701081D01*
X122370466Y-42752766D01*
X122197395Y-42824454D01*
X122013667Y-42861000D01*
X121826333Y-42861000D01*
X121642605Y-42824454D01*
X121469534Y-42752766D01*
X121392182Y-42701081D01*
X121313773Y-42648690D01*
X121181310Y-42516227D01*
X121077235Y-42360467D01*
X121077234Y-42360466D01*
X121005546Y-42187395D01*
X120969000Y-42003667D01*
X120969000Y-41816333D01*
X121005546Y-41632605D01*
X121077234Y-41459534D01*
X121181309Y-41303775D01*
X121181310Y-41303773D01*
X121313773Y-41171310D01*
X121469533Y-41067235D01*
X121469534Y-41067234D01*
X121642605Y-40995546D01*
X121826333Y-40959000D01*
X122013667Y-40959000D01*
X122197395Y-40995546D01*
X122197395Y-40995546D01*
G37*
G36*
X160322585Y-39118802D02*
G01*
X160472410Y-39148604D01*
X160754674Y-39265521D01*
X161008705Y-39435259D01*
X161224741Y-39651295D01*
X161394479Y-39905326D01*
X161511396Y-40187590D01*
X161571000Y-40487240D01*
X161571000Y-40792760D01*
X161511396Y-41092410D01*
X161394479Y-41374674D01*
X161224741Y-41628705D01*
X161008705Y-41844741D01*
X160754674Y-42014479D01*
X160472410Y-42131396D01*
X160322585Y-42161198D01*
X160172761Y-42191000D01*
X159867239Y-42191000D01*
X159717415Y-42161198D01*
X159567590Y-42131396D01*
X159285326Y-42014479D01*
X159031295Y-41844741D01*
X158815259Y-41628705D01*
X158645521Y-41374674D01*
X158528604Y-41092410D01*
X158469000Y-40792760D01*
X158469000Y-40487240D01*
X158528604Y-40187590D01*
X158645521Y-39905326D01*
X158815259Y-39651295D01*
X159031295Y-39435259D01*
X159285326Y-39265521D01*
X159567590Y-39148604D01*
X159717415Y-39118802D01*
X159867239Y-39089000D01*
X160172761Y-39089000D01*
X160322585Y-39118802D01*
X160322585Y-39118802D01*
G37*
G36*
X171752585Y-39118802D02*
G01*
X171902410Y-39148604D01*
X172184674Y-39265521D01*
X172438705Y-39435259D01*
X172654741Y-39651295D01*
X172824479Y-39905326D01*
X172941396Y-40187590D01*
X173001000Y-40487240D01*
X173001000Y-40792760D01*
X172941396Y-41092410D01*
X172824479Y-41374674D01*
X172654741Y-41628705D01*
X172438705Y-41844741D01*
X172184674Y-42014479D01*
X171902410Y-42131396D01*
X171752585Y-42161198D01*
X171602761Y-42191000D01*
X171297239Y-42191000D01*
X171147415Y-42161198D01*
X170997590Y-42131396D01*
X170715326Y-42014479D01*
X170461295Y-41844741D01*
X170245259Y-41628705D01*
X170075521Y-41374674D01*
X169958604Y-41092410D01*
X169899000Y-40792760D01*
X169899000Y-40487240D01*
X169958604Y-40187590D01*
X170075521Y-39905326D01*
X170245259Y-39651295D01*
X170461295Y-39435259D01*
X170715326Y-39265521D01*
X170997590Y-39148604D01*
X171147415Y-39118802D01*
X171297239Y-39089000D01*
X171602761Y-39089000D01*
X171752585Y-39118802D01*
X171752585Y-39118802D01*
G37*
G36*
X176832585Y-39118802D02*
G01*
X176982410Y-39148604D01*
X177264674Y-39265521D01*
X177518705Y-39435259D01*
X177734741Y-39651295D01*
X177904479Y-39905326D01*
X178021396Y-40187590D01*
X178081000Y-40487240D01*
X178081000Y-40792760D01*
X178021396Y-41092410D01*
X177904479Y-41374674D01*
X177734741Y-41628705D01*
X177518705Y-41844741D01*
X177264674Y-42014479D01*
X176982410Y-42131396D01*
X176832585Y-42161198D01*
X176682761Y-42191000D01*
X176377239Y-42191000D01*
X176227415Y-42161198D01*
X176077590Y-42131396D01*
X175795326Y-42014479D01*
X175541295Y-41844741D01*
X175325259Y-41628705D01*
X175155521Y-41374674D01*
X175038604Y-41092410D01*
X174979000Y-40792760D01*
X174979000Y-40487240D01*
X175038604Y-40187590D01*
X175155521Y-39905326D01*
X175325259Y-39651295D01*
X175541295Y-39435259D01*
X175795326Y-39265521D01*
X176077590Y-39148604D01*
X176227415Y-39118802D01*
X176377239Y-39089000D01*
X176682761Y-39089000D01*
X176832585Y-39118802D01*
X176832585Y-39118802D01*
G37*
G36*
X184431000Y-42191000D02*
G01*
X181329000Y-42191000D01*
X181329000Y-39089000D01*
X184431000Y-39089000D01*
X184431000Y-42191000D01*
X184431000Y-42191000D01*
G37*
G36*
X188262585Y-39118802D02*
G01*
X188412410Y-39148604D01*
X188694674Y-39265521D01*
X188948705Y-39435259D01*
X189164741Y-39651295D01*
X189334479Y-39905326D01*
X189451396Y-40187590D01*
X189511000Y-40487240D01*
X189511000Y-40792760D01*
X189451396Y-41092410D01*
X189334479Y-41374674D01*
X189164741Y-41628705D01*
X188948705Y-41844741D01*
X188694674Y-42014479D01*
X188412410Y-42131396D01*
X188262585Y-42161198D01*
X188112761Y-42191000D01*
X187807239Y-42191000D01*
X187657415Y-42161198D01*
X187507590Y-42131396D01*
X187225326Y-42014479D01*
X186971295Y-41844741D01*
X186755259Y-41628705D01*
X186585521Y-41374674D01*
X186468604Y-41092410D01*
X186409000Y-40792760D01*
X186409000Y-40487240D01*
X186468604Y-40187590D01*
X186585521Y-39905326D01*
X186755259Y-39651295D01*
X186971295Y-39435259D01*
X187225326Y-39265521D01*
X187507590Y-39148604D01*
X187657415Y-39118802D01*
X187807239Y-39089000D01*
X188112761Y-39089000D01*
X188262585Y-39118802D01*
X188262585Y-39118802D01*
G37*
G36*
X193342585Y-39118802D02*
G01*
X193492410Y-39148604D01*
X193774674Y-39265521D01*
X194028705Y-39435259D01*
X194244741Y-39651295D01*
X194414479Y-39905326D01*
X194531396Y-40187590D01*
X194591000Y-40487240D01*
X194591000Y-40792760D01*
X194531396Y-41092410D01*
X194414479Y-41374674D01*
X194244741Y-41628705D01*
X194028705Y-41844741D01*
X193774674Y-42014479D01*
X193492410Y-42131396D01*
X193342585Y-42161198D01*
X193192761Y-42191000D01*
X192887239Y-42191000D01*
X192737415Y-42161198D01*
X192587590Y-42131396D01*
X192305326Y-42014479D01*
X192051295Y-41844741D01*
X191835259Y-41628705D01*
X191665521Y-41374674D01*
X191548604Y-41092410D01*
X191489000Y-40792760D01*
X191489000Y-40487240D01*
X191548604Y-40187590D01*
X191665521Y-39905326D01*
X191835259Y-39651295D01*
X192051295Y-39435259D01*
X192305326Y-39265521D01*
X192587590Y-39148604D01*
X192737415Y-39118802D01*
X192887239Y-39089000D01*
X193192761Y-39089000D01*
X193342585Y-39118802D01*
X193342585Y-39118802D01*
G37*
G36*
X167921000Y-42191000D02*
G01*
X164819000Y-42191000D01*
X164819000Y-39089000D01*
X167921000Y-39089000D01*
X167921000Y-42191000D01*
X167921000Y-42191000D01*
G37*
G36*
X143812585Y-39118802D02*
G01*
X143962410Y-39148604D01*
X144244674Y-39265521D01*
X144498705Y-39435259D01*
X144714741Y-39651295D01*
X144884479Y-39905326D01*
X145001396Y-40187590D01*
X145061000Y-40487240D01*
X145061000Y-40792760D01*
X145001396Y-41092410D01*
X144884479Y-41374674D01*
X144714741Y-41628705D01*
X144498705Y-41844741D01*
X144244674Y-42014479D01*
X143962410Y-42131396D01*
X143812585Y-42161198D01*
X143662761Y-42191000D01*
X143357239Y-42191000D01*
X143207415Y-42161198D01*
X143057590Y-42131396D01*
X142775326Y-42014479D01*
X142521295Y-41844741D01*
X142305259Y-41628705D01*
X142135521Y-41374674D01*
X142018604Y-41092410D01*
X141959000Y-40792760D01*
X141959000Y-40487240D01*
X142018604Y-40187590D01*
X142135521Y-39905326D01*
X142305259Y-39651295D01*
X142521295Y-39435259D01*
X142775326Y-39265521D01*
X143057590Y-39148604D01*
X143207415Y-39118802D01*
X143357239Y-39089000D01*
X143662761Y-39089000D01*
X143812585Y-39118802D01*
X143812585Y-39118802D01*
G37*
G36*
X155242585Y-39118802D02*
G01*
X155392410Y-39148604D01*
X155674674Y-39265521D01*
X155928705Y-39435259D01*
X156144741Y-39651295D01*
X156314479Y-39905326D01*
X156431396Y-40187590D01*
X156491000Y-40487240D01*
X156491000Y-40792760D01*
X156431396Y-41092410D01*
X156314479Y-41374674D01*
X156144741Y-41628705D01*
X155928705Y-41844741D01*
X155674674Y-42014479D01*
X155392410Y-42131396D01*
X155242585Y-42161198D01*
X155092761Y-42191000D01*
X154787239Y-42191000D01*
X154637415Y-42161198D01*
X154487590Y-42131396D01*
X154205326Y-42014479D01*
X153951295Y-41844741D01*
X153735259Y-41628705D01*
X153565521Y-41374674D01*
X153448604Y-41092410D01*
X153389000Y-40792760D01*
X153389000Y-40487240D01*
X153448604Y-40187590D01*
X153565521Y-39905326D01*
X153735259Y-39651295D01*
X153951295Y-39435259D01*
X154205326Y-39265521D01*
X154487590Y-39148604D01*
X154637415Y-39118802D01*
X154787239Y-39089000D01*
X155092761Y-39089000D01*
X155242585Y-39118802D01*
X155242585Y-39118802D01*
G37*
G36*
X138732585Y-39118802D02*
G01*
X138882410Y-39148604D01*
X139164674Y-39265521D01*
X139418705Y-39435259D01*
X139634741Y-39651295D01*
X139804479Y-39905326D01*
X139921396Y-40187590D01*
X139981000Y-40487240D01*
X139981000Y-40792760D01*
X139921396Y-41092410D01*
X139804479Y-41374674D01*
X139634741Y-41628705D01*
X139418705Y-41844741D01*
X139164674Y-42014479D01*
X138882410Y-42131396D01*
X138732585Y-42161198D01*
X138582761Y-42191000D01*
X138277239Y-42191000D01*
X138127415Y-42161198D01*
X137977590Y-42131396D01*
X137695326Y-42014479D01*
X137441295Y-41844741D01*
X137225259Y-41628705D01*
X137055521Y-41374674D01*
X136938604Y-41092410D01*
X136879000Y-40792760D01*
X136879000Y-40487240D01*
X136938604Y-40187590D01*
X137055521Y-39905326D01*
X137225259Y-39651295D01*
X137441295Y-39435259D01*
X137695326Y-39265521D01*
X137977590Y-39148604D01*
X138127415Y-39118802D01*
X138277239Y-39089000D01*
X138582761Y-39089000D01*
X138732585Y-39118802D01*
X138732585Y-39118802D01*
G37*
G36*
X134901000Y-42191000D02*
G01*
X131799000Y-42191000D01*
X131799000Y-39089000D01*
X134901000Y-39089000D01*
X134901000Y-42191000D01*
X134901000Y-42191000D01*
G37*
G36*
X200941000Y-42191000D02*
G01*
X197839000Y-42191000D01*
X197839000Y-39089000D01*
X200941000Y-39089000D01*
X200941000Y-42191000D01*
X200941000Y-42191000D01*
G37*
G36*
X204772585Y-39118802D02*
G01*
X204922410Y-39148604D01*
X205204674Y-39265521D01*
X205458705Y-39435259D01*
X205674741Y-39651295D01*
X205844479Y-39905326D01*
X205961396Y-40187590D01*
X206021000Y-40487240D01*
X206021000Y-40792760D01*
X205961396Y-41092410D01*
X205844479Y-41374674D01*
X205674741Y-41628705D01*
X205458705Y-41844741D01*
X205204674Y-42014479D01*
X204922410Y-42131396D01*
X204772585Y-42161198D01*
X204622761Y-42191000D01*
X204317239Y-42191000D01*
X204167415Y-42161198D01*
X204017590Y-42131396D01*
X203735326Y-42014479D01*
X203481295Y-41844741D01*
X203265259Y-41628705D01*
X203095521Y-41374674D01*
X202978604Y-41092410D01*
X202919000Y-40792760D01*
X202919000Y-40487240D01*
X202978604Y-40187590D01*
X203095521Y-39905326D01*
X203265259Y-39651295D01*
X203481295Y-39435259D01*
X203735326Y-39265521D01*
X204017590Y-39148604D01*
X204167415Y-39118802D01*
X204317239Y-39089000D01*
X204622761Y-39089000D01*
X204772585Y-39118802D01*
X204772585Y-39118802D01*
G37*
G36*
X209852585Y-39118802D02*
G01*
X210002410Y-39148604D01*
X210284674Y-39265521D01*
X210538705Y-39435259D01*
X210754741Y-39651295D01*
X210924479Y-39905326D01*
X211041396Y-40187590D01*
X211101000Y-40487240D01*
X211101000Y-40792760D01*
X211041396Y-41092410D01*
X210924479Y-41374674D01*
X210754741Y-41628705D01*
X210538705Y-41844741D01*
X210284674Y-42014479D01*
X210002410Y-42131396D01*
X209852585Y-42161198D01*
X209702761Y-42191000D01*
X209397239Y-42191000D01*
X209247415Y-42161198D01*
X209097590Y-42131396D01*
X208815326Y-42014479D01*
X208561295Y-41844741D01*
X208345259Y-41628705D01*
X208175521Y-41374674D01*
X208058604Y-41092410D01*
X207999000Y-40792760D01*
X207999000Y-40487240D01*
X208058604Y-40187590D01*
X208175521Y-39905326D01*
X208345259Y-39651295D01*
X208561295Y-39435259D01*
X208815326Y-39265521D01*
X209097590Y-39148604D01*
X209247415Y-39118802D01*
X209397239Y-39089000D01*
X209702761Y-39089000D01*
X209852585Y-39118802D01*
X209852585Y-39118802D01*
G37*
G36*
X151411000Y-42191000D02*
G01*
X148309000Y-42191000D01*
X148309000Y-39089000D01*
X151411000Y-39089000D01*
X151411000Y-42191000D01*
X151411000Y-42191000D01*
G37*
G36*
X216218433Y-39274893D02*
G01*
X216308657Y-39292839D01*
X216414267Y-39336585D01*
X216563621Y-39398449D01*
X216639763Y-39449325D01*
X216793086Y-39551772D01*
X216988228Y-39746914D01*
X217090675Y-39900237D01*
X217141551Y-39976379D01*
X217203415Y-40125733D01*
X217229038Y-40187590D01*
X217247161Y-40231344D01*
X217301000Y-40502012D01*
X217301000Y-40777988D01*
X217298061Y-40792761D01*
X217247161Y-41048657D01*
X217203415Y-41154267D01*
X217141551Y-41303621D01*
X217141550Y-41303622D01*
X216988228Y-41533086D01*
X216793086Y-41728228D01*
X216661227Y-41816333D01*
X216563621Y-41881551D01*
X216414267Y-41943415D01*
X216308657Y-41987161D01*
X216225674Y-42003667D01*
X216037988Y-42041000D01*
X215762012Y-42041000D01*
X215574326Y-42003667D01*
X215491343Y-41987161D01*
X215385733Y-41943415D01*
X215236379Y-41881551D01*
X215138773Y-41816333D01*
X215006914Y-41728228D01*
X214811772Y-41533086D01*
X214658450Y-41303622D01*
X214658449Y-41303621D01*
X214596585Y-41154267D01*
X214552839Y-41048657D01*
X214501939Y-40792761D01*
X214499000Y-40777988D01*
X214499000Y-40502012D01*
X214552839Y-40231344D01*
X214570963Y-40187590D01*
X214596585Y-40125733D01*
X214658449Y-39976379D01*
X214709325Y-39900237D01*
X214811772Y-39746914D01*
X215006914Y-39551772D01*
X215160237Y-39449325D01*
X215236379Y-39398449D01*
X215385733Y-39336585D01*
X215491343Y-39292839D01*
X215581567Y-39274893D01*
X215762012Y-39239000D01*
X216037988Y-39239000D01*
X216218433Y-39274893D01*
X216218433Y-39274893D01*
G37*
G36*
X99378433Y-39274893D02*
G01*
X99468657Y-39292839D01*
X99574267Y-39336585D01*
X99723621Y-39398449D01*
X99799763Y-39449325D01*
X99953086Y-39551772D01*
X100148228Y-39746914D01*
X100250675Y-39900237D01*
X100301551Y-39976379D01*
X100363415Y-40125733D01*
X100389038Y-40187590D01*
X100407161Y-40231344D01*
X100461000Y-40502012D01*
X100461000Y-40777988D01*
X100458061Y-40792761D01*
X100407161Y-41048657D01*
X100363415Y-41154267D01*
X100301551Y-41303621D01*
X100301550Y-41303622D01*
X100148228Y-41533086D01*
X99953086Y-41728228D01*
X99821227Y-41816333D01*
X99723621Y-41881551D01*
X99574267Y-41943415D01*
X99468657Y-41987161D01*
X99385674Y-42003667D01*
X99197988Y-42041000D01*
X98922012Y-42041000D01*
X98734326Y-42003667D01*
X98651343Y-41987161D01*
X98545733Y-41943415D01*
X98396379Y-41881551D01*
X98298773Y-41816333D01*
X98166914Y-41728228D01*
X97971772Y-41533086D01*
X97818450Y-41303622D01*
X97818449Y-41303621D01*
X97756585Y-41154267D01*
X97712839Y-41048657D01*
X97661939Y-40792761D01*
X97659000Y-40777988D01*
X97659000Y-40502012D01*
X97712839Y-40231344D01*
X97730963Y-40187590D01*
X97756585Y-40125733D01*
X97818449Y-39976379D01*
X97869325Y-39900237D01*
X97971772Y-39746914D01*
X98166914Y-39551772D01*
X98320237Y-39449325D01*
X98396379Y-39398449D01*
X98545733Y-39336585D01*
X98651343Y-39292839D01*
X98741567Y-39274893D01*
X98922012Y-39239000D01*
X99197988Y-39239000D01*
X99378433Y-39274893D01*
X99378433Y-39274893D01*
G37*
M02*
