M48
; DRILL file {KiCad (5.1.2)-2} date 8/15/2019 12:49:01 PM
; FORMAT={-:-/ absolute / inch / decimal}
; #@! TF.CreationDate,2019-08-15T12:49:01-04:00
; #@! TF.GenerationSoftware,Kicad,Pcbnew,(5.1.2)-2
; #@! TF.FileFunction,Plated,1,2,PTH
FMAT,2
INCH
T1C0.0315
T2C0.0354
T3C0.0400
T4C0.0598
%
G90
G05
T1
X6.75Y-2.65
X7.15Y-2.65
X5.1Y-2.65
X5.5Y-2.65
X6.2Y-2.65
X6.6Y-2.65
X4.05Y-1.9
X4.05Y-2.3
X5.4Y-2.25
X5.5Y-2.25
X5.6Y-2.25
X7.9Y-2.0
X8.3Y-2.0
X5.5Y-2.0
X5.9Y-2.0
X6.1Y-2.45
X6.5Y-2.45
X5.5Y-2.45
X5.9Y-2.45
X6.7Y-2.45
X7.1Y-2.45
X6.0Y-2.25
X6.1Y-2.25
X6.2Y-2.25
X6.7Y-2.0
X7.1Y-2.0
X7.8Y-2.25
X7.9Y-2.25
X8.0Y-2.25
X6.6173Y-2.25
X6.7173Y-2.25
X6.8173Y-2.25
X7.2Y-2.25
X7.3Y-2.25
X7.4Y-2.25
X7.3Y-2.45
X7.7Y-2.45
X5.65Y-2.65
X6.05Y-2.65
X7.3Y-2.0
X7.7Y-2.0
X6.1Y-2.0
X6.5Y-2.0
X7.9Y-2.45
X8.3Y-2.45
X7.3Y-2.65
X7.7Y-2.65
T2
X6.4Y-2.15
X6.4Y-2.25
X7.6Y-2.15
X7.6Y-2.25
X5.8Y-2.15
X5.8Y-2.25
X8.25Y-2.15
X8.25Y-2.25
X7.0Y-2.15
X7.0Y-2.25
T3
X4.1Y-1.65
X4.1Y-2.55
X4.2Y-1.65
X4.2Y-2.55
X4.3Y-1.65
X4.3Y-2.55
X4.4Y-1.65
X4.4Y-2.55
X4.5Y-1.65
X4.5Y-2.55
X4.6Y-1.65
X4.6Y-2.55
X4.7Y-1.65
X4.7Y-2.55
X4.8Y-1.65
X4.8Y-2.55
T4
X5.9Y-1.6
X6.1Y-1.6
X6.3Y-1.6
X7.2Y-1.6
X7.4Y-1.6
X7.6Y-1.6
X7.85Y-2.95
X8.05Y-2.95
X8.25Y-2.95
X7.2Y-2.95
X7.4Y-2.95
X7.6Y-2.95
X5.05Y-2.95
X5.25Y-2.95
X5.45Y-2.95
X5.25Y-1.6
X5.45Y-1.6
X5.65Y-1.6
X6.55Y-1.6
X6.75Y-1.6
X6.95Y-1.6
X6.55Y-2.95
X6.75Y-2.95
X6.95Y-2.95
X7.85Y-1.6
X8.05Y-1.6
X8.25Y-1.6
X5.9Y-2.95
X6.1Y-2.95
X6.3Y-2.95
T0
M30
