G04 #@! TF.GenerationSoftware,KiCad,Pcbnew,(5.1.2)-2*
G04 #@! TF.CreationDate,2019-08-15T12:47:13-04:00*
G04 #@! TF.ProjectId,esp8266v1,65737038-3236-4367-9631-2e6b69636164,rev?*
G04 #@! TF.SameCoordinates,Original*
G04 #@! TF.FileFunction,Copper,L2,Bot*
G04 #@! TF.FilePolarity,Positive*
%FSLAX46Y46*%
G04 Gerber Fmt 4.6, Leading zero omitted, Abs format (unit mm)*
G04 Created by KiCad (PCBNEW (5.1.2)-2) date 2019-08-15 12:47:13*
%MOMM*%
%LPD*%
G04 APERTURE LIST*
%ADD10R,1.500000X1.500000*%
%ADD11C,1.500000*%
%ADD12C,3.000000*%
%ADD13R,3.000000X3.000000*%
%ADD14C,1.800000*%
%ADD15O,1.600000X1.600000*%
%ADD16C,1.600000*%
%ADD17R,1.800000X1.800000*%
%ADD18R,1.600000X1.600000*%
%ADD19C,0.250000*%
%ADD20C,0.254000*%
G04 APERTURE END LIST*
D10*
X198120000Y-57150000D03*
D11*
X203200000Y-57150000D03*
X200660000Y-57150000D03*
D10*
X152400000Y-57150000D03*
D11*
X157480000Y-57150000D03*
X154940000Y-57150000D03*
D10*
X182880000Y-57150000D03*
D11*
X187960000Y-57150000D03*
X185420000Y-57150000D03*
D10*
X137160000Y-57150000D03*
D11*
X142240000Y-57150000D03*
X139700000Y-57150000D03*
D10*
X168080000Y-57150000D03*
D11*
X173160000Y-57150000D03*
X170620000Y-57150000D03*
D12*
X138430000Y-74930000D03*
X133350000Y-74930000D03*
D13*
X128270000Y-74930000D03*
D14*
X121920000Y-64770000D03*
X119380000Y-64770000D03*
X116840000Y-64770000D03*
X114300000Y-64770000D03*
X111760000Y-64770000D03*
X109220000Y-64770000D03*
X106680000Y-64770000D03*
X104140000Y-64770000D03*
X104140000Y-41910000D03*
X106680000Y-41910000D03*
X109220000Y-41910000D03*
X111760000Y-41910000D03*
X114300000Y-41910000D03*
X116840000Y-41910000D03*
X119380000Y-41910000D03*
X121920000Y-41910000D03*
D15*
X102870000Y-48260000D03*
D16*
X102870000Y-58420000D03*
D15*
X200660000Y-62230000D03*
D16*
X210820000Y-62230000D03*
D15*
X154940000Y-62230000D03*
D16*
X165100000Y-62230000D03*
D15*
X195580000Y-67310000D03*
D16*
X185420000Y-67310000D03*
D15*
X153670000Y-67310000D03*
D16*
X143510000Y-67310000D03*
D15*
X185420000Y-62230000D03*
D16*
X195580000Y-62230000D03*
D15*
X139700000Y-62230000D03*
D16*
X149860000Y-62230000D03*
D15*
X181610000Y-67310000D03*
D16*
X171450000Y-67310000D03*
D15*
X139700000Y-67310000D03*
D16*
X129540000Y-67310000D03*
D15*
X170180000Y-62230000D03*
D16*
X180340000Y-62230000D03*
D15*
X167640000Y-67310000D03*
D16*
X157480000Y-67310000D03*
D12*
X209550000Y-74930000D03*
X204470000Y-74930000D03*
D13*
X199390000Y-74930000D03*
D12*
X193040000Y-74930000D03*
X187960000Y-74930000D03*
D13*
X182880000Y-74930000D03*
D12*
X209550000Y-40640000D03*
X204470000Y-40640000D03*
D13*
X199390000Y-40640000D03*
D12*
X160020000Y-40640000D03*
X154940000Y-40640000D03*
D13*
X149860000Y-40640000D03*
D12*
X176530000Y-74930000D03*
X171450000Y-74930000D03*
D13*
X166370000Y-74930000D03*
D12*
X160020000Y-74930000D03*
X154940000Y-74930000D03*
D13*
X149860000Y-74930000D03*
D12*
X193040000Y-40640000D03*
X187960000Y-40640000D03*
D13*
X182880000Y-40640000D03*
D12*
X143510000Y-40640000D03*
X138430000Y-40640000D03*
D13*
X133350000Y-40640000D03*
D12*
X176530000Y-40640000D03*
X171450000Y-40640000D03*
D13*
X166370000Y-40640000D03*
D14*
X209550000Y-54610000D03*
D17*
X209550000Y-57150000D03*
D14*
X162560000Y-54610000D03*
D17*
X162560000Y-57150000D03*
D15*
X210820000Y-50800000D03*
D18*
X200660000Y-50800000D03*
D15*
X165100000Y-50800000D03*
D18*
X154940000Y-50800000D03*
D14*
X193040000Y-54610000D03*
D17*
X193040000Y-57150000D03*
D14*
X147320000Y-54610000D03*
D17*
X147320000Y-57150000D03*
D15*
X195580000Y-50800000D03*
D18*
X185420000Y-50800000D03*
D15*
X149860000Y-50800000D03*
D18*
X139700000Y-50800000D03*
D14*
X177800000Y-54610000D03*
D17*
X177800000Y-57150000D03*
D15*
X180340000Y-50800000D03*
D18*
X170180000Y-50800000D03*
D19*
X193040000Y-54610000D02*
X195580000Y-52070000D01*
X195580000Y-52070000D02*
X195580000Y-50800000D01*
X180340000Y-50800000D02*
X180340000Y-51975300D01*
X180340000Y-51975300D02*
X177800000Y-54515300D01*
X177800000Y-54515300D02*
X177800000Y-54610000D01*
X149860000Y-49624700D02*
X143510000Y-43274700D01*
X143510000Y-43274700D02*
X143510000Y-40640000D01*
X210820000Y-50800000D02*
X210820000Y-49624700D01*
X210820000Y-49624700D02*
X209550000Y-48354700D01*
X209550000Y-48354700D02*
X209550000Y-40640000D01*
X210820000Y-50800000D02*
X210820000Y-53340000D01*
X210820000Y-53340000D02*
X209550000Y-54610000D01*
X195580000Y-50800000D02*
X195580000Y-49624700D01*
X195580000Y-49624700D02*
X193040000Y-47084700D01*
X193040000Y-47084700D02*
X193040000Y-40640000D01*
X165100000Y-50800000D02*
X165100000Y-49624700D01*
X165100000Y-49624700D02*
X160020000Y-44544700D01*
X160020000Y-44544700D02*
X160020000Y-40640000D01*
X149860000Y-50800000D02*
X149860000Y-49624700D01*
X170180000Y-62230000D02*
X170180000Y-61054700D01*
X170180000Y-61054700D02*
X173160000Y-58074700D01*
X173160000Y-58074700D02*
X173160000Y-57150000D01*
X170180000Y-50800000D02*
X170180000Y-51975300D01*
X170180000Y-51975300D02*
X173160000Y-54955300D01*
X173160000Y-54955300D02*
X173160000Y-57150000D01*
X177800000Y-57150000D02*
X177800000Y-58425300D01*
X177800000Y-58425300D02*
X180340000Y-60965300D01*
X180340000Y-60965300D02*
X180340000Y-62230000D01*
X139700000Y-50800000D02*
X139700000Y-49624700D01*
X138430000Y-40640000D02*
X138430000Y-48354700D01*
X138430000Y-48354700D02*
X139700000Y-49624700D01*
X139700000Y-62230000D02*
X139700000Y-61054700D01*
X139700000Y-56024600D02*
X141114600Y-56024600D01*
X141114600Y-56024600D02*
X142240000Y-57150000D01*
X139700000Y-61054700D02*
X138555700Y-59910400D01*
X138555700Y-59910400D02*
X138555700Y-56619300D01*
X138555700Y-56619300D02*
X139150400Y-56024600D01*
X139150400Y-56024600D02*
X139700000Y-56024600D01*
X139700000Y-51975300D02*
X139700000Y-56024600D01*
X139700000Y-50800000D02*
X139700000Y-51975300D01*
X185420000Y-50800000D02*
X185420000Y-49624700D01*
X187960000Y-40640000D02*
X187960000Y-47084700D01*
X187960000Y-47084700D02*
X185420000Y-49624700D01*
X185420000Y-62230000D02*
X185420000Y-61054700D01*
X185420000Y-61054700D02*
X187960000Y-58514700D01*
X187960000Y-58514700D02*
X187960000Y-57150000D01*
X185420000Y-50800000D02*
X185420000Y-51975300D01*
X185420000Y-51975300D02*
X187960000Y-54515300D01*
X187960000Y-54515300D02*
X187960000Y-57150000D01*
X147320000Y-57150000D02*
X147320000Y-59690000D01*
X147320000Y-59690000D02*
X149860000Y-62230000D01*
X193040000Y-57150000D02*
X193040000Y-59690000D01*
X193040000Y-59690000D02*
X195580000Y-62230000D01*
X154940000Y-40640000D02*
X154940000Y-50800000D01*
X154940000Y-62230000D02*
X154940000Y-61054700D01*
X154940000Y-61054700D02*
X157480000Y-58514700D01*
X157480000Y-58514700D02*
X157480000Y-57150000D01*
X154940000Y-50800000D02*
X154940000Y-51975300D01*
X154940000Y-51975300D02*
X157480000Y-54515300D01*
X157480000Y-54515300D02*
X157480000Y-57150000D01*
X200660000Y-50800000D02*
X200660000Y-49624700D01*
X200660000Y-49624700D02*
X204470000Y-45814700D01*
X204470000Y-45814700D02*
X204470000Y-40640000D01*
X203200000Y-57150000D02*
X200660000Y-54610000D01*
X200660000Y-54610000D02*
X200660000Y-50800000D01*
X200660000Y-62230000D02*
X200660000Y-61054700D01*
X200660000Y-61054700D02*
X203200000Y-58514700D01*
X203200000Y-58514700D02*
X203200000Y-57150000D01*
X162560000Y-57150000D02*
X162560000Y-59690000D01*
X162560000Y-59690000D02*
X165100000Y-62230000D01*
X209550000Y-57150000D02*
X209550000Y-58425300D01*
X209550000Y-58425300D02*
X210820000Y-59695300D01*
X210820000Y-59695300D02*
X210820000Y-62230000D01*
X199390000Y-40640000D02*
X199390000Y-42515300D01*
X198120000Y-57150000D02*
X198120000Y-43785300D01*
X198120000Y-43785300D02*
X199390000Y-42515300D01*
X168080000Y-44225300D02*
X166370000Y-42515300D01*
X168080000Y-57150000D02*
X168080000Y-44225300D01*
X168080000Y-44225300D02*
X177419400Y-44225300D01*
X177419400Y-44225300D02*
X181004700Y-40640000D01*
X182880000Y-40640000D02*
X181004700Y-40640000D01*
X133350000Y-40640000D02*
X131474700Y-40640000D01*
X106680000Y-41910000D02*
X108004200Y-40585800D01*
X108004200Y-40585800D02*
X131420500Y-40585800D01*
X131420500Y-40585800D02*
X131474700Y-40640000D01*
X166370000Y-40640000D02*
X166370000Y-42515300D01*
X128270000Y-74930000D02*
X130145300Y-74930000D01*
X149860000Y-74930000D02*
X147984700Y-74930000D01*
X147984700Y-74930000D02*
X146109400Y-76805300D01*
X146109400Y-76805300D02*
X132020600Y-76805300D01*
X132020600Y-76805300D02*
X130145300Y-74930000D01*
X149860000Y-40640000D02*
X149860000Y-42515300D01*
X149860000Y-42515300D02*
X152400000Y-45055300D01*
X152400000Y-45055300D02*
X152400000Y-57150000D01*
X160020000Y-74930000D02*
X161929000Y-73021000D01*
X161929000Y-73021000D02*
X174621000Y-73021000D01*
X174621000Y-73021000D02*
X176530000Y-74930000D01*
X102870000Y-58420000D02*
X104140000Y-59690000D01*
X104140000Y-59690000D02*
X104140000Y-64770000D01*
X187960000Y-74930000D02*
X189835400Y-76805400D01*
X189835400Y-76805400D02*
X202594600Y-76805400D01*
X202594600Y-76805400D02*
X204470000Y-74930000D01*
X171450000Y-74930000D02*
X173325400Y-76805400D01*
X173325400Y-76805400D02*
X186084600Y-76805400D01*
X186084600Y-76805400D02*
X187960000Y-74930000D01*
X108352400Y-47857600D02*
X114300000Y-41910000D01*
X102870000Y-48260000D02*
X107950000Y-48260000D01*
X107950000Y-48260000D02*
X108352400Y-47857600D01*
X108352400Y-47857600D02*
X132671700Y-72176900D01*
X132671700Y-72176900D02*
X152186900Y-72176900D01*
X152186900Y-72176900D02*
X154940000Y-74930000D01*
X154940000Y-74930000D02*
X156815400Y-76805400D01*
X156815400Y-76805400D02*
X169574600Y-76805400D01*
X169574600Y-76805400D02*
X171450000Y-74930000D01*
X167640000Y-67310000D02*
X167640000Y-60130000D01*
X167640000Y-60130000D02*
X170620000Y-57150000D01*
X139700000Y-67310000D02*
X139700000Y-66134700D01*
X139700000Y-66134700D02*
X140937800Y-64896900D01*
X140937800Y-64896900D02*
X140937800Y-58387800D01*
X140937800Y-58387800D02*
X139700000Y-57150000D01*
X181610000Y-67310000D02*
X181610000Y-60960000D01*
X181610000Y-60960000D02*
X185420000Y-57150000D01*
X153670000Y-67310000D02*
X153670000Y-58420000D01*
X153670000Y-58420000D02*
X154940000Y-57150000D01*
X195580000Y-67310000D02*
X195580000Y-64720000D01*
X195580000Y-64720000D02*
X200660000Y-59640000D01*
X200660000Y-59640000D02*
X200660000Y-57150000D01*
X129540000Y-67310000D02*
X129540000Y-54610000D01*
X129540000Y-54610000D02*
X116840000Y-41910000D01*
X114300000Y-64770000D02*
X122377700Y-72847700D01*
X122377700Y-72847700D02*
X131267700Y-72847700D01*
X131267700Y-72847700D02*
X133350000Y-74930000D01*
D20*
G36*
X217780000Y-39991666D02*
G01*
X217659085Y-39699750D01*
X217441851Y-39374636D01*
X217165364Y-39098149D01*
X216840250Y-38880915D01*
X216479003Y-38731282D01*
X216095505Y-38655000D01*
X215704495Y-38655000D01*
X215320997Y-38731282D01*
X214959750Y-38880915D01*
X214634636Y-39098149D01*
X214358149Y-39374636D01*
X214140915Y-39699750D01*
X213991282Y-40060997D01*
X213915000Y-40444495D01*
X213915000Y-40835505D01*
X213991282Y-41219003D01*
X214140915Y-41580250D01*
X214358149Y-41905364D01*
X214634636Y-42181851D01*
X214959750Y-42399085D01*
X215320997Y-42548718D01*
X215704495Y-42625000D01*
X216095505Y-42625000D01*
X216479003Y-42548718D01*
X216840250Y-42399085D01*
X217165364Y-42181851D01*
X217441851Y-41905364D01*
X217659085Y-41580250D01*
X217780000Y-41288334D01*
X217780001Y-74281668D01*
X217659085Y-73989750D01*
X217441851Y-73664636D01*
X217165364Y-73388149D01*
X216840250Y-73170915D01*
X216479003Y-73021282D01*
X216095505Y-72945000D01*
X215704495Y-72945000D01*
X215320997Y-73021282D01*
X214959750Y-73170915D01*
X214634636Y-73388149D01*
X214358149Y-73664636D01*
X214140915Y-73989750D01*
X213991282Y-74350997D01*
X213915000Y-74734495D01*
X213915000Y-75125505D01*
X213991282Y-75509003D01*
X214140915Y-75870250D01*
X214358149Y-76195364D01*
X214634636Y-76471851D01*
X214959750Y-76689085D01*
X215320997Y-76838718D01*
X215704495Y-76915000D01*
X216095505Y-76915000D01*
X216479003Y-76838718D01*
X216840250Y-76689085D01*
X217165364Y-76471851D01*
X217441851Y-76195364D01*
X217659085Y-75870250D01*
X217780001Y-75578332D01*
X217780001Y-78080000D01*
X95910000Y-78080000D01*
X95910000Y-74734495D01*
X97075000Y-74734495D01*
X97075000Y-75125505D01*
X97151282Y-75509003D01*
X97300915Y-75870250D01*
X97518149Y-76195364D01*
X97794636Y-76471851D01*
X98119750Y-76689085D01*
X98480997Y-76838718D01*
X98864495Y-76915000D01*
X99255505Y-76915000D01*
X99639003Y-76838718D01*
X100000250Y-76689085D01*
X100325364Y-76471851D01*
X100601851Y-76195364D01*
X100819085Y-75870250D01*
X100968718Y-75509003D01*
X101045000Y-75125505D01*
X101045000Y-74734495D01*
X100968718Y-74350997D01*
X100819085Y-73989750D01*
X100601851Y-73664636D01*
X100325364Y-73388149D01*
X100000250Y-73170915D01*
X99639003Y-73021282D01*
X99255505Y-72945000D01*
X98864495Y-72945000D01*
X98480997Y-73021282D01*
X98119750Y-73170915D01*
X97794636Y-73388149D01*
X97518149Y-73664636D01*
X97300915Y-73989750D01*
X97151282Y-74350997D01*
X97075000Y-74734495D01*
X95910000Y-74734495D01*
X95910000Y-48260000D01*
X101428057Y-48260000D01*
X101455764Y-48541309D01*
X101537818Y-48811808D01*
X101671068Y-49061101D01*
X101850392Y-49279608D01*
X102068899Y-49458932D01*
X102318192Y-49592182D01*
X102588691Y-49674236D01*
X102799508Y-49695000D01*
X102940492Y-49695000D01*
X103151309Y-49674236D01*
X103421808Y-49592182D01*
X103671101Y-49458932D01*
X103889608Y-49279608D01*
X104068932Y-49061101D01*
X104090901Y-49020000D01*
X107912678Y-49020000D01*
X107950000Y-49023676D01*
X107987322Y-49020000D01*
X107987333Y-49020000D01*
X108098986Y-49009003D01*
X108242247Y-48965546D01*
X108335630Y-48915631D01*
X131564684Y-72144686D01*
X131559947Y-72142154D01*
X131416686Y-72098697D01*
X131305033Y-72087700D01*
X131305022Y-72087700D01*
X131267700Y-72084024D01*
X131230378Y-72087700D01*
X122692502Y-72087700D01*
X116909801Y-66305000D01*
X116991184Y-66305000D01*
X117287743Y-66246011D01*
X117567095Y-66130299D01*
X117818505Y-65962312D01*
X118032312Y-65748505D01*
X118110000Y-65632237D01*
X118187688Y-65748505D01*
X118401495Y-65962312D01*
X118652905Y-66130299D01*
X118932257Y-66246011D01*
X119228816Y-66305000D01*
X119531184Y-66305000D01*
X119827743Y-66246011D01*
X120107095Y-66130299D01*
X120358505Y-65962312D01*
X120572312Y-65748505D01*
X120650000Y-65632237D01*
X120727688Y-65748505D01*
X120941495Y-65962312D01*
X121192905Y-66130299D01*
X121472257Y-66246011D01*
X121768816Y-66305000D01*
X122071184Y-66305000D01*
X122367743Y-66246011D01*
X122647095Y-66130299D01*
X122898505Y-65962312D01*
X123112312Y-65748505D01*
X123280299Y-65497095D01*
X123396011Y-65217743D01*
X123455000Y-64921184D01*
X123455000Y-64618816D01*
X123396011Y-64322257D01*
X123280299Y-64042905D01*
X123112312Y-63791495D01*
X122898505Y-63577688D01*
X122647095Y-63409701D01*
X122367743Y-63293989D01*
X122071184Y-63235000D01*
X121768816Y-63235000D01*
X121472257Y-63293989D01*
X121192905Y-63409701D01*
X120941495Y-63577688D01*
X120727688Y-63791495D01*
X120650000Y-63907763D01*
X120572312Y-63791495D01*
X120358505Y-63577688D01*
X120107095Y-63409701D01*
X119827743Y-63293989D01*
X119531184Y-63235000D01*
X119228816Y-63235000D01*
X118932257Y-63293989D01*
X118652905Y-63409701D01*
X118401495Y-63577688D01*
X118187688Y-63791495D01*
X118110000Y-63907763D01*
X118032312Y-63791495D01*
X117818505Y-63577688D01*
X117567095Y-63409701D01*
X117287743Y-63293989D01*
X116991184Y-63235000D01*
X116688816Y-63235000D01*
X116392257Y-63293989D01*
X116112905Y-63409701D01*
X115861495Y-63577688D01*
X115647688Y-63791495D01*
X115570000Y-63907763D01*
X115492312Y-63791495D01*
X115278505Y-63577688D01*
X115027095Y-63409701D01*
X114747743Y-63293989D01*
X114451184Y-63235000D01*
X114148816Y-63235000D01*
X113852257Y-63293989D01*
X113572905Y-63409701D01*
X113321495Y-63577688D01*
X113107688Y-63791495D01*
X113030000Y-63907763D01*
X112952312Y-63791495D01*
X112738505Y-63577688D01*
X112487095Y-63409701D01*
X112207743Y-63293989D01*
X111911184Y-63235000D01*
X111608816Y-63235000D01*
X111312257Y-63293989D01*
X111032905Y-63409701D01*
X110781495Y-63577688D01*
X110567688Y-63791495D01*
X110490000Y-63907763D01*
X110412312Y-63791495D01*
X110198505Y-63577688D01*
X109947095Y-63409701D01*
X109667743Y-63293989D01*
X109371184Y-63235000D01*
X109068816Y-63235000D01*
X108772257Y-63293989D01*
X108492905Y-63409701D01*
X108241495Y-63577688D01*
X108027688Y-63791495D01*
X107950000Y-63907763D01*
X107872312Y-63791495D01*
X107658505Y-63577688D01*
X107407095Y-63409701D01*
X107127743Y-63293989D01*
X106831184Y-63235000D01*
X106528816Y-63235000D01*
X106232257Y-63293989D01*
X105952905Y-63409701D01*
X105701495Y-63577688D01*
X105487688Y-63791495D01*
X105410000Y-63907763D01*
X105332312Y-63791495D01*
X105118505Y-63577688D01*
X104900000Y-63431687D01*
X104900000Y-59727322D01*
X104903676Y-59689999D01*
X104900000Y-59652676D01*
X104900000Y-59652667D01*
X104889003Y-59541014D01*
X104845546Y-59397753D01*
X104774974Y-59265724D01*
X104680001Y-59149999D01*
X104651003Y-59126201D01*
X104268688Y-58743886D01*
X104305000Y-58561335D01*
X104305000Y-58278665D01*
X104249853Y-58001426D01*
X104141680Y-57740273D01*
X103984637Y-57505241D01*
X103784759Y-57305363D01*
X103549727Y-57148320D01*
X103288574Y-57040147D01*
X103011335Y-56985000D01*
X102728665Y-56985000D01*
X102451426Y-57040147D01*
X102190273Y-57148320D01*
X101955241Y-57305363D01*
X101755363Y-57505241D01*
X101598320Y-57740273D01*
X101490147Y-58001426D01*
X101435000Y-58278665D01*
X101435000Y-58561335D01*
X101490147Y-58838574D01*
X101598320Y-59099727D01*
X101755363Y-59334759D01*
X101955241Y-59534637D01*
X102190273Y-59691680D01*
X102451426Y-59799853D01*
X102728665Y-59855000D01*
X103011335Y-59855000D01*
X103193886Y-59818688D01*
X103380000Y-60004802D01*
X103380001Y-63431687D01*
X103161495Y-63577688D01*
X102947688Y-63791495D01*
X102779701Y-64042905D01*
X102663989Y-64322257D01*
X102605000Y-64618816D01*
X102605000Y-64921184D01*
X102663989Y-65217743D01*
X102779701Y-65497095D01*
X102947688Y-65748505D01*
X103161495Y-65962312D01*
X103412905Y-66130299D01*
X103692257Y-66246011D01*
X103988816Y-66305000D01*
X104291184Y-66305000D01*
X104587743Y-66246011D01*
X104867095Y-66130299D01*
X105118505Y-65962312D01*
X105332312Y-65748505D01*
X105410000Y-65632237D01*
X105487688Y-65748505D01*
X105701495Y-65962312D01*
X105952905Y-66130299D01*
X106232257Y-66246011D01*
X106528816Y-66305000D01*
X106831184Y-66305000D01*
X107127743Y-66246011D01*
X107407095Y-66130299D01*
X107658505Y-65962312D01*
X107872312Y-65748505D01*
X107950000Y-65632237D01*
X108027688Y-65748505D01*
X108241495Y-65962312D01*
X108492905Y-66130299D01*
X108772257Y-66246011D01*
X109068816Y-66305000D01*
X109371184Y-66305000D01*
X109667743Y-66246011D01*
X109947095Y-66130299D01*
X110198505Y-65962312D01*
X110412312Y-65748505D01*
X110490000Y-65632237D01*
X110567688Y-65748505D01*
X110781495Y-65962312D01*
X111032905Y-66130299D01*
X111312257Y-66246011D01*
X111608816Y-66305000D01*
X111911184Y-66305000D01*
X112207743Y-66246011D01*
X112487095Y-66130299D01*
X112738505Y-65962312D01*
X112952312Y-65748505D01*
X113030000Y-65632237D01*
X113107688Y-65748505D01*
X113321495Y-65962312D01*
X113572905Y-66130299D01*
X113852257Y-66246011D01*
X114148816Y-66305000D01*
X114451184Y-66305000D01*
X114708930Y-66253731D01*
X121813900Y-73358702D01*
X121837699Y-73387701D01*
X121866697Y-73411499D01*
X121953423Y-73482674D01*
X122085453Y-73553246D01*
X122228714Y-73596703D01*
X122340367Y-73607700D01*
X122340377Y-73607700D01*
X122377700Y-73611376D01*
X122415023Y-73607700D01*
X126131928Y-73607700D01*
X126131928Y-76430000D01*
X126144188Y-76554482D01*
X126180498Y-76674180D01*
X126239463Y-76784494D01*
X126318815Y-76881185D01*
X126415506Y-76960537D01*
X126525820Y-77019502D01*
X126645518Y-77055812D01*
X126770000Y-77068072D01*
X129770000Y-77068072D01*
X129894482Y-77055812D01*
X130014180Y-77019502D01*
X130124494Y-76960537D01*
X130221185Y-76881185D01*
X130300537Y-76784494D01*
X130359502Y-76674180D01*
X130395812Y-76554482D01*
X130408072Y-76430000D01*
X130408072Y-76267573D01*
X131456801Y-77316303D01*
X131480599Y-77345301D01*
X131596324Y-77440274D01*
X131728353Y-77510846D01*
X131871614Y-77554303D01*
X131983267Y-77565300D01*
X131983275Y-77565300D01*
X132020600Y-77568976D01*
X132057925Y-77565300D01*
X146072078Y-77565300D01*
X146109400Y-77568976D01*
X146146722Y-77565300D01*
X146146733Y-77565300D01*
X146258386Y-77554303D01*
X146401647Y-77510846D01*
X146533676Y-77440274D01*
X146649401Y-77345301D01*
X146673204Y-77316297D01*
X147721928Y-76267574D01*
X147721928Y-76430000D01*
X147734188Y-76554482D01*
X147770498Y-76674180D01*
X147829463Y-76784494D01*
X147908815Y-76881185D01*
X148005506Y-76960537D01*
X148115820Y-77019502D01*
X148235518Y-77055812D01*
X148360000Y-77068072D01*
X151360000Y-77068072D01*
X151484482Y-77055812D01*
X151604180Y-77019502D01*
X151714494Y-76960537D01*
X151811185Y-76881185D01*
X151890537Y-76784494D01*
X151949502Y-76674180D01*
X151985812Y-76554482D01*
X151998072Y-76430000D01*
X151998072Y-73430000D01*
X151985812Y-73305518D01*
X151949502Y-73185820D01*
X151890537Y-73075506D01*
X151811185Y-72978815D01*
X151760111Y-72936900D01*
X151872099Y-72936900D01*
X152991140Y-74055941D01*
X152887047Y-74307244D01*
X152805000Y-74719721D01*
X152805000Y-75140279D01*
X152887047Y-75552756D01*
X153047988Y-75941302D01*
X153281637Y-76290983D01*
X153579017Y-76588363D01*
X153928698Y-76822012D01*
X154317244Y-76982953D01*
X154729721Y-77065000D01*
X155150279Y-77065000D01*
X155562756Y-76982953D01*
X155814058Y-76878860D01*
X156251601Y-77316403D01*
X156275399Y-77345401D01*
X156304397Y-77369199D01*
X156391123Y-77440374D01*
X156522966Y-77510846D01*
X156523153Y-77510946D01*
X156666414Y-77554403D01*
X156778067Y-77565400D01*
X156778076Y-77565400D01*
X156815399Y-77569076D01*
X156852722Y-77565400D01*
X169537278Y-77565400D01*
X169574600Y-77569076D01*
X169611922Y-77565400D01*
X169611933Y-77565400D01*
X169723586Y-77554403D01*
X169866847Y-77510946D01*
X169998876Y-77440374D01*
X170114601Y-77345401D01*
X170138404Y-77316397D01*
X170575941Y-76878860D01*
X170827244Y-76982953D01*
X171239721Y-77065000D01*
X171660279Y-77065000D01*
X172072756Y-76982953D01*
X172324058Y-76878860D01*
X172761601Y-77316403D01*
X172785399Y-77345401D01*
X172814397Y-77369199D01*
X172901123Y-77440374D01*
X173032966Y-77510846D01*
X173033153Y-77510946D01*
X173176414Y-77554403D01*
X173288067Y-77565400D01*
X173288076Y-77565400D01*
X173325399Y-77569076D01*
X173362722Y-77565400D01*
X186047278Y-77565400D01*
X186084600Y-77569076D01*
X186121922Y-77565400D01*
X186121933Y-77565400D01*
X186233586Y-77554403D01*
X186376847Y-77510946D01*
X186508876Y-77440374D01*
X186624601Y-77345401D01*
X186648404Y-77316397D01*
X187085941Y-76878860D01*
X187337244Y-76982953D01*
X187749721Y-77065000D01*
X188170279Y-77065000D01*
X188582756Y-76982953D01*
X188834058Y-76878860D01*
X189271601Y-77316403D01*
X189295399Y-77345401D01*
X189324397Y-77369199D01*
X189411123Y-77440374D01*
X189542966Y-77510846D01*
X189543153Y-77510946D01*
X189686414Y-77554403D01*
X189798067Y-77565400D01*
X189798076Y-77565400D01*
X189835399Y-77569076D01*
X189872722Y-77565400D01*
X202557278Y-77565400D01*
X202594600Y-77569076D01*
X202631922Y-77565400D01*
X202631933Y-77565400D01*
X202743586Y-77554403D01*
X202886847Y-77510946D01*
X203018876Y-77440374D01*
X203134601Y-77345401D01*
X203158404Y-77316397D01*
X203595941Y-76878860D01*
X203847244Y-76982953D01*
X204259721Y-77065000D01*
X204680279Y-77065000D01*
X205092756Y-76982953D01*
X205481302Y-76822012D01*
X205830983Y-76588363D01*
X206128363Y-76290983D01*
X206362012Y-75941302D01*
X206522953Y-75552756D01*
X206605000Y-75140279D01*
X206605000Y-74719721D01*
X207415000Y-74719721D01*
X207415000Y-75140279D01*
X207497047Y-75552756D01*
X207657988Y-75941302D01*
X207891637Y-76290983D01*
X208189017Y-76588363D01*
X208538698Y-76822012D01*
X208927244Y-76982953D01*
X209339721Y-77065000D01*
X209760279Y-77065000D01*
X210172756Y-76982953D01*
X210561302Y-76822012D01*
X210910983Y-76588363D01*
X211208363Y-76290983D01*
X211442012Y-75941302D01*
X211602953Y-75552756D01*
X211685000Y-75140279D01*
X211685000Y-74719721D01*
X211602953Y-74307244D01*
X211442012Y-73918698D01*
X211208363Y-73569017D01*
X210910983Y-73271637D01*
X210561302Y-73037988D01*
X210172756Y-72877047D01*
X209760279Y-72795000D01*
X209339721Y-72795000D01*
X208927244Y-72877047D01*
X208538698Y-73037988D01*
X208189017Y-73271637D01*
X207891637Y-73569017D01*
X207657988Y-73918698D01*
X207497047Y-74307244D01*
X207415000Y-74719721D01*
X206605000Y-74719721D01*
X206522953Y-74307244D01*
X206362012Y-73918698D01*
X206128363Y-73569017D01*
X205830983Y-73271637D01*
X205481302Y-73037988D01*
X205092756Y-72877047D01*
X204680279Y-72795000D01*
X204259721Y-72795000D01*
X203847244Y-72877047D01*
X203458698Y-73037988D01*
X203109017Y-73271637D01*
X202811637Y-73569017D01*
X202577988Y-73918698D01*
X202417047Y-74307244D01*
X202335000Y-74719721D01*
X202335000Y-75140279D01*
X202417047Y-75552756D01*
X202521140Y-75804059D01*
X202279799Y-76045400D01*
X201528072Y-76045400D01*
X201528072Y-73430000D01*
X201515812Y-73305518D01*
X201479502Y-73185820D01*
X201420537Y-73075506D01*
X201341185Y-72978815D01*
X201244494Y-72899463D01*
X201134180Y-72840498D01*
X201014482Y-72804188D01*
X200890000Y-72791928D01*
X197890000Y-72791928D01*
X197765518Y-72804188D01*
X197645820Y-72840498D01*
X197535506Y-72899463D01*
X197438815Y-72978815D01*
X197359463Y-73075506D01*
X197300498Y-73185820D01*
X197264188Y-73305518D01*
X197251928Y-73430000D01*
X197251928Y-76045400D01*
X194862456Y-76045400D01*
X194932012Y-75941302D01*
X195092953Y-75552756D01*
X195175000Y-75140279D01*
X195175000Y-74719721D01*
X195092953Y-74307244D01*
X194932012Y-73918698D01*
X194698363Y-73569017D01*
X194400983Y-73271637D01*
X194051302Y-73037988D01*
X193662756Y-72877047D01*
X193250279Y-72795000D01*
X192829721Y-72795000D01*
X192417244Y-72877047D01*
X192028698Y-73037988D01*
X191679017Y-73271637D01*
X191381637Y-73569017D01*
X191147988Y-73918698D01*
X190987047Y-74307244D01*
X190905000Y-74719721D01*
X190905000Y-75140279D01*
X190987047Y-75552756D01*
X191147988Y-75941302D01*
X191217544Y-76045400D01*
X190150202Y-76045400D01*
X189908860Y-75804058D01*
X190012953Y-75552756D01*
X190095000Y-75140279D01*
X190095000Y-74719721D01*
X190012953Y-74307244D01*
X189852012Y-73918698D01*
X189618363Y-73569017D01*
X189320983Y-73271637D01*
X188971302Y-73037988D01*
X188582756Y-72877047D01*
X188170279Y-72795000D01*
X187749721Y-72795000D01*
X187337244Y-72877047D01*
X186948698Y-73037988D01*
X186599017Y-73271637D01*
X186301637Y-73569017D01*
X186067988Y-73918698D01*
X185907047Y-74307244D01*
X185825000Y-74719721D01*
X185825000Y-75140279D01*
X185907047Y-75552756D01*
X186011140Y-75804059D01*
X185769799Y-76045400D01*
X185018072Y-76045400D01*
X185018072Y-73430000D01*
X185005812Y-73305518D01*
X184969502Y-73185820D01*
X184910537Y-73075506D01*
X184831185Y-72978815D01*
X184734494Y-72899463D01*
X184624180Y-72840498D01*
X184504482Y-72804188D01*
X184380000Y-72791928D01*
X181380000Y-72791928D01*
X181255518Y-72804188D01*
X181135820Y-72840498D01*
X181025506Y-72899463D01*
X180928815Y-72978815D01*
X180849463Y-73075506D01*
X180790498Y-73185820D01*
X180754188Y-73305518D01*
X180741928Y-73430000D01*
X180741928Y-76045400D01*
X178352456Y-76045400D01*
X178422012Y-75941302D01*
X178582953Y-75552756D01*
X178665000Y-75140279D01*
X178665000Y-74719721D01*
X178582953Y-74307244D01*
X178422012Y-73918698D01*
X178188363Y-73569017D01*
X177890983Y-73271637D01*
X177541302Y-73037988D01*
X177152756Y-72877047D01*
X176740279Y-72795000D01*
X176319721Y-72795000D01*
X175907244Y-72877047D01*
X175655941Y-72981140D01*
X175184804Y-72510003D01*
X175161001Y-72480999D01*
X175045276Y-72386026D01*
X174913247Y-72315454D01*
X174769986Y-72271997D01*
X174658333Y-72261000D01*
X174658322Y-72261000D01*
X174621000Y-72257324D01*
X174583678Y-72261000D01*
X161966325Y-72261000D01*
X161929000Y-72257324D01*
X161891675Y-72261000D01*
X161891667Y-72261000D01*
X161780014Y-72271997D01*
X161636753Y-72315454D01*
X161504724Y-72386026D01*
X161388999Y-72480999D01*
X161365201Y-72509997D01*
X160894058Y-72981140D01*
X160642756Y-72877047D01*
X160230279Y-72795000D01*
X159809721Y-72795000D01*
X159397244Y-72877047D01*
X159008698Y-73037988D01*
X158659017Y-73271637D01*
X158361637Y-73569017D01*
X158127988Y-73918698D01*
X157967047Y-74307244D01*
X157885000Y-74719721D01*
X157885000Y-75140279D01*
X157967047Y-75552756D01*
X158127988Y-75941302D01*
X158197544Y-76045400D01*
X157130202Y-76045400D01*
X156888860Y-75804058D01*
X156992953Y-75552756D01*
X157075000Y-75140279D01*
X157075000Y-74719721D01*
X156992953Y-74307244D01*
X156832012Y-73918698D01*
X156598363Y-73569017D01*
X156300983Y-73271637D01*
X155951302Y-73037988D01*
X155562756Y-72877047D01*
X155150279Y-72795000D01*
X154729721Y-72795000D01*
X154317244Y-72877047D01*
X154065941Y-72981140D01*
X152750704Y-71665903D01*
X152726901Y-71636899D01*
X152611176Y-71541926D01*
X152479147Y-71471354D01*
X152335886Y-71427897D01*
X152224233Y-71416900D01*
X152224222Y-71416900D01*
X152186900Y-71413224D01*
X152149578Y-71416900D01*
X132986502Y-71416900D01*
X130171329Y-68601727D01*
X130219727Y-68581680D01*
X130454759Y-68424637D01*
X130654637Y-68224759D01*
X130811680Y-67989727D01*
X130919853Y-67728574D01*
X130975000Y-67451335D01*
X130975000Y-67168665D01*
X130919853Y-66891426D01*
X130811680Y-66630273D01*
X130654637Y-66395241D01*
X130454759Y-66195363D01*
X130300000Y-66091957D01*
X130300000Y-56400000D01*
X135771928Y-56400000D01*
X135771928Y-57900000D01*
X135784188Y-58024482D01*
X135820498Y-58144180D01*
X135879463Y-58254494D01*
X135958815Y-58351185D01*
X136055506Y-58430537D01*
X136165820Y-58489502D01*
X136285518Y-58525812D01*
X136410000Y-58538072D01*
X137795700Y-58538072D01*
X137795700Y-59873077D01*
X137792024Y-59910400D01*
X137795700Y-59947722D01*
X137795700Y-59947732D01*
X137806697Y-60059385D01*
X137834489Y-60151003D01*
X137850154Y-60202646D01*
X137920726Y-60334676D01*
X137932608Y-60349154D01*
X138015699Y-60450401D01*
X138044702Y-60474204D01*
X138735590Y-61165092D01*
X138680392Y-61210392D01*
X138501068Y-61428899D01*
X138367818Y-61678192D01*
X138285764Y-61948691D01*
X138258057Y-62230000D01*
X138285764Y-62511309D01*
X138367818Y-62781808D01*
X138501068Y-63031101D01*
X138680392Y-63249608D01*
X138898899Y-63428932D01*
X139148192Y-63562182D01*
X139418691Y-63644236D01*
X139629508Y-63665000D01*
X139770492Y-63665000D01*
X139981309Y-63644236D01*
X140177800Y-63584632D01*
X140177800Y-64582098D01*
X139188998Y-65570901D01*
X139160000Y-65594699D01*
X139136202Y-65623697D01*
X139136201Y-65623698D01*
X139065026Y-65710424D01*
X138994454Y-65842454D01*
X138950998Y-65985715D01*
X138940861Y-66088639D01*
X138898899Y-66111068D01*
X138680392Y-66290392D01*
X138501068Y-66508899D01*
X138367818Y-66758192D01*
X138285764Y-67028691D01*
X138258057Y-67310000D01*
X138285764Y-67591309D01*
X138367818Y-67861808D01*
X138501068Y-68111101D01*
X138680392Y-68329608D01*
X138898899Y-68508932D01*
X139148192Y-68642182D01*
X139418691Y-68724236D01*
X139629508Y-68745000D01*
X139770492Y-68745000D01*
X139981309Y-68724236D01*
X140251808Y-68642182D01*
X140501101Y-68508932D01*
X140719608Y-68329608D01*
X140898932Y-68111101D01*
X141032182Y-67861808D01*
X141114236Y-67591309D01*
X141141943Y-67310000D01*
X141128023Y-67168665D01*
X142075000Y-67168665D01*
X142075000Y-67451335D01*
X142130147Y-67728574D01*
X142238320Y-67989727D01*
X142395363Y-68224759D01*
X142595241Y-68424637D01*
X142830273Y-68581680D01*
X143091426Y-68689853D01*
X143368665Y-68745000D01*
X143651335Y-68745000D01*
X143928574Y-68689853D01*
X144189727Y-68581680D01*
X144424759Y-68424637D01*
X144624637Y-68224759D01*
X144781680Y-67989727D01*
X144889853Y-67728574D01*
X144945000Y-67451335D01*
X144945000Y-67168665D01*
X144889853Y-66891426D01*
X144781680Y-66630273D01*
X144624637Y-66395241D01*
X144424759Y-66195363D01*
X144189727Y-66038320D01*
X143928574Y-65930147D01*
X143651335Y-65875000D01*
X143368665Y-65875000D01*
X143091426Y-65930147D01*
X142830273Y-66038320D01*
X142595241Y-66195363D01*
X142395363Y-66395241D01*
X142238320Y-66630273D01*
X142130147Y-66891426D01*
X142075000Y-67168665D01*
X141128023Y-67168665D01*
X141114236Y-67028691D01*
X141032182Y-66758192D01*
X140898932Y-66508899D01*
X140719608Y-66290392D01*
X140664410Y-66245092D01*
X141448804Y-65460698D01*
X141477801Y-65436901D01*
X141572774Y-65321176D01*
X141643346Y-65189147D01*
X141686803Y-65045886D01*
X141697800Y-64934233D01*
X141697800Y-64934232D01*
X141701477Y-64896900D01*
X141697800Y-64859567D01*
X141697800Y-58425133D01*
X141697857Y-58424550D01*
X141836011Y-58481775D01*
X142103589Y-58535000D01*
X142376411Y-58535000D01*
X142643989Y-58481775D01*
X142896043Y-58377371D01*
X143122886Y-58225799D01*
X143315799Y-58032886D01*
X143467371Y-57806043D01*
X143571775Y-57553989D01*
X143625000Y-57286411D01*
X143625000Y-57013589D01*
X143571775Y-56746011D01*
X143467371Y-56493957D01*
X143315799Y-56267114D01*
X143298685Y-56250000D01*
X145781928Y-56250000D01*
X145781928Y-58050000D01*
X145794188Y-58174482D01*
X145830498Y-58294180D01*
X145889463Y-58404494D01*
X145968815Y-58501185D01*
X146065506Y-58580537D01*
X146175820Y-58639502D01*
X146295518Y-58675812D01*
X146420000Y-58688072D01*
X146560001Y-58688072D01*
X146560001Y-59652667D01*
X146556324Y-59690000D01*
X146560001Y-59727333D01*
X146570998Y-59838986D01*
X146575856Y-59855000D01*
X146614454Y-59982246D01*
X146685026Y-60114276D01*
X146738966Y-60180001D01*
X146780000Y-60230001D01*
X146808998Y-60253799D01*
X148461312Y-61906114D01*
X148425000Y-62088665D01*
X148425000Y-62371335D01*
X148480147Y-62648574D01*
X148588320Y-62909727D01*
X148745363Y-63144759D01*
X148945241Y-63344637D01*
X149180273Y-63501680D01*
X149441426Y-63609853D01*
X149718665Y-63665000D01*
X150001335Y-63665000D01*
X150278574Y-63609853D01*
X150539727Y-63501680D01*
X150774759Y-63344637D01*
X150974637Y-63144759D01*
X151131680Y-62909727D01*
X151239853Y-62648574D01*
X151295000Y-62371335D01*
X151295000Y-62088665D01*
X151239853Y-61811426D01*
X151131680Y-61550273D01*
X150974637Y-61315241D01*
X150774759Y-61115363D01*
X150539727Y-60958320D01*
X150278574Y-60850147D01*
X150001335Y-60795000D01*
X149718665Y-60795000D01*
X149536114Y-60831312D01*
X148080000Y-59375199D01*
X148080000Y-58688072D01*
X148220000Y-58688072D01*
X148344482Y-58675812D01*
X148464180Y-58639502D01*
X148574494Y-58580537D01*
X148671185Y-58501185D01*
X148750537Y-58404494D01*
X148809502Y-58294180D01*
X148845812Y-58174482D01*
X148858072Y-58050000D01*
X148858072Y-56250000D01*
X148845812Y-56125518D01*
X148809502Y-56005820D01*
X148750537Y-55895506D01*
X148671185Y-55798815D01*
X148574494Y-55719463D01*
X148464180Y-55660498D01*
X148445873Y-55654944D01*
X148512312Y-55588505D01*
X148680299Y-55337095D01*
X148796011Y-55057743D01*
X148855000Y-54761184D01*
X148855000Y-54458816D01*
X148796011Y-54162257D01*
X148680299Y-53882905D01*
X148512312Y-53631495D01*
X148298505Y-53417688D01*
X148047095Y-53249701D01*
X147767743Y-53133989D01*
X147471184Y-53075000D01*
X147168816Y-53075000D01*
X146872257Y-53133989D01*
X146592905Y-53249701D01*
X146341495Y-53417688D01*
X146127688Y-53631495D01*
X145959701Y-53882905D01*
X145843989Y-54162257D01*
X145785000Y-54458816D01*
X145785000Y-54761184D01*
X145843989Y-55057743D01*
X145959701Y-55337095D01*
X146127688Y-55588505D01*
X146194127Y-55654944D01*
X146175820Y-55660498D01*
X146065506Y-55719463D01*
X145968815Y-55798815D01*
X145889463Y-55895506D01*
X145830498Y-56005820D01*
X145794188Y-56125518D01*
X145781928Y-56250000D01*
X143298685Y-56250000D01*
X143122886Y-56074201D01*
X142896043Y-55922629D01*
X142643989Y-55818225D01*
X142376411Y-55765000D01*
X142103589Y-55765000D01*
X141958635Y-55793833D01*
X141678404Y-55513602D01*
X141654601Y-55484599D01*
X141538876Y-55389626D01*
X141406847Y-55319054D01*
X141263586Y-55275597D01*
X141151933Y-55264600D01*
X141151922Y-55264600D01*
X141114600Y-55260924D01*
X141077278Y-55264600D01*
X140460000Y-55264600D01*
X140460000Y-52238072D01*
X140500000Y-52238072D01*
X140624482Y-52225812D01*
X140744180Y-52189502D01*
X140854494Y-52130537D01*
X140951185Y-52051185D01*
X141030537Y-51954494D01*
X141089502Y-51844180D01*
X141125812Y-51724482D01*
X141138072Y-51600000D01*
X141138072Y-50000000D01*
X141125812Y-49875518D01*
X141089502Y-49755820D01*
X141030537Y-49645506D01*
X140951185Y-49548815D01*
X140854494Y-49469463D01*
X140744180Y-49410498D01*
X140624482Y-49374188D01*
X140500000Y-49361928D01*
X140414487Y-49361928D01*
X140405546Y-49332453D01*
X140334974Y-49200424D01*
X140240001Y-49084699D01*
X140211003Y-49060901D01*
X139190000Y-48039899D01*
X139190000Y-42636105D01*
X139441302Y-42532012D01*
X139790983Y-42298363D01*
X140088363Y-42000983D01*
X140322012Y-41651302D01*
X140482953Y-41262756D01*
X140565000Y-40850279D01*
X140565000Y-40429721D01*
X141375000Y-40429721D01*
X141375000Y-40850279D01*
X141457047Y-41262756D01*
X141617988Y-41651302D01*
X141851637Y-42000983D01*
X142149017Y-42298363D01*
X142498698Y-42532012D01*
X142750000Y-42636105D01*
X142750000Y-43237377D01*
X142746324Y-43274700D01*
X142750000Y-43312022D01*
X142750000Y-43312032D01*
X142760997Y-43423685D01*
X142790139Y-43519754D01*
X142804454Y-43566946D01*
X142875026Y-43698976D01*
X142887600Y-43714297D01*
X142969999Y-43814701D01*
X142999003Y-43838504D01*
X148895590Y-49735092D01*
X148840392Y-49780392D01*
X148661068Y-49998899D01*
X148527818Y-50248192D01*
X148445764Y-50518691D01*
X148418057Y-50800000D01*
X148445764Y-51081309D01*
X148527818Y-51351808D01*
X148661068Y-51601101D01*
X148840392Y-51819608D01*
X149058899Y-51998932D01*
X149308192Y-52132182D01*
X149578691Y-52214236D01*
X149789508Y-52235000D01*
X149930492Y-52235000D01*
X150141309Y-52214236D01*
X150411808Y-52132182D01*
X150661101Y-51998932D01*
X150879608Y-51819608D01*
X151058932Y-51601101D01*
X151192182Y-51351808D01*
X151274236Y-51081309D01*
X151301943Y-50800000D01*
X151274236Y-50518691D01*
X151192182Y-50248192D01*
X151058932Y-49998899D01*
X150879608Y-49780392D01*
X150661101Y-49601068D01*
X150619140Y-49578640D01*
X150609003Y-49475714D01*
X150565546Y-49332453D01*
X150494974Y-49200423D01*
X150423799Y-49113697D01*
X150423798Y-49113696D01*
X150400001Y-49084699D01*
X150371003Y-49060901D01*
X144270000Y-42959899D01*
X144270000Y-42636105D01*
X144521302Y-42532012D01*
X144870983Y-42298363D01*
X145168363Y-42000983D01*
X145402012Y-41651302D01*
X145562953Y-41262756D01*
X145645000Y-40850279D01*
X145645000Y-40429721D01*
X145562953Y-40017244D01*
X145402012Y-39628698D01*
X145168363Y-39279017D01*
X145029346Y-39140000D01*
X147721928Y-39140000D01*
X147721928Y-42140000D01*
X147734188Y-42264482D01*
X147770498Y-42384180D01*
X147829463Y-42494494D01*
X147908815Y-42591185D01*
X148005506Y-42670537D01*
X148115820Y-42729502D01*
X148235518Y-42765812D01*
X148360000Y-42778072D01*
X149145514Y-42778072D01*
X149154454Y-42807546D01*
X149225026Y-42939576D01*
X149292361Y-43021623D01*
X149320000Y-43055301D01*
X149348998Y-43079099D01*
X151640000Y-45370103D01*
X151640001Y-55762913D01*
X151525518Y-55774188D01*
X151405820Y-55810498D01*
X151295506Y-55869463D01*
X151198815Y-55948815D01*
X151119463Y-56045506D01*
X151060498Y-56155820D01*
X151024188Y-56275518D01*
X151011928Y-56400000D01*
X151011928Y-57900000D01*
X151024188Y-58024482D01*
X151060498Y-58144180D01*
X151119463Y-58254494D01*
X151198815Y-58351185D01*
X151295506Y-58430537D01*
X151405820Y-58489502D01*
X151525518Y-58525812D01*
X151650000Y-58538072D01*
X152910001Y-58538072D01*
X152910000Y-66089099D01*
X152868899Y-66111068D01*
X152650392Y-66290392D01*
X152471068Y-66508899D01*
X152337818Y-66758192D01*
X152255764Y-67028691D01*
X152228057Y-67310000D01*
X152255764Y-67591309D01*
X152337818Y-67861808D01*
X152471068Y-68111101D01*
X152650392Y-68329608D01*
X152868899Y-68508932D01*
X153118192Y-68642182D01*
X153388691Y-68724236D01*
X153599508Y-68745000D01*
X153740492Y-68745000D01*
X153951309Y-68724236D01*
X154221808Y-68642182D01*
X154471101Y-68508932D01*
X154689608Y-68329608D01*
X154868932Y-68111101D01*
X155002182Y-67861808D01*
X155084236Y-67591309D01*
X155111943Y-67310000D01*
X155098023Y-67168665D01*
X156045000Y-67168665D01*
X156045000Y-67451335D01*
X156100147Y-67728574D01*
X156208320Y-67989727D01*
X156365363Y-68224759D01*
X156565241Y-68424637D01*
X156800273Y-68581680D01*
X157061426Y-68689853D01*
X157338665Y-68745000D01*
X157621335Y-68745000D01*
X157898574Y-68689853D01*
X158159727Y-68581680D01*
X158394759Y-68424637D01*
X158594637Y-68224759D01*
X158751680Y-67989727D01*
X158859853Y-67728574D01*
X158915000Y-67451335D01*
X158915000Y-67168665D01*
X158859853Y-66891426D01*
X158751680Y-66630273D01*
X158594637Y-66395241D01*
X158394759Y-66195363D01*
X158159727Y-66038320D01*
X157898574Y-65930147D01*
X157621335Y-65875000D01*
X157338665Y-65875000D01*
X157061426Y-65930147D01*
X156800273Y-66038320D01*
X156565241Y-66195363D01*
X156365363Y-66395241D01*
X156208320Y-66630273D01*
X156100147Y-66891426D01*
X156045000Y-67168665D01*
X155098023Y-67168665D01*
X155084236Y-67028691D01*
X155002182Y-66758192D01*
X154868932Y-66508899D01*
X154689608Y-66290392D01*
X154471101Y-66111068D01*
X154430000Y-66089099D01*
X154430000Y-63574864D01*
X154658691Y-63644236D01*
X154869508Y-63665000D01*
X155010492Y-63665000D01*
X155221309Y-63644236D01*
X155491808Y-63562182D01*
X155741101Y-63428932D01*
X155959608Y-63249608D01*
X156138932Y-63031101D01*
X156272182Y-62781808D01*
X156354236Y-62511309D01*
X156381943Y-62230000D01*
X156354236Y-61948691D01*
X156272182Y-61678192D01*
X156138932Y-61428899D01*
X155959608Y-61210392D01*
X155904410Y-61165092D01*
X157991009Y-59078494D01*
X158020001Y-59054701D01*
X158043795Y-59025708D01*
X158043799Y-59025704D01*
X158108966Y-58946297D01*
X158114974Y-58938976D01*
X158185546Y-58806947D01*
X158229003Y-58663686D01*
X158240000Y-58552033D01*
X158240000Y-58552024D01*
X158243676Y-58514701D01*
X158240000Y-58477378D01*
X158240000Y-58307909D01*
X158362886Y-58225799D01*
X158555799Y-58032886D01*
X158707371Y-57806043D01*
X158811775Y-57553989D01*
X158865000Y-57286411D01*
X158865000Y-57013589D01*
X158811775Y-56746011D01*
X158707371Y-56493957D01*
X158555799Y-56267114D01*
X158538685Y-56250000D01*
X161021928Y-56250000D01*
X161021928Y-58050000D01*
X161034188Y-58174482D01*
X161070498Y-58294180D01*
X161129463Y-58404494D01*
X161208815Y-58501185D01*
X161305506Y-58580537D01*
X161415820Y-58639502D01*
X161535518Y-58675812D01*
X161660000Y-58688072D01*
X161800001Y-58688072D01*
X161800001Y-59652667D01*
X161796324Y-59690000D01*
X161800001Y-59727333D01*
X161810998Y-59838986D01*
X161815856Y-59855000D01*
X161854454Y-59982246D01*
X161925026Y-60114276D01*
X161978966Y-60180001D01*
X162020000Y-60230001D01*
X162048998Y-60253799D01*
X163701312Y-61906114D01*
X163665000Y-62088665D01*
X163665000Y-62371335D01*
X163720147Y-62648574D01*
X163828320Y-62909727D01*
X163985363Y-63144759D01*
X164185241Y-63344637D01*
X164420273Y-63501680D01*
X164681426Y-63609853D01*
X164958665Y-63665000D01*
X165241335Y-63665000D01*
X165518574Y-63609853D01*
X165779727Y-63501680D01*
X166014759Y-63344637D01*
X166214637Y-63144759D01*
X166371680Y-62909727D01*
X166479853Y-62648574D01*
X166535000Y-62371335D01*
X166535000Y-62088665D01*
X166479853Y-61811426D01*
X166371680Y-61550273D01*
X166214637Y-61315241D01*
X166014759Y-61115363D01*
X165779727Y-60958320D01*
X165518574Y-60850147D01*
X165241335Y-60795000D01*
X164958665Y-60795000D01*
X164776114Y-60831312D01*
X163320000Y-59375199D01*
X163320000Y-58688072D01*
X163460000Y-58688072D01*
X163584482Y-58675812D01*
X163704180Y-58639502D01*
X163814494Y-58580537D01*
X163911185Y-58501185D01*
X163990537Y-58404494D01*
X164049502Y-58294180D01*
X164085812Y-58174482D01*
X164098072Y-58050000D01*
X164098072Y-56250000D01*
X164085812Y-56125518D01*
X164049502Y-56005820D01*
X163990537Y-55895506D01*
X163911185Y-55798815D01*
X163814494Y-55719463D01*
X163704180Y-55660498D01*
X163685873Y-55654944D01*
X163752312Y-55588505D01*
X163920299Y-55337095D01*
X164036011Y-55057743D01*
X164095000Y-54761184D01*
X164095000Y-54458816D01*
X164036011Y-54162257D01*
X163920299Y-53882905D01*
X163752312Y-53631495D01*
X163538505Y-53417688D01*
X163287095Y-53249701D01*
X163007743Y-53133989D01*
X162711184Y-53075000D01*
X162408816Y-53075000D01*
X162112257Y-53133989D01*
X161832905Y-53249701D01*
X161581495Y-53417688D01*
X161367688Y-53631495D01*
X161199701Y-53882905D01*
X161083989Y-54162257D01*
X161025000Y-54458816D01*
X161025000Y-54761184D01*
X161083989Y-55057743D01*
X161199701Y-55337095D01*
X161367688Y-55588505D01*
X161434127Y-55654944D01*
X161415820Y-55660498D01*
X161305506Y-55719463D01*
X161208815Y-55798815D01*
X161129463Y-55895506D01*
X161070498Y-56005820D01*
X161034188Y-56125518D01*
X161021928Y-56250000D01*
X158538685Y-56250000D01*
X158362886Y-56074201D01*
X158240000Y-55992091D01*
X158240000Y-54552622D01*
X158243676Y-54515299D01*
X158240000Y-54477976D01*
X158240000Y-54477967D01*
X158229003Y-54366314D01*
X158185546Y-54223053D01*
X158114974Y-54091024D01*
X158078189Y-54046201D01*
X158043799Y-54004296D01*
X158043795Y-54004292D01*
X158020001Y-53975299D01*
X157991009Y-53951506D01*
X156135987Y-52096485D01*
X156191185Y-52051185D01*
X156270537Y-51954494D01*
X156329502Y-51844180D01*
X156365812Y-51724482D01*
X156378072Y-51600000D01*
X156378072Y-50000000D01*
X156365812Y-49875518D01*
X156329502Y-49755820D01*
X156270537Y-49645506D01*
X156191185Y-49548815D01*
X156094494Y-49469463D01*
X155984180Y-49410498D01*
X155864482Y-49374188D01*
X155740000Y-49361928D01*
X155700000Y-49361928D01*
X155700000Y-42636105D01*
X155951302Y-42532012D01*
X156300983Y-42298363D01*
X156598363Y-42000983D01*
X156832012Y-41651302D01*
X156992953Y-41262756D01*
X157075000Y-40850279D01*
X157075000Y-40429721D01*
X157885000Y-40429721D01*
X157885000Y-40850279D01*
X157967047Y-41262756D01*
X158127988Y-41651302D01*
X158361637Y-42000983D01*
X158659017Y-42298363D01*
X159008698Y-42532012D01*
X159260000Y-42636105D01*
X159260000Y-44507377D01*
X159256324Y-44544700D01*
X159260000Y-44582022D01*
X159260000Y-44582032D01*
X159270997Y-44693685D01*
X159299940Y-44789099D01*
X159314454Y-44836946D01*
X159385026Y-44968976D01*
X159398423Y-44985300D01*
X159479999Y-45084701D01*
X159509003Y-45108504D01*
X164135590Y-49735092D01*
X164080392Y-49780392D01*
X163901068Y-49998899D01*
X163767818Y-50248192D01*
X163685764Y-50518691D01*
X163658057Y-50800000D01*
X163685764Y-51081309D01*
X163767818Y-51351808D01*
X163901068Y-51601101D01*
X164080392Y-51819608D01*
X164298899Y-51998932D01*
X164548192Y-52132182D01*
X164818691Y-52214236D01*
X165029508Y-52235000D01*
X165170492Y-52235000D01*
X165381309Y-52214236D01*
X165651808Y-52132182D01*
X165901101Y-51998932D01*
X166119608Y-51819608D01*
X166298932Y-51601101D01*
X166432182Y-51351808D01*
X166514236Y-51081309D01*
X166541943Y-50800000D01*
X166514236Y-50518691D01*
X166432182Y-50248192D01*
X166298932Y-49998899D01*
X166119608Y-49780392D01*
X165901101Y-49601068D01*
X165859140Y-49578640D01*
X165849003Y-49475714D01*
X165805546Y-49332453D01*
X165734974Y-49200423D01*
X165663799Y-49113697D01*
X165663798Y-49113696D01*
X165640001Y-49084699D01*
X165611003Y-49060901D01*
X160780000Y-44229899D01*
X160780000Y-42636105D01*
X161031302Y-42532012D01*
X161380983Y-42298363D01*
X161678363Y-42000983D01*
X161912012Y-41651302D01*
X162072953Y-41262756D01*
X162155000Y-40850279D01*
X162155000Y-40429721D01*
X162072953Y-40017244D01*
X161912012Y-39628698D01*
X161678363Y-39279017D01*
X161539346Y-39140000D01*
X164231928Y-39140000D01*
X164231928Y-42140000D01*
X164244188Y-42264482D01*
X164280498Y-42384180D01*
X164339463Y-42494494D01*
X164418815Y-42591185D01*
X164515506Y-42670537D01*
X164625820Y-42729502D01*
X164745518Y-42765812D01*
X164870000Y-42778072D01*
X165655514Y-42778072D01*
X165664454Y-42807546D01*
X165735026Y-42939576D01*
X165802361Y-43021623D01*
X165830000Y-43055301D01*
X165858998Y-43079099D01*
X167320001Y-44540103D01*
X167320000Y-55762913D01*
X167205518Y-55774188D01*
X167085820Y-55810498D01*
X166975506Y-55869463D01*
X166878815Y-55948815D01*
X166799463Y-56045506D01*
X166740498Y-56155820D01*
X166704188Y-56275518D01*
X166691928Y-56400000D01*
X166691928Y-57900000D01*
X166704188Y-58024482D01*
X166740498Y-58144180D01*
X166799463Y-58254494D01*
X166878815Y-58351185D01*
X166975506Y-58430537D01*
X167085820Y-58489502D01*
X167205518Y-58525812D01*
X167330000Y-58538072D01*
X168157126Y-58538072D01*
X167128998Y-59566201D01*
X167100000Y-59589999D01*
X167076202Y-59618997D01*
X167076201Y-59618998D01*
X167005026Y-59705724D01*
X166934454Y-59837754D01*
X166890998Y-59981015D01*
X166876324Y-60130000D01*
X166880001Y-60167332D01*
X166880000Y-66089099D01*
X166838899Y-66111068D01*
X166620392Y-66290392D01*
X166441068Y-66508899D01*
X166307818Y-66758192D01*
X166225764Y-67028691D01*
X166198057Y-67310000D01*
X166225764Y-67591309D01*
X166307818Y-67861808D01*
X166441068Y-68111101D01*
X166620392Y-68329608D01*
X166838899Y-68508932D01*
X167088192Y-68642182D01*
X167358691Y-68724236D01*
X167569508Y-68745000D01*
X167710492Y-68745000D01*
X167921309Y-68724236D01*
X168191808Y-68642182D01*
X168441101Y-68508932D01*
X168659608Y-68329608D01*
X168838932Y-68111101D01*
X168972182Y-67861808D01*
X169054236Y-67591309D01*
X169081943Y-67310000D01*
X169068023Y-67168665D01*
X170015000Y-67168665D01*
X170015000Y-67451335D01*
X170070147Y-67728574D01*
X170178320Y-67989727D01*
X170335363Y-68224759D01*
X170535241Y-68424637D01*
X170770273Y-68581680D01*
X171031426Y-68689853D01*
X171308665Y-68745000D01*
X171591335Y-68745000D01*
X171868574Y-68689853D01*
X172129727Y-68581680D01*
X172364759Y-68424637D01*
X172564637Y-68224759D01*
X172721680Y-67989727D01*
X172829853Y-67728574D01*
X172885000Y-67451335D01*
X172885000Y-67168665D01*
X172829853Y-66891426D01*
X172721680Y-66630273D01*
X172564637Y-66395241D01*
X172364759Y-66195363D01*
X172129727Y-66038320D01*
X171868574Y-65930147D01*
X171591335Y-65875000D01*
X171308665Y-65875000D01*
X171031426Y-65930147D01*
X170770273Y-66038320D01*
X170535241Y-66195363D01*
X170335363Y-66395241D01*
X170178320Y-66630273D01*
X170070147Y-66891426D01*
X170015000Y-67168665D01*
X169068023Y-67168665D01*
X169054236Y-67028691D01*
X168972182Y-66758192D01*
X168838932Y-66508899D01*
X168659608Y-66290392D01*
X168441101Y-66111068D01*
X168400000Y-66089099D01*
X168400000Y-60444801D01*
X170338636Y-58506167D01*
X170483589Y-58535000D01*
X170756411Y-58535000D01*
X171023989Y-58481775D01*
X171276043Y-58377371D01*
X171502886Y-58225799D01*
X171695799Y-58032886D01*
X171847371Y-57806043D01*
X171890000Y-57703127D01*
X171932629Y-57806043D01*
X172084201Y-58032886D01*
X172105606Y-58054291D01*
X169668998Y-60490901D01*
X169640000Y-60514699D01*
X169616202Y-60543697D01*
X169616201Y-60543698D01*
X169545026Y-60630424D01*
X169474454Y-60762454D01*
X169430998Y-60905715D01*
X169420861Y-61008639D01*
X169378899Y-61031068D01*
X169160392Y-61210392D01*
X168981068Y-61428899D01*
X168847818Y-61678192D01*
X168765764Y-61948691D01*
X168738057Y-62230000D01*
X168765764Y-62511309D01*
X168847818Y-62781808D01*
X168981068Y-63031101D01*
X169160392Y-63249608D01*
X169378899Y-63428932D01*
X169628192Y-63562182D01*
X169898691Y-63644236D01*
X170109508Y-63665000D01*
X170250492Y-63665000D01*
X170461309Y-63644236D01*
X170731808Y-63562182D01*
X170981101Y-63428932D01*
X171199608Y-63249608D01*
X171378932Y-63031101D01*
X171512182Y-62781808D01*
X171594236Y-62511309D01*
X171621943Y-62230000D01*
X171594236Y-61948691D01*
X171512182Y-61678192D01*
X171378932Y-61428899D01*
X171199608Y-61210392D01*
X171144410Y-61165092D01*
X173671009Y-58638494D01*
X173700001Y-58614701D01*
X173723795Y-58585708D01*
X173723799Y-58585704D01*
X173794973Y-58498977D01*
X173794974Y-58498976D01*
X173865546Y-58366947D01*
X173874164Y-58338535D01*
X174042886Y-58225799D01*
X174235799Y-58032886D01*
X174387371Y-57806043D01*
X174491775Y-57553989D01*
X174545000Y-57286411D01*
X174545000Y-57013589D01*
X174491775Y-56746011D01*
X174387371Y-56493957D01*
X174235799Y-56267114D01*
X174218685Y-56250000D01*
X176261928Y-56250000D01*
X176261928Y-58050000D01*
X176274188Y-58174482D01*
X176310498Y-58294180D01*
X176369463Y-58404494D01*
X176448815Y-58501185D01*
X176545506Y-58580537D01*
X176655820Y-58639502D01*
X176775518Y-58675812D01*
X176900000Y-58688072D01*
X177085514Y-58688072D01*
X177094454Y-58717546D01*
X177165026Y-58849576D01*
X177236201Y-58936302D01*
X177260000Y-58965301D01*
X177288998Y-58989099D01*
X179420251Y-61120353D01*
X179225363Y-61315241D01*
X179068320Y-61550273D01*
X178960147Y-61811426D01*
X178905000Y-62088665D01*
X178905000Y-62371335D01*
X178960147Y-62648574D01*
X179068320Y-62909727D01*
X179225363Y-63144759D01*
X179425241Y-63344637D01*
X179660273Y-63501680D01*
X179921426Y-63609853D01*
X180198665Y-63665000D01*
X180481335Y-63665000D01*
X180758574Y-63609853D01*
X180850001Y-63571983D01*
X180850000Y-66089099D01*
X180808899Y-66111068D01*
X180590392Y-66290392D01*
X180411068Y-66508899D01*
X180277818Y-66758192D01*
X180195764Y-67028691D01*
X180168057Y-67310000D01*
X180195764Y-67591309D01*
X180277818Y-67861808D01*
X180411068Y-68111101D01*
X180590392Y-68329608D01*
X180808899Y-68508932D01*
X181058192Y-68642182D01*
X181328691Y-68724236D01*
X181539508Y-68745000D01*
X181680492Y-68745000D01*
X181891309Y-68724236D01*
X182161808Y-68642182D01*
X182411101Y-68508932D01*
X182629608Y-68329608D01*
X182808932Y-68111101D01*
X182942182Y-67861808D01*
X183024236Y-67591309D01*
X183051943Y-67310000D01*
X183038023Y-67168665D01*
X183985000Y-67168665D01*
X183985000Y-67451335D01*
X184040147Y-67728574D01*
X184148320Y-67989727D01*
X184305363Y-68224759D01*
X184505241Y-68424637D01*
X184740273Y-68581680D01*
X185001426Y-68689853D01*
X185278665Y-68745000D01*
X185561335Y-68745000D01*
X185838574Y-68689853D01*
X186099727Y-68581680D01*
X186334759Y-68424637D01*
X186534637Y-68224759D01*
X186691680Y-67989727D01*
X186799853Y-67728574D01*
X186855000Y-67451335D01*
X186855000Y-67168665D01*
X186799853Y-66891426D01*
X186691680Y-66630273D01*
X186534637Y-66395241D01*
X186334759Y-66195363D01*
X186099727Y-66038320D01*
X185838574Y-65930147D01*
X185561335Y-65875000D01*
X185278665Y-65875000D01*
X185001426Y-65930147D01*
X184740273Y-66038320D01*
X184505241Y-66195363D01*
X184305363Y-66395241D01*
X184148320Y-66630273D01*
X184040147Y-66891426D01*
X183985000Y-67168665D01*
X183038023Y-67168665D01*
X183024236Y-67028691D01*
X182942182Y-66758192D01*
X182808932Y-66508899D01*
X182629608Y-66290392D01*
X182411101Y-66111068D01*
X182370000Y-66089099D01*
X182370000Y-61274801D01*
X185138635Y-58506167D01*
X185283589Y-58535000D01*
X185556411Y-58535000D01*
X185823989Y-58481775D01*
X186076043Y-58377371D01*
X186302886Y-58225799D01*
X186495799Y-58032886D01*
X186647371Y-57806043D01*
X186690000Y-57703127D01*
X186732629Y-57806043D01*
X186884201Y-58032886D01*
X187077114Y-58225799D01*
X187135252Y-58264645D01*
X184908998Y-60490901D01*
X184880000Y-60514699D01*
X184856202Y-60543697D01*
X184856201Y-60543698D01*
X184785026Y-60630424D01*
X184714454Y-60762454D01*
X184670998Y-60905715D01*
X184660861Y-61008639D01*
X184618899Y-61031068D01*
X184400392Y-61210392D01*
X184221068Y-61428899D01*
X184087818Y-61678192D01*
X184005764Y-61948691D01*
X183978057Y-62230000D01*
X184005764Y-62511309D01*
X184087818Y-62781808D01*
X184221068Y-63031101D01*
X184400392Y-63249608D01*
X184618899Y-63428932D01*
X184868192Y-63562182D01*
X185138691Y-63644236D01*
X185349508Y-63665000D01*
X185490492Y-63665000D01*
X185701309Y-63644236D01*
X185971808Y-63562182D01*
X186221101Y-63428932D01*
X186439608Y-63249608D01*
X186618932Y-63031101D01*
X186752182Y-62781808D01*
X186834236Y-62511309D01*
X186861943Y-62230000D01*
X186834236Y-61948691D01*
X186752182Y-61678192D01*
X186618932Y-61428899D01*
X186439608Y-61210392D01*
X186384410Y-61165092D01*
X188471009Y-59078494D01*
X188500001Y-59054701D01*
X188523795Y-59025708D01*
X188523799Y-59025704D01*
X188588966Y-58946297D01*
X188594974Y-58938976D01*
X188665546Y-58806947D01*
X188709003Y-58663686D01*
X188720000Y-58552033D01*
X188720000Y-58552024D01*
X188723676Y-58514701D01*
X188720000Y-58477378D01*
X188720000Y-58307909D01*
X188842886Y-58225799D01*
X189035799Y-58032886D01*
X189187371Y-57806043D01*
X189291775Y-57553989D01*
X189345000Y-57286411D01*
X189345000Y-57013589D01*
X189291775Y-56746011D01*
X189187371Y-56493957D01*
X189035799Y-56267114D01*
X188842886Y-56074201D01*
X188720000Y-55992091D01*
X188720000Y-54552622D01*
X188723676Y-54515299D01*
X188720000Y-54477976D01*
X188720000Y-54477967D01*
X188709003Y-54366314D01*
X188665546Y-54223053D01*
X188594974Y-54091024D01*
X188558189Y-54046201D01*
X188523799Y-54004296D01*
X188523795Y-54004292D01*
X188500001Y-53975299D01*
X188471009Y-53951506D01*
X186615987Y-52096485D01*
X186671185Y-52051185D01*
X186750537Y-51954494D01*
X186809502Y-51844180D01*
X186845812Y-51724482D01*
X186858072Y-51600000D01*
X186858072Y-50000000D01*
X186845812Y-49875518D01*
X186809502Y-49755820D01*
X186750537Y-49645506D01*
X186671185Y-49548815D01*
X186615987Y-49503515D01*
X188471008Y-47648495D01*
X188500001Y-47624701D01*
X188523795Y-47595708D01*
X188523799Y-47595704D01*
X188594973Y-47508977D01*
X188594974Y-47508976D01*
X188665546Y-47376947D01*
X188709003Y-47233686D01*
X188720000Y-47122033D01*
X188720000Y-47122024D01*
X188723676Y-47084701D01*
X188720000Y-47047378D01*
X188720000Y-42636105D01*
X188971302Y-42532012D01*
X189320983Y-42298363D01*
X189618363Y-42000983D01*
X189852012Y-41651302D01*
X190012953Y-41262756D01*
X190095000Y-40850279D01*
X190095000Y-40429721D01*
X190905000Y-40429721D01*
X190905000Y-40850279D01*
X190987047Y-41262756D01*
X191147988Y-41651302D01*
X191381637Y-42000983D01*
X191679017Y-42298363D01*
X192028698Y-42532012D01*
X192280001Y-42636105D01*
X192280000Y-47047377D01*
X192276324Y-47084700D01*
X192280000Y-47122022D01*
X192280000Y-47122032D01*
X192290997Y-47233685D01*
X192293032Y-47240392D01*
X192334454Y-47376946D01*
X192405026Y-47508976D01*
X192406685Y-47510997D01*
X192499999Y-47624701D01*
X192529003Y-47648504D01*
X194615590Y-49735092D01*
X194560392Y-49780392D01*
X194381068Y-49998899D01*
X194247818Y-50248192D01*
X194165764Y-50518691D01*
X194138057Y-50800000D01*
X194165764Y-51081309D01*
X194247818Y-51351808D01*
X194381068Y-51601101D01*
X194560392Y-51819608D01*
X194667603Y-51907594D01*
X193448930Y-53126269D01*
X193191184Y-53075000D01*
X192888816Y-53075000D01*
X192592257Y-53133989D01*
X192312905Y-53249701D01*
X192061495Y-53417688D01*
X191847688Y-53631495D01*
X191679701Y-53882905D01*
X191563989Y-54162257D01*
X191505000Y-54458816D01*
X191505000Y-54761184D01*
X191563989Y-55057743D01*
X191679701Y-55337095D01*
X191847688Y-55588505D01*
X191914127Y-55654944D01*
X191895820Y-55660498D01*
X191785506Y-55719463D01*
X191688815Y-55798815D01*
X191609463Y-55895506D01*
X191550498Y-56005820D01*
X191514188Y-56125518D01*
X191501928Y-56250000D01*
X191501928Y-58050000D01*
X191514188Y-58174482D01*
X191550498Y-58294180D01*
X191609463Y-58404494D01*
X191688815Y-58501185D01*
X191785506Y-58580537D01*
X191895820Y-58639502D01*
X192015518Y-58675812D01*
X192140000Y-58688072D01*
X192280001Y-58688072D01*
X192280001Y-59652667D01*
X192276324Y-59690000D01*
X192280001Y-59727333D01*
X192290998Y-59838986D01*
X192295856Y-59855000D01*
X192334454Y-59982246D01*
X192405026Y-60114276D01*
X192458966Y-60180001D01*
X192500000Y-60230001D01*
X192528998Y-60253799D01*
X194181312Y-61906114D01*
X194145000Y-62088665D01*
X194145000Y-62371335D01*
X194200147Y-62648574D01*
X194308320Y-62909727D01*
X194465363Y-63144759D01*
X194665241Y-63344637D01*
X194900273Y-63501680D01*
X195161426Y-63609853D01*
X195438665Y-63665000D01*
X195560199Y-63665000D01*
X195068998Y-64156201D01*
X195040000Y-64179999D01*
X195016202Y-64208997D01*
X195016201Y-64208998D01*
X194945026Y-64295724D01*
X194874454Y-64427754D01*
X194830998Y-64571015D01*
X194816324Y-64720000D01*
X194820001Y-64757332D01*
X194820000Y-66089099D01*
X194778899Y-66111068D01*
X194560392Y-66290392D01*
X194381068Y-66508899D01*
X194247818Y-66758192D01*
X194165764Y-67028691D01*
X194138057Y-67310000D01*
X194165764Y-67591309D01*
X194247818Y-67861808D01*
X194381068Y-68111101D01*
X194560392Y-68329608D01*
X194778899Y-68508932D01*
X195028192Y-68642182D01*
X195298691Y-68724236D01*
X195509508Y-68745000D01*
X195650492Y-68745000D01*
X195861309Y-68724236D01*
X196131808Y-68642182D01*
X196381101Y-68508932D01*
X196599608Y-68329608D01*
X196778932Y-68111101D01*
X196912182Y-67861808D01*
X196994236Y-67591309D01*
X197021943Y-67310000D01*
X196994236Y-67028691D01*
X196912182Y-66758192D01*
X196778932Y-66508899D01*
X196599608Y-66290392D01*
X196381101Y-66111068D01*
X196340000Y-66089099D01*
X196340000Y-65034801D01*
X199226060Y-62148741D01*
X199218057Y-62230000D01*
X199245764Y-62511309D01*
X199327818Y-62781808D01*
X199461068Y-63031101D01*
X199640392Y-63249608D01*
X199858899Y-63428932D01*
X200108192Y-63562182D01*
X200378691Y-63644236D01*
X200589508Y-63665000D01*
X200730492Y-63665000D01*
X200941309Y-63644236D01*
X201211808Y-63562182D01*
X201461101Y-63428932D01*
X201679608Y-63249608D01*
X201858932Y-63031101D01*
X201992182Y-62781808D01*
X202074236Y-62511309D01*
X202101943Y-62230000D01*
X202074236Y-61948691D01*
X201992182Y-61678192D01*
X201858932Y-61428899D01*
X201679608Y-61210392D01*
X201624410Y-61165092D01*
X203711009Y-59078494D01*
X203740001Y-59054701D01*
X203763795Y-59025708D01*
X203763799Y-59025704D01*
X203828966Y-58946297D01*
X203834974Y-58938976D01*
X203905546Y-58806947D01*
X203949003Y-58663686D01*
X203960000Y-58552033D01*
X203960000Y-58552024D01*
X203963676Y-58514701D01*
X203960000Y-58477378D01*
X203960000Y-58307909D01*
X204082886Y-58225799D01*
X204275799Y-58032886D01*
X204427371Y-57806043D01*
X204531775Y-57553989D01*
X204585000Y-57286411D01*
X204585000Y-57013589D01*
X204531775Y-56746011D01*
X204427371Y-56493957D01*
X204275799Y-56267114D01*
X204082886Y-56074201D01*
X203856043Y-55922629D01*
X203603989Y-55818225D01*
X203336411Y-55765000D01*
X203063589Y-55765000D01*
X202918636Y-55793833D01*
X201420000Y-54295199D01*
X201420000Y-52238072D01*
X201460000Y-52238072D01*
X201584482Y-52225812D01*
X201704180Y-52189502D01*
X201814494Y-52130537D01*
X201911185Y-52051185D01*
X201990537Y-51954494D01*
X202049502Y-51844180D01*
X202085812Y-51724482D01*
X202098072Y-51600000D01*
X202098072Y-50000000D01*
X202085812Y-49875518D01*
X202049502Y-49755820D01*
X201990537Y-49645506D01*
X201911185Y-49548815D01*
X201855986Y-49503515D01*
X204981004Y-46378498D01*
X205010001Y-46354701D01*
X205104974Y-46238976D01*
X205175546Y-46106947D01*
X205219003Y-45963686D01*
X205230000Y-45852033D01*
X205230000Y-45852025D01*
X205233676Y-45814700D01*
X205230000Y-45777375D01*
X205230000Y-42636105D01*
X205481302Y-42532012D01*
X205830983Y-42298363D01*
X206128363Y-42000983D01*
X206362012Y-41651302D01*
X206522953Y-41262756D01*
X206605000Y-40850279D01*
X206605000Y-40429721D01*
X207415000Y-40429721D01*
X207415000Y-40850279D01*
X207497047Y-41262756D01*
X207657988Y-41651302D01*
X207891637Y-42000983D01*
X208189017Y-42298363D01*
X208538698Y-42532012D01*
X208790001Y-42636105D01*
X208790000Y-48317378D01*
X208786324Y-48354700D01*
X208790000Y-48392022D01*
X208790000Y-48392032D01*
X208800997Y-48503685D01*
X208832216Y-48606602D01*
X208844454Y-48646946D01*
X208915026Y-48778976D01*
X208932281Y-48800001D01*
X209009999Y-48894701D01*
X209039003Y-48918504D01*
X209855590Y-49735092D01*
X209800392Y-49780392D01*
X209621068Y-49998899D01*
X209487818Y-50248192D01*
X209405764Y-50518691D01*
X209378057Y-50800000D01*
X209405764Y-51081309D01*
X209487818Y-51351808D01*
X209621068Y-51601101D01*
X209800392Y-51819608D01*
X210018899Y-51998932D01*
X210060000Y-52020901D01*
X210060001Y-53025197D01*
X209958930Y-53126269D01*
X209701184Y-53075000D01*
X209398816Y-53075000D01*
X209102257Y-53133989D01*
X208822905Y-53249701D01*
X208571495Y-53417688D01*
X208357688Y-53631495D01*
X208189701Y-53882905D01*
X208073989Y-54162257D01*
X208015000Y-54458816D01*
X208015000Y-54761184D01*
X208073989Y-55057743D01*
X208189701Y-55337095D01*
X208357688Y-55588505D01*
X208424127Y-55654944D01*
X208405820Y-55660498D01*
X208295506Y-55719463D01*
X208198815Y-55798815D01*
X208119463Y-55895506D01*
X208060498Y-56005820D01*
X208024188Y-56125518D01*
X208011928Y-56250000D01*
X208011928Y-58050000D01*
X208024188Y-58174482D01*
X208060498Y-58294180D01*
X208119463Y-58404494D01*
X208198815Y-58501185D01*
X208295506Y-58580537D01*
X208405820Y-58639502D01*
X208525518Y-58675812D01*
X208650000Y-58688072D01*
X208835514Y-58688072D01*
X208844454Y-58717546D01*
X208915026Y-58849576D01*
X208986201Y-58936302D01*
X209010000Y-58965301D01*
X209038998Y-58989099D01*
X210060000Y-60010102D01*
X210060001Y-61011956D01*
X209905241Y-61115363D01*
X209705363Y-61315241D01*
X209548320Y-61550273D01*
X209440147Y-61811426D01*
X209385000Y-62088665D01*
X209385000Y-62371335D01*
X209440147Y-62648574D01*
X209548320Y-62909727D01*
X209705363Y-63144759D01*
X209905241Y-63344637D01*
X210140273Y-63501680D01*
X210401426Y-63609853D01*
X210678665Y-63665000D01*
X210961335Y-63665000D01*
X211238574Y-63609853D01*
X211499727Y-63501680D01*
X211734759Y-63344637D01*
X211934637Y-63144759D01*
X212091680Y-62909727D01*
X212199853Y-62648574D01*
X212255000Y-62371335D01*
X212255000Y-62088665D01*
X212199853Y-61811426D01*
X212091680Y-61550273D01*
X211934637Y-61315241D01*
X211734759Y-61115363D01*
X211580000Y-61011957D01*
X211580000Y-59732622D01*
X211583676Y-59695299D01*
X211580000Y-59657976D01*
X211580000Y-59657967D01*
X211569003Y-59546314D01*
X211525546Y-59403053D01*
X211454974Y-59271024D01*
X211360001Y-59155299D01*
X211331004Y-59131502D01*
X210788557Y-58589056D01*
X210804494Y-58580537D01*
X210901185Y-58501185D01*
X210980537Y-58404494D01*
X211039502Y-58294180D01*
X211075812Y-58174482D01*
X211088072Y-58050000D01*
X211088072Y-56250000D01*
X211075812Y-56125518D01*
X211039502Y-56005820D01*
X210980537Y-55895506D01*
X210901185Y-55798815D01*
X210804494Y-55719463D01*
X210694180Y-55660498D01*
X210675873Y-55654944D01*
X210742312Y-55588505D01*
X210910299Y-55337095D01*
X211026011Y-55057743D01*
X211085000Y-54761184D01*
X211085000Y-54458816D01*
X211033731Y-54201070D01*
X211331003Y-53903799D01*
X211360001Y-53880001D01*
X211454974Y-53764276D01*
X211525546Y-53632247D01*
X211569003Y-53488986D01*
X211580000Y-53377333D01*
X211580000Y-53377324D01*
X211583676Y-53340001D01*
X211580000Y-53302678D01*
X211580000Y-52020901D01*
X211621101Y-51998932D01*
X211839608Y-51819608D01*
X212018932Y-51601101D01*
X212152182Y-51351808D01*
X212234236Y-51081309D01*
X212261943Y-50800000D01*
X212234236Y-50518691D01*
X212152182Y-50248192D01*
X212018932Y-49998899D01*
X211839608Y-49780392D01*
X211621101Y-49601068D01*
X211579140Y-49578640D01*
X211569003Y-49475714D01*
X211525546Y-49332453D01*
X211454974Y-49200424D01*
X211360001Y-49084699D01*
X211331003Y-49060901D01*
X210310000Y-48039899D01*
X210310000Y-42636105D01*
X210561302Y-42532012D01*
X210910983Y-42298363D01*
X211208363Y-42000983D01*
X211442012Y-41651302D01*
X211602953Y-41262756D01*
X211685000Y-40850279D01*
X211685000Y-40429721D01*
X211602953Y-40017244D01*
X211442012Y-39628698D01*
X211208363Y-39279017D01*
X210910983Y-38981637D01*
X210561302Y-38747988D01*
X210172756Y-38587047D01*
X209760279Y-38505000D01*
X209339721Y-38505000D01*
X208927244Y-38587047D01*
X208538698Y-38747988D01*
X208189017Y-38981637D01*
X207891637Y-39279017D01*
X207657988Y-39628698D01*
X207497047Y-40017244D01*
X207415000Y-40429721D01*
X206605000Y-40429721D01*
X206522953Y-40017244D01*
X206362012Y-39628698D01*
X206128363Y-39279017D01*
X205830983Y-38981637D01*
X205481302Y-38747988D01*
X205092756Y-38587047D01*
X204680279Y-38505000D01*
X204259721Y-38505000D01*
X203847244Y-38587047D01*
X203458698Y-38747988D01*
X203109017Y-38981637D01*
X202811637Y-39279017D01*
X202577988Y-39628698D01*
X202417047Y-40017244D01*
X202335000Y-40429721D01*
X202335000Y-40850279D01*
X202417047Y-41262756D01*
X202577988Y-41651302D01*
X202811637Y-42000983D01*
X203109017Y-42298363D01*
X203458698Y-42532012D01*
X203710001Y-42636105D01*
X203710000Y-45499898D01*
X200148998Y-49060901D01*
X200120000Y-49084699D01*
X200096203Y-49113696D01*
X200096201Y-49113698D01*
X200025026Y-49200424D01*
X199954454Y-49332454D01*
X199945514Y-49361928D01*
X199860000Y-49361928D01*
X199735518Y-49374188D01*
X199615820Y-49410498D01*
X199505506Y-49469463D01*
X199408815Y-49548815D01*
X199329463Y-49645506D01*
X199270498Y-49755820D01*
X199234188Y-49875518D01*
X199221928Y-50000000D01*
X199221928Y-51600000D01*
X199234188Y-51724482D01*
X199270498Y-51844180D01*
X199329463Y-51954494D01*
X199408815Y-52051185D01*
X199505506Y-52130537D01*
X199615820Y-52189502D01*
X199735518Y-52225812D01*
X199860000Y-52238072D01*
X199900001Y-52238072D01*
X199900000Y-54572677D01*
X199896324Y-54610000D01*
X199900000Y-54647322D01*
X199900000Y-54647332D01*
X199910997Y-54758985D01*
X199925728Y-54807546D01*
X199954454Y-54902246D01*
X200025026Y-55034276D01*
X200061812Y-55079099D01*
X200119999Y-55150001D01*
X200149003Y-55173804D01*
X200740199Y-55765000D01*
X200523589Y-55765000D01*
X200256011Y-55818225D01*
X200003957Y-55922629D01*
X199777114Y-56074201D01*
X199584201Y-56267114D01*
X199506445Y-56383483D01*
X199495812Y-56275518D01*
X199459502Y-56155820D01*
X199400537Y-56045506D01*
X199321185Y-55948815D01*
X199224494Y-55869463D01*
X199114180Y-55810498D01*
X198994482Y-55774188D01*
X198880000Y-55762913D01*
X198880000Y-44100101D01*
X199901003Y-43079099D01*
X199930001Y-43055301D01*
X200024974Y-42939576D01*
X200095546Y-42807547D01*
X200104487Y-42778072D01*
X200890000Y-42778072D01*
X201014482Y-42765812D01*
X201134180Y-42729502D01*
X201244494Y-42670537D01*
X201341185Y-42591185D01*
X201420537Y-42494494D01*
X201479502Y-42384180D01*
X201515812Y-42264482D01*
X201528072Y-42140000D01*
X201528072Y-39140000D01*
X201515812Y-39015518D01*
X201479502Y-38895820D01*
X201420537Y-38785506D01*
X201341185Y-38688815D01*
X201244494Y-38609463D01*
X201134180Y-38550498D01*
X201014482Y-38514188D01*
X200890000Y-38501928D01*
X197890000Y-38501928D01*
X197765518Y-38514188D01*
X197645820Y-38550498D01*
X197535506Y-38609463D01*
X197438815Y-38688815D01*
X197359463Y-38785506D01*
X197300498Y-38895820D01*
X197264188Y-39015518D01*
X197251928Y-39140000D01*
X197251928Y-42140000D01*
X197264188Y-42264482D01*
X197300498Y-42384180D01*
X197359463Y-42494494D01*
X197438815Y-42591185D01*
X197535506Y-42670537D01*
X197645820Y-42729502D01*
X197765518Y-42765812D01*
X197890000Y-42778072D01*
X198052427Y-42778072D01*
X197608998Y-43221501D01*
X197580000Y-43245299D01*
X197556202Y-43274297D01*
X197556201Y-43274298D01*
X197485026Y-43361024D01*
X197414454Y-43493054D01*
X197370998Y-43636315D01*
X197356324Y-43785300D01*
X197360001Y-43822632D01*
X197360000Y-55762913D01*
X197245518Y-55774188D01*
X197125820Y-55810498D01*
X197015506Y-55869463D01*
X196918815Y-55948815D01*
X196839463Y-56045506D01*
X196780498Y-56155820D01*
X196744188Y-56275518D01*
X196731928Y-56400000D01*
X196731928Y-57900000D01*
X196744188Y-58024482D01*
X196780498Y-58144180D01*
X196839463Y-58254494D01*
X196918815Y-58351185D01*
X197015506Y-58430537D01*
X197125820Y-58489502D01*
X197245518Y-58525812D01*
X197370000Y-58538072D01*
X198870000Y-58538072D01*
X198994482Y-58525812D01*
X199114180Y-58489502D01*
X199224494Y-58430537D01*
X199321185Y-58351185D01*
X199400537Y-58254494D01*
X199459502Y-58144180D01*
X199495812Y-58024482D01*
X199506445Y-57916517D01*
X199584201Y-58032886D01*
X199777114Y-58225799D01*
X199900001Y-58307909D01*
X199900000Y-59325198D01*
X197015000Y-62210199D01*
X197015000Y-62088665D01*
X196959853Y-61811426D01*
X196851680Y-61550273D01*
X196694637Y-61315241D01*
X196494759Y-61115363D01*
X196259727Y-60958320D01*
X195998574Y-60850147D01*
X195721335Y-60795000D01*
X195438665Y-60795000D01*
X195256114Y-60831312D01*
X193800000Y-59375199D01*
X193800000Y-58688072D01*
X193940000Y-58688072D01*
X194064482Y-58675812D01*
X194184180Y-58639502D01*
X194294494Y-58580537D01*
X194391185Y-58501185D01*
X194470537Y-58404494D01*
X194529502Y-58294180D01*
X194565812Y-58174482D01*
X194578072Y-58050000D01*
X194578072Y-56250000D01*
X194565812Y-56125518D01*
X194529502Y-56005820D01*
X194470537Y-55895506D01*
X194391185Y-55798815D01*
X194294494Y-55719463D01*
X194184180Y-55660498D01*
X194165873Y-55654944D01*
X194232312Y-55588505D01*
X194400299Y-55337095D01*
X194516011Y-55057743D01*
X194575000Y-54761184D01*
X194575000Y-54458816D01*
X194523731Y-54201070D01*
X196091009Y-52633794D01*
X196120001Y-52610001D01*
X196143795Y-52581008D01*
X196143799Y-52581004D01*
X196214973Y-52494277D01*
X196214974Y-52494276D01*
X196285546Y-52362247D01*
X196329003Y-52218986D01*
X196340000Y-52107333D01*
X196340000Y-52107324D01*
X196343676Y-52070001D01*
X196340000Y-52032678D01*
X196340000Y-52020901D01*
X196381101Y-51998932D01*
X196599608Y-51819608D01*
X196778932Y-51601101D01*
X196912182Y-51351808D01*
X196994236Y-51081309D01*
X197021943Y-50800000D01*
X196994236Y-50518691D01*
X196912182Y-50248192D01*
X196778932Y-49998899D01*
X196599608Y-49780392D01*
X196381101Y-49601068D01*
X196339140Y-49578640D01*
X196329003Y-49475714D01*
X196285546Y-49332453D01*
X196214974Y-49200424D01*
X196201811Y-49184385D01*
X196143799Y-49113696D01*
X196143795Y-49113692D01*
X196120001Y-49084699D01*
X196091008Y-49060905D01*
X193800000Y-46769899D01*
X193800000Y-42636105D01*
X194051302Y-42532012D01*
X194400983Y-42298363D01*
X194698363Y-42000983D01*
X194932012Y-41651302D01*
X195092953Y-41262756D01*
X195175000Y-40850279D01*
X195175000Y-40429721D01*
X195092953Y-40017244D01*
X194932012Y-39628698D01*
X194698363Y-39279017D01*
X194400983Y-38981637D01*
X194051302Y-38747988D01*
X193662756Y-38587047D01*
X193250279Y-38505000D01*
X192829721Y-38505000D01*
X192417244Y-38587047D01*
X192028698Y-38747988D01*
X191679017Y-38981637D01*
X191381637Y-39279017D01*
X191147988Y-39628698D01*
X190987047Y-40017244D01*
X190905000Y-40429721D01*
X190095000Y-40429721D01*
X190012953Y-40017244D01*
X189852012Y-39628698D01*
X189618363Y-39279017D01*
X189320983Y-38981637D01*
X188971302Y-38747988D01*
X188582756Y-38587047D01*
X188170279Y-38505000D01*
X187749721Y-38505000D01*
X187337244Y-38587047D01*
X186948698Y-38747988D01*
X186599017Y-38981637D01*
X186301637Y-39279017D01*
X186067988Y-39628698D01*
X185907047Y-40017244D01*
X185825000Y-40429721D01*
X185825000Y-40850279D01*
X185907047Y-41262756D01*
X186067988Y-41651302D01*
X186301637Y-42000983D01*
X186599017Y-42298363D01*
X186948698Y-42532012D01*
X187200000Y-42636105D01*
X187200001Y-46769896D01*
X184908998Y-49060901D01*
X184880000Y-49084699D01*
X184856203Y-49113696D01*
X184856201Y-49113698D01*
X184785026Y-49200424D01*
X184714454Y-49332454D01*
X184705514Y-49361928D01*
X184620000Y-49361928D01*
X184495518Y-49374188D01*
X184375820Y-49410498D01*
X184265506Y-49469463D01*
X184168815Y-49548815D01*
X184089463Y-49645506D01*
X184030498Y-49755820D01*
X183994188Y-49875518D01*
X183981928Y-50000000D01*
X183981928Y-51600000D01*
X183994188Y-51724482D01*
X184030498Y-51844180D01*
X184089463Y-51954494D01*
X184168815Y-52051185D01*
X184265506Y-52130537D01*
X184375820Y-52189502D01*
X184495518Y-52225812D01*
X184620000Y-52238072D01*
X184705514Y-52238072D01*
X184714454Y-52267546D01*
X184785026Y-52399576D01*
X184856201Y-52486302D01*
X184880000Y-52515301D01*
X184908998Y-52539099D01*
X187200000Y-54830103D01*
X187200001Y-55992091D01*
X187077114Y-56074201D01*
X186884201Y-56267114D01*
X186732629Y-56493957D01*
X186690000Y-56596873D01*
X186647371Y-56493957D01*
X186495799Y-56267114D01*
X186302886Y-56074201D01*
X186076043Y-55922629D01*
X185823989Y-55818225D01*
X185556411Y-55765000D01*
X185283589Y-55765000D01*
X185016011Y-55818225D01*
X184763957Y-55922629D01*
X184537114Y-56074201D01*
X184344201Y-56267114D01*
X184266445Y-56383483D01*
X184255812Y-56275518D01*
X184219502Y-56155820D01*
X184160537Y-56045506D01*
X184081185Y-55948815D01*
X183984494Y-55869463D01*
X183874180Y-55810498D01*
X183754482Y-55774188D01*
X183630000Y-55761928D01*
X182130000Y-55761928D01*
X182005518Y-55774188D01*
X181885820Y-55810498D01*
X181775506Y-55869463D01*
X181678815Y-55948815D01*
X181599463Y-56045506D01*
X181540498Y-56155820D01*
X181504188Y-56275518D01*
X181491928Y-56400000D01*
X181491928Y-57900000D01*
X181504188Y-58024482D01*
X181540498Y-58144180D01*
X181599463Y-58254494D01*
X181678815Y-58351185D01*
X181775506Y-58430537D01*
X181885820Y-58489502D01*
X182005518Y-58525812D01*
X182130000Y-58538072D01*
X182957127Y-58538072D01*
X181098998Y-60396201D01*
X181070000Y-60419999D01*
X181046202Y-60448997D01*
X181046201Y-60448998D01*
X180975026Y-60535724D01*
X180973290Y-60538972D01*
X180953370Y-60514699D01*
X180903799Y-60454296D01*
X180903795Y-60454292D01*
X180880001Y-60425299D01*
X180851009Y-60401506D01*
X179038557Y-58589056D01*
X179054494Y-58580537D01*
X179151185Y-58501185D01*
X179230537Y-58404494D01*
X179289502Y-58294180D01*
X179325812Y-58174482D01*
X179338072Y-58050000D01*
X179338072Y-56250000D01*
X179325812Y-56125518D01*
X179289502Y-56005820D01*
X179230537Y-55895506D01*
X179151185Y-55798815D01*
X179054494Y-55719463D01*
X178944180Y-55660498D01*
X178925873Y-55654944D01*
X178992312Y-55588505D01*
X179160299Y-55337095D01*
X179276011Y-55057743D01*
X179335000Y-54761184D01*
X179335000Y-54458816D01*
X179276011Y-54162257D01*
X179261903Y-54128198D01*
X180851008Y-52539095D01*
X180880001Y-52515301D01*
X180903795Y-52486308D01*
X180903799Y-52486304D01*
X180974973Y-52399577D01*
X180974974Y-52399576D01*
X181045546Y-52267547D01*
X181089003Y-52124286D01*
X181099140Y-52021360D01*
X181141101Y-51998932D01*
X181359608Y-51819608D01*
X181538932Y-51601101D01*
X181672182Y-51351808D01*
X181754236Y-51081309D01*
X181781943Y-50800000D01*
X181754236Y-50518691D01*
X181672182Y-50248192D01*
X181538932Y-49998899D01*
X181359608Y-49780392D01*
X181141101Y-49601068D01*
X180891808Y-49467818D01*
X180621309Y-49385764D01*
X180410492Y-49365000D01*
X180269508Y-49365000D01*
X180058691Y-49385764D01*
X179788192Y-49467818D01*
X179538899Y-49601068D01*
X179320392Y-49780392D01*
X179141068Y-49998899D01*
X179007818Y-50248192D01*
X178925764Y-50518691D01*
X178898057Y-50800000D01*
X178925764Y-51081309D01*
X179007818Y-51351808D01*
X179141068Y-51601101D01*
X179320392Y-51819608D01*
X179375590Y-51864908D01*
X178129941Y-53110557D01*
X177951184Y-53075000D01*
X177648816Y-53075000D01*
X177352257Y-53133989D01*
X177072905Y-53249701D01*
X176821495Y-53417688D01*
X176607688Y-53631495D01*
X176439701Y-53882905D01*
X176323989Y-54162257D01*
X176265000Y-54458816D01*
X176265000Y-54761184D01*
X176323989Y-55057743D01*
X176439701Y-55337095D01*
X176607688Y-55588505D01*
X176674127Y-55654944D01*
X176655820Y-55660498D01*
X176545506Y-55719463D01*
X176448815Y-55798815D01*
X176369463Y-55895506D01*
X176310498Y-56005820D01*
X176274188Y-56125518D01*
X176261928Y-56250000D01*
X174218685Y-56250000D01*
X174042886Y-56074201D01*
X173920000Y-55992091D01*
X173920000Y-54992622D01*
X173923676Y-54955299D01*
X173920000Y-54917976D01*
X173920000Y-54917967D01*
X173909003Y-54806314D01*
X173865546Y-54663053D01*
X173794974Y-54531024D01*
X173781811Y-54514985D01*
X173723799Y-54444296D01*
X173723795Y-54444292D01*
X173700001Y-54415299D01*
X173671009Y-54391506D01*
X171375987Y-52096485D01*
X171431185Y-52051185D01*
X171510537Y-51954494D01*
X171569502Y-51844180D01*
X171605812Y-51724482D01*
X171618072Y-51600000D01*
X171618072Y-50000000D01*
X171605812Y-49875518D01*
X171569502Y-49755820D01*
X171510537Y-49645506D01*
X171431185Y-49548815D01*
X171334494Y-49469463D01*
X171224180Y-49410498D01*
X171104482Y-49374188D01*
X170980000Y-49361928D01*
X169380000Y-49361928D01*
X169255518Y-49374188D01*
X169135820Y-49410498D01*
X169025506Y-49469463D01*
X168928815Y-49548815D01*
X168849463Y-49645506D01*
X168840000Y-49663210D01*
X168840000Y-44985300D01*
X177382078Y-44985300D01*
X177419400Y-44988976D01*
X177456722Y-44985300D01*
X177456733Y-44985300D01*
X177568386Y-44974303D01*
X177711647Y-44930846D01*
X177843676Y-44860274D01*
X177959401Y-44765301D01*
X177983204Y-44736297D01*
X180741928Y-41977574D01*
X180741928Y-42140000D01*
X180754188Y-42264482D01*
X180790498Y-42384180D01*
X180849463Y-42494494D01*
X180928815Y-42591185D01*
X181025506Y-42670537D01*
X181135820Y-42729502D01*
X181255518Y-42765812D01*
X181380000Y-42778072D01*
X184380000Y-42778072D01*
X184504482Y-42765812D01*
X184624180Y-42729502D01*
X184734494Y-42670537D01*
X184831185Y-42591185D01*
X184910537Y-42494494D01*
X184969502Y-42384180D01*
X185005812Y-42264482D01*
X185018072Y-42140000D01*
X185018072Y-39140000D01*
X185005812Y-39015518D01*
X184969502Y-38895820D01*
X184910537Y-38785506D01*
X184831185Y-38688815D01*
X184734494Y-38609463D01*
X184624180Y-38550498D01*
X184504482Y-38514188D01*
X184380000Y-38501928D01*
X181380000Y-38501928D01*
X181255518Y-38514188D01*
X181135820Y-38550498D01*
X181025506Y-38609463D01*
X180928815Y-38688815D01*
X180849463Y-38785506D01*
X180790498Y-38895820D01*
X180754188Y-39015518D01*
X180741928Y-39140000D01*
X180741928Y-39925513D01*
X180712453Y-39934454D01*
X180580423Y-40005026D01*
X180530742Y-40045799D01*
X180464699Y-40099999D01*
X180440901Y-40128997D01*
X177104599Y-43465300D01*
X168394802Y-43465300D01*
X167707573Y-42778072D01*
X167870000Y-42778072D01*
X167994482Y-42765812D01*
X168114180Y-42729502D01*
X168224494Y-42670537D01*
X168321185Y-42591185D01*
X168400537Y-42494494D01*
X168459502Y-42384180D01*
X168495812Y-42264482D01*
X168508072Y-42140000D01*
X168508072Y-40429721D01*
X169315000Y-40429721D01*
X169315000Y-40850279D01*
X169397047Y-41262756D01*
X169557988Y-41651302D01*
X169791637Y-42000983D01*
X170089017Y-42298363D01*
X170438698Y-42532012D01*
X170827244Y-42692953D01*
X171239721Y-42775000D01*
X171660279Y-42775000D01*
X172072756Y-42692953D01*
X172461302Y-42532012D01*
X172810983Y-42298363D01*
X173108363Y-42000983D01*
X173342012Y-41651302D01*
X173502953Y-41262756D01*
X173585000Y-40850279D01*
X173585000Y-40429721D01*
X174395000Y-40429721D01*
X174395000Y-40850279D01*
X174477047Y-41262756D01*
X174637988Y-41651302D01*
X174871637Y-42000983D01*
X175169017Y-42298363D01*
X175518698Y-42532012D01*
X175907244Y-42692953D01*
X176319721Y-42775000D01*
X176740279Y-42775000D01*
X177152756Y-42692953D01*
X177541302Y-42532012D01*
X177890983Y-42298363D01*
X178188363Y-42000983D01*
X178422012Y-41651302D01*
X178582953Y-41262756D01*
X178665000Y-40850279D01*
X178665000Y-40429721D01*
X178582953Y-40017244D01*
X178422012Y-39628698D01*
X178188363Y-39279017D01*
X177890983Y-38981637D01*
X177541302Y-38747988D01*
X177152756Y-38587047D01*
X176740279Y-38505000D01*
X176319721Y-38505000D01*
X175907244Y-38587047D01*
X175518698Y-38747988D01*
X175169017Y-38981637D01*
X174871637Y-39279017D01*
X174637988Y-39628698D01*
X174477047Y-40017244D01*
X174395000Y-40429721D01*
X173585000Y-40429721D01*
X173502953Y-40017244D01*
X173342012Y-39628698D01*
X173108363Y-39279017D01*
X172810983Y-38981637D01*
X172461302Y-38747988D01*
X172072756Y-38587047D01*
X171660279Y-38505000D01*
X171239721Y-38505000D01*
X170827244Y-38587047D01*
X170438698Y-38747988D01*
X170089017Y-38981637D01*
X169791637Y-39279017D01*
X169557988Y-39628698D01*
X169397047Y-40017244D01*
X169315000Y-40429721D01*
X168508072Y-40429721D01*
X168508072Y-39140000D01*
X168495812Y-39015518D01*
X168459502Y-38895820D01*
X168400537Y-38785506D01*
X168321185Y-38688815D01*
X168224494Y-38609463D01*
X168114180Y-38550498D01*
X167994482Y-38514188D01*
X167870000Y-38501928D01*
X164870000Y-38501928D01*
X164745518Y-38514188D01*
X164625820Y-38550498D01*
X164515506Y-38609463D01*
X164418815Y-38688815D01*
X164339463Y-38785506D01*
X164280498Y-38895820D01*
X164244188Y-39015518D01*
X164231928Y-39140000D01*
X161539346Y-39140000D01*
X161380983Y-38981637D01*
X161031302Y-38747988D01*
X160642756Y-38587047D01*
X160230279Y-38505000D01*
X159809721Y-38505000D01*
X159397244Y-38587047D01*
X159008698Y-38747988D01*
X158659017Y-38981637D01*
X158361637Y-39279017D01*
X158127988Y-39628698D01*
X157967047Y-40017244D01*
X157885000Y-40429721D01*
X157075000Y-40429721D01*
X156992953Y-40017244D01*
X156832012Y-39628698D01*
X156598363Y-39279017D01*
X156300983Y-38981637D01*
X155951302Y-38747988D01*
X155562756Y-38587047D01*
X155150279Y-38505000D01*
X154729721Y-38505000D01*
X154317244Y-38587047D01*
X153928698Y-38747988D01*
X153579017Y-38981637D01*
X153281637Y-39279017D01*
X153047988Y-39628698D01*
X152887047Y-40017244D01*
X152805000Y-40429721D01*
X152805000Y-40850279D01*
X152887047Y-41262756D01*
X153047988Y-41651302D01*
X153281637Y-42000983D01*
X153579017Y-42298363D01*
X153928698Y-42532012D01*
X154180000Y-42636105D01*
X154180001Y-49361928D01*
X154140000Y-49361928D01*
X154015518Y-49374188D01*
X153895820Y-49410498D01*
X153785506Y-49469463D01*
X153688815Y-49548815D01*
X153609463Y-49645506D01*
X153550498Y-49755820D01*
X153514188Y-49875518D01*
X153501928Y-50000000D01*
X153501928Y-51600000D01*
X153514188Y-51724482D01*
X153550498Y-51844180D01*
X153609463Y-51954494D01*
X153688815Y-52051185D01*
X153785506Y-52130537D01*
X153895820Y-52189502D01*
X154015518Y-52225812D01*
X154140000Y-52238072D01*
X154225514Y-52238072D01*
X154234454Y-52267546D01*
X154305026Y-52399576D01*
X154376201Y-52486302D01*
X154400000Y-52515301D01*
X154428998Y-52539099D01*
X156720000Y-54830103D01*
X156720001Y-55992091D01*
X156597114Y-56074201D01*
X156404201Y-56267114D01*
X156252629Y-56493957D01*
X156210000Y-56596873D01*
X156167371Y-56493957D01*
X156015799Y-56267114D01*
X155822886Y-56074201D01*
X155596043Y-55922629D01*
X155343989Y-55818225D01*
X155076411Y-55765000D01*
X154803589Y-55765000D01*
X154536011Y-55818225D01*
X154283957Y-55922629D01*
X154057114Y-56074201D01*
X153864201Y-56267114D01*
X153786445Y-56383483D01*
X153775812Y-56275518D01*
X153739502Y-56155820D01*
X153680537Y-56045506D01*
X153601185Y-55948815D01*
X153504494Y-55869463D01*
X153394180Y-55810498D01*
X153274482Y-55774188D01*
X153160000Y-55762913D01*
X153160000Y-45092622D01*
X153163676Y-45055299D01*
X153160000Y-45017976D01*
X153160000Y-45017967D01*
X153149003Y-44906314D01*
X153105546Y-44763053D01*
X153034974Y-44631024D01*
X153021811Y-44614985D01*
X152963799Y-44544296D01*
X152963795Y-44544292D01*
X152940001Y-44515299D01*
X152911009Y-44491506D01*
X151197574Y-42778072D01*
X151360000Y-42778072D01*
X151484482Y-42765812D01*
X151604180Y-42729502D01*
X151714494Y-42670537D01*
X151811185Y-42591185D01*
X151890537Y-42494494D01*
X151949502Y-42384180D01*
X151985812Y-42264482D01*
X151998072Y-42140000D01*
X151998072Y-39140000D01*
X151985812Y-39015518D01*
X151949502Y-38895820D01*
X151890537Y-38785506D01*
X151811185Y-38688815D01*
X151714494Y-38609463D01*
X151604180Y-38550498D01*
X151484482Y-38514188D01*
X151360000Y-38501928D01*
X148360000Y-38501928D01*
X148235518Y-38514188D01*
X148115820Y-38550498D01*
X148005506Y-38609463D01*
X147908815Y-38688815D01*
X147829463Y-38785506D01*
X147770498Y-38895820D01*
X147734188Y-39015518D01*
X147721928Y-39140000D01*
X145029346Y-39140000D01*
X144870983Y-38981637D01*
X144521302Y-38747988D01*
X144132756Y-38587047D01*
X143720279Y-38505000D01*
X143299721Y-38505000D01*
X142887244Y-38587047D01*
X142498698Y-38747988D01*
X142149017Y-38981637D01*
X141851637Y-39279017D01*
X141617988Y-39628698D01*
X141457047Y-40017244D01*
X141375000Y-40429721D01*
X140565000Y-40429721D01*
X140482953Y-40017244D01*
X140322012Y-39628698D01*
X140088363Y-39279017D01*
X139790983Y-38981637D01*
X139441302Y-38747988D01*
X139052756Y-38587047D01*
X138640279Y-38505000D01*
X138219721Y-38505000D01*
X137807244Y-38587047D01*
X137418698Y-38747988D01*
X137069017Y-38981637D01*
X136771637Y-39279017D01*
X136537988Y-39628698D01*
X136377047Y-40017244D01*
X136295000Y-40429721D01*
X136295000Y-40850279D01*
X136377047Y-41262756D01*
X136537988Y-41651302D01*
X136771637Y-42000983D01*
X137069017Y-42298363D01*
X137418698Y-42532012D01*
X137670000Y-42636105D01*
X137670001Y-48317368D01*
X137666324Y-48354700D01*
X137680998Y-48503685D01*
X137724454Y-48646946D01*
X137795026Y-48778976D01*
X137831812Y-48823799D01*
X137890000Y-48894701D01*
X137918998Y-48918499D01*
X138504013Y-49503515D01*
X138448815Y-49548815D01*
X138369463Y-49645506D01*
X138310498Y-49755820D01*
X138274188Y-49875518D01*
X138261928Y-50000000D01*
X138261928Y-51600000D01*
X138274188Y-51724482D01*
X138310498Y-51844180D01*
X138369463Y-51954494D01*
X138448815Y-52051185D01*
X138545506Y-52130537D01*
X138655820Y-52189502D01*
X138775518Y-52225812D01*
X138900000Y-52238072D01*
X138940000Y-52238072D01*
X138940001Y-55294226D01*
X138858153Y-55319054D01*
X138726124Y-55389626D01*
X138610399Y-55484599D01*
X138586600Y-55513598D01*
X138242495Y-55857704D01*
X138154180Y-55810498D01*
X138034482Y-55774188D01*
X137910000Y-55761928D01*
X136410000Y-55761928D01*
X136285518Y-55774188D01*
X136165820Y-55810498D01*
X136055506Y-55869463D01*
X135958815Y-55948815D01*
X135879463Y-56045506D01*
X135820498Y-56155820D01*
X135784188Y-56275518D01*
X135771928Y-56400000D01*
X130300000Y-56400000D01*
X130300000Y-54647322D01*
X130303676Y-54609999D01*
X130300000Y-54572676D01*
X130300000Y-54572667D01*
X130289003Y-54461014D01*
X130245546Y-54317753D01*
X130174974Y-54185724D01*
X130080001Y-54069999D01*
X130051003Y-54046201D01*
X119449801Y-43445000D01*
X119531184Y-43445000D01*
X119827743Y-43386011D01*
X120107095Y-43270299D01*
X120358505Y-43102312D01*
X120572312Y-42888505D01*
X120650000Y-42772237D01*
X120727688Y-42888505D01*
X120941495Y-43102312D01*
X121192905Y-43270299D01*
X121472257Y-43386011D01*
X121768816Y-43445000D01*
X122071184Y-43445000D01*
X122367743Y-43386011D01*
X122647095Y-43270299D01*
X122898505Y-43102312D01*
X123112312Y-42888505D01*
X123280299Y-42637095D01*
X123396011Y-42357743D01*
X123455000Y-42061184D01*
X123455000Y-41758816D01*
X123396011Y-41462257D01*
X123347773Y-41345800D01*
X131183290Y-41345800D01*
X131211928Y-41354487D01*
X131211928Y-42140000D01*
X131224188Y-42264482D01*
X131260498Y-42384180D01*
X131319463Y-42494494D01*
X131398815Y-42591185D01*
X131495506Y-42670537D01*
X131605820Y-42729502D01*
X131725518Y-42765812D01*
X131850000Y-42778072D01*
X134850000Y-42778072D01*
X134974482Y-42765812D01*
X135094180Y-42729502D01*
X135204494Y-42670537D01*
X135301185Y-42591185D01*
X135380537Y-42494494D01*
X135439502Y-42384180D01*
X135475812Y-42264482D01*
X135488072Y-42140000D01*
X135488072Y-39140000D01*
X135475812Y-39015518D01*
X135439502Y-38895820D01*
X135380537Y-38785506D01*
X135301185Y-38688815D01*
X135204494Y-38609463D01*
X135094180Y-38550498D01*
X134974482Y-38514188D01*
X134850000Y-38501928D01*
X131850000Y-38501928D01*
X131725518Y-38514188D01*
X131605820Y-38550498D01*
X131495506Y-38609463D01*
X131398815Y-38688815D01*
X131319463Y-38785506D01*
X131260498Y-38895820D01*
X131224188Y-39015518D01*
X131211928Y-39140000D01*
X131211928Y-39825800D01*
X108041533Y-39825800D01*
X108004200Y-39822123D01*
X107966867Y-39825800D01*
X107855214Y-39836797D01*
X107711953Y-39880254D01*
X107579924Y-39950826D01*
X107464199Y-40045799D01*
X107440401Y-40074797D01*
X107088930Y-40426269D01*
X106831184Y-40375000D01*
X106528816Y-40375000D01*
X106232257Y-40433989D01*
X105952905Y-40549701D01*
X105701495Y-40717688D01*
X105487688Y-40931495D01*
X105410000Y-41047763D01*
X105332312Y-40931495D01*
X105118505Y-40717688D01*
X104867095Y-40549701D01*
X104587743Y-40433989D01*
X104291184Y-40375000D01*
X103988816Y-40375000D01*
X103692257Y-40433989D01*
X103412905Y-40549701D01*
X103161495Y-40717688D01*
X102947688Y-40931495D01*
X102779701Y-41182905D01*
X102663989Y-41462257D01*
X102605000Y-41758816D01*
X102605000Y-42061184D01*
X102663989Y-42357743D01*
X102779701Y-42637095D01*
X102947688Y-42888505D01*
X103161495Y-43102312D01*
X103412905Y-43270299D01*
X103692257Y-43386011D01*
X103988816Y-43445000D01*
X104291184Y-43445000D01*
X104587743Y-43386011D01*
X104867095Y-43270299D01*
X105118505Y-43102312D01*
X105332312Y-42888505D01*
X105410000Y-42772237D01*
X105487688Y-42888505D01*
X105701495Y-43102312D01*
X105952905Y-43270299D01*
X106232257Y-43386011D01*
X106528816Y-43445000D01*
X106831184Y-43445000D01*
X107127743Y-43386011D01*
X107407095Y-43270299D01*
X107658505Y-43102312D01*
X107872312Y-42888505D01*
X107950000Y-42772237D01*
X108027688Y-42888505D01*
X108241495Y-43102312D01*
X108492905Y-43270299D01*
X108772257Y-43386011D01*
X109068816Y-43445000D01*
X109371184Y-43445000D01*
X109667743Y-43386011D01*
X109947095Y-43270299D01*
X110198505Y-43102312D01*
X110412312Y-42888505D01*
X110490000Y-42772237D01*
X110567688Y-42888505D01*
X110781495Y-43102312D01*
X111032905Y-43270299D01*
X111312257Y-43386011D01*
X111608816Y-43445000D01*
X111690198Y-43445000D01*
X107841403Y-47293796D01*
X107812399Y-47317599D01*
X107788596Y-47346603D01*
X107635199Y-47500000D01*
X104090901Y-47500000D01*
X104068932Y-47458899D01*
X103889608Y-47240392D01*
X103671101Y-47061068D01*
X103421808Y-46927818D01*
X103151309Y-46845764D01*
X102940492Y-46825000D01*
X102799508Y-46825000D01*
X102588691Y-46845764D01*
X102318192Y-46927818D01*
X102068899Y-47061068D01*
X101850392Y-47240392D01*
X101671068Y-47458899D01*
X101537818Y-47708192D01*
X101455764Y-47978691D01*
X101428057Y-48260000D01*
X95910000Y-48260000D01*
X95910000Y-40444495D01*
X97075000Y-40444495D01*
X97075000Y-40835505D01*
X97151282Y-41219003D01*
X97300915Y-41580250D01*
X97518149Y-41905364D01*
X97794636Y-42181851D01*
X98119750Y-42399085D01*
X98480997Y-42548718D01*
X98864495Y-42625000D01*
X99255505Y-42625000D01*
X99639003Y-42548718D01*
X100000250Y-42399085D01*
X100325364Y-42181851D01*
X100601851Y-41905364D01*
X100819085Y-41580250D01*
X100968718Y-41219003D01*
X101045000Y-40835505D01*
X101045000Y-40444495D01*
X100968718Y-40060997D01*
X100819085Y-39699750D01*
X100601851Y-39374636D01*
X100325364Y-39098149D01*
X100000250Y-38880915D01*
X99639003Y-38731282D01*
X99255505Y-38655000D01*
X98864495Y-38655000D01*
X98480997Y-38731282D01*
X98119750Y-38880915D01*
X97794636Y-39098149D01*
X97518149Y-39374636D01*
X97300915Y-39699750D01*
X97151282Y-40060997D01*
X97075000Y-40444495D01*
X95910000Y-40444495D01*
X95910000Y-37490000D01*
X217780000Y-37490000D01*
X217780000Y-39991666D01*
X217780000Y-39991666D01*
G37*
X217780000Y-39991666D02*
X217659085Y-39699750D01*
X217441851Y-39374636D01*
X217165364Y-39098149D01*
X216840250Y-38880915D01*
X216479003Y-38731282D01*
X216095505Y-38655000D01*
X215704495Y-38655000D01*
X215320997Y-38731282D01*
X214959750Y-38880915D01*
X214634636Y-39098149D01*
X214358149Y-39374636D01*
X214140915Y-39699750D01*
X213991282Y-40060997D01*
X213915000Y-40444495D01*
X213915000Y-40835505D01*
X213991282Y-41219003D01*
X214140915Y-41580250D01*
X214358149Y-41905364D01*
X214634636Y-42181851D01*
X214959750Y-42399085D01*
X215320997Y-42548718D01*
X215704495Y-42625000D01*
X216095505Y-42625000D01*
X216479003Y-42548718D01*
X216840250Y-42399085D01*
X217165364Y-42181851D01*
X217441851Y-41905364D01*
X217659085Y-41580250D01*
X217780000Y-41288334D01*
X217780001Y-74281668D01*
X217659085Y-73989750D01*
X217441851Y-73664636D01*
X217165364Y-73388149D01*
X216840250Y-73170915D01*
X216479003Y-73021282D01*
X216095505Y-72945000D01*
X215704495Y-72945000D01*
X215320997Y-73021282D01*
X214959750Y-73170915D01*
X214634636Y-73388149D01*
X214358149Y-73664636D01*
X214140915Y-73989750D01*
X213991282Y-74350997D01*
X213915000Y-74734495D01*
X213915000Y-75125505D01*
X213991282Y-75509003D01*
X214140915Y-75870250D01*
X214358149Y-76195364D01*
X214634636Y-76471851D01*
X214959750Y-76689085D01*
X215320997Y-76838718D01*
X215704495Y-76915000D01*
X216095505Y-76915000D01*
X216479003Y-76838718D01*
X216840250Y-76689085D01*
X217165364Y-76471851D01*
X217441851Y-76195364D01*
X217659085Y-75870250D01*
X217780001Y-75578332D01*
X217780001Y-78080000D01*
X95910000Y-78080000D01*
X95910000Y-74734495D01*
X97075000Y-74734495D01*
X97075000Y-75125505D01*
X97151282Y-75509003D01*
X97300915Y-75870250D01*
X97518149Y-76195364D01*
X97794636Y-76471851D01*
X98119750Y-76689085D01*
X98480997Y-76838718D01*
X98864495Y-76915000D01*
X99255505Y-76915000D01*
X99639003Y-76838718D01*
X100000250Y-76689085D01*
X100325364Y-76471851D01*
X100601851Y-76195364D01*
X100819085Y-75870250D01*
X100968718Y-75509003D01*
X101045000Y-75125505D01*
X101045000Y-74734495D01*
X100968718Y-74350997D01*
X100819085Y-73989750D01*
X100601851Y-73664636D01*
X100325364Y-73388149D01*
X100000250Y-73170915D01*
X99639003Y-73021282D01*
X99255505Y-72945000D01*
X98864495Y-72945000D01*
X98480997Y-73021282D01*
X98119750Y-73170915D01*
X97794636Y-73388149D01*
X97518149Y-73664636D01*
X97300915Y-73989750D01*
X97151282Y-74350997D01*
X97075000Y-74734495D01*
X95910000Y-74734495D01*
X95910000Y-48260000D01*
X101428057Y-48260000D01*
X101455764Y-48541309D01*
X101537818Y-48811808D01*
X101671068Y-49061101D01*
X101850392Y-49279608D01*
X102068899Y-49458932D01*
X102318192Y-49592182D01*
X102588691Y-49674236D01*
X102799508Y-49695000D01*
X102940492Y-49695000D01*
X103151309Y-49674236D01*
X103421808Y-49592182D01*
X103671101Y-49458932D01*
X103889608Y-49279608D01*
X104068932Y-49061101D01*
X104090901Y-49020000D01*
X107912678Y-49020000D01*
X107950000Y-49023676D01*
X107987322Y-49020000D01*
X107987333Y-49020000D01*
X108098986Y-49009003D01*
X108242247Y-48965546D01*
X108335630Y-48915631D01*
X131564684Y-72144686D01*
X131559947Y-72142154D01*
X131416686Y-72098697D01*
X131305033Y-72087700D01*
X131305022Y-72087700D01*
X131267700Y-72084024D01*
X131230378Y-72087700D01*
X122692502Y-72087700D01*
X116909801Y-66305000D01*
X116991184Y-66305000D01*
X117287743Y-66246011D01*
X117567095Y-66130299D01*
X117818505Y-65962312D01*
X118032312Y-65748505D01*
X118110000Y-65632237D01*
X118187688Y-65748505D01*
X118401495Y-65962312D01*
X118652905Y-66130299D01*
X118932257Y-66246011D01*
X119228816Y-66305000D01*
X119531184Y-66305000D01*
X119827743Y-66246011D01*
X120107095Y-66130299D01*
X120358505Y-65962312D01*
X120572312Y-65748505D01*
X120650000Y-65632237D01*
X120727688Y-65748505D01*
X120941495Y-65962312D01*
X121192905Y-66130299D01*
X121472257Y-66246011D01*
X121768816Y-66305000D01*
X122071184Y-66305000D01*
X122367743Y-66246011D01*
X122647095Y-66130299D01*
X122898505Y-65962312D01*
X123112312Y-65748505D01*
X123280299Y-65497095D01*
X123396011Y-65217743D01*
X123455000Y-64921184D01*
X123455000Y-64618816D01*
X123396011Y-64322257D01*
X123280299Y-64042905D01*
X123112312Y-63791495D01*
X122898505Y-63577688D01*
X122647095Y-63409701D01*
X122367743Y-63293989D01*
X122071184Y-63235000D01*
X121768816Y-63235000D01*
X121472257Y-63293989D01*
X121192905Y-63409701D01*
X120941495Y-63577688D01*
X120727688Y-63791495D01*
X120650000Y-63907763D01*
X120572312Y-63791495D01*
X120358505Y-63577688D01*
X120107095Y-63409701D01*
X119827743Y-63293989D01*
X119531184Y-63235000D01*
X119228816Y-63235000D01*
X118932257Y-63293989D01*
X118652905Y-63409701D01*
X118401495Y-63577688D01*
X118187688Y-63791495D01*
X118110000Y-63907763D01*
X118032312Y-63791495D01*
X117818505Y-63577688D01*
X117567095Y-63409701D01*
X117287743Y-63293989D01*
X116991184Y-63235000D01*
X116688816Y-63235000D01*
X116392257Y-63293989D01*
X116112905Y-63409701D01*
X115861495Y-63577688D01*
X115647688Y-63791495D01*
X115570000Y-63907763D01*
X115492312Y-63791495D01*
X115278505Y-63577688D01*
X115027095Y-63409701D01*
X114747743Y-63293989D01*
X114451184Y-63235000D01*
X114148816Y-63235000D01*
X113852257Y-63293989D01*
X113572905Y-63409701D01*
X113321495Y-63577688D01*
X113107688Y-63791495D01*
X113030000Y-63907763D01*
X112952312Y-63791495D01*
X112738505Y-63577688D01*
X112487095Y-63409701D01*
X112207743Y-63293989D01*
X111911184Y-63235000D01*
X111608816Y-63235000D01*
X111312257Y-63293989D01*
X111032905Y-63409701D01*
X110781495Y-63577688D01*
X110567688Y-63791495D01*
X110490000Y-63907763D01*
X110412312Y-63791495D01*
X110198505Y-63577688D01*
X109947095Y-63409701D01*
X109667743Y-63293989D01*
X109371184Y-63235000D01*
X109068816Y-63235000D01*
X108772257Y-63293989D01*
X108492905Y-63409701D01*
X108241495Y-63577688D01*
X108027688Y-63791495D01*
X107950000Y-63907763D01*
X107872312Y-63791495D01*
X107658505Y-63577688D01*
X107407095Y-63409701D01*
X107127743Y-63293989D01*
X106831184Y-63235000D01*
X106528816Y-63235000D01*
X106232257Y-63293989D01*
X105952905Y-63409701D01*
X105701495Y-63577688D01*
X105487688Y-63791495D01*
X105410000Y-63907763D01*
X105332312Y-63791495D01*
X105118505Y-63577688D01*
X104900000Y-63431687D01*
X104900000Y-59727322D01*
X104903676Y-59689999D01*
X104900000Y-59652676D01*
X104900000Y-59652667D01*
X104889003Y-59541014D01*
X104845546Y-59397753D01*
X104774974Y-59265724D01*
X104680001Y-59149999D01*
X104651003Y-59126201D01*
X104268688Y-58743886D01*
X104305000Y-58561335D01*
X104305000Y-58278665D01*
X104249853Y-58001426D01*
X104141680Y-57740273D01*
X103984637Y-57505241D01*
X103784759Y-57305363D01*
X103549727Y-57148320D01*
X103288574Y-57040147D01*
X103011335Y-56985000D01*
X102728665Y-56985000D01*
X102451426Y-57040147D01*
X102190273Y-57148320D01*
X101955241Y-57305363D01*
X101755363Y-57505241D01*
X101598320Y-57740273D01*
X101490147Y-58001426D01*
X101435000Y-58278665D01*
X101435000Y-58561335D01*
X101490147Y-58838574D01*
X101598320Y-59099727D01*
X101755363Y-59334759D01*
X101955241Y-59534637D01*
X102190273Y-59691680D01*
X102451426Y-59799853D01*
X102728665Y-59855000D01*
X103011335Y-59855000D01*
X103193886Y-59818688D01*
X103380000Y-60004802D01*
X103380001Y-63431687D01*
X103161495Y-63577688D01*
X102947688Y-63791495D01*
X102779701Y-64042905D01*
X102663989Y-64322257D01*
X102605000Y-64618816D01*
X102605000Y-64921184D01*
X102663989Y-65217743D01*
X102779701Y-65497095D01*
X102947688Y-65748505D01*
X103161495Y-65962312D01*
X103412905Y-66130299D01*
X103692257Y-66246011D01*
X103988816Y-66305000D01*
X104291184Y-66305000D01*
X104587743Y-66246011D01*
X104867095Y-66130299D01*
X105118505Y-65962312D01*
X105332312Y-65748505D01*
X105410000Y-65632237D01*
X105487688Y-65748505D01*
X105701495Y-65962312D01*
X105952905Y-66130299D01*
X106232257Y-66246011D01*
X106528816Y-66305000D01*
X106831184Y-66305000D01*
X107127743Y-66246011D01*
X107407095Y-66130299D01*
X107658505Y-65962312D01*
X107872312Y-65748505D01*
X107950000Y-65632237D01*
X108027688Y-65748505D01*
X108241495Y-65962312D01*
X108492905Y-66130299D01*
X108772257Y-66246011D01*
X109068816Y-66305000D01*
X109371184Y-66305000D01*
X109667743Y-66246011D01*
X109947095Y-66130299D01*
X110198505Y-65962312D01*
X110412312Y-65748505D01*
X110490000Y-65632237D01*
X110567688Y-65748505D01*
X110781495Y-65962312D01*
X111032905Y-66130299D01*
X111312257Y-66246011D01*
X111608816Y-66305000D01*
X111911184Y-66305000D01*
X112207743Y-66246011D01*
X112487095Y-66130299D01*
X112738505Y-65962312D01*
X112952312Y-65748505D01*
X113030000Y-65632237D01*
X113107688Y-65748505D01*
X113321495Y-65962312D01*
X113572905Y-66130299D01*
X113852257Y-66246011D01*
X114148816Y-66305000D01*
X114451184Y-66305000D01*
X114708930Y-66253731D01*
X121813900Y-73358702D01*
X121837699Y-73387701D01*
X121866697Y-73411499D01*
X121953423Y-73482674D01*
X122085453Y-73553246D01*
X122228714Y-73596703D01*
X122340367Y-73607700D01*
X122340377Y-73607700D01*
X122377700Y-73611376D01*
X122415023Y-73607700D01*
X126131928Y-73607700D01*
X126131928Y-76430000D01*
X126144188Y-76554482D01*
X126180498Y-76674180D01*
X126239463Y-76784494D01*
X126318815Y-76881185D01*
X126415506Y-76960537D01*
X126525820Y-77019502D01*
X126645518Y-77055812D01*
X126770000Y-77068072D01*
X129770000Y-77068072D01*
X129894482Y-77055812D01*
X130014180Y-77019502D01*
X130124494Y-76960537D01*
X130221185Y-76881185D01*
X130300537Y-76784494D01*
X130359502Y-76674180D01*
X130395812Y-76554482D01*
X130408072Y-76430000D01*
X130408072Y-76267573D01*
X131456801Y-77316303D01*
X131480599Y-77345301D01*
X131596324Y-77440274D01*
X131728353Y-77510846D01*
X131871614Y-77554303D01*
X131983267Y-77565300D01*
X131983275Y-77565300D01*
X132020600Y-77568976D01*
X132057925Y-77565300D01*
X146072078Y-77565300D01*
X146109400Y-77568976D01*
X146146722Y-77565300D01*
X146146733Y-77565300D01*
X146258386Y-77554303D01*
X146401647Y-77510846D01*
X146533676Y-77440274D01*
X146649401Y-77345301D01*
X146673204Y-77316297D01*
X147721928Y-76267574D01*
X147721928Y-76430000D01*
X147734188Y-76554482D01*
X147770498Y-76674180D01*
X147829463Y-76784494D01*
X147908815Y-76881185D01*
X148005506Y-76960537D01*
X148115820Y-77019502D01*
X148235518Y-77055812D01*
X148360000Y-77068072D01*
X151360000Y-77068072D01*
X151484482Y-77055812D01*
X151604180Y-77019502D01*
X151714494Y-76960537D01*
X151811185Y-76881185D01*
X151890537Y-76784494D01*
X151949502Y-76674180D01*
X151985812Y-76554482D01*
X151998072Y-76430000D01*
X151998072Y-73430000D01*
X151985812Y-73305518D01*
X151949502Y-73185820D01*
X151890537Y-73075506D01*
X151811185Y-72978815D01*
X151760111Y-72936900D01*
X151872099Y-72936900D01*
X152991140Y-74055941D01*
X152887047Y-74307244D01*
X152805000Y-74719721D01*
X152805000Y-75140279D01*
X152887047Y-75552756D01*
X153047988Y-75941302D01*
X153281637Y-76290983D01*
X153579017Y-76588363D01*
X153928698Y-76822012D01*
X154317244Y-76982953D01*
X154729721Y-77065000D01*
X155150279Y-77065000D01*
X155562756Y-76982953D01*
X155814058Y-76878860D01*
X156251601Y-77316403D01*
X156275399Y-77345401D01*
X156304397Y-77369199D01*
X156391123Y-77440374D01*
X156522966Y-77510846D01*
X156523153Y-77510946D01*
X156666414Y-77554403D01*
X156778067Y-77565400D01*
X156778076Y-77565400D01*
X156815399Y-77569076D01*
X156852722Y-77565400D01*
X169537278Y-77565400D01*
X169574600Y-77569076D01*
X169611922Y-77565400D01*
X169611933Y-77565400D01*
X169723586Y-77554403D01*
X169866847Y-77510946D01*
X169998876Y-77440374D01*
X170114601Y-77345401D01*
X170138404Y-77316397D01*
X170575941Y-76878860D01*
X170827244Y-76982953D01*
X171239721Y-77065000D01*
X171660279Y-77065000D01*
X172072756Y-76982953D01*
X172324058Y-76878860D01*
X172761601Y-77316403D01*
X172785399Y-77345401D01*
X172814397Y-77369199D01*
X172901123Y-77440374D01*
X173032966Y-77510846D01*
X173033153Y-77510946D01*
X173176414Y-77554403D01*
X173288067Y-77565400D01*
X173288076Y-77565400D01*
X173325399Y-77569076D01*
X173362722Y-77565400D01*
X186047278Y-77565400D01*
X186084600Y-77569076D01*
X186121922Y-77565400D01*
X186121933Y-77565400D01*
X186233586Y-77554403D01*
X186376847Y-77510946D01*
X186508876Y-77440374D01*
X186624601Y-77345401D01*
X186648404Y-77316397D01*
X187085941Y-76878860D01*
X187337244Y-76982953D01*
X187749721Y-77065000D01*
X188170279Y-77065000D01*
X188582756Y-76982953D01*
X188834058Y-76878860D01*
X189271601Y-77316403D01*
X189295399Y-77345401D01*
X189324397Y-77369199D01*
X189411123Y-77440374D01*
X189542966Y-77510846D01*
X189543153Y-77510946D01*
X189686414Y-77554403D01*
X189798067Y-77565400D01*
X189798076Y-77565400D01*
X189835399Y-77569076D01*
X189872722Y-77565400D01*
X202557278Y-77565400D01*
X202594600Y-77569076D01*
X202631922Y-77565400D01*
X202631933Y-77565400D01*
X202743586Y-77554403D01*
X202886847Y-77510946D01*
X203018876Y-77440374D01*
X203134601Y-77345401D01*
X203158404Y-77316397D01*
X203595941Y-76878860D01*
X203847244Y-76982953D01*
X204259721Y-77065000D01*
X204680279Y-77065000D01*
X205092756Y-76982953D01*
X205481302Y-76822012D01*
X205830983Y-76588363D01*
X206128363Y-76290983D01*
X206362012Y-75941302D01*
X206522953Y-75552756D01*
X206605000Y-75140279D01*
X206605000Y-74719721D01*
X207415000Y-74719721D01*
X207415000Y-75140279D01*
X207497047Y-75552756D01*
X207657988Y-75941302D01*
X207891637Y-76290983D01*
X208189017Y-76588363D01*
X208538698Y-76822012D01*
X208927244Y-76982953D01*
X209339721Y-77065000D01*
X209760279Y-77065000D01*
X210172756Y-76982953D01*
X210561302Y-76822012D01*
X210910983Y-76588363D01*
X211208363Y-76290983D01*
X211442012Y-75941302D01*
X211602953Y-75552756D01*
X211685000Y-75140279D01*
X211685000Y-74719721D01*
X211602953Y-74307244D01*
X211442012Y-73918698D01*
X211208363Y-73569017D01*
X210910983Y-73271637D01*
X210561302Y-73037988D01*
X210172756Y-72877047D01*
X209760279Y-72795000D01*
X209339721Y-72795000D01*
X208927244Y-72877047D01*
X208538698Y-73037988D01*
X208189017Y-73271637D01*
X207891637Y-73569017D01*
X207657988Y-73918698D01*
X207497047Y-74307244D01*
X207415000Y-74719721D01*
X206605000Y-74719721D01*
X206522953Y-74307244D01*
X206362012Y-73918698D01*
X206128363Y-73569017D01*
X205830983Y-73271637D01*
X205481302Y-73037988D01*
X205092756Y-72877047D01*
X204680279Y-72795000D01*
X204259721Y-72795000D01*
X203847244Y-72877047D01*
X203458698Y-73037988D01*
X203109017Y-73271637D01*
X202811637Y-73569017D01*
X202577988Y-73918698D01*
X202417047Y-74307244D01*
X202335000Y-74719721D01*
X202335000Y-75140279D01*
X202417047Y-75552756D01*
X202521140Y-75804059D01*
X202279799Y-76045400D01*
X201528072Y-76045400D01*
X201528072Y-73430000D01*
X201515812Y-73305518D01*
X201479502Y-73185820D01*
X201420537Y-73075506D01*
X201341185Y-72978815D01*
X201244494Y-72899463D01*
X201134180Y-72840498D01*
X201014482Y-72804188D01*
X200890000Y-72791928D01*
X197890000Y-72791928D01*
X197765518Y-72804188D01*
X197645820Y-72840498D01*
X197535506Y-72899463D01*
X197438815Y-72978815D01*
X197359463Y-73075506D01*
X197300498Y-73185820D01*
X197264188Y-73305518D01*
X197251928Y-73430000D01*
X197251928Y-76045400D01*
X194862456Y-76045400D01*
X194932012Y-75941302D01*
X195092953Y-75552756D01*
X195175000Y-75140279D01*
X195175000Y-74719721D01*
X195092953Y-74307244D01*
X194932012Y-73918698D01*
X194698363Y-73569017D01*
X194400983Y-73271637D01*
X194051302Y-73037988D01*
X193662756Y-72877047D01*
X193250279Y-72795000D01*
X192829721Y-72795000D01*
X192417244Y-72877047D01*
X192028698Y-73037988D01*
X191679017Y-73271637D01*
X191381637Y-73569017D01*
X191147988Y-73918698D01*
X190987047Y-74307244D01*
X190905000Y-74719721D01*
X190905000Y-75140279D01*
X190987047Y-75552756D01*
X191147988Y-75941302D01*
X191217544Y-76045400D01*
X190150202Y-76045400D01*
X189908860Y-75804058D01*
X190012953Y-75552756D01*
X190095000Y-75140279D01*
X190095000Y-74719721D01*
X190012953Y-74307244D01*
X189852012Y-73918698D01*
X189618363Y-73569017D01*
X189320983Y-73271637D01*
X188971302Y-73037988D01*
X188582756Y-72877047D01*
X188170279Y-72795000D01*
X187749721Y-72795000D01*
X187337244Y-72877047D01*
X186948698Y-73037988D01*
X186599017Y-73271637D01*
X186301637Y-73569017D01*
X186067988Y-73918698D01*
X185907047Y-74307244D01*
X185825000Y-74719721D01*
X185825000Y-75140279D01*
X185907047Y-75552756D01*
X186011140Y-75804059D01*
X185769799Y-76045400D01*
X185018072Y-76045400D01*
X185018072Y-73430000D01*
X185005812Y-73305518D01*
X184969502Y-73185820D01*
X184910537Y-73075506D01*
X184831185Y-72978815D01*
X184734494Y-72899463D01*
X184624180Y-72840498D01*
X184504482Y-72804188D01*
X184380000Y-72791928D01*
X181380000Y-72791928D01*
X181255518Y-72804188D01*
X181135820Y-72840498D01*
X181025506Y-72899463D01*
X180928815Y-72978815D01*
X180849463Y-73075506D01*
X180790498Y-73185820D01*
X180754188Y-73305518D01*
X180741928Y-73430000D01*
X180741928Y-76045400D01*
X178352456Y-76045400D01*
X178422012Y-75941302D01*
X178582953Y-75552756D01*
X178665000Y-75140279D01*
X178665000Y-74719721D01*
X178582953Y-74307244D01*
X178422012Y-73918698D01*
X178188363Y-73569017D01*
X177890983Y-73271637D01*
X177541302Y-73037988D01*
X177152756Y-72877047D01*
X176740279Y-72795000D01*
X176319721Y-72795000D01*
X175907244Y-72877047D01*
X175655941Y-72981140D01*
X175184804Y-72510003D01*
X175161001Y-72480999D01*
X175045276Y-72386026D01*
X174913247Y-72315454D01*
X174769986Y-72271997D01*
X174658333Y-72261000D01*
X174658322Y-72261000D01*
X174621000Y-72257324D01*
X174583678Y-72261000D01*
X161966325Y-72261000D01*
X161929000Y-72257324D01*
X161891675Y-72261000D01*
X161891667Y-72261000D01*
X161780014Y-72271997D01*
X161636753Y-72315454D01*
X161504724Y-72386026D01*
X161388999Y-72480999D01*
X161365201Y-72509997D01*
X160894058Y-72981140D01*
X160642756Y-72877047D01*
X160230279Y-72795000D01*
X159809721Y-72795000D01*
X159397244Y-72877047D01*
X159008698Y-73037988D01*
X158659017Y-73271637D01*
X158361637Y-73569017D01*
X158127988Y-73918698D01*
X157967047Y-74307244D01*
X157885000Y-74719721D01*
X157885000Y-75140279D01*
X157967047Y-75552756D01*
X158127988Y-75941302D01*
X158197544Y-76045400D01*
X157130202Y-76045400D01*
X156888860Y-75804058D01*
X156992953Y-75552756D01*
X157075000Y-75140279D01*
X157075000Y-74719721D01*
X156992953Y-74307244D01*
X156832012Y-73918698D01*
X156598363Y-73569017D01*
X156300983Y-73271637D01*
X155951302Y-73037988D01*
X155562756Y-72877047D01*
X155150279Y-72795000D01*
X154729721Y-72795000D01*
X154317244Y-72877047D01*
X154065941Y-72981140D01*
X152750704Y-71665903D01*
X152726901Y-71636899D01*
X152611176Y-71541926D01*
X152479147Y-71471354D01*
X152335886Y-71427897D01*
X152224233Y-71416900D01*
X152224222Y-71416900D01*
X152186900Y-71413224D01*
X152149578Y-71416900D01*
X132986502Y-71416900D01*
X130171329Y-68601727D01*
X130219727Y-68581680D01*
X130454759Y-68424637D01*
X130654637Y-68224759D01*
X130811680Y-67989727D01*
X130919853Y-67728574D01*
X130975000Y-67451335D01*
X130975000Y-67168665D01*
X130919853Y-66891426D01*
X130811680Y-66630273D01*
X130654637Y-66395241D01*
X130454759Y-66195363D01*
X130300000Y-66091957D01*
X130300000Y-56400000D01*
X135771928Y-56400000D01*
X135771928Y-57900000D01*
X135784188Y-58024482D01*
X135820498Y-58144180D01*
X135879463Y-58254494D01*
X135958815Y-58351185D01*
X136055506Y-58430537D01*
X136165820Y-58489502D01*
X136285518Y-58525812D01*
X136410000Y-58538072D01*
X137795700Y-58538072D01*
X137795700Y-59873077D01*
X137792024Y-59910400D01*
X137795700Y-59947722D01*
X137795700Y-59947732D01*
X137806697Y-60059385D01*
X137834489Y-60151003D01*
X137850154Y-60202646D01*
X137920726Y-60334676D01*
X137932608Y-60349154D01*
X138015699Y-60450401D01*
X138044702Y-60474204D01*
X138735590Y-61165092D01*
X138680392Y-61210392D01*
X138501068Y-61428899D01*
X138367818Y-61678192D01*
X138285764Y-61948691D01*
X138258057Y-62230000D01*
X138285764Y-62511309D01*
X138367818Y-62781808D01*
X138501068Y-63031101D01*
X138680392Y-63249608D01*
X138898899Y-63428932D01*
X139148192Y-63562182D01*
X139418691Y-63644236D01*
X139629508Y-63665000D01*
X139770492Y-63665000D01*
X139981309Y-63644236D01*
X140177800Y-63584632D01*
X140177800Y-64582098D01*
X139188998Y-65570901D01*
X139160000Y-65594699D01*
X139136202Y-65623697D01*
X139136201Y-65623698D01*
X139065026Y-65710424D01*
X138994454Y-65842454D01*
X138950998Y-65985715D01*
X138940861Y-66088639D01*
X138898899Y-66111068D01*
X138680392Y-66290392D01*
X138501068Y-66508899D01*
X138367818Y-66758192D01*
X138285764Y-67028691D01*
X138258057Y-67310000D01*
X138285764Y-67591309D01*
X138367818Y-67861808D01*
X138501068Y-68111101D01*
X138680392Y-68329608D01*
X138898899Y-68508932D01*
X139148192Y-68642182D01*
X139418691Y-68724236D01*
X139629508Y-68745000D01*
X139770492Y-68745000D01*
X139981309Y-68724236D01*
X140251808Y-68642182D01*
X140501101Y-68508932D01*
X140719608Y-68329608D01*
X140898932Y-68111101D01*
X141032182Y-67861808D01*
X141114236Y-67591309D01*
X141141943Y-67310000D01*
X141128023Y-67168665D01*
X142075000Y-67168665D01*
X142075000Y-67451335D01*
X142130147Y-67728574D01*
X142238320Y-67989727D01*
X142395363Y-68224759D01*
X142595241Y-68424637D01*
X142830273Y-68581680D01*
X143091426Y-68689853D01*
X143368665Y-68745000D01*
X143651335Y-68745000D01*
X143928574Y-68689853D01*
X144189727Y-68581680D01*
X144424759Y-68424637D01*
X144624637Y-68224759D01*
X144781680Y-67989727D01*
X144889853Y-67728574D01*
X144945000Y-67451335D01*
X144945000Y-67168665D01*
X144889853Y-66891426D01*
X144781680Y-66630273D01*
X144624637Y-66395241D01*
X144424759Y-66195363D01*
X144189727Y-66038320D01*
X143928574Y-65930147D01*
X143651335Y-65875000D01*
X143368665Y-65875000D01*
X143091426Y-65930147D01*
X142830273Y-66038320D01*
X142595241Y-66195363D01*
X142395363Y-66395241D01*
X142238320Y-66630273D01*
X142130147Y-66891426D01*
X142075000Y-67168665D01*
X141128023Y-67168665D01*
X141114236Y-67028691D01*
X141032182Y-66758192D01*
X140898932Y-66508899D01*
X140719608Y-66290392D01*
X140664410Y-66245092D01*
X141448804Y-65460698D01*
X141477801Y-65436901D01*
X141572774Y-65321176D01*
X141643346Y-65189147D01*
X141686803Y-65045886D01*
X141697800Y-64934233D01*
X141697800Y-64934232D01*
X141701477Y-64896900D01*
X141697800Y-64859567D01*
X141697800Y-58425133D01*
X141697857Y-58424550D01*
X141836011Y-58481775D01*
X142103589Y-58535000D01*
X142376411Y-58535000D01*
X142643989Y-58481775D01*
X142896043Y-58377371D01*
X143122886Y-58225799D01*
X143315799Y-58032886D01*
X143467371Y-57806043D01*
X143571775Y-57553989D01*
X143625000Y-57286411D01*
X143625000Y-57013589D01*
X143571775Y-56746011D01*
X143467371Y-56493957D01*
X143315799Y-56267114D01*
X143298685Y-56250000D01*
X145781928Y-56250000D01*
X145781928Y-58050000D01*
X145794188Y-58174482D01*
X145830498Y-58294180D01*
X145889463Y-58404494D01*
X145968815Y-58501185D01*
X146065506Y-58580537D01*
X146175820Y-58639502D01*
X146295518Y-58675812D01*
X146420000Y-58688072D01*
X146560001Y-58688072D01*
X146560001Y-59652667D01*
X146556324Y-59690000D01*
X146560001Y-59727333D01*
X146570998Y-59838986D01*
X146575856Y-59855000D01*
X146614454Y-59982246D01*
X146685026Y-60114276D01*
X146738966Y-60180001D01*
X146780000Y-60230001D01*
X146808998Y-60253799D01*
X148461312Y-61906114D01*
X148425000Y-62088665D01*
X148425000Y-62371335D01*
X148480147Y-62648574D01*
X148588320Y-62909727D01*
X148745363Y-63144759D01*
X148945241Y-63344637D01*
X149180273Y-63501680D01*
X149441426Y-63609853D01*
X149718665Y-63665000D01*
X150001335Y-63665000D01*
X150278574Y-63609853D01*
X150539727Y-63501680D01*
X150774759Y-63344637D01*
X150974637Y-63144759D01*
X151131680Y-62909727D01*
X151239853Y-62648574D01*
X151295000Y-62371335D01*
X151295000Y-62088665D01*
X151239853Y-61811426D01*
X151131680Y-61550273D01*
X150974637Y-61315241D01*
X150774759Y-61115363D01*
X150539727Y-60958320D01*
X150278574Y-60850147D01*
X150001335Y-60795000D01*
X149718665Y-60795000D01*
X149536114Y-60831312D01*
X148080000Y-59375199D01*
X148080000Y-58688072D01*
X148220000Y-58688072D01*
X148344482Y-58675812D01*
X148464180Y-58639502D01*
X148574494Y-58580537D01*
X148671185Y-58501185D01*
X148750537Y-58404494D01*
X148809502Y-58294180D01*
X148845812Y-58174482D01*
X148858072Y-58050000D01*
X148858072Y-56250000D01*
X148845812Y-56125518D01*
X148809502Y-56005820D01*
X148750537Y-55895506D01*
X148671185Y-55798815D01*
X148574494Y-55719463D01*
X148464180Y-55660498D01*
X148445873Y-55654944D01*
X148512312Y-55588505D01*
X148680299Y-55337095D01*
X148796011Y-55057743D01*
X148855000Y-54761184D01*
X148855000Y-54458816D01*
X148796011Y-54162257D01*
X148680299Y-53882905D01*
X148512312Y-53631495D01*
X148298505Y-53417688D01*
X148047095Y-53249701D01*
X147767743Y-53133989D01*
X147471184Y-53075000D01*
X147168816Y-53075000D01*
X146872257Y-53133989D01*
X146592905Y-53249701D01*
X146341495Y-53417688D01*
X146127688Y-53631495D01*
X145959701Y-53882905D01*
X145843989Y-54162257D01*
X145785000Y-54458816D01*
X145785000Y-54761184D01*
X145843989Y-55057743D01*
X145959701Y-55337095D01*
X146127688Y-55588505D01*
X146194127Y-55654944D01*
X146175820Y-55660498D01*
X146065506Y-55719463D01*
X145968815Y-55798815D01*
X145889463Y-55895506D01*
X145830498Y-56005820D01*
X145794188Y-56125518D01*
X145781928Y-56250000D01*
X143298685Y-56250000D01*
X143122886Y-56074201D01*
X142896043Y-55922629D01*
X142643989Y-55818225D01*
X142376411Y-55765000D01*
X142103589Y-55765000D01*
X141958635Y-55793833D01*
X141678404Y-55513602D01*
X141654601Y-55484599D01*
X141538876Y-55389626D01*
X141406847Y-55319054D01*
X141263586Y-55275597D01*
X141151933Y-55264600D01*
X141151922Y-55264600D01*
X141114600Y-55260924D01*
X141077278Y-55264600D01*
X140460000Y-55264600D01*
X140460000Y-52238072D01*
X140500000Y-52238072D01*
X140624482Y-52225812D01*
X140744180Y-52189502D01*
X140854494Y-52130537D01*
X140951185Y-52051185D01*
X141030537Y-51954494D01*
X141089502Y-51844180D01*
X141125812Y-51724482D01*
X141138072Y-51600000D01*
X141138072Y-50000000D01*
X141125812Y-49875518D01*
X141089502Y-49755820D01*
X141030537Y-49645506D01*
X140951185Y-49548815D01*
X140854494Y-49469463D01*
X140744180Y-49410498D01*
X140624482Y-49374188D01*
X140500000Y-49361928D01*
X140414487Y-49361928D01*
X140405546Y-49332453D01*
X140334974Y-49200424D01*
X140240001Y-49084699D01*
X140211003Y-49060901D01*
X139190000Y-48039899D01*
X139190000Y-42636105D01*
X139441302Y-42532012D01*
X139790983Y-42298363D01*
X140088363Y-42000983D01*
X140322012Y-41651302D01*
X140482953Y-41262756D01*
X140565000Y-40850279D01*
X140565000Y-40429721D01*
X141375000Y-40429721D01*
X141375000Y-40850279D01*
X141457047Y-41262756D01*
X141617988Y-41651302D01*
X141851637Y-42000983D01*
X142149017Y-42298363D01*
X142498698Y-42532012D01*
X142750000Y-42636105D01*
X142750000Y-43237377D01*
X142746324Y-43274700D01*
X142750000Y-43312022D01*
X142750000Y-43312032D01*
X142760997Y-43423685D01*
X142790139Y-43519754D01*
X142804454Y-43566946D01*
X142875026Y-43698976D01*
X142887600Y-43714297D01*
X142969999Y-43814701D01*
X142999003Y-43838504D01*
X148895590Y-49735092D01*
X148840392Y-49780392D01*
X148661068Y-49998899D01*
X148527818Y-50248192D01*
X148445764Y-50518691D01*
X148418057Y-50800000D01*
X148445764Y-51081309D01*
X148527818Y-51351808D01*
X148661068Y-51601101D01*
X148840392Y-51819608D01*
X149058899Y-51998932D01*
X149308192Y-52132182D01*
X149578691Y-52214236D01*
X149789508Y-52235000D01*
X149930492Y-52235000D01*
X150141309Y-52214236D01*
X150411808Y-52132182D01*
X150661101Y-51998932D01*
X150879608Y-51819608D01*
X151058932Y-51601101D01*
X151192182Y-51351808D01*
X151274236Y-51081309D01*
X151301943Y-50800000D01*
X151274236Y-50518691D01*
X151192182Y-50248192D01*
X151058932Y-49998899D01*
X150879608Y-49780392D01*
X150661101Y-49601068D01*
X150619140Y-49578640D01*
X150609003Y-49475714D01*
X150565546Y-49332453D01*
X150494974Y-49200423D01*
X150423799Y-49113697D01*
X150423798Y-49113696D01*
X150400001Y-49084699D01*
X150371003Y-49060901D01*
X144270000Y-42959899D01*
X144270000Y-42636105D01*
X144521302Y-42532012D01*
X144870983Y-42298363D01*
X145168363Y-42000983D01*
X145402012Y-41651302D01*
X145562953Y-41262756D01*
X145645000Y-40850279D01*
X145645000Y-40429721D01*
X145562953Y-40017244D01*
X145402012Y-39628698D01*
X145168363Y-39279017D01*
X145029346Y-39140000D01*
X147721928Y-39140000D01*
X147721928Y-42140000D01*
X147734188Y-42264482D01*
X147770498Y-42384180D01*
X147829463Y-42494494D01*
X147908815Y-42591185D01*
X148005506Y-42670537D01*
X148115820Y-42729502D01*
X148235518Y-42765812D01*
X148360000Y-42778072D01*
X149145514Y-42778072D01*
X149154454Y-42807546D01*
X149225026Y-42939576D01*
X149292361Y-43021623D01*
X149320000Y-43055301D01*
X149348998Y-43079099D01*
X151640000Y-45370103D01*
X151640001Y-55762913D01*
X151525518Y-55774188D01*
X151405820Y-55810498D01*
X151295506Y-55869463D01*
X151198815Y-55948815D01*
X151119463Y-56045506D01*
X151060498Y-56155820D01*
X151024188Y-56275518D01*
X151011928Y-56400000D01*
X151011928Y-57900000D01*
X151024188Y-58024482D01*
X151060498Y-58144180D01*
X151119463Y-58254494D01*
X151198815Y-58351185D01*
X151295506Y-58430537D01*
X151405820Y-58489502D01*
X151525518Y-58525812D01*
X151650000Y-58538072D01*
X152910001Y-58538072D01*
X152910000Y-66089099D01*
X152868899Y-66111068D01*
X152650392Y-66290392D01*
X152471068Y-66508899D01*
X152337818Y-66758192D01*
X152255764Y-67028691D01*
X152228057Y-67310000D01*
X152255764Y-67591309D01*
X152337818Y-67861808D01*
X152471068Y-68111101D01*
X152650392Y-68329608D01*
X152868899Y-68508932D01*
X153118192Y-68642182D01*
X153388691Y-68724236D01*
X153599508Y-68745000D01*
X153740492Y-68745000D01*
X153951309Y-68724236D01*
X154221808Y-68642182D01*
X154471101Y-68508932D01*
X154689608Y-68329608D01*
X154868932Y-68111101D01*
X155002182Y-67861808D01*
X155084236Y-67591309D01*
X155111943Y-67310000D01*
X155098023Y-67168665D01*
X156045000Y-67168665D01*
X156045000Y-67451335D01*
X156100147Y-67728574D01*
X156208320Y-67989727D01*
X156365363Y-68224759D01*
X156565241Y-68424637D01*
X156800273Y-68581680D01*
X157061426Y-68689853D01*
X157338665Y-68745000D01*
X157621335Y-68745000D01*
X157898574Y-68689853D01*
X158159727Y-68581680D01*
X158394759Y-68424637D01*
X158594637Y-68224759D01*
X158751680Y-67989727D01*
X158859853Y-67728574D01*
X158915000Y-67451335D01*
X158915000Y-67168665D01*
X158859853Y-66891426D01*
X158751680Y-66630273D01*
X158594637Y-66395241D01*
X158394759Y-66195363D01*
X158159727Y-66038320D01*
X157898574Y-65930147D01*
X157621335Y-65875000D01*
X157338665Y-65875000D01*
X157061426Y-65930147D01*
X156800273Y-66038320D01*
X156565241Y-66195363D01*
X156365363Y-66395241D01*
X156208320Y-66630273D01*
X156100147Y-66891426D01*
X156045000Y-67168665D01*
X155098023Y-67168665D01*
X155084236Y-67028691D01*
X155002182Y-66758192D01*
X154868932Y-66508899D01*
X154689608Y-66290392D01*
X154471101Y-66111068D01*
X154430000Y-66089099D01*
X154430000Y-63574864D01*
X154658691Y-63644236D01*
X154869508Y-63665000D01*
X155010492Y-63665000D01*
X155221309Y-63644236D01*
X155491808Y-63562182D01*
X155741101Y-63428932D01*
X155959608Y-63249608D01*
X156138932Y-63031101D01*
X156272182Y-62781808D01*
X156354236Y-62511309D01*
X156381943Y-62230000D01*
X156354236Y-61948691D01*
X156272182Y-61678192D01*
X156138932Y-61428899D01*
X155959608Y-61210392D01*
X155904410Y-61165092D01*
X157991009Y-59078494D01*
X158020001Y-59054701D01*
X158043795Y-59025708D01*
X158043799Y-59025704D01*
X158108966Y-58946297D01*
X158114974Y-58938976D01*
X158185546Y-58806947D01*
X158229003Y-58663686D01*
X158240000Y-58552033D01*
X158240000Y-58552024D01*
X158243676Y-58514701D01*
X158240000Y-58477378D01*
X158240000Y-58307909D01*
X158362886Y-58225799D01*
X158555799Y-58032886D01*
X158707371Y-57806043D01*
X158811775Y-57553989D01*
X158865000Y-57286411D01*
X158865000Y-57013589D01*
X158811775Y-56746011D01*
X158707371Y-56493957D01*
X158555799Y-56267114D01*
X158538685Y-56250000D01*
X161021928Y-56250000D01*
X161021928Y-58050000D01*
X161034188Y-58174482D01*
X161070498Y-58294180D01*
X161129463Y-58404494D01*
X161208815Y-58501185D01*
X161305506Y-58580537D01*
X161415820Y-58639502D01*
X161535518Y-58675812D01*
X161660000Y-58688072D01*
X161800001Y-58688072D01*
X161800001Y-59652667D01*
X161796324Y-59690000D01*
X161800001Y-59727333D01*
X161810998Y-59838986D01*
X161815856Y-59855000D01*
X161854454Y-59982246D01*
X161925026Y-60114276D01*
X161978966Y-60180001D01*
X162020000Y-60230001D01*
X162048998Y-60253799D01*
X163701312Y-61906114D01*
X163665000Y-62088665D01*
X163665000Y-62371335D01*
X163720147Y-62648574D01*
X163828320Y-62909727D01*
X163985363Y-63144759D01*
X164185241Y-63344637D01*
X164420273Y-63501680D01*
X164681426Y-63609853D01*
X164958665Y-63665000D01*
X165241335Y-63665000D01*
X165518574Y-63609853D01*
X165779727Y-63501680D01*
X166014759Y-63344637D01*
X166214637Y-63144759D01*
X166371680Y-62909727D01*
X166479853Y-62648574D01*
X166535000Y-62371335D01*
X166535000Y-62088665D01*
X166479853Y-61811426D01*
X166371680Y-61550273D01*
X166214637Y-61315241D01*
X166014759Y-61115363D01*
X165779727Y-60958320D01*
X165518574Y-60850147D01*
X165241335Y-60795000D01*
X164958665Y-60795000D01*
X164776114Y-60831312D01*
X163320000Y-59375199D01*
X163320000Y-58688072D01*
X163460000Y-58688072D01*
X163584482Y-58675812D01*
X163704180Y-58639502D01*
X163814494Y-58580537D01*
X163911185Y-58501185D01*
X163990537Y-58404494D01*
X164049502Y-58294180D01*
X164085812Y-58174482D01*
X164098072Y-58050000D01*
X164098072Y-56250000D01*
X164085812Y-56125518D01*
X164049502Y-56005820D01*
X163990537Y-55895506D01*
X163911185Y-55798815D01*
X163814494Y-55719463D01*
X163704180Y-55660498D01*
X163685873Y-55654944D01*
X163752312Y-55588505D01*
X163920299Y-55337095D01*
X164036011Y-55057743D01*
X164095000Y-54761184D01*
X164095000Y-54458816D01*
X164036011Y-54162257D01*
X163920299Y-53882905D01*
X163752312Y-53631495D01*
X163538505Y-53417688D01*
X163287095Y-53249701D01*
X163007743Y-53133989D01*
X162711184Y-53075000D01*
X162408816Y-53075000D01*
X162112257Y-53133989D01*
X161832905Y-53249701D01*
X161581495Y-53417688D01*
X161367688Y-53631495D01*
X161199701Y-53882905D01*
X161083989Y-54162257D01*
X161025000Y-54458816D01*
X161025000Y-54761184D01*
X161083989Y-55057743D01*
X161199701Y-55337095D01*
X161367688Y-55588505D01*
X161434127Y-55654944D01*
X161415820Y-55660498D01*
X161305506Y-55719463D01*
X161208815Y-55798815D01*
X161129463Y-55895506D01*
X161070498Y-56005820D01*
X161034188Y-56125518D01*
X161021928Y-56250000D01*
X158538685Y-56250000D01*
X158362886Y-56074201D01*
X158240000Y-55992091D01*
X158240000Y-54552622D01*
X158243676Y-54515299D01*
X158240000Y-54477976D01*
X158240000Y-54477967D01*
X158229003Y-54366314D01*
X158185546Y-54223053D01*
X158114974Y-54091024D01*
X158078189Y-54046201D01*
X158043799Y-54004296D01*
X158043795Y-54004292D01*
X158020001Y-53975299D01*
X157991009Y-53951506D01*
X156135987Y-52096485D01*
X156191185Y-52051185D01*
X156270537Y-51954494D01*
X156329502Y-51844180D01*
X156365812Y-51724482D01*
X156378072Y-51600000D01*
X156378072Y-50000000D01*
X156365812Y-49875518D01*
X156329502Y-49755820D01*
X156270537Y-49645506D01*
X156191185Y-49548815D01*
X156094494Y-49469463D01*
X155984180Y-49410498D01*
X155864482Y-49374188D01*
X155740000Y-49361928D01*
X155700000Y-49361928D01*
X155700000Y-42636105D01*
X155951302Y-42532012D01*
X156300983Y-42298363D01*
X156598363Y-42000983D01*
X156832012Y-41651302D01*
X156992953Y-41262756D01*
X157075000Y-40850279D01*
X157075000Y-40429721D01*
X157885000Y-40429721D01*
X157885000Y-40850279D01*
X157967047Y-41262756D01*
X158127988Y-41651302D01*
X158361637Y-42000983D01*
X158659017Y-42298363D01*
X159008698Y-42532012D01*
X159260000Y-42636105D01*
X159260000Y-44507377D01*
X159256324Y-44544700D01*
X159260000Y-44582022D01*
X159260000Y-44582032D01*
X159270997Y-44693685D01*
X159299940Y-44789099D01*
X159314454Y-44836946D01*
X159385026Y-44968976D01*
X159398423Y-44985300D01*
X159479999Y-45084701D01*
X159509003Y-45108504D01*
X164135590Y-49735092D01*
X164080392Y-49780392D01*
X163901068Y-49998899D01*
X163767818Y-50248192D01*
X163685764Y-50518691D01*
X163658057Y-50800000D01*
X163685764Y-51081309D01*
X163767818Y-51351808D01*
X163901068Y-51601101D01*
X164080392Y-51819608D01*
X164298899Y-51998932D01*
X164548192Y-52132182D01*
X164818691Y-52214236D01*
X165029508Y-52235000D01*
X165170492Y-52235000D01*
X165381309Y-52214236D01*
X165651808Y-52132182D01*
X165901101Y-51998932D01*
X166119608Y-51819608D01*
X166298932Y-51601101D01*
X166432182Y-51351808D01*
X166514236Y-51081309D01*
X166541943Y-50800000D01*
X166514236Y-50518691D01*
X166432182Y-50248192D01*
X166298932Y-49998899D01*
X166119608Y-49780392D01*
X165901101Y-49601068D01*
X165859140Y-49578640D01*
X165849003Y-49475714D01*
X165805546Y-49332453D01*
X165734974Y-49200423D01*
X165663799Y-49113697D01*
X165663798Y-49113696D01*
X165640001Y-49084699D01*
X165611003Y-49060901D01*
X160780000Y-44229899D01*
X160780000Y-42636105D01*
X161031302Y-42532012D01*
X161380983Y-42298363D01*
X161678363Y-42000983D01*
X161912012Y-41651302D01*
X162072953Y-41262756D01*
X162155000Y-40850279D01*
X162155000Y-40429721D01*
X162072953Y-40017244D01*
X161912012Y-39628698D01*
X161678363Y-39279017D01*
X161539346Y-39140000D01*
X164231928Y-39140000D01*
X164231928Y-42140000D01*
X164244188Y-42264482D01*
X164280498Y-42384180D01*
X164339463Y-42494494D01*
X164418815Y-42591185D01*
X164515506Y-42670537D01*
X164625820Y-42729502D01*
X164745518Y-42765812D01*
X164870000Y-42778072D01*
X165655514Y-42778072D01*
X165664454Y-42807546D01*
X165735026Y-42939576D01*
X165802361Y-43021623D01*
X165830000Y-43055301D01*
X165858998Y-43079099D01*
X167320001Y-44540103D01*
X167320000Y-55762913D01*
X167205518Y-55774188D01*
X167085820Y-55810498D01*
X166975506Y-55869463D01*
X166878815Y-55948815D01*
X166799463Y-56045506D01*
X166740498Y-56155820D01*
X166704188Y-56275518D01*
X166691928Y-56400000D01*
X166691928Y-57900000D01*
X166704188Y-58024482D01*
X166740498Y-58144180D01*
X166799463Y-58254494D01*
X166878815Y-58351185D01*
X166975506Y-58430537D01*
X167085820Y-58489502D01*
X167205518Y-58525812D01*
X167330000Y-58538072D01*
X168157126Y-58538072D01*
X167128998Y-59566201D01*
X167100000Y-59589999D01*
X167076202Y-59618997D01*
X167076201Y-59618998D01*
X167005026Y-59705724D01*
X166934454Y-59837754D01*
X166890998Y-59981015D01*
X166876324Y-60130000D01*
X166880001Y-60167332D01*
X166880000Y-66089099D01*
X166838899Y-66111068D01*
X166620392Y-66290392D01*
X166441068Y-66508899D01*
X166307818Y-66758192D01*
X166225764Y-67028691D01*
X166198057Y-67310000D01*
X166225764Y-67591309D01*
X166307818Y-67861808D01*
X166441068Y-68111101D01*
X166620392Y-68329608D01*
X166838899Y-68508932D01*
X167088192Y-68642182D01*
X167358691Y-68724236D01*
X167569508Y-68745000D01*
X167710492Y-68745000D01*
X167921309Y-68724236D01*
X168191808Y-68642182D01*
X168441101Y-68508932D01*
X168659608Y-68329608D01*
X168838932Y-68111101D01*
X168972182Y-67861808D01*
X169054236Y-67591309D01*
X169081943Y-67310000D01*
X169068023Y-67168665D01*
X170015000Y-67168665D01*
X170015000Y-67451335D01*
X170070147Y-67728574D01*
X170178320Y-67989727D01*
X170335363Y-68224759D01*
X170535241Y-68424637D01*
X170770273Y-68581680D01*
X171031426Y-68689853D01*
X171308665Y-68745000D01*
X171591335Y-68745000D01*
X171868574Y-68689853D01*
X172129727Y-68581680D01*
X172364759Y-68424637D01*
X172564637Y-68224759D01*
X172721680Y-67989727D01*
X172829853Y-67728574D01*
X172885000Y-67451335D01*
X172885000Y-67168665D01*
X172829853Y-66891426D01*
X172721680Y-66630273D01*
X172564637Y-66395241D01*
X172364759Y-66195363D01*
X172129727Y-66038320D01*
X171868574Y-65930147D01*
X171591335Y-65875000D01*
X171308665Y-65875000D01*
X171031426Y-65930147D01*
X170770273Y-66038320D01*
X170535241Y-66195363D01*
X170335363Y-66395241D01*
X170178320Y-66630273D01*
X170070147Y-66891426D01*
X170015000Y-67168665D01*
X169068023Y-67168665D01*
X169054236Y-67028691D01*
X168972182Y-66758192D01*
X168838932Y-66508899D01*
X168659608Y-66290392D01*
X168441101Y-66111068D01*
X168400000Y-66089099D01*
X168400000Y-60444801D01*
X170338636Y-58506167D01*
X170483589Y-58535000D01*
X170756411Y-58535000D01*
X171023989Y-58481775D01*
X171276043Y-58377371D01*
X171502886Y-58225799D01*
X171695799Y-58032886D01*
X171847371Y-57806043D01*
X171890000Y-57703127D01*
X171932629Y-57806043D01*
X172084201Y-58032886D01*
X172105606Y-58054291D01*
X169668998Y-60490901D01*
X169640000Y-60514699D01*
X169616202Y-60543697D01*
X169616201Y-60543698D01*
X169545026Y-60630424D01*
X169474454Y-60762454D01*
X169430998Y-60905715D01*
X169420861Y-61008639D01*
X169378899Y-61031068D01*
X169160392Y-61210392D01*
X168981068Y-61428899D01*
X168847818Y-61678192D01*
X168765764Y-61948691D01*
X168738057Y-62230000D01*
X168765764Y-62511309D01*
X168847818Y-62781808D01*
X168981068Y-63031101D01*
X169160392Y-63249608D01*
X169378899Y-63428932D01*
X169628192Y-63562182D01*
X169898691Y-63644236D01*
X170109508Y-63665000D01*
X170250492Y-63665000D01*
X170461309Y-63644236D01*
X170731808Y-63562182D01*
X170981101Y-63428932D01*
X171199608Y-63249608D01*
X171378932Y-63031101D01*
X171512182Y-62781808D01*
X171594236Y-62511309D01*
X171621943Y-62230000D01*
X171594236Y-61948691D01*
X171512182Y-61678192D01*
X171378932Y-61428899D01*
X171199608Y-61210392D01*
X171144410Y-61165092D01*
X173671009Y-58638494D01*
X173700001Y-58614701D01*
X173723795Y-58585708D01*
X173723799Y-58585704D01*
X173794973Y-58498977D01*
X173794974Y-58498976D01*
X173865546Y-58366947D01*
X173874164Y-58338535D01*
X174042886Y-58225799D01*
X174235799Y-58032886D01*
X174387371Y-57806043D01*
X174491775Y-57553989D01*
X174545000Y-57286411D01*
X174545000Y-57013589D01*
X174491775Y-56746011D01*
X174387371Y-56493957D01*
X174235799Y-56267114D01*
X174218685Y-56250000D01*
X176261928Y-56250000D01*
X176261928Y-58050000D01*
X176274188Y-58174482D01*
X176310498Y-58294180D01*
X176369463Y-58404494D01*
X176448815Y-58501185D01*
X176545506Y-58580537D01*
X176655820Y-58639502D01*
X176775518Y-58675812D01*
X176900000Y-58688072D01*
X177085514Y-58688072D01*
X177094454Y-58717546D01*
X177165026Y-58849576D01*
X177236201Y-58936302D01*
X177260000Y-58965301D01*
X177288998Y-58989099D01*
X179420251Y-61120353D01*
X179225363Y-61315241D01*
X179068320Y-61550273D01*
X178960147Y-61811426D01*
X178905000Y-62088665D01*
X178905000Y-62371335D01*
X178960147Y-62648574D01*
X179068320Y-62909727D01*
X179225363Y-63144759D01*
X179425241Y-63344637D01*
X179660273Y-63501680D01*
X179921426Y-63609853D01*
X180198665Y-63665000D01*
X180481335Y-63665000D01*
X180758574Y-63609853D01*
X180850001Y-63571983D01*
X180850000Y-66089099D01*
X180808899Y-66111068D01*
X180590392Y-66290392D01*
X180411068Y-66508899D01*
X180277818Y-66758192D01*
X180195764Y-67028691D01*
X180168057Y-67310000D01*
X180195764Y-67591309D01*
X180277818Y-67861808D01*
X180411068Y-68111101D01*
X180590392Y-68329608D01*
X180808899Y-68508932D01*
X181058192Y-68642182D01*
X181328691Y-68724236D01*
X181539508Y-68745000D01*
X181680492Y-68745000D01*
X181891309Y-68724236D01*
X182161808Y-68642182D01*
X182411101Y-68508932D01*
X182629608Y-68329608D01*
X182808932Y-68111101D01*
X182942182Y-67861808D01*
X183024236Y-67591309D01*
X183051943Y-67310000D01*
X183038023Y-67168665D01*
X183985000Y-67168665D01*
X183985000Y-67451335D01*
X184040147Y-67728574D01*
X184148320Y-67989727D01*
X184305363Y-68224759D01*
X184505241Y-68424637D01*
X184740273Y-68581680D01*
X185001426Y-68689853D01*
X185278665Y-68745000D01*
X185561335Y-68745000D01*
X185838574Y-68689853D01*
X186099727Y-68581680D01*
X186334759Y-68424637D01*
X186534637Y-68224759D01*
X186691680Y-67989727D01*
X186799853Y-67728574D01*
X186855000Y-67451335D01*
X186855000Y-67168665D01*
X186799853Y-66891426D01*
X186691680Y-66630273D01*
X186534637Y-66395241D01*
X186334759Y-66195363D01*
X186099727Y-66038320D01*
X185838574Y-65930147D01*
X185561335Y-65875000D01*
X185278665Y-65875000D01*
X185001426Y-65930147D01*
X184740273Y-66038320D01*
X184505241Y-66195363D01*
X184305363Y-66395241D01*
X184148320Y-66630273D01*
X184040147Y-66891426D01*
X183985000Y-67168665D01*
X183038023Y-67168665D01*
X183024236Y-67028691D01*
X182942182Y-66758192D01*
X182808932Y-66508899D01*
X182629608Y-66290392D01*
X182411101Y-66111068D01*
X182370000Y-66089099D01*
X182370000Y-61274801D01*
X185138635Y-58506167D01*
X185283589Y-58535000D01*
X185556411Y-58535000D01*
X185823989Y-58481775D01*
X186076043Y-58377371D01*
X186302886Y-58225799D01*
X186495799Y-58032886D01*
X186647371Y-57806043D01*
X186690000Y-57703127D01*
X186732629Y-57806043D01*
X186884201Y-58032886D01*
X187077114Y-58225799D01*
X187135252Y-58264645D01*
X184908998Y-60490901D01*
X184880000Y-60514699D01*
X184856202Y-60543697D01*
X184856201Y-60543698D01*
X184785026Y-60630424D01*
X184714454Y-60762454D01*
X184670998Y-60905715D01*
X184660861Y-61008639D01*
X184618899Y-61031068D01*
X184400392Y-61210392D01*
X184221068Y-61428899D01*
X184087818Y-61678192D01*
X184005764Y-61948691D01*
X183978057Y-62230000D01*
X184005764Y-62511309D01*
X184087818Y-62781808D01*
X184221068Y-63031101D01*
X184400392Y-63249608D01*
X184618899Y-63428932D01*
X184868192Y-63562182D01*
X185138691Y-63644236D01*
X185349508Y-63665000D01*
X185490492Y-63665000D01*
X185701309Y-63644236D01*
X185971808Y-63562182D01*
X186221101Y-63428932D01*
X186439608Y-63249608D01*
X186618932Y-63031101D01*
X186752182Y-62781808D01*
X186834236Y-62511309D01*
X186861943Y-62230000D01*
X186834236Y-61948691D01*
X186752182Y-61678192D01*
X186618932Y-61428899D01*
X186439608Y-61210392D01*
X186384410Y-61165092D01*
X188471009Y-59078494D01*
X188500001Y-59054701D01*
X188523795Y-59025708D01*
X188523799Y-59025704D01*
X188588966Y-58946297D01*
X188594974Y-58938976D01*
X188665546Y-58806947D01*
X188709003Y-58663686D01*
X188720000Y-58552033D01*
X188720000Y-58552024D01*
X188723676Y-58514701D01*
X188720000Y-58477378D01*
X188720000Y-58307909D01*
X188842886Y-58225799D01*
X189035799Y-58032886D01*
X189187371Y-57806043D01*
X189291775Y-57553989D01*
X189345000Y-57286411D01*
X189345000Y-57013589D01*
X189291775Y-56746011D01*
X189187371Y-56493957D01*
X189035799Y-56267114D01*
X188842886Y-56074201D01*
X188720000Y-55992091D01*
X188720000Y-54552622D01*
X188723676Y-54515299D01*
X188720000Y-54477976D01*
X188720000Y-54477967D01*
X188709003Y-54366314D01*
X188665546Y-54223053D01*
X188594974Y-54091024D01*
X188558189Y-54046201D01*
X188523799Y-54004296D01*
X188523795Y-54004292D01*
X188500001Y-53975299D01*
X188471009Y-53951506D01*
X186615987Y-52096485D01*
X186671185Y-52051185D01*
X186750537Y-51954494D01*
X186809502Y-51844180D01*
X186845812Y-51724482D01*
X186858072Y-51600000D01*
X186858072Y-50000000D01*
X186845812Y-49875518D01*
X186809502Y-49755820D01*
X186750537Y-49645506D01*
X186671185Y-49548815D01*
X186615987Y-49503515D01*
X188471008Y-47648495D01*
X188500001Y-47624701D01*
X188523795Y-47595708D01*
X188523799Y-47595704D01*
X188594973Y-47508977D01*
X188594974Y-47508976D01*
X188665546Y-47376947D01*
X188709003Y-47233686D01*
X188720000Y-47122033D01*
X188720000Y-47122024D01*
X188723676Y-47084701D01*
X188720000Y-47047378D01*
X188720000Y-42636105D01*
X188971302Y-42532012D01*
X189320983Y-42298363D01*
X189618363Y-42000983D01*
X189852012Y-41651302D01*
X190012953Y-41262756D01*
X190095000Y-40850279D01*
X190095000Y-40429721D01*
X190905000Y-40429721D01*
X190905000Y-40850279D01*
X190987047Y-41262756D01*
X191147988Y-41651302D01*
X191381637Y-42000983D01*
X191679017Y-42298363D01*
X192028698Y-42532012D01*
X192280001Y-42636105D01*
X192280000Y-47047377D01*
X192276324Y-47084700D01*
X192280000Y-47122022D01*
X192280000Y-47122032D01*
X192290997Y-47233685D01*
X192293032Y-47240392D01*
X192334454Y-47376946D01*
X192405026Y-47508976D01*
X192406685Y-47510997D01*
X192499999Y-47624701D01*
X192529003Y-47648504D01*
X194615590Y-49735092D01*
X194560392Y-49780392D01*
X194381068Y-49998899D01*
X194247818Y-50248192D01*
X194165764Y-50518691D01*
X194138057Y-50800000D01*
X194165764Y-51081309D01*
X194247818Y-51351808D01*
X194381068Y-51601101D01*
X194560392Y-51819608D01*
X194667603Y-51907594D01*
X193448930Y-53126269D01*
X193191184Y-53075000D01*
X192888816Y-53075000D01*
X192592257Y-53133989D01*
X192312905Y-53249701D01*
X192061495Y-53417688D01*
X191847688Y-53631495D01*
X191679701Y-53882905D01*
X191563989Y-54162257D01*
X191505000Y-54458816D01*
X191505000Y-54761184D01*
X191563989Y-55057743D01*
X191679701Y-55337095D01*
X191847688Y-55588505D01*
X191914127Y-55654944D01*
X191895820Y-55660498D01*
X191785506Y-55719463D01*
X191688815Y-55798815D01*
X191609463Y-55895506D01*
X191550498Y-56005820D01*
X191514188Y-56125518D01*
X191501928Y-56250000D01*
X191501928Y-58050000D01*
X191514188Y-58174482D01*
X191550498Y-58294180D01*
X191609463Y-58404494D01*
X191688815Y-58501185D01*
X191785506Y-58580537D01*
X191895820Y-58639502D01*
X192015518Y-58675812D01*
X192140000Y-58688072D01*
X192280001Y-58688072D01*
X192280001Y-59652667D01*
X192276324Y-59690000D01*
X192280001Y-59727333D01*
X192290998Y-59838986D01*
X192295856Y-59855000D01*
X192334454Y-59982246D01*
X192405026Y-60114276D01*
X192458966Y-60180001D01*
X192500000Y-60230001D01*
X192528998Y-60253799D01*
X194181312Y-61906114D01*
X194145000Y-62088665D01*
X194145000Y-62371335D01*
X194200147Y-62648574D01*
X194308320Y-62909727D01*
X194465363Y-63144759D01*
X194665241Y-63344637D01*
X194900273Y-63501680D01*
X195161426Y-63609853D01*
X195438665Y-63665000D01*
X195560199Y-63665000D01*
X195068998Y-64156201D01*
X195040000Y-64179999D01*
X195016202Y-64208997D01*
X195016201Y-64208998D01*
X194945026Y-64295724D01*
X194874454Y-64427754D01*
X194830998Y-64571015D01*
X194816324Y-64720000D01*
X194820001Y-64757332D01*
X194820000Y-66089099D01*
X194778899Y-66111068D01*
X194560392Y-66290392D01*
X194381068Y-66508899D01*
X194247818Y-66758192D01*
X194165764Y-67028691D01*
X194138057Y-67310000D01*
X194165764Y-67591309D01*
X194247818Y-67861808D01*
X194381068Y-68111101D01*
X194560392Y-68329608D01*
X194778899Y-68508932D01*
X195028192Y-68642182D01*
X195298691Y-68724236D01*
X195509508Y-68745000D01*
X195650492Y-68745000D01*
X195861309Y-68724236D01*
X196131808Y-68642182D01*
X196381101Y-68508932D01*
X196599608Y-68329608D01*
X196778932Y-68111101D01*
X196912182Y-67861808D01*
X196994236Y-67591309D01*
X197021943Y-67310000D01*
X196994236Y-67028691D01*
X196912182Y-66758192D01*
X196778932Y-66508899D01*
X196599608Y-66290392D01*
X196381101Y-66111068D01*
X196340000Y-66089099D01*
X196340000Y-65034801D01*
X199226060Y-62148741D01*
X199218057Y-62230000D01*
X199245764Y-62511309D01*
X199327818Y-62781808D01*
X199461068Y-63031101D01*
X199640392Y-63249608D01*
X199858899Y-63428932D01*
X200108192Y-63562182D01*
X200378691Y-63644236D01*
X200589508Y-63665000D01*
X200730492Y-63665000D01*
X200941309Y-63644236D01*
X201211808Y-63562182D01*
X201461101Y-63428932D01*
X201679608Y-63249608D01*
X201858932Y-63031101D01*
X201992182Y-62781808D01*
X202074236Y-62511309D01*
X202101943Y-62230000D01*
X202074236Y-61948691D01*
X201992182Y-61678192D01*
X201858932Y-61428899D01*
X201679608Y-61210392D01*
X201624410Y-61165092D01*
X203711009Y-59078494D01*
X203740001Y-59054701D01*
X203763795Y-59025708D01*
X203763799Y-59025704D01*
X203828966Y-58946297D01*
X203834974Y-58938976D01*
X203905546Y-58806947D01*
X203949003Y-58663686D01*
X203960000Y-58552033D01*
X203960000Y-58552024D01*
X203963676Y-58514701D01*
X203960000Y-58477378D01*
X203960000Y-58307909D01*
X204082886Y-58225799D01*
X204275799Y-58032886D01*
X204427371Y-57806043D01*
X204531775Y-57553989D01*
X204585000Y-57286411D01*
X204585000Y-57013589D01*
X204531775Y-56746011D01*
X204427371Y-56493957D01*
X204275799Y-56267114D01*
X204082886Y-56074201D01*
X203856043Y-55922629D01*
X203603989Y-55818225D01*
X203336411Y-55765000D01*
X203063589Y-55765000D01*
X202918636Y-55793833D01*
X201420000Y-54295199D01*
X201420000Y-52238072D01*
X201460000Y-52238072D01*
X201584482Y-52225812D01*
X201704180Y-52189502D01*
X201814494Y-52130537D01*
X201911185Y-52051185D01*
X201990537Y-51954494D01*
X202049502Y-51844180D01*
X202085812Y-51724482D01*
X202098072Y-51600000D01*
X202098072Y-50000000D01*
X202085812Y-49875518D01*
X202049502Y-49755820D01*
X201990537Y-49645506D01*
X201911185Y-49548815D01*
X201855986Y-49503515D01*
X204981004Y-46378498D01*
X205010001Y-46354701D01*
X205104974Y-46238976D01*
X205175546Y-46106947D01*
X205219003Y-45963686D01*
X205230000Y-45852033D01*
X205230000Y-45852025D01*
X205233676Y-45814700D01*
X205230000Y-45777375D01*
X205230000Y-42636105D01*
X205481302Y-42532012D01*
X205830983Y-42298363D01*
X206128363Y-42000983D01*
X206362012Y-41651302D01*
X206522953Y-41262756D01*
X206605000Y-40850279D01*
X206605000Y-40429721D01*
X207415000Y-40429721D01*
X207415000Y-40850279D01*
X207497047Y-41262756D01*
X207657988Y-41651302D01*
X207891637Y-42000983D01*
X208189017Y-42298363D01*
X208538698Y-42532012D01*
X208790001Y-42636105D01*
X208790000Y-48317378D01*
X208786324Y-48354700D01*
X208790000Y-48392022D01*
X208790000Y-48392032D01*
X208800997Y-48503685D01*
X208832216Y-48606602D01*
X208844454Y-48646946D01*
X208915026Y-48778976D01*
X208932281Y-48800001D01*
X209009999Y-48894701D01*
X209039003Y-48918504D01*
X209855590Y-49735092D01*
X209800392Y-49780392D01*
X209621068Y-49998899D01*
X209487818Y-50248192D01*
X209405764Y-50518691D01*
X209378057Y-50800000D01*
X209405764Y-51081309D01*
X209487818Y-51351808D01*
X209621068Y-51601101D01*
X209800392Y-51819608D01*
X210018899Y-51998932D01*
X210060000Y-52020901D01*
X210060001Y-53025197D01*
X209958930Y-53126269D01*
X209701184Y-53075000D01*
X209398816Y-53075000D01*
X209102257Y-53133989D01*
X208822905Y-53249701D01*
X208571495Y-53417688D01*
X208357688Y-53631495D01*
X208189701Y-53882905D01*
X208073989Y-54162257D01*
X208015000Y-54458816D01*
X208015000Y-54761184D01*
X208073989Y-55057743D01*
X208189701Y-55337095D01*
X208357688Y-55588505D01*
X208424127Y-55654944D01*
X208405820Y-55660498D01*
X208295506Y-55719463D01*
X208198815Y-55798815D01*
X208119463Y-55895506D01*
X208060498Y-56005820D01*
X208024188Y-56125518D01*
X208011928Y-56250000D01*
X208011928Y-58050000D01*
X208024188Y-58174482D01*
X208060498Y-58294180D01*
X208119463Y-58404494D01*
X208198815Y-58501185D01*
X208295506Y-58580537D01*
X208405820Y-58639502D01*
X208525518Y-58675812D01*
X208650000Y-58688072D01*
X208835514Y-58688072D01*
X208844454Y-58717546D01*
X208915026Y-58849576D01*
X208986201Y-58936302D01*
X209010000Y-58965301D01*
X209038998Y-58989099D01*
X210060000Y-60010102D01*
X210060001Y-61011956D01*
X209905241Y-61115363D01*
X209705363Y-61315241D01*
X209548320Y-61550273D01*
X209440147Y-61811426D01*
X209385000Y-62088665D01*
X209385000Y-62371335D01*
X209440147Y-62648574D01*
X209548320Y-62909727D01*
X209705363Y-63144759D01*
X209905241Y-63344637D01*
X210140273Y-63501680D01*
X210401426Y-63609853D01*
X210678665Y-63665000D01*
X210961335Y-63665000D01*
X211238574Y-63609853D01*
X211499727Y-63501680D01*
X211734759Y-63344637D01*
X211934637Y-63144759D01*
X212091680Y-62909727D01*
X212199853Y-62648574D01*
X212255000Y-62371335D01*
X212255000Y-62088665D01*
X212199853Y-61811426D01*
X212091680Y-61550273D01*
X211934637Y-61315241D01*
X211734759Y-61115363D01*
X211580000Y-61011957D01*
X211580000Y-59732622D01*
X211583676Y-59695299D01*
X211580000Y-59657976D01*
X211580000Y-59657967D01*
X211569003Y-59546314D01*
X211525546Y-59403053D01*
X211454974Y-59271024D01*
X211360001Y-59155299D01*
X211331004Y-59131502D01*
X210788557Y-58589056D01*
X210804494Y-58580537D01*
X210901185Y-58501185D01*
X210980537Y-58404494D01*
X211039502Y-58294180D01*
X211075812Y-58174482D01*
X211088072Y-58050000D01*
X211088072Y-56250000D01*
X211075812Y-56125518D01*
X211039502Y-56005820D01*
X210980537Y-55895506D01*
X210901185Y-55798815D01*
X210804494Y-55719463D01*
X210694180Y-55660498D01*
X210675873Y-55654944D01*
X210742312Y-55588505D01*
X210910299Y-55337095D01*
X211026011Y-55057743D01*
X211085000Y-54761184D01*
X211085000Y-54458816D01*
X211033731Y-54201070D01*
X211331003Y-53903799D01*
X211360001Y-53880001D01*
X211454974Y-53764276D01*
X211525546Y-53632247D01*
X211569003Y-53488986D01*
X211580000Y-53377333D01*
X211580000Y-53377324D01*
X211583676Y-53340001D01*
X211580000Y-53302678D01*
X211580000Y-52020901D01*
X211621101Y-51998932D01*
X211839608Y-51819608D01*
X212018932Y-51601101D01*
X212152182Y-51351808D01*
X212234236Y-51081309D01*
X212261943Y-50800000D01*
X212234236Y-50518691D01*
X212152182Y-50248192D01*
X212018932Y-49998899D01*
X211839608Y-49780392D01*
X211621101Y-49601068D01*
X211579140Y-49578640D01*
X211569003Y-49475714D01*
X211525546Y-49332453D01*
X211454974Y-49200424D01*
X211360001Y-49084699D01*
X211331003Y-49060901D01*
X210310000Y-48039899D01*
X210310000Y-42636105D01*
X210561302Y-42532012D01*
X210910983Y-42298363D01*
X211208363Y-42000983D01*
X211442012Y-41651302D01*
X211602953Y-41262756D01*
X211685000Y-40850279D01*
X211685000Y-40429721D01*
X211602953Y-40017244D01*
X211442012Y-39628698D01*
X211208363Y-39279017D01*
X210910983Y-38981637D01*
X210561302Y-38747988D01*
X210172756Y-38587047D01*
X209760279Y-38505000D01*
X209339721Y-38505000D01*
X208927244Y-38587047D01*
X208538698Y-38747988D01*
X208189017Y-38981637D01*
X207891637Y-39279017D01*
X207657988Y-39628698D01*
X207497047Y-40017244D01*
X207415000Y-40429721D01*
X206605000Y-40429721D01*
X206522953Y-40017244D01*
X206362012Y-39628698D01*
X206128363Y-39279017D01*
X205830983Y-38981637D01*
X205481302Y-38747988D01*
X205092756Y-38587047D01*
X204680279Y-38505000D01*
X204259721Y-38505000D01*
X203847244Y-38587047D01*
X203458698Y-38747988D01*
X203109017Y-38981637D01*
X202811637Y-39279017D01*
X202577988Y-39628698D01*
X202417047Y-40017244D01*
X202335000Y-40429721D01*
X202335000Y-40850279D01*
X202417047Y-41262756D01*
X202577988Y-41651302D01*
X202811637Y-42000983D01*
X203109017Y-42298363D01*
X203458698Y-42532012D01*
X203710001Y-42636105D01*
X203710000Y-45499898D01*
X200148998Y-49060901D01*
X200120000Y-49084699D01*
X200096203Y-49113696D01*
X200096201Y-49113698D01*
X200025026Y-49200424D01*
X199954454Y-49332454D01*
X199945514Y-49361928D01*
X199860000Y-49361928D01*
X199735518Y-49374188D01*
X199615820Y-49410498D01*
X199505506Y-49469463D01*
X199408815Y-49548815D01*
X199329463Y-49645506D01*
X199270498Y-49755820D01*
X199234188Y-49875518D01*
X199221928Y-50000000D01*
X199221928Y-51600000D01*
X199234188Y-51724482D01*
X199270498Y-51844180D01*
X199329463Y-51954494D01*
X199408815Y-52051185D01*
X199505506Y-52130537D01*
X199615820Y-52189502D01*
X199735518Y-52225812D01*
X199860000Y-52238072D01*
X199900001Y-52238072D01*
X199900000Y-54572677D01*
X199896324Y-54610000D01*
X199900000Y-54647322D01*
X199900000Y-54647332D01*
X199910997Y-54758985D01*
X199925728Y-54807546D01*
X199954454Y-54902246D01*
X200025026Y-55034276D01*
X200061812Y-55079099D01*
X200119999Y-55150001D01*
X200149003Y-55173804D01*
X200740199Y-55765000D01*
X200523589Y-55765000D01*
X200256011Y-55818225D01*
X200003957Y-55922629D01*
X199777114Y-56074201D01*
X199584201Y-56267114D01*
X199506445Y-56383483D01*
X199495812Y-56275518D01*
X199459502Y-56155820D01*
X199400537Y-56045506D01*
X199321185Y-55948815D01*
X199224494Y-55869463D01*
X199114180Y-55810498D01*
X198994482Y-55774188D01*
X198880000Y-55762913D01*
X198880000Y-44100101D01*
X199901003Y-43079099D01*
X199930001Y-43055301D01*
X200024974Y-42939576D01*
X200095546Y-42807547D01*
X200104487Y-42778072D01*
X200890000Y-42778072D01*
X201014482Y-42765812D01*
X201134180Y-42729502D01*
X201244494Y-42670537D01*
X201341185Y-42591185D01*
X201420537Y-42494494D01*
X201479502Y-42384180D01*
X201515812Y-42264482D01*
X201528072Y-42140000D01*
X201528072Y-39140000D01*
X201515812Y-39015518D01*
X201479502Y-38895820D01*
X201420537Y-38785506D01*
X201341185Y-38688815D01*
X201244494Y-38609463D01*
X201134180Y-38550498D01*
X201014482Y-38514188D01*
X200890000Y-38501928D01*
X197890000Y-38501928D01*
X197765518Y-38514188D01*
X197645820Y-38550498D01*
X197535506Y-38609463D01*
X197438815Y-38688815D01*
X197359463Y-38785506D01*
X197300498Y-38895820D01*
X197264188Y-39015518D01*
X197251928Y-39140000D01*
X197251928Y-42140000D01*
X197264188Y-42264482D01*
X197300498Y-42384180D01*
X197359463Y-42494494D01*
X197438815Y-42591185D01*
X197535506Y-42670537D01*
X197645820Y-42729502D01*
X197765518Y-42765812D01*
X197890000Y-42778072D01*
X198052427Y-42778072D01*
X197608998Y-43221501D01*
X197580000Y-43245299D01*
X197556202Y-43274297D01*
X197556201Y-43274298D01*
X197485026Y-43361024D01*
X197414454Y-43493054D01*
X197370998Y-43636315D01*
X197356324Y-43785300D01*
X197360001Y-43822632D01*
X197360000Y-55762913D01*
X197245518Y-55774188D01*
X197125820Y-55810498D01*
X197015506Y-55869463D01*
X196918815Y-55948815D01*
X196839463Y-56045506D01*
X196780498Y-56155820D01*
X196744188Y-56275518D01*
X196731928Y-56400000D01*
X196731928Y-57900000D01*
X196744188Y-58024482D01*
X196780498Y-58144180D01*
X196839463Y-58254494D01*
X196918815Y-58351185D01*
X197015506Y-58430537D01*
X197125820Y-58489502D01*
X197245518Y-58525812D01*
X197370000Y-58538072D01*
X198870000Y-58538072D01*
X198994482Y-58525812D01*
X199114180Y-58489502D01*
X199224494Y-58430537D01*
X199321185Y-58351185D01*
X199400537Y-58254494D01*
X199459502Y-58144180D01*
X199495812Y-58024482D01*
X199506445Y-57916517D01*
X199584201Y-58032886D01*
X199777114Y-58225799D01*
X199900001Y-58307909D01*
X199900000Y-59325198D01*
X197015000Y-62210199D01*
X197015000Y-62088665D01*
X196959853Y-61811426D01*
X196851680Y-61550273D01*
X196694637Y-61315241D01*
X196494759Y-61115363D01*
X196259727Y-60958320D01*
X195998574Y-60850147D01*
X195721335Y-60795000D01*
X195438665Y-60795000D01*
X195256114Y-60831312D01*
X193800000Y-59375199D01*
X193800000Y-58688072D01*
X193940000Y-58688072D01*
X194064482Y-58675812D01*
X194184180Y-58639502D01*
X194294494Y-58580537D01*
X194391185Y-58501185D01*
X194470537Y-58404494D01*
X194529502Y-58294180D01*
X194565812Y-58174482D01*
X194578072Y-58050000D01*
X194578072Y-56250000D01*
X194565812Y-56125518D01*
X194529502Y-56005820D01*
X194470537Y-55895506D01*
X194391185Y-55798815D01*
X194294494Y-55719463D01*
X194184180Y-55660498D01*
X194165873Y-55654944D01*
X194232312Y-55588505D01*
X194400299Y-55337095D01*
X194516011Y-55057743D01*
X194575000Y-54761184D01*
X194575000Y-54458816D01*
X194523731Y-54201070D01*
X196091009Y-52633794D01*
X196120001Y-52610001D01*
X196143795Y-52581008D01*
X196143799Y-52581004D01*
X196214973Y-52494277D01*
X196214974Y-52494276D01*
X196285546Y-52362247D01*
X196329003Y-52218986D01*
X196340000Y-52107333D01*
X196340000Y-52107324D01*
X196343676Y-52070001D01*
X196340000Y-52032678D01*
X196340000Y-52020901D01*
X196381101Y-51998932D01*
X196599608Y-51819608D01*
X196778932Y-51601101D01*
X196912182Y-51351808D01*
X196994236Y-51081309D01*
X197021943Y-50800000D01*
X196994236Y-50518691D01*
X196912182Y-50248192D01*
X196778932Y-49998899D01*
X196599608Y-49780392D01*
X196381101Y-49601068D01*
X196339140Y-49578640D01*
X196329003Y-49475714D01*
X196285546Y-49332453D01*
X196214974Y-49200424D01*
X196201811Y-49184385D01*
X196143799Y-49113696D01*
X196143795Y-49113692D01*
X196120001Y-49084699D01*
X196091008Y-49060905D01*
X193800000Y-46769899D01*
X193800000Y-42636105D01*
X194051302Y-42532012D01*
X194400983Y-42298363D01*
X194698363Y-42000983D01*
X194932012Y-41651302D01*
X195092953Y-41262756D01*
X195175000Y-40850279D01*
X195175000Y-40429721D01*
X195092953Y-40017244D01*
X194932012Y-39628698D01*
X194698363Y-39279017D01*
X194400983Y-38981637D01*
X194051302Y-38747988D01*
X193662756Y-38587047D01*
X193250279Y-38505000D01*
X192829721Y-38505000D01*
X192417244Y-38587047D01*
X192028698Y-38747988D01*
X191679017Y-38981637D01*
X191381637Y-39279017D01*
X191147988Y-39628698D01*
X190987047Y-40017244D01*
X190905000Y-40429721D01*
X190095000Y-40429721D01*
X190012953Y-40017244D01*
X189852012Y-39628698D01*
X189618363Y-39279017D01*
X189320983Y-38981637D01*
X188971302Y-38747988D01*
X188582756Y-38587047D01*
X188170279Y-38505000D01*
X187749721Y-38505000D01*
X187337244Y-38587047D01*
X186948698Y-38747988D01*
X186599017Y-38981637D01*
X186301637Y-39279017D01*
X186067988Y-39628698D01*
X185907047Y-40017244D01*
X185825000Y-40429721D01*
X185825000Y-40850279D01*
X185907047Y-41262756D01*
X186067988Y-41651302D01*
X186301637Y-42000983D01*
X186599017Y-42298363D01*
X186948698Y-42532012D01*
X187200000Y-42636105D01*
X187200001Y-46769896D01*
X184908998Y-49060901D01*
X184880000Y-49084699D01*
X184856203Y-49113696D01*
X184856201Y-49113698D01*
X184785026Y-49200424D01*
X184714454Y-49332454D01*
X184705514Y-49361928D01*
X184620000Y-49361928D01*
X184495518Y-49374188D01*
X184375820Y-49410498D01*
X184265506Y-49469463D01*
X184168815Y-49548815D01*
X184089463Y-49645506D01*
X184030498Y-49755820D01*
X183994188Y-49875518D01*
X183981928Y-50000000D01*
X183981928Y-51600000D01*
X183994188Y-51724482D01*
X184030498Y-51844180D01*
X184089463Y-51954494D01*
X184168815Y-52051185D01*
X184265506Y-52130537D01*
X184375820Y-52189502D01*
X184495518Y-52225812D01*
X184620000Y-52238072D01*
X184705514Y-52238072D01*
X184714454Y-52267546D01*
X184785026Y-52399576D01*
X184856201Y-52486302D01*
X184880000Y-52515301D01*
X184908998Y-52539099D01*
X187200000Y-54830103D01*
X187200001Y-55992091D01*
X187077114Y-56074201D01*
X186884201Y-56267114D01*
X186732629Y-56493957D01*
X186690000Y-56596873D01*
X186647371Y-56493957D01*
X186495799Y-56267114D01*
X186302886Y-56074201D01*
X186076043Y-55922629D01*
X185823989Y-55818225D01*
X185556411Y-55765000D01*
X185283589Y-55765000D01*
X185016011Y-55818225D01*
X184763957Y-55922629D01*
X184537114Y-56074201D01*
X184344201Y-56267114D01*
X184266445Y-56383483D01*
X184255812Y-56275518D01*
X184219502Y-56155820D01*
X184160537Y-56045506D01*
X184081185Y-55948815D01*
X183984494Y-55869463D01*
X183874180Y-55810498D01*
X183754482Y-55774188D01*
X183630000Y-55761928D01*
X182130000Y-55761928D01*
X182005518Y-55774188D01*
X181885820Y-55810498D01*
X181775506Y-55869463D01*
X181678815Y-55948815D01*
X181599463Y-56045506D01*
X181540498Y-56155820D01*
X181504188Y-56275518D01*
X181491928Y-56400000D01*
X181491928Y-57900000D01*
X181504188Y-58024482D01*
X181540498Y-58144180D01*
X181599463Y-58254494D01*
X181678815Y-58351185D01*
X181775506Y-58430537D01*
X181885820Y-58489502D01*
X182005518Y-58525812D01*
X182130000Y-58538072D01*
X182957127Y-58538072D01*
X181098998Y-60396201D01*
X181070000Y-60419999D01*
X181046202Y-60448997D01*
X181046201Y-60448998D01*
X180975026Y-60535724D01*
X180973290Y-60538972D01*
X180953370Y-60514699D01*
X180903799Y-60454296D01*
X180903795Y-60454292D01*
X180880001Y-60425299D01*
X180851009Y-60401506D01*
X179038557Y-58589056D01*
X179054494Y-58580537D01*
X179151185Y-58501185D01*
X179230537Y-58404494D01*
X179289502Y-58294180D01*
X179325812Y-58174482D01*
X179338072Y-58050000D01*
X179338072Y-56250000D01*
X179325812Y-56125518D01*
X179289502Y-56005820D01*
X179230537Y-55895506D01*
X179151185Y-55798815D01*
X179054494Y-55719463D01*
X178944180Y-55660498D01*
X178925873Y-55654944D01*
X178992312Y-55588505D01*
X179160299Y-55337095D01*
X179276011Y-55057743D01*
X179335000Y-54761184D01*
X179335000Y-54458816D01*
X179276011Y-54162257D01*
X179261903Y-54128198D01*
X180851008Y-52539095D01*
X180880001Y-52515301D01*
X180903795Y-52486308D01*
X180903799Y-52486304D01*
X180974973Y-52399577D01*
X180974974Y-52399576D01*
X181045546Y-52267547D01*
X181089003Y-52124286D01*
X181099140Y-52021360D01*
X181141101Y-51998932D01*
X181359608Y-51819608D01*
X181538932Y-51601101D01*
X181672182Y-51351808D01*
X181754236Y-51081309D01*
X181781943Y-50800000D01*
X181754236Y-50518691D01*
X181672182Y-50248192D01*
X181538932Y-49998899D01*
X181359608Y-49780392D01*
X181141101Y-49601068D01*
X180891808Y-49467818D01*
X180621309Y-49385764D01*
X180410492Y-49365000D01*
X180269508Y-49365000D01*
X180058691Y-49385764D01*
X179788192Y-49467818D01*
X179538899Y-49601068D01*
X179320392Y-49780392D01*
X179141068Y-49998899D01*
X179007818Y-50248192D01*
X178925764Y-50518691D01*
X178898057Y-50800000D01*
X178925764Y-51081309D01*
X179007818Y-51351808D01*
X179141068Y-51601101D01*
X179320392Y-51819608D01*
X179375590Y-51864908D01*
X178129941Y-53110557D01*
X177951184Y-53075000D01*
X177648816Y-53075000D01*
X177352257Y-53133989D01*
X177072905Y-53249701D01*
X176821495Y-53417688D01*
X176607688Y-53631495D01*
X176439701Y-53882905D01*
X176323989Y-54162257D01*
X176265000Y-54458816D01*
X176265000Y-54761184D01*
X176323989Y-55057743D01*
X176439701Y-55337095D01*
X176607688Y-55588505D01*
X176674127Y-55654944D01*
X176655820Y-55660498D01*
X176545506Y-55719463D01*
X176448815Y-55798815D01*
X176369463Y-55895506D01*
X176310498Y-56005820D01*
X176274188Y-56125518D01*
X176261928Y-56250000D01*
X174218685Y-56250000D01*
X174042886Y-56074201D01*
X173920000Y-55992091D01*
X173920000Y-54992622D01*
X173923676Y-54955299D01*
X173920000Y-54917976D01*
X173920000Y-54917967D01*
X173909003Y-54806314D01*
X173865546Y-54663053D01*
X173794974Y-54531024D01*
X173781811Y-54514985D01*
X173723799Y-54444296D01*
X173723795Y-54444292D01*
X173700001Y-54415299D01*
X173671009Y-54391506D01*
X171375987Y-52096485D01*
X171431185Y-52051185D01*
X171510537Y-51954494D01*
X171569502Y-51844180D01*
X171605812Y-51724482D01*
X171618072Y-51600000D01*
X171618072Y-50000000D01*
X171605812Y-49875518D01*
X171569502Y-49755820D01*
X171510537Y-49645506D01*
X171431185Y-49548815D01*
X171334494Y-49469463D01*
X171224180Y-49410498D01*
X171104482Y-49374188D01*
X170980000Y-49361928D01*
X169380000Y-49361928D01*
X169255518Y-49374188D01*
X169135820Y-49410498D01*
X169025506Y-49469463D01*
X168928815Y-49548815D01*
X168849463Y-49645506D01*
X168840000Y-49663210D01*
X168840000Y-44985300D01*
X177382078Y-44985300D01*
X177419400Y-44988976D01*
X177456722Y-44985300D01*
X177456733Y-44985300D01*
X177568386Y-44974303D01*
X177711647Y-44930846D01*
X177843676Y-44860274D01*
X177959401Y-44765301D01*
X177983204Y-44736297D01*
X180741928Y-41977574D01*
X180741928Y-42140000D01*
X180754188Y-42264482D01*
X180790498Y-42384180D01*
X180849463Y-42494494D01*
X180928815Y-42591185D01*
X181025506Y-42670537D01*
X181135820Y-42729502D01*
X181255518Y-42765812D01*
X181380000Y-42778072D01*
X184380000Y-42778072D01*
X184504482Y-42765812D01*
X184624180Y-42729502D01*
X184734494Y-42670537D01*
X184831185Y-42591185D01*
X184910537Y-42494494D01*
X184969502Y-42384180D01*
X185005812Y-42264482D01*
X185018072Y-42140000D01*
X185018072Y-39140000D01*
X185005812Y-39015518D01*
X184969502Y-38895820D01*
X184910537Y-38785506D01*
X184831185Y-38688815D01*
X184734494Y-38609463D01*
X184624180Y-38550498D01*
X184504482Y-38514188D01*
X184380000Y-38501928D01*
X181380000Y-38501928D01*
X181255518Y-38514188D01*
X181135820Y-38550498D01*
X181025506Y-38609463D01*
X180928815Y-38688815D01*
X180849463Y-38785506D01*
X180790498Y-38895820D01*
X180754188Y-39015518D01*
X180741928Y-39140000D01*
X180741928Y-39925513D01*
X180712453Y-39934454D01*
X180580423Y-40005026D01*
X180530742Y-40045799D01*
X180464699Y-40099999D01*
X180440901Y-40128997D01*
X177104599Y-43465300D01*
X168394802Y-43465300D01*
X167707573Y-42778072D01*
X167870000Y-42778072D01*
X167994482Y-42765812D01*
X168114180Y-42729502D01*
X168224494Y-42670537D01*
X168321185Y-42591185D01*
X168400537Y-42494494D01*
X168459502Y-42384180D01*
X168495812Y-42264482D01*
X168508072Y-42140000D01*
X168508072Y-40429721D01*
X169315000Y-40429721D01*
X169315000Y-40850279D01*
X169397047Y-41262756D01*
X169557988Y-41651302D01*
X169791637Y-42000983D01*
X170089017Y-42298363D01*
X170438698Y-42532012D01*
X170827244Y-42692953D01*
X171239721Y-42775000D01*
X171660279Y-42775000D01*
X172072756Y-42692953D01*
X172461302Y-42532012D01*
X172810983Y-42298363D01*
X173108363Y-42000983D01*
X173342012Y-41651302D01*
X173502953Y-41262756D01*
X173585000Y-40850279D01*
X173585000Y-40429721D01*
X174395000Y-40429721D01*
X174395000Y-40850279D01*
X174477047Y-41262756D01*
X174637988Y-41651302D01*
X174871637Y-42000983D01*
X175169017Y-42298363D01*
X175518698Y-42532012D01*
X175907244Y-42692953D01*
X176319721Y-42775000D01*
X176740279Y-42775000D01*
X177152756Y-42692953D01*
X177541302Y-42532012D01*
X177890983Y-42298363D01*
X178188363Y-42000983D01*
X178422012Y-41651302D01*
X178582953Y-41262756D01*
X178665000Y-40850279D01*
X178665000Y-40429721D01*
X178582953Y-40017244D01*
X178422012Y-39628698D01*
X178188363Y-39279017D01*
X177890983Y-38981637D01*
X177541302Y-38747988D01*
X177152756Y-38587047D01*
X176740279Y-38505000D01*
X176319721Y-38505000D01*
X175907244Y-38587047D01*
X175518698Y-38747988D01*
X175169017Y-38981637D01*
X174871637Y-39279017D01*
X174637988Y-39628698D01*
X174477047Y-40017244D01*
X174395000Y-40429721D01*
X173585000Y-40429721D01*
X173502953Y-40017244D01*
X173342012Y-39628698D01*
X173108363Y-39279017D01*
X172810983Y-38981637D01*
X172461302Y-38747988D01*
X172072756Y-38587047D01*
X171660279Y-38505000D01*
X171239721Y-38505000D01*
X170827244Y-38587047D01*
X170438698Y-38747988D01*
X170089017Y-38981637D01*
X169791637Y-39279017D01*
X169557988Y-39628698D01*
X169397047Y-40017244D01*
X169315000Y-40429721D01*
X168508072Y-40429721D01*
X168508072Y-39140000D01*
X168495812Y-39015518D01*
X168459502Y-38895820D01*
X168400537Y-38785506D01*
X168321185Y-38688815D01*
X168224494Y-38609463D01*
X168114180Y-38550498D01*
X167994482Y-38514188D01*
X167870000Y-38501928D01*
X164870000Y-38501928D01*
X164745518Y-38514188D01*
X164625820Y-38550498D01*
X164515506Y-38609463D01*
X164418815Y-38688815D01*
X164339463Y-38785506D01*
X164280498Y-38895820D01*
X164244188Y-39015518D01*
X164231928Y-39140000D01*
X161539346Y-39140000D01*
X161380983Y-38981637D01*
X161031302Y-38747988D01*
X160642756Y-38587047D01*
X160230279Y-38505000D01*
X159809721Y-38505000D01*
X159397244Y-38587047D01*
X159008698Y-38747988D01*
X158659017Y-38981637D01*
X158361637Y-39279017D01*
X158127988Y-39628698D01*
X157967047Y-40017244D01*
X157885000Y-40429721D01*
X157075000Y-40429721D01*
X156992953Y-40017244D01*
X156832012Y-39628698D01*
X156598363Y-39279017D01*
X156300983Y-38981637D01*
X155951302Y-38747988D01*
X155562756Y-38587047D01*
X155150279Y-38505000D01*
X154729721Y-38505000D01*
X154317244Y-38587047D01*
X153928698Y-38747988D01*
X153579017Y-38981637D01*
X153281637Y-39279017D01*
X153047988Y-39628698D01*
X152887047Y-40017244D01*
X152805000Y-40429721D01*
X152805000Y-40850279D01*
X152887047Y-41262756D01*
X153047988Y-41651302D01*
X153281637Y-42000983D01*
X153579017Y-42298363D01*
X153928698Y-42532012D01*
X154180000Y-42636105D01*
X154180001Y-49361928D01*
X154140000Y-49361928D01*
X154015518Y-49374188D01*
X153895820Y-49410498D01*
X153785506Y-49469463D01*
X153688815Y-49548815D01*
X153609463Y-49645506D01*
X153550498Y-49755820D01*
X153514188Y-49875518D01*
X153501928Y-50000000D01*
X153501928Y-51600000D01*
X153514188Y-51724482D01*
X153550498Y-51844180D01*
X153609463Y-51954494D01*
X153688815Y-52051185D01*
X153785506Y-52130537D01*
X153895820Y-52189502D01*
X154015518Y-52225812D01*
X154140000Y-52238072D01*
X154225514Y-52238072D01*
X154234454Y-52267546D01*
X154305026Y-52399576D01*
X154376201Y-52486302D01*
X154400000Y-52515301D01*
X154428998Y-52539099D01*
X156720000Y-54830103D01*
X156720001Y-55992091D01*
X156597114Y-56074201D01*
X156404201Y-56267114D01*
X156252629Y-56493957D01*
X156210000Y-56596873D01*
X156167371Y-56493957D01*
X156015799Y-56267114D01*
X155822886Y-56074201D01*
X155596043Y-55922629D01*
X155343989Y-55818225D01*
X155076411Y-55765000D01*
X154803589Y-55765000D01*
X154536011Y-55818225D01*
X154283957Y-55922629D01*
X154057114Y-56074201D01*
X153864201Y-56267114D01*
X153786445Y-56383483D01*
X153775812Y-56275518D01*
X153739502Y-56155820D01*
X153680537Y-56045506D01*
X153601185Y-55948815D01*
X153504494Y-55869463D01*
X153394180Y-55810498D01*
X153274482Y-55774188D01*
X153160000Y-55762913D01*
X153160000Y-45092622D01*
X153163676Y-45055299D01*
X153160000Y-45017976D01*
X153160000Y-45017967D01*
X153149003Y-44906314D01*
X153105546Y-44763053D01*
X153034974Y-44631024D01*
X153021811Y-44614985D01*
X152963799Y-44544296D01*
X152963795Y-44544292D01*
X152940001Y-44515299D01*
X152911009Y-44491506D01*
X151197574Y-42778072D01*
X151360000Y-42778072D01*
X151484482Y-42765812D01*
X151604180Y-42729502D01*
X151714494Y-42670537D01*
X151811185Y-42591185D01*
X151890537Y-42494494D01*
X151949502Y-42384180D01*
X151985812Y-42264482D01*
X151998072Y-42140000D01*
X151998072Y-39140000D01*
X151985812Y-39015518D01*
X151949502Y-38895820D01*
X151890537Y-38785506D01*
X151811185Y-38688815D01*
X151714494Y-38609463D01*
X151604180Y-38550498D01*
X151484482Y-38514188D01*
X151360000Y-38501928D01*
X148360000Y-38501928D01*
X148235518Y-38514188D01*
X148115820Y-38550498D01*
X148005506Y-38609463D01*
X147908815Y-38688815D01*
X147829463Y-38785506D01*
X147770498Y-38895820D01*
X147734188Y-39015518D01*
X147721928Y-39140000D01*
X145029346Y-39140000D01*
X144870983Y-38981637D01*
X144521302Y-38747988D01*
X144132756Y-38587047D01*
X143720279Y-38505000D01*
X143299721Y-38505000D01*
X142887244Y-38587047D01*
X142498698Y-38747988D01*
X142149017Y-38981637D01*
X141851637Y-39279017D01*
X141617988Y-39628698D01*
X141457047Y-40017244D01*
X141375000Y-40429721D01*
X140565000Y-40429721D01*
X140482953Y-40017244D01*
X140322012Y-39628698D01*
X140088363Y-39279017D01*
X139790983Y-38981637D01*
X139441302Y-38747988D01*
X139052756Y-38587047D01*
X138640279Y-38505000D01*
X138219721Y-38505000D01*
X137807244Y-38587047D01*
X137418698Y-38747988D01*
X137069017Y-38981637D01*
X136771637Y-39279017D01*
X136537988Y-39628698D01*
X136377047Y-40017244D01*
X136295000Y-40429721D01*
X136295000Y-40850279D01*
X136377047Y-41262756D01*
X136537988Y-41651302D01*
X136771637Y-42000983D01*
X137069017Y-42298363D01*
X137418698Y-42532012D01*
X137670000Y-42636105D01*
X137670001Y-48317368D01*
X137666324Y-48354700D01*
X137680998Y-48503685D01*
X137724454Y-48646946D01*
X137795026Y-48778976D01*
X137831812Y-48823799D01*
X137890000Y-48894701D01*
X137918998Y-48918499D01*
X138504013Y-49503515D01*
X138448815Y-49548815D01*
X138369463Y-49645506D01*
X138310498Y-49755820D01*
X138274188Y-49875518D01*
X138261928Y-50000000D01*
X138261928Y-51600000D01*
X138274188Y-51724482D01*
X138310498Y-51844180D01*
X138369463Y-51954494D01*
X138448815Y-52051185D01*
X138545506Y-52130537D01*
X138655820Y-52189502D01*
X138775518Y-52225812D01*
X138900000Y-52238072D01*
X138940000Y-52238072D01*
X138940001Y-55294226D01*
X138858153Y-55319054D01*
X138726124Y-55389626D01*
X138610399Y-55484599D01*
X138586600Y-55513598D01*
X138242495Y-55857704D01*
X138154180Y-55810498D01*
X138034482Y-55774188D01*
X137910000Y-55761928D01*
X136410000Y-55761928D01*
X136285518Y-55774188D01*
X136165820Y-55810498D01*
X136055506Y-55869463D01*
X135958815Y-55948815D01*
X135879463Y-56045506D01*
X135820498Y-56155820D01*
X135784188Y-56275518D01*
X135771928Y-56400000D01*
X130300000Y-56400000D01*
X130300000Y-54647322D01*
X130303676Y-54609999D01*
X130300000Y-54572676D01*
X130300000Y-54572667D01*
X130289003Y-54461014D01*
X130245546Y-54317753D01*
X130174974Y-54185724D01*
X130080001Y-54069999D01*
X130051003Y-54046201D01*
X119449801Y-43445000D01*
X119531184Y-43445000D01*
X119827743Y-43386011D01*
X120107095Y-43270299D01*
X120358505Y-43102312D01*
X120572312Y-42888505D01*
X120650000Y-42772237D01*
X120727688Y-42888505D01*
X120941495Y-43102312D01*
X121192905Y-43270299D01*
X121472257Y-43386011D01*
X121768816Y-43445000D01*
X122071184Y-43445000D01*
X122367743Y-43386011D01*
X122647095Y-43270299D01*
X122898505Y-43102312D01*
X123112312Y-42888505D01*
X123280299Y-42637095D01*
X123396011Y-42357743D01*
X123455000Y-42061184D01*
X123455000Y-41758816D01*
X123396011Y-41462257D01*
X123347773Y-41345800D01*
X131183290Y-41345800D01*
X131211928Y-41354487D01*
X131211928Y-42140000D01*
X131224188Y-42264482D01*
X131260498Y-42384180D01*
X131319463Y-42494494D01*
X131398815Y-42591185D01*
X131495506Y-42670537D01*
X131605820Y-42729502D01*
X131725518Y-42765812D01*
X131850000Y-42778072D01*
X134850000Y-42778072D01*
X134974482Y-42765812D01*
X135094180Y-42729502D01*
X135204494Y-42670537D01*
X135301185Y-42591185D01*
X135380537Y-42494494D01*
X135439502Y-42384180D01*
X135475812Y-42264482D01*
X135488072Y-42140000D01*
X135488072Y-39140000D01*
X135475812Y-39015518D01*
X135439502Y-38895820D01*
X135380537Y-38785506D01*
X135301185Y-38688815D01*
X135204494Y-38609463D01*
X135094180Y-38550498D01*
X134974482Y-38514188D01*
X134850000Y-38501928D01*
X131850000Y-38501928D01*
X131725518Y-38514188D01*
X131605820Y-38550498D01*
X131495506Y-38609463D01*
X131398815Y-38688815D01*
X131319463Y-38785506D01*
X131260498Y-38895820D01*
X131224188Y-39015518D01*
X131211928Y-39140000D01*
X131211928Y-39825800D01*
X108041533Y-39825800D01*
X108004200Y-39822123D01*
X107966867Y-39825800D01*
X107855214Y-39836797D01*
X107711953Y-39880254D01*
X107579924Y-39950826D01*
X107464199Y-40045799D01*
X107440401Y-40074797D01*
X107088930Y-40426269D01*
X106831184Y-40375000D01*
X106528816Y-40375000D01*
X106232257Y-40433989D01*
X105952905Y-40549701D01*
X105701495Y-40717688D01*
X105487688Y-40931495D01*
X105410000Y-41047763D01*
X105332312Y-40931495D01*
X105118505Y-40717688D01*
X104867095Y-40549701D01*
X104587743Y-40433989D01*
X104291184Y-40375000D01*
X103988816Y-40375000D01*
X103692257Y-40433989D01*
X103412905Y-40549701D01*
X103161495Y-40717688D01*
X102947688Y-40931495D01*
X102779701Y-41182905D01*
X102663989Y-41462257D01*
X102605000Y-41758816D01*
X102605000Y-42061184D01*
X102663989Y-42357743D01*
X102779701Y-42637095D01*
X102947688Y-42888505D01*
X103161495Y-43102312D01*
X103412905Y-43270299D01*
X103692257Y-43386011D01*
X103988816Y-43445000D01*
X104291184Y-43445000D01*
X104587743Y-43386011D01*
X104867095Y-43270299D01*
X105118505Y-43102312D01*
X105332312Y-42888505D01*
X105410000Y-42772237D01*
X105487688Y-42888505D01*
X105701495Y-43102312D01*
X105952905Y-43270299D01*
X106232257Y-43386011D01*
X106528816Y-43445000D01*
X106831184Y-43445000D01*
X107127743Y-43386011D01*
X107407095Y-43270299D01*
X107658505Y-43102312D01*
X107872312Y-42888505D01*
X107950000Y-42772237D01*
X108027688Y-42888505D01*
X108241495Y-43102312D01*
X108492905Y-43270299D01*
X108772257Y-43386011D01*
X109068816Y-43445000D01*
X109371184Y-43445000D01*
X109667743Y-43386011D01*
X109947095Y-43270299D01*
X110198505Y-43102312D01*
X110412312Y-42888505D01*
X110490000Y-42772237D01*
X110567688Y-42888505D01*
X110781495Y-43102312D01*
X111032905Y-43270299D01*
X111312257Y-43386011D01*
X111608816Y-43445000D01*
X111690198Y-43445000D01*
X107841403Y-47293796D01*
X107812399Y-47317599D01*
X107788596Y-47346603D01*
X107635199Y-47500000D01*
X104090901Y-47500000D01*
X104068932Y-47458899D01*
X103889608Y-47240392D01*
X103671101Y-47061068D01*
X103421808Y-46927818D01*
X103151309Y-46845764D01*
X102940492Y-46825000D01*
X102799508Y-46825000D01*
X102588691Y-46845764D01*
X102318192Y-46927818D01*
X102068899Y-47061068D01*
X101850392Y-47240392D01*
X101671068Y-47458899D01*
X101537818Y-47708192D01*
X101455764Y-47978691D01*
X101428057Y-48260000D01*
X95910000Y-48260000D01*
X95910000Y-40444495D01*
X97075000Y-40444495D01*
X97075000Y-40835505D01*
X97151282Y-41219003D01*
X97300915Y-41580250D01*
X97518149Y-41905364D01*
X97794636Y-42181851D01*
X98119750Y-42399085D01*
X98480997Y-42548718D01*
X98864495Y-42625000D01*
X99255505Y-42625000D01*
X99639003Y-42548718D01*
X100000250Y-42399085D01*
X100325364Y-42181851D01*
X100601851Y-41905364D01*
X100819085Y-41580250D01*
X100968718Y-41219003D01*
X101045000Y-40835505D01*
X101045000Y-40444495D01*
X100968718Y-40060997D01*
X100819085Y-39699750D01*
X100601851Y-39374636D01*
X100325364Y-39098149D01*
X100000250Y-38880915D01*
X99639003Y-38731282D01*
X99255505Y-38655000D01*
X98864495Y-38655000D01*
X98480997Y-38731282D01*
X98119750Y-38880915D01*
X97794636Y-39098149D01*
X97518149Y-39374636D01*
X97300915Y-39699750D01*
X97151282Y-40060997D01*
X97075000Y-40444495D01*
X95910000Y-40444495D01*
X95910000Y-37490000D01*
X217780000Y-37490000D01*
X217780000Y-39991666D01*
G36*
X164231928Y-76045400D02*
G01*
X161842456Y-76045400D01*
X161912012Y-75941302D01*
X162072953Y-75552756D01*
X162155000Y-75140279D01*
X162155000Y-74719721D01*
X162072953Y-74307244D01*
X161968860Y-74055942D01*
X162243802Y-73781000D01*
X164231928Y-73781000D01*
X164231928Y-76045400D01*
X164231928Y-76045400D01*
G37*
X164231928Y-76045400D02*
X161842456Y-76045400D01*
X161912012Y-75941302D01*
X162072953Y-75552756D01*
X162155000Y-75140279D01*
X162155000Y-74719721D01*
X162072953Y-74307244D01*
X161968860Y-74055942D01*
X162243802Y-73781000D01*
X164231928Y-73781000D01*
X164231928Y-76045400D01*
G36*
X169557988Y-73918698D02*
G01*
X169397047Y-74307244D01*
X169315000Y-74719721D01*
X169315000Y-75140279D01*
X169397047Y-75552756D01*
X169501140Y-75804059D01*
X169259799Y-76045400D01*
X168508072Y-76045400D01*
X168508072Y-73781000D01*
X169649995Y-73781000D01*
X169557988Y-73918698D01*
X169557988Y-73918698D01*
G37*
X169557988Y-73918698D02*
X169397047Y-74307244D01*
X169315000Y-74719721D01*
X169315000Y-75140279D01*
X169397047Y-75552756D01*
X169501140Y-75804059D01*
X169259799Y-76045400D01*
X168508072Y-76045400D01*
X168508072Y-73781000D01*
X169649995Y-73781000D01*
X169557988Y-73918698D01*
G36*
X174581140Y-74055941D02*
G01*
X174477047Y-74307244D01*
X174395000Y-74719721D01*
X174395000Y-75140279D01*
X174477047Y-75552756D01*
X174637988Y-75941302D01*
X174707544Y-76045400D01*
X173640202Y-76045400D01*
X173398860Y-75804058D01*
X173502953Y-75552756D01*
X173585000Y-75140279D01*
X173585000Y-74719721D01*
X173502953Y-74307244D01*
X173342012Y-73918698D01*
X173250005Y-73781000D01*
X174306199Y-73781000D01*
X174581140Y-74055941D01*
X174581140Y-74055941D01*
G37*
X174581140Y-74055941D02*
X174477047Y-74307244D01*
X174395000Y-74719721D01*
X174395000Y-75140279D01*
X174477047Y-75552756D01*
X174637988Y-75941302D01*
X174707544Y-76045400D01*
X173640202Y-76045400D01*
X173398860Y-75804058D01*
X173502953Y-75552756D01*
X173585000Y-75140279D01*
X173585000Y-74719721D01*
X173502953Y-74307244D01*
X173342012Y-73918698D01*
X173250005Y-73781000D01*
X174306199Y-73781000D01*
X174581140Y-74055941D01*
G36*
X137418698Y-73037988D02*
G01*
X137069017Y-73271637D01*
X136771637Y-73569017D01*
X136537988Y-73918698D01*
X136377047Y-74307244D01*
X136295000Y-74719721D01*
X136295000Y-75140279D01*
X136377047Y-75552756D01*
X136537988Y-75941302D01*
X136607477Y-76045300D01*
X135172523Y-76045300D01*
X135242012Y-75941302D01*
X135402953Y-75552756D01*
X135485000Y-75140279D01*
X135485000Y-74719721D01*
X135402953Y-74307244D01*
X135242012Y-73918698D01*
X135008363Y-73569017D01*
X134710983Y-73271637D01*
X134361302Y-73037988D01*
X134117254Y-72936900D01*
X137662746Y-72936900D01*
X137418698Y-73037988D01*
X137418698Y-73037988D01*
G37*
X137418698Y-73037988D02*
X137069017Y-73271637D01*
X136771637Y-73569017D01*
X136537988Y-73918698D01*
X136377047Y-74307244D01*
X136295000Y-74719721D01*
X136295000Y-75140279D01*
X136377047Y-75552756D01*
X136537988Y-75941302D01*
X136607477Y-76045300D01*
X135172523Y-76045300D01*
X135242012Y-75941302D01*
X135402953Y-75552756D01*
X135485000Y-75140279D01*
X135485000Y-74719721D01*
X135402953Y-74307244D01*
X135242012Y-73918698D01*
X135008363Y-73569017D01*
X134710983Y-73271637D01*
X134361302Y-73037988D01*
X134117254Y-72936900D01*
X137662746Y-72936900D01*
X137418698Y-73037988D01*
G36*
X147908815Y-72978815D02*
G01*
X147829463Y-73075506D01*
X147770498Y-73185820D01*
X147734188Y-73305518D01*
X147721928Y-73430000D01*
X147721928Y-74215513D01*
X147692453Y-74224454D01*
X147560424Y-74295026D01*
X147444699Y-74389999D01*
X147420901Y-74418997D01*
X145794599Y-76045300D01*
X140252523Y-76045300D01*
X140322012Y-75941302D01*
X140482953Y-75552756D01*
X140565000Y-75140279D01*
X140565000Y-74719721D01*
X140482953Y-74307244D01*
X140322012Y-73918698D01*
X140088363Y-73569017D01*
X139790983Y-73271637D01*
X139441302Y-73037988D01*
X139197254Y-72936900D01*
X147959889Y-72936900D01*
X147908815Y-72978815D01*
X147908815Y-72978815D01*
G37*
X147908815Y-72978815D02*
X147829463Y-73075506D01*
X147770498Y-73185820D01*
X147734188Y-73305518D01*
X147721928Y-73430000D01*
X147721928Y-74215513D01*
X147692453Y-74224454D01*
X147560424Y-74295026D01*
X147444699Y-74389999D01*
X147420901Y-74418997D01*
X145794599Y-76045300D01*
X140252523Y-76045300D01*
X140322012Y-75941302D01*
X140482953Y-75552756D01*
X140565000Y-75140279D01*
X140565000Y-74719721D01*
X140482953Y-74307244D01*
X140322012Y-73918698D01*
X140088363Y-73569017D01*
X139790983Y-73271637D01*
X139441302Y-73037988D01*
X139197254Y-72936900D01*
X147959889Y-72936900D01*
X147908815Y-72978815D01*
G36*
X131401140Y-74055941D02*
G01*
X131297047Y-74307244D01*
X131215000Y-74719721D01*
X131215000Y-74924899D01*
X130709104Y-74419003D01*
X130685301Y-74389999D01*
X130569576Y-74295026D01*
X130437547Y-74224454D01*
X130408072Y-74215513D01*
X130408072Y-73607700D01*
X130952899Y-73607700D01*
X131401140Y-74055941D01*
X131401140Y-74055941D01*
G37*
X131401140Y-74055941D02*
X131297047Y-74307244D01*
X131215000Y-74719721D01*
X131215000Y-74924899D01*
X130709104Y-74419003D01*
X130685301Y-74389999D01*
X130569576Y-74295026D01*
X130437547Y-74224454D01*
X130408072Y-74215513D01*
X130408072Y-73607700D01*
X130952899Y-73607700D01*
X131401140Y-74055941D01*
G36*
X132379453Y-72882446D02*
G01*
X132522714Y-72925903D01*
X132592663Y-72932792D01*
X132475941Y-72981140D01*
X132374714Y-72879913D01*
X132379453Y-72882446D01*
X132379453Y-72882446D01*
G37*
X132379453Y-72882446D02*
X132522714Y-72925903D01*
X132592663Y-72932792D01*
X132475941Y-72981140D01*
X132374714Y-72879913D01*
X132379453Y-72882446D01*
G36*
X115647688Y-42888505D02*
G01*
X115861495Y-43102312D01*
X116112905Y-43270299D01*
X116392257Y-43386011D01*
X116688816Y-43445000D01*
X116991184Y-43445000D01*
X117248930Y-43393731D01*
X128780001Y-54924803D01*
X128780000Y-66091957D01*
X128625241Y-66195363D01*
X128425363Y-66395241D01*
X128268320Y-66630273D01*
X128248273Y-66678671D01*
X109427201Y-47857600D01*
X113891070Y-43393731D01*
X114148816Y-43445000D01*
X114451184Y-43445000D01*
X114747743Y-43386011D01*
X115027095Y-43270299D01*
X115278505Y-43102312D01*
X115492312Y-42888505D01*
X115570000Y-42772237D01*
X115647688Y-42888505D01*
X115647688Y-42888505D01*
G37*
X115647688Y-42888505D02*
X115861495Y-43102312D01*
X116112905Y-43270299D01*
X116392257Y-43386011D01*
X116688816Y-43445000D01*
X116991184Y-43445000D01*
X117248930Y-43393731D01*
X128780001Y-54924803D01*
X128780000Y-66091957D01*
X128625241Y-66195363D01*
X128425363Y-66395241D01*
X128268320Y-66630273D01*
X128248273Y-66678671D01*
X109427201Y-47857600D01*
X113891070Y-43393731D01*
X114148816Y-43445000D01*
X114451184Y-43445000D01*
X114747743Y-43386011D01*
X115027095Y-43270299D01*
X115278505Y-43102312D01*
X115492312Y-42888505D01*
X115570000Y-42772237D01*
X115647688Y-42888505D01*
G36*
X168849463Y-51954494D02*
G01*
X168928815Y-52051185D01*
X169025506Y-52130537D01*
X169135820Y-52189502D01*
X169255518Y-52225812D01*
X169380000Y-52238072D01*
X169465514Y-52238072D01*
X169474454Y-52267546D01*
X169545026Y-52399576D01*
X169616201Y-52486302D01*
X169640000Y-52515301D01*
X169668998Y-52539099D01*
X172400000Y-55270103D01*
X172400000Y-55992091D01*
X172277114Y-56074201D01*
X172084201Y-56267114D01*
X171932629Y-56493957D01*
X171890000Y-56596873D01*
X171847371Y-56493957D01*
X171695799Y-56267114D01*
X171502886Y-56074201D01*
X171276043Y-55922629D01*
X171023989Y-55818225D01*
X170756411Y-55765000D01*
X170483589Y-55765000D01*
X170216011Y-55818225D01*
X169963957Y-55922629D01*
X169737114Y-56074201D01*
X169544201Y-56267114D01*
X169466445Y-56383483D01*
X169455812Y-56275518D01*
X169419502Y-56155820D01*
X169360537Y-56045506D01*
X169281185Y-55948815D01*
X169184494Y-55869463D01*
X169074180Y-55810498D01*
X168954482Y-55774188D01*
X168840000Y-55762913D01*
X168840000Y-51936790D01*
X168849463Y-51954494D01*
X168849463Y-51954494D01*
G37*
X168849463Y-51954494D02*
X168928815Y-52051185D01*
X169025506Y-52130537D01*
X169135820Y-52189502D01*
X169255518Y-52225812D01*
X169380000Y-52238072D01*
X169465514Y-52238072D01*
X169474454Y-52267546D01*
X169545026Y-52399576D01*
X169616201Y-52486302D01*
X169640000Y-52515301D01*
X169668998Y-52539099D01*
X172400000Y-55270103D01*
X172400000Y-55992091D01*
X172277114Y-56074201D01*
X172084201Y-56267114D01*
X171932629Y-56493957D01*
X171890000Y-56596873D01*
X171847371Y-56493957D01*
X171695799Y-56267114D01*
X171502886Y-56074201D01*
X171276043Y-55922629D01*
X171023989Y-55818225D01*
X170756411Y-55765000D01*
X170483589Y-55765000D01*
X170216011Y-55818225D01*
X169963957Y-55922629D01*
X169737114Y-56074201D01*
X169544201Y-56267114D01*
X169466445Y-56383483D01*
X169455812Y-56275518D01*
X169419502Y-56155820D01*
X169360537Y-56045506D01*
X169281185Y-55948815D01*
X169184494Y-55869463D01*
X169074180Y-55810498D01*
X168954482Y-55774188D01*
X168840000Y-55762913D01*
X168840000Y-51936790D01*
X168849463Y-51954494D01*
G36*
X139563589Y-58535000D02*
G01*
X139836411Y-58535000D01*
X139981365Y-58506167D01*
X140177801Y-58702603D01*
X140177801Y-60457699D01*
X139315700Y-59595599D01*
X139315700Y-58485691D01*
X139563589Y-58535000D01*
X139563589Y-58535000D01*
G37*
X139563589Y-58535000D02*
X139836411Y-58535000D01*
X139981365Y-58506167D01*
X140177801Y-58702603D01*
X140177801Y-60457699D01*
X139315700Y-59595599D01*
X139315700Y-58485691D01*
X139563589Y-58535000D01*
G36*
X156252629Y-57806043D02*
G01*
X156404201Y-58032886D01*
X156597114Y-58225799D01*
X156655252Y-58264645D01*
X154430000Y-60489899D01*
X154430000Y-58734801D01*
X154658635Y-58506167D01*
X154803589Y-58535000D01*
X155076411Y-58535000D01*
X155343989Y-58481775D01*
X155596043Y-58377371D01*
X155822886Y-58225799D01*
X156015799Y-58032886D01*
X156167371Y-57806043D01*
X156210000Y-57703127D01*
X156252629Y-57806043D01*
X156252629Y-57806043D01*
G37*
X156252629Y-57806043D02*
X156404201Y-58032886D01*
X156597114Y-58225799D01*
X156655252Y-58264645D01*
X154430000Y-60489899D01*
X154430000Y-58734801D01*
X154658635Y-58506167D01*
X154803589Y-58535000D01*
X155076411Y-58535000D01*
X155343989Y-58481775D01*
X155596043Y-58377371D01*
X155822886Y-58225799D01*
X156015799Y-58032886D01*
X156167371Y-57806043D01*
X156210000Y-57703127D01*
X156252629Y-57806043D01*
G36*
X201972629Y-57806043D02*
G01*
X202124201Y-58032886D01*
X202317114Y-58225799D01*
X202375252Y-58264645D01*
X201420000Y-59219898D01*
X201420000Y-58307909D01*
X201542886Y-58225799D01*
X201735799Y-58032886D01*
X201887371Y-57806043D01*
X201930000Y-57703127D01*
X201972629Y-57806043D01*
X201972629Y-57806043D01*
G37*
X201972629Y-57806043D02*
X202124201Y-58032886D01*
X202317114Y-58225799D01*
X202375252Y-58264645D01*
X201420000Y-59219898D01*
X201420000Y-58307909D01*
X201542886Y-58225799D01*
X201735799Y-58032886D01*
X201887371Y-57806043D01*
X201930000Y-57703127D01*
X201972629Y-57806043D01*
M02*
