G04 #@! TF.GenerationSoftware,KiCad,Pcbnew,(5.1.2)-2*
G04 #@! TF.CreationDate,2019-08-15T12:47:13-04:00*
G04 #@! TF.ProjectId,esp8266v1,65737038-3236-4367-9631-2e6b69636164,rev?*
G04 #@! TF.SameCoordinates,Original*
G04 #@! TF.FileFunction,Legend,Top*
G04 #@! TF.FilePolarity,Positive*
%FSLAX46Y46*%
G04 Gerber Fmt 4.6, Leading zero omitted, Abs format (unit mm)*
G04 Created by KiCad (PCBNEW (5.1.2)-2) date 2019-08-15 12:47:13*
%MOMM*%
%LPD*%
G04 APERTURE LIST*
%ADD10C,0.120000*%
%ADD11C,0.100000*%
%ADD12C,0.090000*%
%ADD13C,0.150000*%
G04 APERTURE END LIST*
D10*
X202962383Y-58262264D02*
G75*
G02X202570000Y-58850000I-2302383J1112264D01*
G01*
X203016400Y-56051193D02*
G75*
G03X200660000Y-54550000I-2356400J-1098807D01*
G01*
X198303600Y-56051193D02*
G75*
G02X200660000Y-54550000I2356400J-1098807D01*
G01*
X198337369Y-58272045D02*
G75*
G03X198720000Y-58850000I2322631J1122045D01*
G01*
X198720000Y-58850000D02*
X202570000Y-58850000D01*
X157242383Y-58262264D02*
G75*
G02X156850000Y-58850000I-2302383J1112264D01*
G01*
X157296400Y-56051193D02*
G75*
G03X154940000Y-54550000I-2356400J-1098807D01*
G01*
X152583600Y-56051193D02*
G75*
G02X154940000Y-54550000I2356400J-1098807D01*
G01*
X152617369Y-58272045D02*
G75*
G03X153000000Y-58850000I2322631J1122045D01*
G01*
X153000000Y-58850000D02*
X156850000Y-58850000D01*
X187722383Y-58262264D02*
G75*
G02X187330000Y-58850000I-2302383J1112264D01*
G01*
X187776400Y-56051193D02*
G75*
G03X185420000Y-54550000I-2356400J-1098807D01*
G01*
X183063600Y-56051193D02*
G75*
G02X185420000Y-54550000I2356400J-1098807D01*
G01*
X183097369Y-58272045D02*
G75*
G03X183480000Y-58850000I2322631J1122045D01*
G01*
X183480000Y-58850000D02*
X187330000Y-58850000D01*
X142002383Y-58262264D02*
G75*
G02X141610000Y-58850000I-2302383J1112264D01*
G01*
X142056400Y-56051193D02*
G75*
G03X139700000Y-54550000I-2356400J-1098807D01*
G01*
X137343600Y-56051193D02*
G75*
G02X139700000Y-54550000I2356400J-1098807D01*
G01*
X137377369Y-58272045D02*
G75*
G03X137760000Y-58850000I2322631J1122045D01*
G01*
X137760000Y-58850000D02*
X141610000Y-58850000D01*
X172922383Y-58262264D02*
G75*
G02X172530000Y-58850000I-2302383J1112264D01*
G01*
X172976400Y-56051193D02*
G75*
G03X170620000Y-54550000I-2356400J-1098807D01*
G01*
X168263600Y-56051193D02*
G75*
G02X170620000Y-54550000I2356400J-1098807D01*
G01*
X168297369Y-58272045D02*
G75*
G03X168680000Y-58850000I2322631J1122045D01*
G01*
X168680000Y-58850000D02*
X172530000Y-58850000D01*
X125730000Y-78740000D02*
X140970000Y-78740000D01*
X125730000Y-71120000D02*
X140970000Y-71120000D01*
X125730000Y-77470000D02*
X140970000Y-77470000D01*
X140970000Y-78740000D02*
X140970000Y-71120000D01*
X125730000Y-78740000D02*
X125730000Y-71120000D01*
D11*
X126744575Y-65975482D02*
X125851807Y-66091078D01*
X127499613Y-65747122D02*
X126744575Y-65975482D01*
X128131460Y-65419595D02*
X127499613Y-65747122D01*
X128654658Y-65006503D02*
X128131460Y-65419595D01*
X129083743Y-64521445D02*
X128654658Y-65006503D01*
X129433258Y-63978018D02*
X129083743Y-64521445D01*
X129717741Y-63389824D02*
X129433258Y-63978018D01*
X129951734Y-62770460D02*
X129717741Y-63389824D01*
X129922976Y-43732547D02*
X129951734Y-62770460D01*
X129737310Y-43134750D02*
X129922976Y-43732547D01*
X129490377Y-42590560D02*
X129737310Y-43134750D01*
X129182741Y-42099488D02*
X129490377Y-42590560D01*
X128814952Y-41661047D02*
X129182741Y-42099488D01*
X128387577Y-41274747D02*
X128814952Y-41661047D01*
X127901167Y-40940099D02*
X128387577Y-41274747D01*
X127356286Y-40656616D02*
X127901167Y-40940099D01*
X126753493Y-40423805D02*
X127356286Y-40656616D01*
X95583342Y-40409807D02*
X126753493Y-40423805D01*
D12*
X95585000Y-66115000D02*
X103285000Y-66115000D01*
X95585000Y-40415000D02*
X95585000Y-66115000D01*
X103310000Y-66115000D02*
X125835000Y-66090000D01*
D10*
X102870000Y-49300000D02*
X102870000Y-50070000D01*
X102870000Y-57380000D02*
X102870000Y-56610000D01*
X101500000Y-50070000D02*
X101500000Y-56610000D01*
X104240000Y-50070000D02*
X101500000Y-50070000D01*
X104240000Y-56610000D02*
X104240000Y-50070000D01*
X101500000Y-56610000D02*
X104240000Y-56610000D01*
X201700000Y-62230000D02*
X202470000Y-62230000D01*
X209780000Y-62230000D02*
X209010000Y-62230000D01*
X202470000Y-63600000D02*
X209010000Y-63600000D01*
X202470000Y-60860000D02*
X202470000Y-63600000D01*
X209010000Y-60860000D02*
X202470000Y-60860000D01*
X209010000Y-63600000D02*
X209010000Y-60860000D01*
X155980000Y-62230000D02*
X156750000Y-62230000D01*
X164060000Y-62230000D02*
X163290000Y-62230000D01*
X156750000Y-63600000D02*
X163290000Y-63600000D01*
X156750000Y-60860000D02*
X156750000Y-63600000D01*
X163290000Y-60860000D02*
X156750000Y-60860000D01*
X163290000Y-63600000D02*
X163290000Y-60860000D01*
X194540000Y-67310000D02*
X193770000Y-67310000D01*
X186460000Y-67310000D02*
X187230000Y-67310000D01*
X193770000Y-65940000D02*
X187230000Y-65940000D01*
X193770000Y-68680000D02*
X193770000Y-65940000D01*
X187230000Y-68680000D02*
X193770000Y-68680000D01*
X187230000Y-65940000D02*
X187230000Y-68680000D01*
X152630000Y-67310000D02*
X151860000Y-67310000D01*
X144550000Y-67310000D02*
X145320000Y-67310000D01*
X151860000Y-65940000D02*
X145320000Y-65940000D01*
X151860000Y-68680000D02*
X151860000Y-65940000D01*
X145320000Y-68680000D02*
X151860000Y-68680000D01*
X145320000Y-65940000D02*
X145320000Y-68680000D01*
X186460000Y-62230000D02*
X187230000Y-62230000D01*
X194540000Y-62230000D02*
X193770000Y-62230000D01*
X187230000Y-63600000D02*
X193770000Y-63600000D01*
X187230000Y-60860000D02*
X187230000Y-63600000D01*
X193770000Y-60860000D02*
X187230000Y-60860000D01*
X193770000Y-63600000D02*
X193770000Y-60860000D01*
X140740000Y-62230000D02*
X141510000Y-62230000D01*
X148820000Y-62230000D02*
X148050000Y-62230000D01*
X141510000Y-63600000D02*
X148050000Y-63600000D01*
X141510000Y-60860000D02*
X141510000Y-63600000D01*
X148050000Y-60860000D02*
X141510000Y-60860000D01*
X148050000Y-63600000D02*
X148050000Y-60860000D01*
X180570000Y-67310000D02*
X179800000Y-67310000D01*
X172490000Y-67310000D02*
X173260000Y-67310000D01*
X179800000Y-65940000D02*
X173260000Y-65940000D01*
X179800000Y-68680000D02*
X179800000Y-65940000D01*
X173260000Y-68680000D02*
X179800000Y-68680000D01*
X173260000Y-65940000D02*
X173260000Y-68680000D01*
X138660000Y-67310000D02*
X137890000Y-67310000D01*
X130580000Y-67310000D02*
X131350000Y-67310000D01*
X137890000Y-65940000D02*
X131350000Y-65940000D01*
X137890000Y-68680000D02*
X137890000Y-65940000D01*
X131350000Y-68680000D02*
X137890000Y-68680000D01*
X131350000Y-65940000D02*
X131350000Y-68680000D01*
X171220000Y-62230000D02*
X171990000Y-62230000D01*
X179300000Y-62230000D02*
X178530000Y-62230000D01*
X171990000Y-63600000D02*
X178530000Y-63600000D01*
X171990000Y-60860000D02*
X171990000Y-63600000D01*
X178530000Y-60860000D02*
X171990000Y-60860000D01*
X178530000Y-63600000D02*
X178530000Y-60860000D01*
X166600000Y-67310000D02*
X165830000Y-67310000D01*
X158520000Y-67310000D02*
X159290000Y-67310000D01*
X165830000Y-65940000D02*
X159290000Y-65940000D01*
X165830000Y-68680000D02*
X165830000Y-65940000D01*
X159290000Y-68680000D02*
X165830000Y-68680000D01*
X159290000Y-65940000D02*
X159290000Y-68680000D01*
X196850000Y-78740000D02*
X212090000Y-78740000D01*
X196850000Y-71120000D02*
X212090000Y-71120000D01*
X196850000Y-77470000D02*
X212090000Y-77470000D01*
X212090000Y-78740000D02*
X212090000Y-71120000D01*
X196850000Y-78740000D02*
X196850000Y-71120000D01*
X180340000Y-78740000D02*
X195580000Y-78740000D01*
X180340000Y-71120000D02*
X195580000Y-71120000D01*
X180340000Y-77470000D02*
X195580000Y-77470000D01*
X195580000Y-78740000D02*
X195580000Y-71120000D01*
X180340000Y-78740000D02*
X180340000Y-71120000D01*
X196850000Y-44450000D02*
X212090000Y-44450000D01*
X196850000Y-36830000D02*
X212090000Y-36830000D01*
X196850000Y-43180000D02*
X212090000Y-43180000D01*
X212090000Y-44450000D02*
X212090000Y-36830000D01*
X196850000Y-44450000D02*
X196850000Y-36830000D01*
X147320000Y-44450000D02*
X162560000Y-44450000D01*
X147320000Y-36830000D02*
X162560000Y-36830000D01*
X147320000Y-43180000D02*
X162560000Y-43180000D01*
X162560000Y-44450000D02*
X162560000Y-36830000D01*
X147320000Y-44450000D02*
X147320000Y-36830000D01*
X163830000Y-78740000D02*
X179070000Y-78740000D01*
X163830000Y-71120000D02*
X179070000Y-71120000D01*
X163830000Y-77470000D02*
X179070000Y-77470000D01*
X179070000Y-78740000D02*
X179070000Y-71120000D01*
X163830000Y-78740000D02*
X163830000Y-71120000D01*
X147320000Y-78740000D02*
X162560000Y-78740000D01*
X147320000Y-71120000D02*
X162560000Y-71120000D01*
X147320000Y-77470000D02*
X162560000Y-77470000D01*
X162560000Y-78740000D02*
X162560000Y-71120000D01*
X147320000Y-78740000D02*
X147320000Y-71120000D01*
X180340000Y-44450000D02*
X195580000Y-44450000D01*
X180340000Y-36830000D02*
X195580000Y-36830000D01*
X180340000Y-43180000D02*
X195580000Y-43180000D01*
X195580000Y-44450000D02*
X195580000Y-36830000D01*
X180340000Y-44450000D02*
X180340000Y-36830000D01*
X130810000Y-44450000D02*
X146050000Y-44450000D01*
X130810000Y-36830000D02*
X146050000Y-36830000D01*
X130810000Y-43180000D02*
X146050000Y-43180000D01*
X146050000Y-44450000D02*
X146050000Y-36830000D01*
X130810000Y-44450000D02*
X130810000Y-36830000D01*
X163830000Y-44450000D02*
X179070000Y-44450000D01*
X163830000Y-36830000D02*
X179070000Y-36830000D01*
X163830000Y-43180000D02*
X179070000Y-43180000D01*
X179070000Y-44450000D02*
X179070000Y-36830000D01*
X163830000Y-44450000D02*
X163830000Y-36830000D01*
X210629837Y-54838870D02*
G75*
G02X210630000Y-56920961I-1079837J-1041130D01*
G01*
X208470163Y-54838870D02*
G75*
G03X208470000Y-56920961I1079837J-1041130D01*
G01*
X210628608Y-54207665D02*
G75*
G02X210785516Y-57440000I-1078608J-1672335D01*
G01*
X208471392Y-54207665D02*
G75*
G03X208314484Y-57440000I1078608J-1672335D01*
G01*
X210630000Y-57440000D02*
X210786000Y-57440000D01*
X208314000Y-57440000D02*
X208470000Y-57440000D01*
X163639837Y-54838870D02*
G75*
G02X163640000Y-56920961I-1079837J-1041130D01*
G01*
X161480163Y-54838870D02*
G75*
G03X161480000Y-56920961I1079837J-1041130D01*
G01*
X163638608Y-54207665D02*
G75*
G02X163795516Y-57440000I-1078608J-1672335D01*
G01*
X161481392Y-54207665D02*
G75*
G03X161324484Y-57440000I1078608J-1672335D01*
G01*
X163640000Y-57440000D02*
X163796000Y-57440000D01*
X161324000Y-57440000D02*
X161480000Y-57440000D01*
X204220000Y-49680000D02*
X204220000Y-51920000D01*
X204460000Y-49680000D02*
X204460000Y-51920000D01*
X204340000Y-49680000D02*
X204340000Y-51920000D01*
X209780000Y-50800000D02*
X207860000Y-50800000D01*
X201700000Y-50800000D02*
X203620000Y-50800000D01*
X207860000Y-49680000D02*
X203620000Y-49680000D01*
X207860000Y-51920000D02*
X207860000Y-49680000D01*
X203620000Y-51920000D02*
X207860000Y-51920000D01*
X203620000Y-49680000D02*
X203620000Y-51920000D01*
X158500000Y-49680000D02*
X158500000Y-51920000D01*
X158740000Y-49680000D02*
X158740000Y-51920000D01*
X158620000Y-49680000D02*
X158620000Y-51920000D01*
X164060000Y-50800000D02*
X162140000Y-50800000D01*
X155980000Y-50800000D02*
X157900000Y-50800000D01*
X162140000Y-49680000D02*
X157900000Y-49680000D01*
X162140000Y-51920000D02*
X162140000Y-49680000D01*
X157900000Y-51920000D02*
X162140000Y-51920000D01*
X157900000Y-49680000D02*
X157900000Y-51920000D01*
X194119837Y-54838870D02*
G75*
G02X194120000Y-56920961I-1079837J-1041130D01*
G01*
X191960163Y-54838870D02*
G75*
G03X191960000Y-56920961I1079837J-1041130D01*
G01*
X194118608Y-54207665D02*
G75*
G02X194275516Y-57440000I-1078608J-1672335D01*
G01*
X191961392Y-54207665D02*
G75*
G03X191804484Y-57440000I1078608J-1672335D01*
G01*
X194120000Y-57440000D02*
X194276000Y-57440000D01*
X191804000Y-57440000D02*
X191960000Y-57440000D01*
X148399837Y-54838870D02*
G75*
G02X148400000Y-56920961I-1079837J-1041130D01*
G01*
X146240163Y-54838870D02*
G75*
G03X146240000Y-56920961I1079837J-1041130D01*
G01*
X148398608Y-54207665D02*
G75*
G02X148555516Y-57440000I-1078608J-1672335D01*
G01*
X146241392Y-54207665D02*
G75*
G03X146084484Y-57440000I1078608J-1672335D01*
G01*
X148400000Y-57440000D02*
X148556000Y-57440000D01*
X146084000Y-57440000D02*
X146240000Y-57440000D01*
X188980000Y-49680000D02*
X188980000Y-51920000D01*
X189220000Y-49680000D02*
X189220000Y-51920000D01*
X189100000Y-49680000D02*
X189100000Y-51920000D01*
X194540000Y-50800000D02*
X192620000Y-50800000D01*
X186460000Y-50800000D02*
X188380000Y-50800000D01*
X192620000Y-49680000D02*
X188380000Y-49680000D01*
X192620000Y-51920000D02*
X192620000Y-49680000D01*
X188380000Y-51920000D02*
X192620000Y-51920000D01*
X188380000Y-49680000D02*
X188380000Y-51920000D01*
X143260000Y-49680000D02*
X143260000Y-51920000D01*
X143500000Y-49680000D02*
X143500000Y-51920000D01*
X143380000Y-49680000D02*
X143380000Y-51920000D01*
X148820000Y-50800000D02*
X146900000Y-50800000D01*
X140740000Y-50800000D02*
X142660000Y-50800000D01*
X146900000Y-49680000D02*
X142660000Y-49680000D01*
X146900000Y-51920000D02*
X146900000Y-49680000D01*
X142660000Y-51920000D02*
X146900000Y-51920000D01*
X142660000Y-49680000D02*
X142660000Y-51920000D01*
X178879837Y-54838870D02*
G75*
G02X178880000Y-56920961I-1079837J-1041130D01*
G01*
X176720163Y-54838870D02*
G75*
G03X176720000Y-56920961I1079837J-1041130D01*
G01*
X178878608Y-54207665D02*
G75*
G02X179035516Y-57440000I-1078608J-1672335D01*
G01*
X176721392Y-54207665D02*
G75*
G03X176564484Y-57440000I1078608J-1672335D01*
G01*
X178880000Y-57440000D02*
X179036000Y-57440000D01*
X176564000Y-57440000D02*
X176720000Y-57440000D01*
X173740000Y-49680000D02*
X173740000Y-51920000D01*
X173980000Y-49680000D02*
X173980000Y-51920000D01*
X173860000Y-49680000D02*
X173860000Y-51920000D01*
X179300000Y-50800000D02*
X177380000Y-50800000D01*
X171220000Y-50800000D02*
X173140000Y-50800000D01*
X177380000Y-49680000D02*
X173140000Y-49680000D01*
X177380000Y-51920000D02*
X177380000Y-49680000D01*
X173140000Y-51920000D02*
X177380000Y-51920000D01*
X173140000Y-49680000D02*
X173140000Y-51920000D01*
D13*
X97726666Y-71682380D02*
X97393333Y-71206190D01*
X97155238Y-71682380D02*
X97155238Y-70682380D01*
X97536190Y-70682380D01*
X97631428Y-70730000D01*
X97679047Y-70777619D01*
X97726666Y-70872857D01*
X97726666Y-71015714D01*
X97679047Y-71110952D01*
X97631428Y-71158571D01*
X97536190Y-71206190D01*
X97155238Y-71206190D01*
X98155238Y-71158571D02*
X98488571Y-71158571D01*
X98631428Y-71682380D02*
X98155238Y-71682380D01*
X98155238Y-70682380D01*
X98631428Y-70682380D01*
X99393333Y-71158571D02*
X99060000Y-71158571D01*
X99060000Y-71682380D02*
X99060000Y-70682380D01*
X99536190Y-70682380D01*
X100060000Y-70682380D02*
X100060000Y-70920476D01*
X99821904Y-70825238D02*
X100060000Y-70920476D01*
X100298095Y-70825238D01*
X99917142Y-71110952D02*
X100060000Y-70920476D01*
X100202857Y-71110952D01*
X100821904Y-70682380D02*
X100821904Y-70920476D01*
X100583809Y-70825238D02*
X100821904Y-70920476D01*
X101060000Y-70825238D01*
X100679047Y-71110952D02*
X100821904Y-70920476D01*
X100964761Y-71110952D01*
X214566666Y-71682380D02*
X214233333Y-71206190D01*
X213995238Y-71682380D02*
X213995238Y-70682380D01*
X214376190Y-70682380D01*
X214471428Y-70730000D01*
X214519047Y-70777619D01*
X214566666Y-70872857D01*
X214566666Y-71015714D01*
X214519047Y-71110952D01*
X214471428Y-71158571D01*
X214376190Y-71206190D01*
X213995238Y-71206190D01*
X214995238Y-71158571D02*
X215328571Y-71158571D01*
X215471428Y-71682380D02*
X214995238Y-71682380D01*
X214995238Y-70682380D01*
X215471428Y-70682380D01*
X216233333Y-71158571D02*
X215900000Y-71158571D01*
X215900000Y-71682380D02*
X215900000Y-70682380D01*
X216376190Y-70682380D01*
X216900000Y-70682380D02*
X216900000Y-70920476D01*
X216661904Y-70825238D02*
X216900000Y-70920476D01*
X217138095Y-70825238D01*
X216757142Y-71110952D02*
X216900000Y-70920476D01*
X217042857Y-71110952D01*
X217661904Y-70682380D02*
X217661904Y-70920476D01*
X217423809Y-70825238D02*
X217661904Y-70920476D01*
X217900000Y-70825238D01*
X217519047Y-71110952D02*
X217661904Y-70920476D01*
X217804761Y-71110952D01*
X214566666Y-37392380D02*
X214233333Y-36916190D01*
X213995238Y-37392380D02*
X213995238Y-36392380D01*
X214376190Y-36392380D01*
X214471428Y-36440000D01*
X214519047Y-36487619D01*
X214566666Y-36582857D01*
X214566666Y-36725714D01*
X214519047Y-36820952D01*
X214471428Y-36868571D01*
X214376190Y-36916190D01*
X213995238Y-36916190D01*
X214995238Y-36868571D02*
X215328571Y-36868571D01*
X215471428Y-37392380D02*
X214995238Y-37392380D01*
X214995238Y-36392380D01*
X215471428Y-36392380D01*
X216233333Y-36868571D02*
X215900000Y-36868571D01*
X215900000Y-37392380D02*
X215900000Y-36392380D01*
X216376190Y-36392380D01*
X216900000Y-36392380D02*
X216900000Y-36630476D01*
X216661904Y-36535238D02*
X216900000Y-36630476D01*
X217138095Y-36535238D01*
X216757142Y-36820952D02*
X216900000Y-36630476D01*
X217042857Y-36820952D01*
X217661904Y-36392380D02*
X217661904Y-36630476D01*
X217423809Y-36535238D02*
X217661904Y-36630476D01*
X217900000Y-36535238D01*
X217519047Y-36820952D02*
X217661904Y-36630476D01*
X217804761Y-36820952D01*
X97726666Y-37392380D02*
X97393333Y-36916190D01*
X97155238Y-37392380D02*
X97155238Y-36392380D01*
X97536190Y-36392380D01*
X97631428Y-36440000D01*
X97679047Y-36487619D01*
X97726666Y-36582857D01*
X97726666Y-36725714D01*
X97679047Y-36820952D01*
X97631428Y-36868571D01*
X97536190Y-36916190D01*
X97155238Y-36916190D01*
X98155238Y-36868571D02*
X98488571Y-36868571D01*
X98631428Y-37392380D02*
X98155238Y-37392380D01*
X98155238Y-36392380D01*
X98631428Y-36392380D01*
X99393333Y-36868571D02*
X99060000Y-36868571D01*
X99060000Y-37392380D02*
X99060000Y-36392380D01*
X99536190Y-36392380D01*
X100060000Y-36392380D02*
X100060000Y-36630476D01*
X99821904Y-36535238D02*
X100060000Y-36630476D01*
X100298095Y-36535238D01*
X99917142Y-36820952D02*
X100060000Y-36630476D01*
X100202857Y-36820952D01*
X100821904Y-36392380D02*
X100821904Y-36630476D01*
X100583809Y-36535238D02*
X100821904Y-36630476D01*
X101060000Y-36535238D01*
X100679047Y-36820952D02*
X100821904Y-36630476D01*
X100964761Y-36820952D01*
X200564761Y-54137619D02*
X200469523Y-54090000D01*
X200374285Y-53994761D01*
X200231428Y-53851904D01*
X200136190Y-53804285D01*
X200040952Y-53804285D01*
X200088571Y-54042380D02*
X199993333Y-53994761D01*
X199898095Y-53899523D01*
X199850476Y-53709047D01*
X199850476Y-53375714D01*
X199898095Y-53185238D01*
X199993333Y-53090000D01*
X200088571Y-53042380D01*
X200279047Y-53042380D01*
X200374285Y-53090000D01*
X200469523Y-53185238D01*
X200517142Y-53375714D01*
X200517142Y-53709047D01*
X200469523Y-53899523D01*
X200374285Y-53994761D01*
X200279047Y-54042380D01*
X200088571Y-54042380D01*
X201421904Y-53042380D02*
X200945714Y-53042380D01*
X200898095Y-53518571D01*
X200945714Y-53470952D01*
X201040952Y-53423333D01*
X201279047Y-53423333D01*
X201374285Y-53470952D01*
X201421904Y-53518571D01*
X201469523Y-53613809D01*
X201469523Y-53851904D01*
X201421904Y-53947142D01*
X201374285Y-53994761D01*
X201279047Y-54042380D01*
X201040952Y-54042380D01*
X200945714Y-53994761D01*
X200898095Y-53947142D01*
X154844761Y-54137619D02*
X154749523Y-54090000D01*
X154654285Y-53994761D01*
X154511428Y-53851904D01*
X154416190Y-53804285D01*
X154320952Y-53804285D01*
X154368571Y-54042380D02*
X154273333Y-53994761D01*
X154178095Y-53899523D01*
X154130476Y-53709047D01*
X154130476Y-53375714D01*
X154178095Y-53185238D01*
X154273333Y-53090000D01*
X154368571Y-53042380D01*
X154559047Y-53042380D01*
X154654285Y-53090000D01*
X154749523Y-53185238D01*
X154797142Y-53375714D01*
X154797142Y-53709047D01*
X154749523Y-53899523D01*
X154654285Y-53994761D01*
X154559047Y-54042380D01*
X154368571Y-54042380D01*
X155654285Y-53375714D02*
X155654285Y-54042380D01*
X155416190Y-52994761D02*
X155178095Y-53709047D01*
X155797142Y-53709047D01*
X185324761Y-54137619D02*
X185229523Y-54090000D01*
X185134285Y-53994761D01*
X184991428Y-53851904D01*
X184896190Y-53804285D01*
X184800952Y-53804285D01*
X184848571Y-54042380D02*
X184753333Y-53994761D01*
X184658095Y-53899523D01*
X184610476Y-53709047D01*
X184610476Y-53375714D01*
X184658095Y-53185238D01*
X184753333Y-53090000D01*
X184848571Y-53042380D01*
X185039047Y-53042380D01*
X185134285Y-53090000D01*
X185229523Y-53185238D01*
X185277142Y-53375714D01*
X185277142Y-53709047D01*
X185229523Y-53899523D01*
X185134285Y-53994761D01*
X185039047Y-54042380D01*
X184848571Y-54042380D01*
X185610476Y-53042380D02*
X186229523Y-53042380D01*
X185896190Y-53423333D01*
X186039047Y-53423333D01*
X186134285Y-53470952D01*
X186181904Y-53518571D01*
X186229523Y-53613809D01*
X186229523Y-53851904D01*
X186181904Y-53947142D01*
X186134285Y-53994761D01*
X186039047Y-54042380D01*
X185753333Y-54042380D01*
X185658095Y-53994761D01*
X185610476Y-53947142D01*
X139604761Y-54137619D02*
X139509523Y-54090000D01*
X139414285Y-53994761D01*
X139271428Y-53851904D01*
X139176190Y-53804285D01*
X139080952Y-53804285D01*
X139128571Y-54042380D02*
X139033333Y-53994761D01*
X138938095Y-53899523D01*
X138890476Y-53709047D01*
X138890476Y-53375714D01*
X138938095Y-53185238D01*
X139033333Y-53090000D01*
X139128571Y-53042380D01*
X139319047Y-53042380D01*
X139414285Y-53090000D01*
X139509523Y-53185238D01*
X139557142Y-53375714D01*
X139557142Y-53709047D01*
X139509523Y-53899523D01*
X139414285Y-53994761D01*
X139319047Y-54042380D01*
X139128571Y-54042380D01*
X139938095Y-53137619D02*
X139985714Y-53090000D01*
X140080952Y-53042380D01*
X140319047Y-53042380D01*
X140414285Y-53090000D01*
X140461904Y-53137619D01*
X140509523Y-53232857D01*
X140509523Y-53328095D01*
X140461904Y-53470952D01*
X139890476Y-54042380D01*
X140509523Y-54042380D01*
X170524761Y-54137619D02*
X170429523Y-54090000D01*
X170334285Y-53994761D01*
X170191428Y-53851904D01*
X170096190Y-53804285D01*
X170000952Y-53804285D01*
X170048571Y-54042380D02*
X169953333Y-53994761D01*
X169858095Y-53899523D01*
X169810476Y-53709047D01*
X169810476Y-53375714D01*
X169858095Y-53185238D01*
X169953333Y-53090000D01*
X170048571Y-53042380D01*
X170239047Y-53042380D01*
X170334285Y-53090000D01*
X170429523Y-53185238D01*
X170477142Y-53375714D01*
X170477142Y-53709047D01*
X170429523Y-53899523D01*
X170334285Y-53994761D01*
X170239047Y-54042380D01*
X170048571Y-54042380D01*
X171429523Y-54042380D02*
X170858095Y-54042380D01*
X171143809Y-54042380D02*
X171143809Y-53042380D01*
X171048571Y-53185238D01*
X170953333Y-53280476D01*
X170858095Y-53328095D01*
X132510476Y-69732380D02*
X132510476Y-70446666D01*
X132462857Y-70589523D01*
X132367619Y-70684761D01*
X132224761Y-70732380D01*
X132129523Y-70732380D01*
X133510476Y-70732380D02*
X132939047Y-70732380D01*
X133224761Y-70732380D02*
X133224761Y-69732380D01*
X133129523Y-69875238D01*
X133034285Y-69970476D01*
X132939047Y-70018095D01*
X134129523Y-69732380D02*
X134224761Y-69732380D01*
X134320000Y-69780000D01*
X134367619Y-69827619D01*
X134415238Y-69922857D01*
X134462857Y-70113333D01*
X134462857Y-70351428D01*
X134415238Y-70541904D01*
X134367619Y-70637142D01*
X134320000Y-70684761D01*
X134224761Y-70732380D01*
X134129523Y-70732380D01*
X134034285Y-70684761D01*
X133986666Y-70637142D01*
X133939047Y-70541904D01*
X133891428Y-70351428D01*
X133891428Y-70113333D01*
X133939047Y-69922857D01*
X133986666Y-69827619D01*
X134034285Y-69780000D01*
X134129523Y-69732380D01*
X92402380Y-55371904D02*
X93211904Y-55371904D01*
X93307142Y-55324285D01*
X93354761Y-55276666D01*
X93402380Y-55181428D01*
X93402380Y-54990952D01*
X93354761Y-54895714D01*
X93307142Y-54848095D01*
X93211904Y-54800476D01*
X92402380Y-54800476D01*
X93402380Y-53800476D02*
X93402380Y-54371904D01*
X93402380Y-54086190D02*
X92402380Y-54086190D01*
X92545238Y-54181428D01*
X92640476Y-54276666D01*
X92688095Y-54371904D01*
X100952380Y-53982857D02*
X100476190Y-54316190D01*
X100952380Y-54554285D02*
X99952380Y-54554285D01*
X99952380Y-54173333D01*
X100000000Y-54078095D01*
X100047619Y-54030476D01*
X100142857Y-53982857D01*
X100285714Y-53982857D01*
X100380952Y-54030476D01*
X100428571Y-54078095D01*
X100476190Y-54173333D01*
X100476190Y-54554285D01*
X100952380Y-53030476D02*
X100952380Y-53601904D01*
X100952380Y-53316190D02*
X99952380Y-53316190D01*
X100095238Y-53411428D01*
X100190476Y-53506666D01*
X100238095Y-53601904D01*
X100952380Y-52078095D02*
X100952380Y-52649523D01*
X100952380Y-52363809D02*
X99952380Y-52363809D01*
X100095238Y-52459047D01*
X100190476Y-52554285D01*
X100238095Y-52649523D01*
X205097142Y-65052380D02*
X204763809Y-64576190D01*
X204525714Y-65052380D02*
X204525714Y-64052380D01*
X204906666Y-64052380D01*
X205001904Y-64100000D01*
X205049523Y-64147619D01*
X205097142Y-64242857D01*
X205097142Y-64385714D01*
X205049523Y-64480952D01*
X205001904Y-64528571D01*
X204906666Y-64576190D01*
X204525714Y-64576190D01*
X206049523Y-65052380D02*
X205478095Y-65052380D01*
X205763809Y-65052380D02*
X205763809Y-64052380D01*
X205668571Y-64195238D01*
X205573333Y-64290476D01*
X205478095Y-64338095D01*
X206668571Y-64052380D02*
X206763809Y-64052380D01*
X206859047Y-64100000D01*
X206906666Y-64147619D01*
X206954285Y-64242857D01*
X207001904Y-64433333D01*
X207001904Y-64671428D01*
X206954285Y-64861904D01*
X206906666Y-64957142D01*
X206859047Y-65004761D01*
X206763809Y-65052380D01*
X206668571Y-65052380D01*
X206573333Y-65004761D01*
X206525714Y-64957142D01*
X206478095Y-64861904D01*
X206430476Y-64671428D01*
X206430476Y-64433333D01*
X206478095Y-64242857D01*
X206525714Y-64147619D01*
X206573333Y-64100000D01*
X206668571Y-64052380D01*
X159853333Y-65052380D02*
X159520000Y-64576190D01*
X159281904Y-65052380D02*
X159281904Y-64052380D01*
X159662857Y-64052380D01*
X159758095Y-64100000D01*
X159805714Y-64147619D01*
X159853333Y-64242857D01*
X159853333Y-64385714D01*
X159805714Y-64480952D01*
X159758095Y-64528571D01*
X159662857Y-64576190D01*
X159281904Y-64576190D01*
X160329523Y-65052380D02*
X160520000Y-65052380D01*
X160615238Y-65004761D01*
X160662857Y-64957142D01*
X160758095Y-64814285D01*
X160805714Y-64623809D01*
X160805714Y-64242857D01*
X160758095Y-64147619D01*
X160710476Y-64100000D01*
X160615238Y-64052380D01*
X160424761Y-64052380D01*
X160329523Y-64100000D01*
X160281904Y-64147619D01*
X160234285Y-64242857D01*
X160234285Y-64480952D01*
X160281904Y-64576190D01*
X160329523Y-64623809D01*
X160424761Y-64671428D01*
X160615238Y-64671428D01*
X160710476Y-64623809D01*
X160758095Y-64576190D01*
X160805714Y-64480952D01*
X190333333Y-65392380D02*
X190000000Y-64916190D01*
X189761904Y-65392380D02*
X189761904Y-64392380D01*
X190142857Y-64392380D01*
X190238095Y-64440000D01*
X190285714Y-64487619D01*
X190333333Y-64582857D01*
X190333333Y-64725714D01*
X190285714Y-64820952D01*
X190238095Y-64868571D01*
X190142857Y-64916190D01*
X189761904Y-64916190D01*
X190904761Y-64820952D02*
X190809523Y-64773333D01*
X190761904Y-64725714D01*
X190714285Y-64630476D01*
X190714285Y-64582857D01*
X190761904Y-64487619D01*
X190809523Y-64440000D01*
X190904761Y-64392380D01*
X191095238Y-64392380D01*
X191190476Y-64440000D01*
X191238095Y-64487619D01*
X191285714Y-64582857D01*
X191285714Y-64630476D01*
X191238095Y-64725714D01*
X191190476Y-64773333D01*
X191095238Y-64820952D01*
X190904761Y-64820952D01*
X190809523Y-64868571D01*
X190761904Y-64916190D01*
X190714285Y-65011428D01*
X190714285Y-65201904D01*
X190761904Y-65297142D01*
X190809523Y-65344761D01*
X190904761Y-65392380D01*
X191095238Y-65392380D01*
X191190476Y-65344761D01*
X191238095Y-65297142D01*
X191285714Y-65201904D01*
X191285714Y-65011428D01*
X191238095Y-64916190D01*
X191190476Y-64868571D01*
X191095238Y-64820952D01*
X148423333Y-65392380D02*
X148090000Y-64916190D01*
X147851904Y-65392380D02*
X147851904Y-64392380D01*
X148232857Y-64392380D01*
X148328095Y-64440000D01*
X148375714Y-64487619D01*
X148423333Y-64582857D01*
X148423333Y-64725714D01*
X148375714Y-64820952D01*
X148328095Y-64868571D01*
X148232857Y-64916190D01*
X147851904Y-64916190D01*
X148756666Y-64392380D02*
X149423333Y-64392380D01*
X148994761Y-65392380D01*
X190333333Y-65052380D02*
X190000000Y-64576190D01*
X189761904Y-65052380D02*
X189761904Y-64052380D01*
X190142857Y-64052380D01*
X190238095Y-64100000D01*
X190285714Y-64147619D01*
X190333333Y-64242857D01*
X190333333Y-64385714D01*
X190285714Y-64480952D01*
X190238095Y-64528571D01*
X190142857Y-64576190D01*
X189761904Y-64576190D01*
X191190476Y-64052380D02*
X191000000Y-64052380D01*
X190904761Y-64100000D01*
X190857142Y-64147619D01*
X190761904Y-64290476D01*
X190714285Y-64480952D01*
X190714285Y-64861904D01*
X190761904Y-64957142D01*
X190809523Y-65004761D01*
X190904761Y-65052380D01*
X191095238Y-65052380D01*
X191190476Y-65004761D01*
X191238095Y-64957142D01*
X191285714Y-64861904D01*
X191285714Y-64623809D01*
X191238095Y-64528571D01*
X191190476Y-64480952D01*
X191095238Y-64433333D01*
X190904761Y-64433333D01*
X190809523Y-64480952D01*
X190761904Y-64528571D01*
X190714285Y-64623809D01*
X144613333Y-65052380D02*
X144280000Y-64576190D01*
X144041904Y-65052380D02*
X144041904Y-64052380D01*
X144422857Y-64052380D01*
X144518095Y-64100000D01*
X144565714Y-64147619D01*
X144613333Y-64242857D01*
X144613333Y-64385714D01*
X144565714Y-64480952D01*
X144518095Y-64528571D01*
X144422857Y-64576190D01*
X144041904Y-64576190D01*
X145518095Y-64052380D02*
X145041904Y-64052380D01*
X144994285Y-64528571D01*
X145041904Y-64480952D01*
X145137142Y-64433333D01*
X145375238Y-64433333D01*
X145470476Y-64480952D01*
X145518095Y-64528571D01*
X145565714Y-64623809D01*
X145565714Y-64861904D01*
X145518095Y-64957142D01*
X145470476Y-65004761D01*
X145375238Y-65052380D01*
X145137142Y-65052380D01*
X145041904Y-65004761D01*
X144994285Y-64957142D01*
X176363333Y-65392380D02*
X176030000Y-64916190D01*
X175791904Y-65392380D02*
X175791904Y-64392380D01*
X176172857Y-64392380D01*
X176268095Y-64440000D01*
X176315714Y-64487619D01*
X176363333Y-64582857D01*
X176363333Y-64725714D01*
X176315714Y-64820952D01*
X176268095Y-64868571D01*
X176172857Y-64916190D01*
X175791904Y-64916190D01*
X177220476Y-64725714D02*
X177220476Y-65392380D01*
X176982380Y-64344761D02*
X176744285Y-65059047D01*
X177363333Y-65059047D01*
X134453333Y-65392380D02*
X134120000Y-64916190D01*
X133881904Y-65392380D02*
X133881904Y-64392380D01*
X134262857Y-64392380D01*
X134358095Y-64440000D01*
X134405714Y-64487619D01*
X134453333Y-64582857D01*
X134453333Y-64725714D01*
X134405714Y-64820952D01*
X134358095Y-64868571D01*
X134262857Y-64916190D01*
X133881904Y-64916190D01*
X134786666Y-64392380D02*
X135405714Y-64392380D01*
X135072380Y-64773333D01*
X135215238Y-64773333D01*
X135310476Y-64820952D01*
X135358095Y-64868571D01*
X135405714Y-64963809D01*
X135405714Y-65201904D01*
X135358095Y-65297142D01*
X135310476Y-65344761D01*
X135215238Y-65392380D01*
X134929523Y-65392380D01*
X134834285Y-65344761D01*
X134786666Y-65297142D01*
X175093333Y-65052380D02*
X174760000Y-64576190D01*
X174521904Y-65052380D02*
X174521904Y-64052380D01*
X174902857Y-64052380D01*
X174998095Y-64100000D01*
X175045714Y-64147619D01*
X175093333Y-64242857D01*
X175093333Y-64385714D01*
X175045714Y-64480952D01*
X174998095Y-64528571D01*
X174902857Y-64576190D01*
X174521904Y-64576190D01*
X175474285Y-64147619D02*
X175521904Y-64100000D01*
X175617142Y-64052380D01*
X175855238Y-64052380D01*
X175950476Y-64100000D01*
X175998095Y-64147619D01*
X176045714Y-64242857D01*
X176045714Y-64338095D01*
X175998095Y-64480952D01*
X175426666Y-65052380D01*
X176045714Y-65052380D01*
X162393333Y-65392380D02*
X162060000Y-64916190D01*
X161821904Y-65392380D02*
X161821904Y-64392380D01*
X162202857Y-64392380D01*
X162298095Y-64440000D01*
X162345714Y-64487619D01*
X162393333Y-64582857D01*
X162393333Y-64725714D01*
X162345714Y-64820952D01*
X162298095Y-64868571D01*
X162202857Y-64916190D01*
X161821904Y-64916190D01*
X163345714Y-65392380D02*
X162774285Y-65392380D01*
X163060000Y-65392380D02*
X163060000Y-64392380D01*
X162964761Y-64535238D01*
X162869523Y-64630476D01*
X162774285Y-64678095D01*
X204106666Y-69732380D02*
X204106666Y-70446666D01*
X204059047Y-70589523D01*
X203963809Y-70684761D01*
X203820952Y-70732380D01*
X203725714Y-70732380D01*
X204630476Y-70732380D02*
X204820952Y-70732380D01*
X204916190Y-70684761D01*
X204963809Y-70637142D01*
X205059047Y-70494285D01*
X205106666Y-70303809D01*
X205106666Y-69922857D01*
X205059047Y-69827619D01*
X205011428Y-69780000D01*
X204916190Y-69732380D01*
X204725714Y-69732380D01*
X204630476Y-69780000D01*
X204582857Y-69827619D01*
X204535238Y-69922857D01*
X204535238Y-70160952D01*
X204582857Y-70256190D01*
X204630476Y-70303809D01*
X204725714Y-70351428D01*
X204916190Y-70351428D01*
X205011428Y-70303809D01*
X205059047Y-70256190D01*
X205106666Y-70160952D01*
X187596666Y-69732380D02*
X187596666Y-70446666D01*
X187549047Y-70589523D01*
X187453809Y-70684761D01*
X187310952Y-70732380D01*
X187215714Y-70732380D01*
X188215714Y-70160952D02*
X188120476Y-70113333D01*
X188072857Y-70065714D01*
X188025238Y-69970476D01*
X188025238Y-69922857D01*
X188072857Y-69827619D01*
X188120476Y-69780000D01*
X188215714Y-69732380D01*
X188406190Y-69732380D01*
X188501428Y-69780000D01*
X188549047Y-69827619D01*
X188596666Y-69922857D01*
X188596666Y-69970476D01*
X188549047Y-70065714D01*
X188501428Y-70113333D01*
X188406190Y-70160952D01*
X188215714Y-70160952D01*
X188120476Y-70208571D01*
X188072857Y-70256190D01*
X188025238Y-70351428D01*
X188025238Y-70541904D01*
X188072857Y-70637142D01*
X188120476Y-70684761D01*
X188215714Y-70732380D01*
X188406190Y-70732380D01*
X188501428Y-70684761D01*
X188549047Y-70637142D01*
X188596666Y-70541904D01*
X188596666Y-70351428D01*
X188549047Y-70256190D01*
X188501428Y-70208571D01*
X188406190Y-70160952D01*
X204106666Y-35442380D02*
X204106666Y-36156666D01*
X204059047Y-36299523D01*
X203963809Y-36394761D01*
X203820952Y-36442380D01*
X203725714Y-36442380D01*
X204487619Y-35442380D02*
X205154285Y-35442380D01*
X204725714Y-36442380D01*
X154576666Y-35442380D02*
X154576666Y-36156666D01*
X154529047Y-36299523D01*
X154433809Y-36394761D01*
X154290952Y-36442380D01*
X154195714Y-36442380D01*
X155481428Y-35442380D02*
X155290952Y-35442380D01*
X155195714Y-35490000D01*
X155148095Y-35537619D01*
X155052857Y-35680476D01*
X155005238Y-35870952D01*
X155005238Y-36251904D01*
X155052857Y-36347142D01*
X155100476Y-36394761D01*
X155195714Y-36442380D01*
X155386190Y-36442380D01*
X155481428Y-36394761D01*
X155529047Y-36347142D01*
X155576666Y-36251904D01*
X155576666Y-36013809D01*
X155529047Y-35918571D01*
X155481428Y-35870952D01*
X155386190Y-35823333D01*
X155195714Y-35823333D01*
X155100476Y-35870952D01*
X155052857Y-35918571D01*
X155005238Y-36013809D01*
X171086666Y-69732380D02*
X171086666Y-70446666D01*
X171039047Y-70589523D01*
X170943809Y-70684761D01*
X170800952Y-70732380D01*
X170705714Y-70732380D01*
X172039047Y-69732380D02*
X171562857Y-69732380D01*
X171515238Y-70208571D01*
X171562857Y-70160952D01*
X171658095Y-70113333D01*
X171896190Y-70113333D01*
X171991428Y-70160952D01*
X172039047Y-70208571D01*
X172086666Y-70303809D01*
X172086666Y-70541904D01*
X172039047Y-70637142D01*
X171991428Y-70684761D01*
X171896190Y-70732380D01*
X171658095Y-70732380D01*
X171562857Y-70684761D01*
X171515238Y-70637142D01*
X154576666Y-69732380D02*
X154576666Y-70446666D01*
X154529047Y-70589523D01*
X154433809Y-70684761D01*
X154290952Y-70732380D01*
X154195714Y-70732380D01*
X155481428Y-70065714D02*
X155481428Y-70732380D01*
X155243333Y-69684761D02*
X155005238Y-70399047D01*
X155624285Y-70399047D01*
X187596666Y-35442380D02*
X187596666Y-36156666D01*
X187549047Y-36299523D01*
X187453809Y-36394761D01*
X187310952Y-36442380D01*
X187215714Y-36442380D01*
X187977619Y-35442380D02*
X188596666Y-35442380D01*
X188263333Y-35823333D01*
X188406190Y-35823333D01*
X188501428Y-35870952D01*
X188549047Y-35918571D01*
X188596666Y-36013809D01*
X188596666Y-36251904D01*
X188549047Y-36347142D01*
X188501428Y-36394761D01*
X188406190Y-36442380D01*
X188120476Y-36442380D01*
X188025238Y-36394761D01*
X187977619Y-36347142D01*
X138066666Y-35442380D02*
X138066666Y-36156666D01*
X138019047Y-36299523D01*
X137923809Y-36394761D01*
X137780952Y-36442380D01*
X137685714Y-36442380D01*
X138495238Y-35537619D02*
X138542857Y-35490000D01*
X138638095Y-35442380D01*
X138876190Y-35442380D01*
X138971428Y-35490000D01*
X139019047Y-35537619D01*
X139066666Y-35632857D01*
X139066666Y-35728095D01*
X139019047Y-35870952D01*
X138447619Y-36442380D01*
X139066666Y-36442380D01*
X171086666Y-35442380D02*
X171086666Y-36156666D01*
X171039047Y-36299523D01*
X170943809Y-36394761D01*
X170800952Y-36442380D01*
X170705714Y-36442380D01*
X172086666Y-36442380D02*
X171515238Y-36442380D01*
X171800952Y-36442380D02*
X171800952Y-35442380D01*
X171705714Y-35585238D01*
X171610476Y-35680476D01*
X171515238Y-35728095D01*
X207042380Y-57094285D02*
X206042380Y-57094285D01*
X206042380Y-56856190D01*
X206090000Y-56713333D01*
X206185238Y-56618095D01*
X206280476Y-56570476D01*
X206470952Y-56522857D01*
X206613809Y-56522857D01*
X206804285Y-56570476D01*
X206899523Y-56618095D01*
X206994761Y-56713333D01*
X207042380Y-56856190D01*
X207042380Y-57094285D01*
X207042380Y-55570476D02*
X207042380Y-56141904D01*
X207042380Y-55856190D02*
X206042380Y-55856190D01*
X206185238Y-55951428D01*
X206280476Y-56046666D01*
X206328095Y-56141904D01*
X206042380Y-54951428D02*
X206042380Y-54856190D01*
X206090000Y-54760952D01*
X206137619Y-54713333D01*
X206232857Y-54665714D01*
X206423333Y-54618095D01*
X206661428Y-54618095D01*
X206851904Y-54665714D01*
X206947142Y-54713333D01*
X206994761Y-54760952D01*
X207042380Y-54856190D01*
X207042380Y-54951428D01*
X206994761Y-55046666D01*
X206947142Y-55094285D01*
X206851904Y-55141904D01*
X206661428Y-55189523D01*
X206423333Y-55189523D01*
X206232857Y-55141904D01*
X206137619Y-55094285D01*
X206090000Y-55046666D01*
X206042380Y-54951428D01*
X160052380Y-56618095D02*
X159052380Y-56618095D01*
X159052380Y-56380000D01*
X159100000Y-56237142D01*
X159195238Y-56141904D01*
X159290476Y-56094285D01*
X159480952Y-56046666D01*
X159623809Y-56046666D01*
X159814285Y-56094285D01*
X159909523Y-56141904D01*
X160004761Y-56237142D01*
X160052380Y-56380000D01*
X160052380Y-56618095D01*
X160052380Y-55570476D02*
X160052380Y-55380000D01*
X160004761Y-55284761D01*
X159957142Y-55237142D01*
X159814285Y-55141904D01*
X159623809Y-55094285D01*
X159242857Y-55094285D01*
X159147619Y-55141904D01*
X159100000Y-55189523D01*
X159052380Y-55284761D01*
X159052380Y-55475238D01*
X159100000Y-55570476D01*
X159147619Y-55618095D01*
X159242857Y-55665714D01*
X159480952Y-55665714D01*
X159576190Y-55618095D01*
X159623809Y-55570476D01*
X159671428Y-55475238D01*
X159671428Y-55284761D01*
X159623809Y-55189523D01*
X159576190Y-55141904D01*
X159480952Y-55094285D01*
X205001904Y-49132380D02*
X205001904Y-48132380D01*
X205240000Y-48132380D01*
X205382857Y-48180000D01*
X205478095Y-48275238D01*
X205525714Y-48370476D01*
X205573333Y-48560952D01*
X205573333Y-48703809D01*
X205525714Y-48894285D01*
X205478095Y-48989523D01*
X205382857Y-49084761D01*
X205240000Y-49132380D01*
X205001904Y-49132380D01*
X206144761Y-48560952D02*
X206049523Y-48513333D01*
X206001904Y-48465714D01*
X205954285Y-48370476D01*
X205954285Y-48322857D01*
X206001904Y-48227619D01*
X206049523Y-48180000D01*
X206144761Y-48132380D01*
X206335238Y-48132380D01*
X206430476Y-48180000D01*
X206478095Y-48227619D01*
X206525714Y-48322857D01*
X206525714Y-48370476D01*
X206478095Y-48465714D01*
X206430476Y-48513333D01*
X206335238Y-48560952D01*
X206144761Y-48560952D01*
X206049523Y-48608571D01*
X206001904Y-48656190D01*
X205954285Y-48751428D01*
X205954285Y-48941904D01*
X206001904Y-49037142D01*
X206049523Y-49084761D01*
X206144761Y-49132380D01*
X206335238Y-49132380D01*
X206430476Y-49084761D01*
X206478095Y-49037142D01*
X206525714Y-48941904D01*
X206525714Y-48751428D01*
X206478095Y-48656190D01*
X206430476Y-48608571D01*
X206335238Y-48560952D01*
X200398095Y-49452380D02*
X200398095Y-48452380D01*
X200969523Y-49452380D02*
X200540952Y-48880952D01*
X200969523Y-48452380D02*
X200398095Y-49023809D01*
X159281904Y-49132380D02*
X159281904Y-48132380D01*
X159520000Y-48132380D01*
X159662857Y-48180000D01*
X159758095Y-48275238D01*
X159805714Y-48370476D01*
X159853333Y-48560952D01*
X159853333Y-48703809D01*
X159805714Y-48894285D01*
X159758095Y-48989523D01*
X159662857Y-49084761D01*
X159520000Y-49132380D01*
X159281904Y-49132380D01*
X160186666Y-48132380D02*
X160853333Y-48132380D01*
X160424761Y-49132380D01*
X154678095Y-49452380D02*
X154678095Y-48452380D01*
X155249523Y-49452380D02*
X154820952Y-48880952D01*
X155249523Y-48452380D02*
X154678095Y-49023809D01*
X190532380Y-56618095D02*
X189532380Y-56618095D01*
X189532380Y-56380000D01*
X189580000Y-56237142D01*
X189675238Y-56141904D01*
X189770476Y-56094285D01*
X189960952Y-56046666D01*
X190103809Y-56046666D01*
X190294285Y-56094285D01*
X190389523Y-56141904D01*
X190484761Y-56237142D01*
X190532380Y-56380000D01*
X190532380Y-56618095D01*
X189532380Y-55189523D02*
X189532380Y-55380000D01*
X189580000Y-55475238D01*
X189627619Y-55522857D01*
X189770476Y-55618095D01*
X189960952Y-55665714D01*
X190341904Y-55665714D01*
X190437142Y-55618095D01*
X190484761Y-55570476D01*
X190532380Y-55475238D01*
X190532380Y-55284761D01*
X190484761Y-55189523D01*
X190437142Y-55141904D01*
X190341904Y-55094285D01*
X190103809Y-55094285D01*
X190008571Y-55141904D01*
X189960952Y-55189523D01*
X189913333Y-55284761D01*
X189913333Y-55475238D01*
X189960952Y-55570476D01*
X190008571Y-55618095D01*
X190103809Y-55665714D01*
X144812380Y-56618095D02*
X143812380Y-56618095D01*
X143812380Y-56380000D01*
X143860000Y-56237142D01*
X143955238Y-56141904D01*
X144050476Y-56094285D01*
X144240952Y-56046666D01*
X144383809Y-56046666D01*
X144574285Y-56094285D01*
X144669523Y-56141904D01*
X144764761Y-56237142D01*
X144812380Y-56380000D01*
X144812380Y-56618095D01*
X143812380Y-55141904D02*
X143812380Y-55618095D01*
X144288571Y-55665714D01*
X144240952Y-55618095D01*
X144193333Y-55522857D01*
X144193333Y-55284761D01*
X144240952Y-55189523D01*
X144288571Y-55141904D01*
X144383809Y-55094285D01*
X144621904Y-55094285D01*
X144717142Y-55141904D01*
X144764761Y-55189523D01*
X144812380Y-55284761D01*
X144812380Y-55522857D01*
X144764761Y-55618095D01*
X144717142Y-55665714D01*
X189761904Y-49132380D02*
X189761904Y-48132380D01*
X190000000Y-48132380D01*
X190142857Y-48180000D01*
X190238095Y-48275238D01*
X190285714Y-48370476D01*
X190333333Y-48560952D01*
X190333333Y-48703809D01*
X190285714Y-48894285D01*
X190238095Y-48989523D01*
X190142857Y-49084761D01*
X190000000Y-49132380D01*
X189761904Y-49132380D01*
X191190476Y-48465714D02*
X191190476Y-49132380D01*
X190952380Y-48084761D02*
X190714285Y-48799047D01*
X191333333Y-48799047D01*
X185158095Y-49452380D02*
X185158095Y-48452380D01*
X185729523Y-49452380D02*
X185300952Y-48880952D01*
X185729523Y-48452380D02*
X185158095Y-49023809D01*
X144041904Y-49132380D02*
X144041904Y-48132380D01*
X144280000Y-48132380D01*
X144422857Y-48180000D01*
X144518095Y-48275238D01*
X144565714Y-48370476D01*
X144613333Y-48560952D01*
X144613333Y-48703809D01*
X144565714Y-48894285D01*
X144518095Y-48989523D01*
X144422857Y-49084761D01*
X144280000Y-49132380D01*
X144041904Y-49132380D01*
X144946666Y-48132380D02*
X145565714Y-48132380D01*
X145232380Y-48513333D01*
X145375238Y-48513333D01*
X145470476Y-48560952D01*
X145518095Y-48608571D01*
X145565714Y-48703809D01*
X145565714Y-48941904D01*
X145518095Y-49037142D01*
X145470476Y-49084761D01*
X145375238Y-49132380D01*
X145089523Y-49132380D01*
X144994285Y-49084761D01*
X144946666Y-49037142D01*
X139438095Y-49452380D02*
X139438095Y-48452380D01*
X140009523Y-49452380D02*
X139580952Y-48880952D01*
X140009523Y-48452380D02*
X139438095Y-49023809D01*
X175292380Y-56618095D02*
X174292380Y-56618095D01*
X174292380Y-56380000D01*
X174340000Y-56237142D01*
X174435238Y-56141904D01*
X174530476Y-56094285D01*
X174720952Y-56046666D01*
X174863809Y-56046666D01*
X175054285Y-56094285D01*
X175149523Y-56141904D01*
X175244761Y-56237142D01*
X175292380Y-56380000D01*
X175292380Y-56618095D01*
X174387619Y-55665714D02*
X174340000Y-55618095D01*
X174292380Y-55522857D01*
X174292380Y-55284761D01*
X174340000Y-55189523D01*
X174387619Y-55141904D01*
X174482857Y-55094285D01*
X174578095Y-55094285D01*
X174720952Y-55141904D01*
X175292380Y-55713333D01*
X175292380Y-55094285D01*
X174521904Y-49132380D02*
X174521904Y-48132380D01*
X174760000Y-48132380D01*
X174902857Y-48180000D01*
X174998095Y-48275238D01*
X175045714Y-48370476D01*
X175093333Y-48560952D01*
X175093333Y-48703809D01*
X175045714Y-48894285D01*
X174998095Y-48989523D01*
X174902857Y-49084761D01*
X174760000Y-49132380D01*
X174521904Y-49132380D01*
X176045714Y-49132380D02*
X175474285Y-49132380D01*
X175760000Y-49132380D02*
X175760000Y-48132380D01*
X175664761Y-48275238D01*
X175569523Y-48370476D01*
X175474285Y-48418095D01*
X169918095Y-49452380D02*
X169918095Y-48452380D01*
X170489523Y-49452380D02*
X170060952Y-48880952D01*
X170489523Y-48452380D02*
X169918095Y-49023809D01*
M02*
