G04 #@! TF.GenerationSoftware,KiCad,Pcbnew,(5.1.2)-2*
G04 #@! TF.CreationDate,2019-11-25T02:53:00-05:00*
G04 #@! TF.ProjectId,esp82single,65737038-3273-4696-9e67-6c652e6b6963,rev?*
G04 #@! TF.SameCoordinates,Original*
G04 #@! TF.FileFunction,Soldermask,Bot*
G04 #@! TF.FilePolarity,Negative*
%FSLAX46Y46*%
G04 Gerber Fmt 4.6, Leading zero omitted, Abs format (unit mm)*
G04 Created by KiCad (PCBNEW (5.1.2)-2) date 2019-11-25 02:53:00*
%MOMM*%
%LPD*%
G04 APERTURE LIST*
%ADD10C,0.100000*%
G04 APERTURE END LIST*
D10*
G36*
X130441000Y-94881000D02*
G01*
X128639000Y-94881000D01*
X128639000Y-93079000D01*
X130441000Y-93079000D01*
X130441000Y-94881000D01*
X130441000Y-94881000D01*
G37*
G36*
X136123642Y-85589781D02*
G01*
X136226728Y-85632481D01*
X136269416Y-85650163D01*
X136400608Y-85737822D01*
X136512178Y-85849392D01*
X136573388Y-85941000D01*
X136599838Y-85980586D01*
X136660219Y-86126358D01*
X136691000Y-86281107D01*
X136691000Y-86438893D01*
X136660219Y-86593642D01*
X136599838Y-86739414D01*
X136599837Y-86739416D01*
X136512178Y-86870608D01*
X136400608Y-86982178D01*
X136269416Y-87069837D01*
X136269415Y-87069838D01*
X136269414Y-87069838D01*
X136123642Y-87130219D01*
X135968893Y-87161000D01*
X135811107Y-87161000D01*
X135656358Y-87130219D01*
X135510586Y-87069838D01*
X135510585Y-87069838D01*
X135510584Y-87069837D01*
X135379392Y-86982178D01*
X135267822Y-86870608D01*
X135180163Y-86739416D01*
X135180162Y-86739414D01*
X135119781Y-86593642D01*
X135089000Y-86438893D01*
X135089000Y-86281107D01*
X135119781Y-86126358D01*
X135180162Y-85980586D01*
X135206612Y-85941000D01*
X135267822Y-85849392D01*
X135379392Y-85737822D01*
X135510584Y-85650163D01*
X135553272Y-85632481D01*
X135656358Y-85589781D01*
X135811107Y-85559000D01*
X135968893Y-85559000D01*
X136123642Y-85589781D01*
X136123642Y-85589781D01*
G37*
G36*
X134151000Y-87161000D02*
G01*
X132549000Y-87161000D01*
X132549000Y-85559000D01*
X134151000Y-85559000D01*
X134151000Y-87161000D01*
X134151000Y-87161000D01*
G37*
G36*
X138663642Y-85589781D02*
G01*
X138766728Y-85632481D01*
X138809416Y-85650163D01*
X138940608Y-85737822D01*
X139052178Y-85849392D01*
X139113388Y-85941000D01*
X139139838Y-85980586D01*
X139200219Y-86126358D01*
X139231000Y-86281107D01*
X139231000Y-86438893D01*
X139200219Y-86593642D01*
X139139838Y-86739414D01*
X139139837Y-86739416D01*
X139052178Y-86870608D01*
X138940608Y-86982178D01*
X138809416Y-87069837D01*
X138809415Y-87069838D01*
X138809414Y-87069838D01*
X138663642Y-87130219D01*
X138508893Y-87161000D01*
X138351107Y-87161000D01*
X138196358Y-87130219D01*
X138050586Y-87069838D01*
X138050585Y-87069838D01*
X138050584Y-87069837D01*
X137919392Y-86982178D01*
X137807822Y-86870608D01*
X137720163Y-86739416D01*
X137720162Y-86739414D01*
X137659781Y-86593642D01*
X137629000Y-86438893D01*
X137629000Y-86281107D01*
X137659781Y-86126358D01*
X137720162Y-85980586D01*
X137746612Y-85941000D01*
X137807822Y-85849392D01*
X137919392Y-85737822D01*
X138050584Y-85650163D01*
X138093272Y-85632481D01*
X138196358Y-85589781D01*
X138351107Y-85559000D01*
X138508893Y-85559000D01*
X138663642Y-85589781D01*
X138663642Y-85589781D01*
G37*
G36*
X145028228Y-84271703D02*
G01*
X145183100Y-84335853D01*
X145322481Y-84428985D01*
X145441015Y-84547519D01*
X145534147Y-84686900D01*
X145598297Y-84841772D01*
X145631000Y-85006184D01*
X145631000Y-85173816D01*
X145598297Y-85338228D01*
X145534147Y-85493100D01*
X145441015Y-85632481D01*
X145322481Y-85751015D01*
X145183100Y-85844147D01*
X145028228Y-85908297D01*
X144863816Y-85941000D01*
X144696184Y-85941000D01*
X144531772Y-85908297D01*
X144376900Y-85844147D01*
X144237519Y-85751015D01*
X144118985Y-85632481D01*
X144025853Y-85493100D01*
X143961703Y-85338228D01*
X143929000Y-85173816D01*
X143929000Y-85006184D01*
X143961703Y-84841772D01*
X144025853Y-84686900D01*
X144118985Y-84547519D01*
X144237519Y-84428985D01*
X144376900Y-84335853D01*
X144531772Y-84271703D01*
X144696184Y-84239000D01*
X144863816Y-84239000D01*
X145028228Y-84271703D01*
X145028228Y-84271703D01*
G37*
G36*
X141218228Y-84271703D02*
G01*
X141373100Y-84335853D01*
X141512481Y-84428985D01*
X141631015Y-84547519D01*
X141724147Y-84686900D01*
X141788297Y-84841772D01*
X141821000Y-85006184D01*
X141821000Y-85173816D01*
X141788297Y-85338228D01*
X141724147Y-85493100D01*
X141631015Y-85632481D01*
X141512481Y-85751015D01*
X141373100Y-85844147D01*
X141218228Y-85908297D01*
X141053816Y-85941000D01*
X140886184Y-85941000D01*
X140721772Y-85908297D01*
X140566900Y-85844147D01*
X140427519Y-85751015D01*
X140308985Y-85632481D01*
X140215853Y-85493100D01*
X140151703Y-85338228D01*
X140119000Y-85173816D01*
X140119000Y-85006184D01*
X140151703Y-84841772D01*
X140215853Y-84686900D01*
X140308985Y-84547519D01*
X140427519Y-84428985D01*
X140566900Y-84335853D01*
X140721772Y-84271703D01*
X140886184Y-84239000D01*
X141053816Y-84239000D01*
X141218228Y-84271703D01*
X141218228Y-84271703D01*
G37*
G36*
X129706823Y-84251313D02*
G01*
X129867242Y-84299976D01*
X129934361Y-84335852D01*
X130015078Y-84378996D01*
X130144659Y-84485341D01*
X130251004Y-84614922D01*
X130251005Y-84614924D01*
X130330024Y-84762758D01*
X130378687Y-84923177D01*
X130395117Y-85090000D01*
X130378687Y-85256823D01*
X130330024Y-85417242D01*
X130289477Y-85493100D01*
X130251004Y-85565078D01*
X130144659Y-85694659D01*
X130015078Y-85801004D01*
X130015076Y-85801005D01*
X129867242Y-85880024D01*
X129706823Y-85928687D01*
X129581804Y-85941000D01*
X129498196Y-85941000D01*
X129373177Y-85928687D01*
X129212758Y-85880024D01*
X129064924Y-85801005D01*
X129064922Y-85801004D01*
X128935341Y-85694659D01*
X128828996Y-85565078D01*
X128790523Y-85493100D01*
X128749976Y-85417242D01*
X128701313Y-85256823D01*
X128684883Y-85090000D01*
X128701313Y-84923177D01*
X128749976Y-84762758D01*
X128828995Y-84614924D01*
X128828996Y-84614922D01*
X128935341Y-84485341D01*
X129064922Y-84378996D01*
X129145639Y-84335852D01*
X129212758Y-84299976D01*
X129373177Y-84251313D01*
X129498196Y-84239000D01*
X129581804Y-84239000D01*
X129706823Y-84251313D01*
X129706823Y-84251313D01*
G37*
G36*
X137393642Y-81779781D02*
G01*
X137539414Y-81840162D01*
X137539416Y-81840163D01*
X137670608Y-81927822D01*
X137782178Y-82039392D01*
X137869837Y-82170584D01*
X137869838Y-82170586D01*
X137930219Y-82316358D01*
X137961000Y-82471107D01*
X137961000Y-82628893D01*
X137930219Y-82783642D01*
X137869838Y-82929414D01*
X137869837Y-82929416D01*
X137782178Y-83060608D01*
X137670608Y-83172178D01*
X137539416Y-83259837D01*
X137539415Y-83259838D01*
X137539414Y-83259838D01*
X137393642Y-83320219D01*
X137238893Y-83351000D01*
X137081107Y-83351000D01*
X136926358Y-83320219D01*
X136780586Y-83259838D01*
X136780585Y-83259838D01*
X136780584Y-83259837D01*
X136649392Y-83172178D01*
X136537822Y-83060608D01*
X136450163Y-82929416D01*
X136450162Y-82929414D01*
X136389781Y-82783642D01*
X136359000Y-82628893D01*
X136359000Y-82471107D01*
X136389781Y-82316358D01*
X136450162Y-82170586D01*
X136450163Y-82170584D01*
X136537822Y-82039392D01*
X136649392Y-81927822D01*
X136780584Y-81840163D01*
X136780586Y-81840162D01*
X136926358Y-81779781D01*
X137081107Y-81749000D01*
X137238893Y-81749000D01*
X137393642Y-81779781D01*
X137393642Y-81779781D01*
G37*
G36*
X137393642Y-79239781D02*
G01*
X137539414Y-79300162D01*
X137539416Y-79300163D01*
X137670608Y-79387822D01*
X137782178Y-79499392D01*
X137869837Y-79630584D01*
X137869838Y-79630586D01*
X137930219Y-79776358D01*
X137961000Y-79931107D01*
X137961000Y-80088893D01*
X137930219Y-80243642D01*
X137869838Y-80389414D01*
X137869837Y-80389416D01*
X137782178Y-80520608D01*
X137670608Y-80632178D01*
X137539416Y-80719837D01*
X137539415Y-80719838D01*
X137539414Y-80719838D01*
X137393642Y-80780219D01*
X137238893Y-80811000D01*
X137081107Y-80811000D01*
X136926358Y-80780219D01*
X136780586Y-80719838D01*
X136780585Y-80719838D01*
X136780584Y-80719837D01*
X136649392Y-80632178D01*
X136537822Y-80520608D01*
X136450163Y-80389416D01*
X136450162Y-80389414D01*
X136389781Y-80243642D01*
X136359000Y-80088893D01*
X136359000Y-79931107D01*
X136389781Y-79776358D01*
X136450162Y-79630586D01*
X136450163Y-79630584D01*
X136537822Y-79499392D01*
X136649392Y-79387822D01*
X136780584Y-79300163D01*
X136780586Y-79300162D01*
X136926358Y-79239781D01*
X137081107Y-79209000D01*
X137238893Y-79209000D01*
X137393642Y-79239781D01*
X137393642Y-79239781D01*
G37*
G36*
X141136823Y-76631313D02*
G01*
X141297242Y-76679976D01*
X141364361Y-76715852D01*
X141445078Y-76758996D01*
X141574659Y-76865341D01*
X141681004Y-76994922D01*
X141681005Y-76994924D01*
X141760024Y-77142758D01*
X141808687Y-77303177D01*
X141825117Y-77470000D01*
X141808687Y-77636823D01*
X141760024Y-77797242D01*
X141719477Y-77873100D01*
X141681004Y-77945078D01*
X141574659Y-78074659D01*
X141445078Y-78181004D01*
X141445076Y-78181005D01*
X141297242Y-78260024D01*
X141136823Y-78308687D01*
X141011804Y-78321000D01*
X140928196Y-78321000D01*
X140803177Y-78308687D01*
X140642758Y-78260024D01*
X140494924Y-78181005D01*
X140494922Y-78181004D01*
X140365341Y-78074659D01*
X140258996Y-77945078D01*
X140220523Y-77873100D01*
X140179976Y-77797242D01*
X140131313Y-77636823D01*
X140114883Y-77470000D01*
X140131313Y-77303177D01*
X140179976Y-77142758D01*
X140258995Y-76994924D01*
X140258996Y-76994922D01*
X140365341Y-76865341D01*
X140494922Y-76758996D01*
X140575639Y-76715852D01*
X140642758Y-76679976D01*
X140803177Y-76631313D01*
X140928196Y-76619000D01*
X141011804Y-76619000D01*
X141136823Y-76631313D01*
X141136823Y-76631313D01*
G37*
G36*
X129788228Y-76651703D02*
G01*
X129943100Y-76715853D01*
X130082481Y-76808985D01*
X130201015Y-76927519D01*
X130294147Y-77066900D01*
X130358297Y-77221772D01*
X130391000Y-77386184D01*
X130391000Y-77553816D01*
X130358297Y-77718228D01*
X130294147Y-77873100D01*
X130201015Y-78012481D01*
X130082481Y-78131015D01*
X129943100Y-78224147D01*
X129788228Y-78288297D01*
X129623816Y-78321000D01*
X129456184Y-78321000D01*
X129291772Y-78288297D01*
X129136900Y-78224147D01*
X128997519Y-78131015D01*
X128878985Y-78012481D01*
X128785853Y-77873100D01*
X128721703Y-77718228D01*
X128689000Y-77553816D01*
X128689000Y-77386184D01*
X128721703Y-77221772D01*
X128785853Y-77066900D01*
X128878985Y-76927519D01*
X128997519Y-76808985D01*
X129136900Y-76715853D01*
X129291772Y-76651703D01*
X129456184Y-76619000D01*
X129623816Y-76619000D01*
X129788228Y-76651703D01*
X129788228Y-76651703D01*
G37*
G36*
X144946823Y-76631313D02*
G01*
X145107242Y-76679976D01*
X145174361Y-76715852D01*
X145255078Y-76758996D01*
X145384659Y-76865341D01*
X145491004Y-76994922D01*
X145491005Y-76994924D01*
X145570024Y-77142758D01*
X145618687Y-77303177D01*
X145635117Y-77470000D01*
X145618687Y-77636823D01*
X145570024Y-77797242D01*
X145529477Y-77873100D01*
X145491004Y-77945078D01*
X145384659Y-78074659D01*
X145255078Y-78181004D01*
X145255076Y-78181005D01*
X145107242Y-78260024D01*
X144946823Y-78308687D01*
X144821804Y-78321000D01*
X144738196Y-78321000D01*
X144613177Y-78308687D01*
X144452758Y-78260024D01*
X144304924Y-78181005D01*
X144304922Y-78181004D01*
X144175341Y-78074659D01*
X144068996Y-77945078D01*
X144030523Y-77873100D01*
X143989976Y-77797242D01*
X143941313Y-77636823D01*
X143924883Y-77470000D01*
X143941313Y-77303177D01*
X143989976Y-77142758D01*
X144068995Y-76994924D01*
X144068996Y-76994922D01*
X144175341Y-76865341D01*
X144304922Y-76758996D01*
X144385639Y-76715852D01*
X144452758Y-76679976D01*
X144613177Y-76631313D01*
X144738196Y-76619000D01*
X144821804Y-76619000D01*
X144946823Y-76631313D01*
X144946823Y-76631313D01*
G37*
G36*
X137961000Y-78271000D02*
G01*
X136359000Y-78271000D01*
X136359000Y-76669000D01*
X137961000Y-76669000D01*
X137961000Y-78271000D01*
X137961000Y-78271000D01*
G37*
G36*
X132981000Y-74561000D02*
G01*
X131179000Y-74561000D01*
X131179000Y-72759000D01*
X132981000Y-72759000D01*
X132981000Y-74561000D01*
X132981000Y-74561000D01*
G37*
G36*
X142350442Y-72765518D02*
G01*
X142416627Y-72772037D01*
X142586466Y-72823557D01*
X142742991Y-72907222D01*
X142778729Y-72936552D01*
X142880186Y-73019814D01*
X142963448Y-73121271D01*
X142992778Y-73157009D01*
X143076443Y-73313534D01*
X143127963Y-73483373D01*
X143145359Y-73660000D01*
X143127963Y-73836627D01*
X143076443Y-74006466D01*
X142992778Y-74162991D01*
X142963448Y-74198729D01*
X142880186Y-74300186D01*
X142778729Y-74383448D01*
X142742991Y-74412778D01*
X142586466Y-74496443D01*
X142416627Y-74547963D01*
X142350442Y-74554482D01*
X142284260Y-74561000D01*
X142195740Y-74561000D01*
X142129558Y-74554482D01*
X142063373Y-74547963D01*
X141893534Y-74496443D01*
X141737009Y-74412778D01*
X141701271Y-74383448D01*
X141599814Y-74300186D01*
X141516552Y-74198729D01*
X141487222Y-74162991D01*
X141403557Y-74006466D01*
X141352037Y-73836627D01*
X141334641Y-73660000D01*
X141352037Y-73483373D01*
X141403557Y-73313534D01*
X141487222Y-73157009D01*
X141516552Y-73121271D01*
X141599814Y-73019814D01*
X141701271Y-72936552D01*
X141737009Y-72907222D01*
X141893534Y-72823557D01*
X142063373Y-72772037D01*
X142129558Y-72765518D01*
X142195740Y-72759000D01*
X142284260Y-72759000D01*
X142350442Y-72765518D01*
X142350442Y-72765518D01*
G37*
G36*
X140601000Y-74561000D02*
G01*
X138799000Y-74561000D01*
X138799000Y-72759000D01*
X140601000Y-72759000D01*
X140601000Y-74561000D01*
X140601000Y-74561000D01*
G37*
G36*
X129650442Y-72765518D02*
G01*
X129716627Y-72772037D01*
X129886466Y-72823557D01*
X130042991Y-72907222D01*
X130078729Y-72936552D01*
X130180186Y-73019814D01*
X130263448Y-73121271D01*
X130292778Y-73157009D01*
X130376443Y-73313534D01*
X130427963Y-73483373D01*
X130445359Y-73660000D01*
X130427963Y-73836627D01*
X130376443Y-74006466D01*
X130292778Y-74162991D01*
X130263448Y-74198729D01*
X130180186Y-74300186D01*
X130078729Y-74383448D01*
X130042991Y-74412778D01*
X129886466Y-74496443D01*
X129716627Y-74547963D01*
X129650442Y-74554482D01*
X129584260Y-74561000D01*
X129495740Y-74561000D01*
X129429558Y-74554482D01*
X129363373Y-74547963D01*
X129193534Y-74496443D01*
X129037009Y-74412778D01*
X129001271Y-74383448D01*
X128899814Y-74300186D01*
X128816552Y-74198729D01*
X128787222Y-74162991D01*
X128703557Y-74006466D01*
X128652037Y-73836627D01*
X128634641Y-73660000D01*
X128652037Y-73483373D01*
X128703557Y-73313534D01*
X128787222Y-73157009D01*
X128816552Y-73121271D01*
X128899814Y-73019814D01*
X129001271Y-72936552D01*
X129037009Y-72907222D01*
X129193534Y-72823557D01*
X129363373Y-72772037D01*
X129429558Y-72765518D01*
X129495740Y-72759000D01*
X129584260Y-72759000D01*
X129650442Y-72765518D01*
X129650442Y-72765518D01*
G37*
G36*
X142350443Y-68955519D02*
G01*
X142416627Y-68962037D01*
X142586466Y-69013557D01*
X142742991Y-69097222D01*
X142778729Y-69126552D01*
X142880186Y-69209814D01*
X142963448Y-69311271D01*
X142992778Y-69347009D01*
X143076443Y-69503534D01*
X143127963Y-69673373D01*
X143145359Y-69850000D01*
X143127963Y-70026627D01*
X143076443Y-70196466D01*
X142992778Y-70352991D01*
X142963448Y-70388729D01*
X142880186Y-70490186D01*
X142778729Y-70573448D01*
X142742991Y-70602778D01*
X142586466Y-70686443D01*
X142416627Y-70737963D01*
X142350443Y-70744481D01*
X142284260Y-70751000D01*
X142195740Y-70751000D01*
X142129557Y-70744481D01*
X142063373Y-70737963D01*
X141893534Y-70686443D01*
X141737009Y-70602778D01*
X141701271Y-70573448D01*
X141599814Y-70490186D01*
X141516552Y-70388729D01*
X141487222Y-70352991D01*
X141403557Y-70196466D01*
X141352037Y-70026627D01*
X141334641Y-69850000D01*
X141352037Y-69673373D01*
X141403557Y-69503534D01*
X141487222Y-69347009D01*
X141516552Y-69311271D01*
X141599814Y-69209814D01*
X141701271Y-69126552D01*
X141737009Y-69097222D01*
X141893534Y-69013557D01*
X142063373Y-68962037D01*
X142129557Y-68955519D01*
X142195740Y-68949000D01*
X142284260Y-68949000D01*
X142350443Y-68955519D01*
X142350443Y-68955519D01*
G37*
G36*
X139810443Y-68955519D02*
G01*
X139876627Y-68962037D01*
X140046466Y-69013557D01*
X140202991Y-69097222D01*
X140238729Y-69126552D01*
X140340186Y-69209814D01*
X140423448Y-69311271D01*
X140452778Y-69347009D01*
X140536443Y-69503534D01*
X140587963Y-69673373D01*
X140605359Y-69850000D01*
X140587963Y-70026627D01*
X140536443Y-70196466D01*
X140452778Y-70352991D01*
X140423448Y-70388729D01*
X140340186Y-70490186D01*
X140238729Y-70573448D01*
X140202991Y-70602778D01*
X140046466Y-70686443D01*
X139876627Y-70737963D01*
X139810443Y-70744481D01*
X139744260Y-70751000D01*
X139655740Y-70751000D01*
X139589557Y-70744481D01*
X139523373Y-70737963D01*
X139353534Y-70686443D01*
X139197009Y-70602778D01*
X139161271Y-70573448D01*
X139059814Y-70490186D01*
X138976552Y-70388729D01*
X138947222Y-70352991D01*
X138863557Y-70196466D01*
X138812037Y-70026627D01*
X138794641Y-69850000D01*
X138812037Y-69673373D01*
X138863557Y-69503534D01*
X138947222Y-69347009D01*
X138976552Y-69311271D01*
X139059814Y-69209814D01*
X139161271Y-69126552D01*
X139197009Y-69097222D01*
X139353534Y-69013557D01*
X139523373Y-68962037D01*
X139589557Y-68955519D01*
X139655740Y-68949000D01*
X139744260Y-68949000D01*
X139810443Y-68955519D01*
X139810443Y-68955519D01*
G37*
G36*
X138061000Y-70751000D02*
G01*
X136259000Y-70751000D01*
X136259000Y-68949000D01*
X138061000Y-68949000D01*
X138061000Y-70751000D01*
X138061000Y-70751000D01*
G37*
M02*
