G04 #@! TF.GenerationSoftware,KiCad,Pcbnew,(5.1.2)-2*
G04 #@! TF.CreationDate,2019-11-25T02:53:00-05:00*
G04 #@! TF.ProjectId,esp82single,65737038-3273-4696-9e67-6c652e6b6963,rev?*
G04 #@! TF.SameCoordinates,Original*
G04 #@! TF.FileFunction,Legend,Bot*
G04 #@! TF.FilePolarity,Positive*
%FSLAX46Y46*%
G04 Gerber Fmt 4.6, Leading zero omitted, Abs format (unit mm)*
G04 Created by KiCad (PCBNEW (5.1.2)-2) date 2019-11-25 02:53:00*
%MOMM*%
%LPD*%
G04 APERTURE LIST*
%ADD10C,0.120000*%
%ADD11C,0.150000*%
G04 APERTURE END LIST*
D10*
X133950000Y-84660000D02*
X137800000Y-84660000D01*
X133567369Y-85237955D02*
G75*
G02X133950000Y-84660000I2322631J-1122045D01*
G01*
X133533600Y-87458807D02*
G75*
G03X135890000Y-88960000I2356400J1098807D01*
G01*
X138246400Y-87458807D02*
G75*
G02X135890000Y-88960000I-2356400J1098807D01*
G01*
X138192383Y-85247736D02*
G75*
G03X137800000Y-84660000I-2302383J-1112264D01*
G01*
X138272264Y-82312383D02*
G75*
G03X138860000Y-81920000I-1112264J2302383D01*
G01*
X136061193Y-82366400D02*
G75*
G02X134560000Y-80010000I1098807J2356400D01*
G01*
X136061193Y-77653600D02*
G75*
G03X134560000Y-80010000I1098807J-2356400D01*
G01*
X138282045Y-77687369D02*
G75*
G02X138860000Y-78070000I-1122045J-2322631D01*
G01*
X138860000Y-78070000D02*
X138860000Y-81920000D01*
D11*
X135985238Y-90467619D02*
X136080476Y-90420000D01*
X136175714Y-90324761D01*
X136318571Y-90181904D01*
X136413809Y-90134285D01*
X136509047Y-90134285D01*
X136461428Y-90372380D02*
X136556666Y-90324761D01*
X136651904Y-90229523D01*
X136699523Y-90039047D01*
X136699523Y-89705714D01*
X136651904Y-89515238D01*
X136556666Y-89420000D01*
X136461428Y-89372380D01*
X136270952Y-89372380D01*
X136175714Y-89420000D01*
X136080476Y-89515238D01*
X136032857Y-89705714D01*
X136032857Y-90039047D01*
X136080476Y-90229523D01*
X136175714Y-90324761D01*
X136270952Y-90372380D01*
X136461428Y-90372380D01*
X135080476Y-90372380D02*
X135651904Y-90372380D01*
X135366190Y-90372380D02*
X135366190Y-89372380D01*
X135461428Y-89515238D01*
X135556666Y-89610476D01*
X135651904Y-89658095D01*
X133052380Y-79248095D02*
X133861904Y-79248095D01*
X133957142Y-79295714D01*
X134004761Y-79343333D01*
X134052380Y-79438571D01*
X134052380Y-79629047D01*
X134004761Y-79724285D01*
X133957142Y-79771904D01*
X133861904Y-79819523D01*
X133052380Y-79819523D01*
X134052380Y-80819523D02*
X134052380Y-80248095D01*
X134052380Y-80533809D02*
X133052380Y-80533809D01*
X133195238Y-80438571D01*
X133290476Y-80343333D01*
X133338095Y-80248095D01*
M02*
