M48
; DRILL file {KiCad (5.1.2)-2} date 11/25/2019 2:53:20 AM
; FORMAT={-:-/ absolute / inch / decimal}
; #@! TF.CreationDate,2019-11-25T02:53:20-05:00
; #@! TF.GenerationSoftware,Kicad,Pcbnew,(5.1.2)-2
; #@! TF.FileFunction,Plated,1,2,PTH
FMAT,2
INCH
T1C0.0315
T2C0.0394
%
G90
G05
T1
X5.7Y-3.05
X5.25Y-3.4
X5.35Y-3.4
X5.45Y-3.4
X5.1Y-3.05
X5.1Y-3.35
X5.55Y-3.05
X5.55Y-3.35
X5.4Y-3.05
X5.4Y-3.15
X5.4Y-3.25
X5.7Y-3.35
T2
X5.1Y-3.7
X5.4Y-2.75
X5.5Y-2.75
X5.6Y-2.75
X5.5Y-2.9
X5.6Y-2.9
X5.1Y-2.9
X5.2Y-2.9
T0
M30
