G04 #@! TF.GenerationSoftware,KiCad,Pcbnew,(5.1.2)-2*
G04 #@! TF.CreationDate,2019-11-25T02:53:00-05:00*
G04 #@! TF.ProjectId,esp82single,65737038-3273-4696-9e67-6c652e6b6963,rev?*
G04 #@! TF.SameCoordinates,Original*
G04 #@! TF.FileFunction,Legend,Top*
G04 #@! TF.FilePolarity,Positive*
%FSLAX46Y46*%
G04 Gerber Fmt 4.6, Leading zero omitted, Abs format (unit mm)*
G04 Created by KiCad (PCBNEW (5.1.2)-2) date 2019-11-25 02:53:00*
%MOMM*%
%LPD*%
G04 APERTURE LIST*
%ADD10C,0.120000*%
%ADD11C,0.150000*%
G04 APERTURE END LIST*
D10*
X143570000Y-74990000D02*
X143570000Y-72330000D01*
X140970000Y-74990000D02*
X143570000Y-74990000D01*
X140970000Y-72330000D02*
X143570000Y-72330000D01*
X140970000Y-74990000D02*
X140970000Y-72330000D01*
X139700000Y-74990000D02*
X138370000Y-74990000D01*
X138370000Y-74990000D02*
X138370000Y-73660000D01*
X138430000Y-71180000D02*
X138430000Y-68520000D01*
X138430000Y-71180000D02*
X143570000Y-71180000D01*
X143570000Y-71180000D02*
X143570000Y-68520000D01*
X138430000Y-68520000D02*
X143570000Y-68520000D01*
X135830000Y-68520000D02*
X137160000Y-68520000D01*
X135830000Y-69850000D02*
X135830000Y-68520000D01*
X133410000Y-72330000D02*
X133410000Y-73660000D01*
X132080000Y-72330000D02*
X133410000Y-72330000D01*
X130810000Y-72330000D02*
X130810000Y-74990000D01*
X130810000Y-74990000D02*
X128210000Y-74990000D01*
X130810000Y-72330000D02*
X128210000Y-72330000D01*
X128210000Y-72330000D02*
X128210000Y-74990000D01*
X128210000Y-95310000D02*
X130870000Y-95310000D01*
X128210000Y-95250000D02*
X128210000Y-95310000D01*
X130870000Y-95250000D02*
X130870000Y-95310000D01*
X128210000Y-95250000D02*
X130870000Y-95250000D01*
X128210000Y-93980000D02*
X128210000Y-92650000D01*
X128210000Y-92650000D02*
X129540000Y-92650000D01*
X146150000Y-78010000D02*
X145820000Y-78010000D01*
X146150000Y-84550000D02*
X146150000Y-78010000D01*
X145820000Y-84550000D02*
X146150000Y-84550000D01*
X143410000Y-78010000D02*
X143740000Y-78010000D01*
X143410000Y-84550000D02*
X143410000Y-78010000D01*
X143740000Y-84550000D02*
X143410000Y-84550000D01*
X130580000Y-78010000D02*
X130910000Y-78010000D01*
X130910000Y-78010000D02*
X130910000Y-84550000D01*
X130910000Y-84550000D02*
X130580000Y-84550000D01*
X128500000Y-78010000D02*
X128170000Y-78010000D01*
X128170000Y-78010000D02*
X128170000Y-84550000D01*
X128170000Y-84550000D02*
X128500000Y-84550000D01*
X139930000Y-84550000D02*
X139600000Y-84550000D01*
X139600000Y-84550000D02*
X139600000Y-78010000D01*
X139600000Y-78010000D02*
X139930000Y-78010000D01*
X142010000Y-84550000D02*
X142340000Y-84550000D01*
X142340000Y-84550000D02*
X142340000Y-78010000D01*
X142340000Y-78010000D02*
X142010000Y-78010000D01*
D11*
X136822380Y-73993333D02*
X137536666Y-73993333D01*
X137679523Y-74040952D01*
X137774761Y-74136190D01*
X137822380Y-74279047D01*
X137822380Y-74374285D01*
X137822380Y-72993333D02*
X137822380Y-73564761D01*
X137822380Y-73279047D02*
X136822380Y-73279047D01*
X136965238Y-73374285D01*
X137060476Y-73469523D01*
X137108095Y-73564761D01*
X133842380Y-70183333D02*
X134556666Y-70183333D01*
X134699523Y-70230952D01*
X134794761Y-70326190D01*
X134842380Y-70469047D01*
X134842380Y-70564285D01*
X133937619Y-69754761D02*
X133890000Y-69707142D01*
X133842380Y-69611904D01*
X133842380Y-69373809D01*
X133890000Y-69278571D01*
X133937619Y-69230952D01*
X134032857Y-69183333D01*
X134128095Y-69183333D01*
X134270952Y-69230952D01*
X134842380Y-69802380D01*
X134842380Y-69183333D01*
X133862380Y-73993333D02*
X134576666Y-73993333D01*
X134719523Y-74040952D01*
X134814761Y-74136190D01*
X134862380Y-74279047D01*
X134862380Y-74374285D01*
X133862380Y-73612380D02*
X133862380Y-72993333D01*
X134243333Y-73326666D01*
X134243333Y-73183809D01*
X134290952Y-73088571D01*
X134338571Y-73040952D01*
X134433809Y-72993333D01*
X134671904Y-72993333D01*
X134767142Y-73040952D01*
X134814761Y-73088571D01*
X134862380Y-73183809D01*
X134862380Y-73469523D01*
X134814761Y-73564761D01*
X134767142Y-73612380D01*
X129206666Y-91102380D02*
X129206666Y-91816666D01*
X129159047Y-91959523D01*
X129063809Y-92054761D01*
X128920952Y-92102380D01*
X128825714Y-92102380D01*
X130111428Y-91435714D02*
X130111428Y-92102380D01*
X129873333Y-91054761D02*
X129635238Y-91769047D01*
X130254285Y-91769047D01*
X145232380Y-87796666D02*
X144756190Y-88130000D01*
X145232380Y-88368095D02*
X144232380Y-88368095D01*
X144232380Y-87987142D01*
X144280000Y-87891904D01*
X144327619Y-87844285D01*
X144422857Y-87796666D01*
X144565714Y-87796666D01*
X144660952Y-87844285D01*
X144708571Y-87891904D01*
X144756190Y-87987142D01*
X144756190Y-88368095D01*
X145232380Y-86844285D02*
X145232380Y-87415714D01*
X145232380Y-87130000D02*
X144232380Y-87130000D01*
X144375238Y-87225238D01*
X144470476Y-87320476D01*
X144518095Y-87415714D01*
X129992380Y-87796666D02*
X129516190Y-88130000D01*
X129992380Y-88368095D02*
X128992380Y-88368095D01*
X128992380Y-87987142D01*
X129040000Y-87891904D01*
X129087619Y-87844285D01*
X129182857Y-87796666D01*
X129325714Y-87796666D01*
X129420952Y-87844285D01*
X129468571Y-87891904D01*
X129516190Y-87987142D01*
X129516190Y-88368095D01*
X129087619Y-87415714D02*
X129040000Y-87368095D01*
X128992380Y-87272857D01*
X128992380Y-87034761D01*
X129040000Y-86939523D01*
X129087619Y-86891904D01*
X129182857Y-86844285D01*
X129278095Y-86844285D01*
X129420952Y-86891904D01*
X129992380Y-87463333D01*
X129992380Y-86844285D01*
X141422380Y-87796666D02*
X140946190Y-88130000D01*
X141422380Y-88368095D02*
X140422380Y-88368095D01*
X140422380Y-87987142D01*
X140470000Y-87891904D01*
X140517619Y-87844285D01*
X140612857Y-87796666D01*
X140755714Y-87796666D01*
X140850952Y-87844285D01*
X140898571Y-87891904D01*
X140946190Y-87987142D01*
X140946190Y-88368095D01*
X140422380Y-87463333D02*
X140422380Y-86844285D01*
X140803333Y-87177619D01*
X140803333Y-87034761D01*
X140850952Y-86939523D01*
X140898571Y-86891904D01*
X140993809Y-86844285D01*
X141231904Y-86844285D01*
X141327142Y-86891904D01*
X141374761Y-86939523D01*
X141422380Y-87034761D01*
X141422380Y-87320476D01*
X141374761Y-87415714D01*
X141327142Y-87463333D01*
M02*
