G04 #@! TF.GenerationSoftware,KiCad,Pcbnew,(5.1.2)-2*
G04 #@! TF.CreationDate,2019-11-25T02:53:00-05:00*
G04 #@! TF.ProjectId,esp82single,65737038-3273-4696-9e67-6c652e6b6963,rev?*
G04 #@! TF.SameCoordinates,Original*
G04 #@! TF.FileFunction,Copper,L1,Top*
G04 #@! TF.FilePolarity,Positive*
%FSLAX46Y46*%
G04 Gerber Fmt 4.6, Leading zero omitted, Abs format (unit mm)*
G04 Created by KiCad (PCBNEW (5.1.2)-2) date 2019-11-25 02:53:00*
%MOMM*%
%LPD*%
G04 APERTURE LIST*
%ADD10R,1.700000X1.700000*%
%ADD11O,1.700000X1.700000*%
%ADD12C,1.500000*%
%ADD13R,1.500000X1.500000*%
%ADD14O,1.600000X1.600000*%
%ADD15C,1.600000*%
%ADD16C,0.250000*%
G04 APERTURE END LIST*
D10*
X139700000Y-73660000D03*
D11*
X142240000Y-73660000D03*
D10*
X137160000Y-69850000D03*
D11*
X139700000Y-69850000D03*
X142240000Y-69850000D03*
X129540000Y-73660000D03*
D10*
X132080000Y-73660000D03*
X129540000Y-93980000D03*
D12*
X135890000Y-86360000D03*
X138430000Y-86360000D03*
D13*
X133350000Y-86360000D03*
D14*
X144780000Y-77470000D03*
D15*
X144780000Y-85090000D03*
X129540000Y-77470000D03*
D14*
X129540000Y-85090000D03*
D15*
X140970000Y-85090000D03*
D14*
X140970000Y-77470000D03*
D13*
X137160000Y-77470000D03*
D12*
X137160000Y-82550000D03*
X137160000Y-80010000D03*
D16*
X142240000Y-73660000D02*
X142240000Y-74835300D01*
X144780000Y-77470000D02*
X144780000Y-76344700D01*
X144780000Y-76344700D02*
X143270600Y-74835300D01*
X143270600Y-74835300D02*
X142240000Y-74835300D01*
X137160000Y-69850000D02*
X137160000Y-71025300D01*
X138430000Y-86360000D02*
X138430000Y-72295300D01*
X138430000Y-72295300D02*
X137160000Y-71025300D01*
X129540000Y-77470000D02*
X129540000Y-73660000D01*
X137160000Y-77470000D02*
X137160000Y-78545300D01*
X133350000Y-86360000D02*
X133350000Y-82220900D01*
X133350000Y-82220900D02*
X137025600Y-78545300D01*
X137025600Y-78545300D02*
X137160000Y-78545300D01*
X129540000Y-93980000D02*
X129540000Y-92804700D01*
X137160000Y-82550000D02*
X134460700Y-85249300D01*
X134460700Y-85249300D02*
X134460700Y-87884000D01*
X134460700Y-87884000D02*
X129540000Y-92804700D01*
M02*
